<svg width="19" height="20" viewBox="0 0 19 20" fill="none" xmlns="http://www.w3.org/2000/svg">
<path fill-rule="evenodd" clip-rule="evenodd" d="M15.4993 5.21802C15.4993 5.81816 15.0109 6.30468 14.4084 6.30468C13.8059 6.30468 13.3174 5.81816 13.3174 5.21802C13.3174 4.61788 13.8059 4.13136 14.4084 4.13136C15.0109 4.13136 15.4993 4.61788 15.4993 5.21802ZM9.55751 13.0701C7.88456 13.0701 6.52832 11.7187 6.52832 10.0516C6.52832 8.38455 7.88456 7.03308 9.55751 7.03308C11.2305 7.03308 12.5867 8.38455 12.5867 10.0516C12.5867 11.7187 11.2305 13.0701 9.55751 13.0701ZM9.55818 5.40177C6.98095 5.40177 4.8916 7.48369 4.8916 10.0519C4.8916 12.6201 6.98095 14.7021 9.55818 14.7021C12.1354 14.7021 14.2248 12.6201 14.2248 10.0519C14.2248 7.48369 12.1354 5.40177 9.55818 5.40177ZM9.55822 0.996094C7.09017 0.996094 6.78077 1.00649 5.81146 1.05057C4.84421 1.09457 4.18359 1.2476 3.60554 1.47151C3.00796 1.70292 2.50119 2.01257 1.99599 2.516C1.49078 3.01936 1.18003 3.52435 0.947798 4.11989C0.723166 4.69591 0.56953 5.35413 0.52537 6.31805C0.48114 7.28387 0.470703 7.59226 0.470703 10.0516C0.470703 12.511 0.48114 12.8193 0.52537 13.7852C0.56953 14.749 0.723166 15.4073 0.947798 15.9833C1.18003 16.5787 1.49078 17.0838 1.99599 17.5872C2.50119 18.0906 3.00796 18.4003 3.60554 18.6317C4.18359 18.8556 4.84421 19.0086 5.81146 19.0526C6.78077 19.0967 7.09017 19.1071 9.55822 19.1071C12.0263 19.1071 12.3358 19.0967 13.305 19.0526C14.2723 19.0086 14.9328 18.8556 15.5109 18.6317C16.1085 18.4003 16.6153 18.0906 17.1205 17.5872C17.6257 17.0838 17.9364 16.5788 18.1687 15.9833C18.3933 15.4073 18.5469 14.749 18.5911 13.7852C18.6353 12.8193 18.6457 12.511 18.6457 10.0516C18.6457 7.59226 18.6353 7.28387 18.5911 6.31805C18.5469 5.35413 18.3933 4.69591 18.1687 4.11989C17.9364 3.52435 17.6257 3.01936 17.1205 2.516C16.6153 2.01257 16.1085 1.70292 15.5109 1.47151C14.9328 1.2476 14.2723 1.09457 13.305 1.05057C12.3358 1.00649 12.0263 0.996094 9.55822 0.996094ZM9.5595 2.62797C11.986 2.62797 12.2734 2.63716 13.2316 2.68074C14.1177 2.72107 14.5988 2.86858 14.9191 2.99252C15.3432 3.1568 15.646 3.35312 15.9639 3.66992C16.282 3.98679 16.4789 4.28852 16.6438 4.71116C16.7682 5.0303 16.9163 5.50981 16.9567 6.39265C17.0004 7.34752 17.0096 7.6339 17.0096 10.0519C17.0096 12.4698 17.0004 12.7561 16.9567 13.711C16.9163 14.594 16.7682 15.0734 16.6438 15.3926C16.4789 15.8152 16.282 16.1169 15.9639 16.4338C15.646 16.7506 15.3432 16.9469 14.9191 17.1111C14.5988 17.2351 14.1177 17.3827 13.2316 17.423C12.2735 17.4665 11.9861 17.4757 9.5595 17.4757C7.13292 17.4757 6.84546 17.4665 5.88736 17.423C5.0014 17.3827 4.52019 17.2351 4.2 17.1111C3.7758 16.9469 3.473 16.7506 3.15501 16.4338C2.83709 16.1169 2.64014 15.8152 2.47529 15.3926C2.35083 15.0734 2.20281 14.594 2.16241 13.7111C2.1186 12.7561 2.10938 12.4698 2.10938 10.0519C2.10938 7.6339 2.1186 7.34752 2.16241 6.39265C2.20281 5.50981 2.35083 5.0303 2.47529 4.71116C2.64014 4.28852 2.83709 3.98679 3.15501 3.66992C3.473 3.35312 3.7758 3.1568 4.2 2.99252C4.52019 2.86858 5.0014 2.72107 5.88736 2.68074C6.8456 2.63716 7.13306 2.62797 9.5595 2.62797Z" fill="#FF4261"/>
</svg>
