<svg width="181" height="39" viewBox="0 0 181 39" fill="none" xmlns="http://www.w3.org/2000/svg">
<g clip-path="url(#clip0_6245_395)">
<path d="M1.2738 1.36574H33.2195V30.5674C33.2195 33.6658 31.064 35.5164 27.4563 35.5164H23.5691C21.0076 35.5164 18.9333 36.2125 17.2557 37.6471C15.5601 36.221 13.4947 35.5164 10.9423 35.5164H7.06408C3.43839 35.5164 1.2738 33.6658 1.2738 30.5674V1.36574ZM0.570312 30.5674C0.570312 34.0308 3.05959 36.1785 7.06408 36.1785H10.9513C13.3955 36.1785 15.3527 36.8576 16.94 38.2583L17.2647 38.5469L17.5894 38.2583C19.1677 36.8576 21.1249 36.1785 23.5781 36.1785H27.4653C31.4518 36.1785 33.9321 34.0308 33.9321 30.5674V0.703613H0.570312V30.5674Z" fill="white"/>
<path d="M7.15427 21.2976C7.37975 21.0089 7.46092 20.6694 7.46994 20.3298C7.48798 19.7186 7.66836 19.1499 7.95697 18.6066C8.09226 18.3434 8.2546 18.0888 8.41695 17.8086C8.35381 17.8426 8.30872 17.8596 8.26362 17.885C8.07422 18.0378 7.88482 18.2076 7.6864 18.3604C7.6413 18.3944 7.57817 18.4198 7.50602 18.4623C7.50602 18.4029 7.48798 18.3689 7.497 18.3434C7.85776 17.6983 8.32676 17.1465 9.03025 16.7985C9.21965 16.7051 9.41807 16.6627 9.62551 16.6711C10.2839 16.7136 10.816 17.0107 11.276 17.4436C11.3391 17.503 11.3842 17.5625 11.3301 17.6474C11.276 17.7407 11.2129 17.7917 11.0956 17.7747C10.8251 17.7492 10.5545 17.7238 10.2839 17.7068C9.56238 17.6558 9.07534 18.0039 8.71458 18.5472C8.43499 18.9631 8.27264 19.413 8.19147 19.8969C8.09226 20.4826 7.79463 20.958 7.31661 21.3485C7.2625 21.3909 7.19937 21.4164 7.14525 21.4504C7.12721 21.4334 7.11819 21.4164 7.10015 21.3994C7.11819 21.3655 7.12721 21.323 7.15427 21.2976ZM12.3854 18.0973C12.7732 17.9275 13.1971 17.8766 13.612 17.8086C13.7923 17.7832 13.8284 17.8256 13.8374 17.9954C13.8555 18.2925 13.8825 18.5811 13.9096 18.8782C13.9817 19.6422 13.6841 20.2959 13.2512 20.9156C12.9806 21.3061 12.674 21.6541 12.2411 21.8918C12.0697 21.9852 11.9254 22.121 11.7721 22.2398C11.7089 22.2908 11.6638 22.3502 11.5736 22.4436C11.9164 22.6133 12.2411 22.5794 12.5477 22.6303C12.6018 22.7322 12.5567 22.7916 12.4665 22.8256C12.2862 22.8935 12.1148 22.9529 11.9344 23.0208C11.6187 23.1227 11.3031 23.2076 10.9964 23.3264C10.3921 23.5641 9.9502 23.9631 9.62551 24.4979C9.54434 24.6252 9.47218 24.7525 9.39101 24.8799C9.34592 24.9478 9.2918 25.0242 9.20161 24.9732C9.15652 24.9478 9.12044 24.8544 9.12044 24.795C9.15652 24.2772 9.40905 23.8867 9.86001 23.5896C10.3561 23.267 10.6717 22.8425 10.7258 22.2653C10.816 21.2976 10.9513 20.3468 11.2039 19.4046C11.3662 18.7934 11.7811 18.3689 12.3854 18.0973ZM12.6199 14.9479C12.0607 14.9055 11.5376 14.7442 11.0235 14.5574C10.4553 14.3452 9.88706 14.3707 9.35494 14.6678C9.3369 14.6763 9.30984 14.6847 9.28278 14.6932C9.17455 14.5914 9.21965 14.498 9.30082 14.4046C9.4812 14.2009 9.7157 14.0736 9.98627 14.0056C10.6537 13.8189 11.3121 13.6236 11.9795 13.4369C12.1148 13.3944 12.2411 13.352 12.3763 13.3011C12.4214 13.2841 12.4665 13.2416 12.5477 13.1907C11.6458 13.0464 10.8341 13.1483 10.0224 13.4454C9.79687 13.0888 9.83295 12.9191 10.1667 12.6814C10.4643 12.4776 10.798 12.4097 11.1497 12.4097C11.6368 12.4097 12.1238 12.4607 12.5928 12.588C13.0167 12.7068 13.4496 12.8342 13.8735 12.953C13.8916 12.953 13.8916 12.9785 13.9186 12.9955C13.8014 13.1228 13.621 13.1313 13.4767 13.2162C13.3324 13.2926 13.179 13.3605 13.0347 13.4284C12.8814 13.5048 12.7191 13.5727 12.5657 13.6491C12.4214 13.717 12.2681 13.7849 12.1148 13.8444C11.9524 13.9038 11.7901 13.9462 11.6368 14.0311C11.7721 14.0905 11.8893 14.0311 12.0246 14.0226C12.1599 14.0056 12.3042 13.9887 12.4395 13.9717C12.5748 13.9547 12.7191 13.9377 12.8544 13.9123C12.9896 13.8868 13.1249 13.8613 13.2692 13.8274C13.1881 14.0481 13.0528 14.1415 12.4485 14.3792C12.4846 14.3961 12.5116 14.4216 12.5387 14.4216C12.9896 14.4046 13.4316 14.3792 13.8284 14.15C13.9276 14.0905 14.0449 14.0311 14.1531 13.9887C14.1892 13.9717 14.2613 13.9717 14.2884 13.9972C14.3155 14.0226 14.3155 14.0905 14.3064 14.1245C14.2072 14.3622 14.0449 14.5574 13.8194 14.7017C13.4406 14.9055 13.0438 14.9819 12.6199 14.9479ZM11.5736 8.7086C11.754 8.9378 11.9164 9.15851 12.0877 9.37073C13.2151 10.8393 14.3335 12.2994 15.4609 13.768C16.2636 14.8121 17.0573 15.8562 17.86 16.8919C18.7078 17.9869 19.5556 19.082 20.4034 20.177C20.9355 20.8731 21.4676 21.5607 21.9998 22.2568C22.0809 22.3672 22.1621 22.469 22.3244 22.4775C22.4327 22.4775 22.4687 22.5709 22.4778 22.6558C22.5048 22.8595 22.5319 23.0717 22.568 23.3264C22.2703 23.1906 22.0088 23.0717 21.7382 22.9444C21.7653 22.8765 21.7833 22.8256 21.8103 22.7831C21.9005 22.6643 21.8825 22.5624 21.7923 22.4436C21.2151 21.6881 20.6469 20.9325 20.0697 20.1855C19.303 19.1754 18.5274 18.1567 17.7517 17.1465C17.1204 16.3231 16.4981 15.4997 15.8667 14.6763C14.5049 12.8936 13.143 11.1025 11.7811 9.31979C11.6909 9.20944 11.6007 9.09908 11.5105 8.98024C11.4474 8.89535 11.4474 8.81046 11.5736 8.7086ZM14.2884 9.48957C14.577 9.68481 14.8386 9.90553 15.1091 10.1262C15.3617 10.33 15.5872 10.5592 15.9118 10.661C16.0742 10.712 16.2455 10.7205 16.462 10.7544C16.2636 10.8648 16.0742 10.9157 15.8938 10.8987C15.7044 10.8902 15.515 10.8223 15.3166 10.7714C15.4789 11.043 16.0922 11.2298 16.8047 11.2043C16.8047 11.2722 16.8228 11.3571 16.7957 11.4165C16.7236 11.5778 16.6424 11.7476 16.5342 11.8919C16.3538 12.1381 16.1012 12.206 15.7946 12.1381C14.6311 11.8834 13.8465 11.1873 13.3324 10.2026C13.2783 10.1093 13.2512 9.9989 13.2332 9.88855C13.2151 9.73575 13.17 9.59993 13.0167 9.51504C12.9806 9.49806 12.9626 9.44713 12.9175 9.3877C13.4226 9.21793 13.8735 9.20944 14.2884 9.48957ZM16.1012 5.92425C15.8307 6.06007 15.5781 6.22985 15.2715 6.28078C15.046 6.31474 14.8476 6.25532 14.6582 6.14496C14.6131 6.1195 14.595 6.06856 14.55 5.99216C14.7213 6.00914 14.8476 6.00914 14.9829 6.02612C15.2354 6.06007 15.4609 6.01763 15.6773 5.89879C15.9209 5.76296 16.1734 5.62714 16.4259 5.48283C16.6063 5.38097 16.8047 5.37248 17.0032 5.4319C17.0392 5.44039 17.0753 5.48283 17.1114 5.51679C17.0753 5.54225 17.0663 5.56772 17.0392 5.56772C16.6785 5.5847 16.3899 5.77145 16.1012 5.92425ZM15.028 6.64581C15.0189 6.62883 15.0189 6.61185 15.0099 6.59487C15.2805 6.48452 15.5601 6.36567 15.8577 6.24683C15.6773 6.53545 15.3436 6.68825 15.028 6.64581ZM17.3369 6.58638C17.418 6.73918 17.4721 6.90047 17.5353 7.06176C17.5804 7.17211 17.5984 7.29096 17.6345 7.43527C17.418 7.41829 17.2467 7.41829 17.0843 7.40131C16.9039 7.38434 16.8228 7.28247 16.8498 7.11269C16.8769 6.91745 16.949 6.73918 17.0753 6.57789C17.1835 6.44207 17.2557 6.43358 17.3369 6.58638ZM16.8588 8.16531C17.0663 8.16531 17.0933 8.19927 17.0483 8.38602C17.0212 8.49638 16.9941 8.58975 17.1745 8.62371C17.1926 8.48789 17.2106 8.36055 17.2286 8.22473C17.7066 8.14833 17.7968 8.22473 17.6706 8.62371C17.5984 8.84442 17.4902 9.05664 17.3729 9.26037C17.2827 9.41317 17.2016 9.40468 17.0483 9.30282C16.7957 9.13304 16.6965 8.87837 16.5973 8.62371C16.5342 8.45393 16.4981 8.27566 16.4349 8.11438C16.3899 7.98704 16.4259 7.90216 16.5161 7.81727C16.8047 7.52865 17.391 7.55411 17.6616 7.85971C17.5263 8.021 17.3008 8.05496 17.0933 7.97007C16.9941 7.92762 16.8769 7.90216 16.7687 7.90216C16.7055 7.90216 16.6334 7.96158 16.5702 7.99553C16.6334 8.12287 16.7326 8.16531 16.8588 8.16531ZM19.0685 9.15851C19.0776 9.15002 19.0956 9.16699 19.1407 9.16699C19.1227 9.20944 19.1046 9.25188 19.0776 9.27735C18.8882 9.44713 18.7529 9.64237 18.6446 9.87157C18.5995 9.95646 18.5454 10.0413 18.4733 10.0923C17.9772 10.4064 17.6976 10.8648 17.5443 11.3826C17.409 11.8155 17.3549 12.2654 17.2377 12.6984C17.1926 12.8851 17.0933 13.0634 16.9851 13.2247C16.8949 13.3605 16.7326 13.4114 16.5071 13.3944C16.6063 13.6152 16.7596 13.7595 16.922 13.8783C17.0753 13.9972 17.2647 14.0736 17.4451 14.1754C17.3369 14.3961 17.2196 14.6168 17.0933 14.8715C16.7236 14.4046 16.3808 13.9802 16.0471 13.5642C16.2636 13.2586 16.471 12.987 16.6604 12.7068C16.913 12.3333 17.0392 11.9089 17.0663 11.4675C17.0753 11.2468 17.1384 11.0515 17.2377 10.8648C17.6255 10.0838 18.2568 9.53202 19.0685 9.15851ZM19.5916 10.8223C19.6548 10.8987 19.6007 10.9666 19.5556 11.0345C19.0776 11.7476 18.9062 12.5201 18.9693 13.352C18.9964 13.6916 19.0144 14.0396 19.0234 14.3792C19.0234 14.88 18.7348 15.2111 18.2658 15.4063C18.1305 15.4657 17.9862 15.4912 17.8419 15.5167C17.7427 15.5336 17.6796 15.4742 17.7066 15.3723C17.7878 15.0158 17.878 14.6678 18.2027 14.4301C18.329 14.3367 18.365 14.2264 18.347 14.082C18.3199 13.9038 18.3019 13.7255 18.2749 13.5472C18.2388 13.2841 18.3019 13.0294 18.3831 12.7917C18.4643 12.554 18.5815 12.3333 18.6807 12.1041C18.6897 12.0787 18.6988 12.0532 18.7168 12.0277C18.4733 12.1041 18.3109 12.2994 18.0313 12.3418C18.0404 12.2824 18.0404 12.2484 18.0584 12.2145C18.2658 11.824 18.5184 11.459 18.8521 11.1449C18.9964 11.0091 19.1768 10.9072 19.3481 10.7969C19.4293 10.7544 19.5285 10.7374 19.5916 10.8223ZM19.6999 11.4081C19.8712 10.5337 20.2681 9.78668 21.1429 9.33677C21.2331 9.28584 21.3414 9.26037 21.4406 9.21793C21.6029 9.15851 21.7562 9.15002 21.9186 9.21793C22.0088 9.25188 22.117 9.26037 22.2072 9.29433C22.2884 9.32828 22.3695 9.33677 22.4417 9.28584C22.568 9.20944 22.6672 9.24339 22.7844 9.31979C22.9558 9.43864 23.1452 9.5405 23.3165 9.65935C23.4158 9.72726 23.515 9.80366 23.5961 9.89704C23.7134 10.0244 23.6683 10.1262 23.5059 10.1772C23.4248 10.2026 23.3436 10.2026 23.2624 10.2281C23.2264 10.2366 23.1993 10.2621 23.1362 10.3045C23.2173 10.3215 23.2534 10.33 23.2895 10.33C23.3346 10.3385 23.3707 10.3385 23.3977 10.3385C23.4608 10.4233 23.4969 10.5252 23.5691 10.5677C23.6412 10.6101 23.7585 10.5846 23.8487 10.6016C23.9028 10.6101 23.9569 10.6271 24.002 10.661C24.0381 10.6865 24.0742 10.7289 24.0922 10.7714C24.2996 11.2213 24.6694 11.5439 25.0482 11.858C25.0753 11.8749 25.0933 11.9004 25.1204 11.9259C25.1294 11.9344 25.1294 11.9513 25.1294 11.9768C25.1023 12.0702 25.0302 12.0617 24.958 12.0617C24.7506 12.0447 24.5522 12.0617 24.3537 12.1381C24.2816 12.1636 24.1914 12.1466 24.1192 12.1296C23.7495 12.0192 23.3797 11.9089 23.0099 11.7985C22.8566 11.7561 22.7032 11.7221 22.5589 11.6712C22.0629 11.4929 21.9096 11.1109 22.1531 10.661C22.1892 10.5846 22.2342 10.5082 22.2703 10.4318C22.2703 10.4318 22.2613 10.4233 22.2433 10.3894C22.0088 10.5507 21.8464 10.7459 21.8194 11.0261C21.7833 11.3826 21.9005 11.7052 22.0719 12.0108C22.2342 12.2994 22.4417 12.571 22.568 12.8681C22.7664 13.318 22.9107 13.7934 23.073 14.2518C23.1181 14.3707 23.1452 14.4895 23.1813 14.6083C23.3436 15.1856 23.2714 15.7543 23.1271 16.3146C23.055 16.6032 22.9558 16.8834 22.8385 17.155C22.7483 17.3842 22.7032 17.3927 22.4417 17.3248C22.1892 17.2569 21.9366 17.1974 21.6751 17.138C21.4676 17.0956 21.2602 17.0701 21.0437 17.1635C21.188 17.2738 21.3594 17.3163 21.5398 17.3502C21.8825 17.4182 22.2342 17.4861 22.5589 17.6389C22.6852 17.6983 22.7664 17.7832 22.8025 17.9105C22.8475 18.0803 22.8926 18.2586 22.9558 18.4283C23.0009 18.5472 22.9558 18.6151 22.8385 18.6321C22.6221 18.6745 22.4056 18.717 22.1801 18.7339C21.9366 18.7509 21.6841 18.7339 21.4406 18.7339C21.4315 18.7509 21.4225 18.7679 21.4225 18.7849C21.4676 18.8188 21.5127 18.8613 21.5578 18.8782C21.9817 19.0226 22.4146 19.1584 22.8385 19.3027C22.8926 19.3197 22.9377 19.3536 22.9738 19.3961C23.082 19.5149 23.2173 19.5743 23.3887 19.5828C23.8847 19.5913 24.3808 19.5998 24.8769 19.5064C25.2196 19.447 25.5803 19.4215 25.9411 19.464C26.1395 19.4894 26.2838 19.5743 26.383 19.7271C26.4462 19.8205 26.5093 19.9139 26.5544 20.0073C26.5634 20.0327 26.5544 20.0921 26.5364 20.1091C26.5183 20.1261 26.4552 20.1346 26.4281 20.1176C26.3379 20.0752 26.2568 20.0327 26.1666 19.9818C25.9862 19.8799 25.8148 19.8799 25.6254 19.9733C25.2106 20.1516 24.7957 20.3213 24.3808 20.4911C23.9659 20.6524 23.542 20.7033 23.0911 20.6694C22.5319 20.6269 21.9727 20.5675 21.4315 20.3977C20.9986 20.2619 20.6108 20.0582 20.3312 19.7101C19.9344 19.2263 19.5556 18.7424 19.1677 18.2586C18.9332 17.9699 18.8701 17.6474 18.9693 17.2908C19.1136 16.7475 19.1407 16.1788 19.2219 15.627C19.303 15.0583 19.4022 14.4895 19.4834 13.9208C19.5195 13.6576 19.5285 13.3944 19.5556 13.1313C19.5736 12.5456 19.5916 11.9683 19.6999 11.4081ZM24.8227 18.3774C24.9039 18.1567 25.0482 17.9954 25.2917 17.902C25.5533 17.8086 25.7968 17.6813 26.0493 17.571C26.2207 17.503 26.2207 17.503 26.4372 17.571C26.2929 17.7492 26.1666 17.9105 26.0223 18.0548C25.8329 18.2416 25.6435 18.4198 25.427 18.5811C25.3278 18.6575 25.1655 18.683 25.0392 18.6915C24.8408 18.7 24.7596 18.5557 24.8227 18.3774ZM22.7032 23.649C22.8656 23.7254 22.9197 23.8442 22.9377 24.031C22.8566 23.9885 22.8115 23.98 22.7664 23.9461C22.6401 23.8612 22.5138 23.8527 22.3786 23.9291C22.2974 23.98 22.2703 24.0395 22.3244 24.1244C22.4146 24.2517 22.4868 24.396 22.595 24.5148C22.8385 24.8119 23.082 25.1091 23.1632 25.4826C23.1903 25.6269 23.2083 25.7797 23.2173 25.924C23.2264 26.1362 23.3165 26.2805 23.524 26.3654C23.551 26.3739 23.5781 26.3994 23.6322 26.4418C23.542 26.5522 23.4608 26.671 23.3707 26.7729C23.2534 26.9002 23.1362 27.036 23.0009 27.1549C22.7483 27.3841 22.4507 27.3926 22.1441 27.2737C21.8645 27.1634 21.6119 26.9087 21.648 26.5861C21.666 26.3824 21.6841 26.1871 21.7111 25.9834C21.7562 25.508 21.8103 25.0242 21.8554 24.5488C21.8645 24.4724 21.8554 24.396 21.8464 24.3196C21.8013 23.9716 21.6119 23.7933 21.2421 23.8103C20.9626 23.8188 20.692 23.8867 20.4124 23.9461C20.232 23.98 20.0606 24.048 19.8893 24.0734C19.8081 24.0904 19.6999 24.0734 19.6277 24.031C19.3481 23.8782 19.0866 23.7084 18.807 23.5556C18.4913 23.3773 18.1576 23.2076 17.8329 23.0378C17.8149 23.0293 17.7878 23.0378 17.7698 23.0378C17.8239 23.2415 17.9141 23.4368 17.9231 23.632C17.9231 23.8272 17.8419 24.0225 17.7968 24.2347C17.8149 24.2517 17.851 24.2856 17.878 24.3196C17.9141 24.3705 17.9772 24.4554 17.9592 24.4724C17.9051 24.5233 17.8329 24.5743 17.7608 24.5828C17.5804 24.5912 17.391 24.5997 17.2196 24.5743C16.7687 24.5064 16.3267 24.413 15.8848 24.3281C15.6773 24.2941 15.4699 24.2602 15.2444 24.2432C15.6052 24.6167 16.002 24.9478 16.2365 25.4147C16.2095 25.4401 16.1914 25.4656 16.1734 25.4656C15.8036 25.4656 15.4609 25.6014 15.1182 25.6948C14.9829 25.7287 14.8927 25.7118 14.8205 25.6014C14.7213 25.4486 14.6221 25.2958 14.5139 25.1515C14.3335 24.8883 14.4417 24.6591 14.6311 24.4554C14.7213 24.362 14.8115 24.2687 14.9197 24.1923C15.2805 23.9631 15.515 23.632 15.7766 23.3264C15.8397 23.25 15.8848 23.1651 15.9569 23.1057C16.002 23.0632 16.0742 23.0208 16.1373 23.0123C16.7777 22.9189 17.409 22.8256 18.0494 22.7407C18.9874 22.6133 19.8712 22.2992 20.7371 21.9682C20.8543 21.9257 20.9175 21.9427 20.9896 22.0361C21.1249 22.1974 21.2692 22.3672 21.4225 22.52C21.5308 22.6218 21.5217 22.7152 21.4586 22.834C21.3414 23.0378 21.3414 23.0378 21.5578 23.1396C21.9366 23.2924 22.3154 23.4707 22.7032 23.649ZM23.2805 23.216C23.524 23.5471 23.5781 23.9461 23.8216 24.2772C23.9118 24.2177 23.993 24.1838 24.0651 24.1328C24.1553 24.0649 24.2365 24.0734 24.3086 24.1413C24.3808 24.2008 24.3628 24.2602 24.3086 24.3281C24.1553 24.5403 24.2545 24.7186 24.5431 24.7355C24.6694 24.744 24.7416 24.795 24.7867 24.9053C24.8769 25.1345 24.9761 25.3637 25.0663 25.6099C25.0121 25.6354 24.958 25.6608 24.8859 25.6863C24.8949 25.7967 24.9129 25.8985 24.9219 26.0089C24.8318 26.0853 24.7686 26.0259 24.7055 25.9749C24.489 25.7797 24.2726 25.5929 24.0651 25.3892C23.9389 25.2619 23.8397 25.1175 23.7134 24.9732C23.7585 24.9223 23.7765 24.8968 23.8036 24.8629C23.9479 24.6761 23.9028 24.5488 23.6773 24.4469C23.542 24.3875 23.4428 24.3196 23.4067 24.1668C23.3616 23.9885 23.2714 23.8188 23.2173 23.6405C23.1903 23.4962 23.1362 23.3604 23.2805 23.216ZM23.8938 27.2143C23.6503 27.6897 23.2354 27.9868 22.7303 28.182C22.604 28.233 22.4868 28.2669 22.3515 28.3094C22.2523 28.5895 22.1531 28.8781 22.0539 29.1752C21.7923 29.1073 21.5759 28.997 21.4045 28.8272C21.2602 28.6914 21.2602 28.4961 21.4225 28.3433C21.6029 28.165 21.8013 27.9953 22.0268 27.8679C22.5048 27.6218 23.0009 27.4095 23.4879 27.1803C23.6232 27.1209 23.7675 27.053 23.9028 26.9851C23.984 27.087 23.9298 27.1464 23.8938 27.2143ZM20.8904 24.9223C20.9535 24.7101 20.9986 24.4894 21.0527 24.2687C21.2512 24.2602 21.3955 24.3705 21.4045 24.5658C21.4045 24.6676 21.3865 24.7865 21.3504 24.8883C21.2512 25.1345 21.1429 25.3722 21.0257 25.6184C20.9986 25.6693 20.9535 25.7033 20.8814 25.7712C20.8182 25.4571 20.8092 25.1939 20.8904 24.9223ZM21.0257 27.6557C20.8273 28.0462 20.5116 28.3348 20.1508 28.5895C20.1328 28.6065 20.1057 28.598 20.0336 28.615C20.1959 28.2839 20.3312 27.9868 20.4755 27.6982C20.4665 27.6897 20.4575 27.6812 20.4485 27.6727C20.3132 27.7491 20.1779 27.8255 20.0426 27.8934C19.8983 27.9613 19.745 28.0122 19.5736 28.0462C19.7991 27.7321 19.9344 27.4011 19.9975 27.0445C19.781 27.1294 19.5916 27.2482 19.3842 27.2822C19.0595 27.3331 18.7348 27.3331 18.4011 27.3586C18.3921 27.3416 18.3831 27.3246 18.3741 27.3077C18.4192 27.2737 18.4552 27.2313 18.5093 27.2058C18.7438 27.1039 18.9783 27.0106 19.2128 26.9087C19.2579 26.8917 19.294 26.8663 19.3842 26.8153C19.1587 26.7899 18.9964 26.7729 18.834 26.7559C18.6717 26.7389 18.5093 26.7219 18.338 26.6625C18.5544 26.5776 18.7709 26.5012 18.9693 26.3909C19.1677 26.2805 19.3391 26.1362 19.5646 25.9834C19.4744 25.9664 19.4293 25.9495 19.3932 25.9495C18.7348 26.0004 18.0854 25.9325 17.4541 25.7457C17.3639 25.7203 17.2827 25.6693 17.2016 25.6099C17.8329 25.6014 18.4552 25.5335 19.0325 25.2958C18.7078 25.3043 18.3831 25.2873 18.0674 25.2024C17.7608 25.1175 17.4631 25.0327 17.1655 24.9138C17.1655 24.8968 17.1655 24.8799 17.1655 24.8629C17.2196 24.8544 17.2827 24.8374 17.3369 24.8374C17.896 24.8799 18.4372 24.8035 18.9783 24.6761C19.2399 24.6167 19.5105 24.5573 19.763 24.4724C20.2951 24.3026 20.5206 24.7525 20.4755 25.0836C20.4304 25.3977 20.3943 25.7118 20.3493 26.0343C20.3222 26.2381 20.4034 26.3824 20.5837 26.4843C20.8002 26.6031 20.9355 26.7899 21.0257 27.0021C21.1429 27.2143 21.1339 27.435 21.0257 27.6557ZM18.4192 28.2414C18.365 28.233 18.3109 28.2245 18.2568 28.216C17.9682 28.1311 17.6796 28.0717 17.382 28.0886C16.9941 28.1056 16.6063 28.1311 16.2185 28.1141C15.9118 28.0971 15.5962 28.1141 15.2895 28.0122C15.0099 27.9104 14.7845 27.7491 14.6221 27.5199C14.4507 27.2822 14.4778 27.0191 14.568 26.7559C14.6401 26.5437 14.6221 26.4673 14.3966 26.4248C14.1621 26.3739 13.9276 26.3315 13.6841 26.3315C13.2512 26.3145 12.8273 26.2975 12.4034 26.4163C12.0156 26.5267 11.6638 26.6965 11.4293 27.0275C11.0686 27.5284 11.0505 28.0717 11.267 28.6319C11.285 28.6744 11.294 28.7253 11.3121 28.7762C11.294 28.7847 11.285 28.8017 11.267 28.8102C11.2039 28.7593 11.1317 28.7083 11.0866 28.6489C10.7529 28.2499 10.7168 27.7915 10.816 27.3162C10.8701 27.0955 10.9784 26.8747 11.0956 26.671C11.3301 26.272 11.754 26.0938 12.1869 25.941C12.665 25.7712 13.161 25.7118 13.6661 25.8136C13.9096 25.8646 14.1441 25.9155 14.3876 25.9495C14.7935 26.0004 15.1993 25.9919 15.5962 25.89C15.6322 25.8815 15.6773 25.8731 15.7134 25.8561C15.984 25.7627 16.1734 25.8476 16.3628 26.0513C16.5702 26.2805 16.8318 26.4673 17.0663 26.671C17.1114 26.7135 17.1565 26.7559 17.2016 26.7899C17.1926 26.8068 17.1835 26.8238 17.1655 26.8408C17.0753 26.8323 16.9941 26.8238 16.8769 26.8153C16.9039 26.8747 16.913 26.9172 16.94 26.9511C17.2016 27.3331 17.5894 27.5623 18.0133 27.7576C18.0855 27.7915 18.1666 27.8255 18.2388 27.8594C18.4552 27.9528 18.4643 27.9698 18.4192 28.2414ZM16.5342 29.761C16.3267 29.8968 15.7675 29.8289 15.3797 29.6336C14.9919 29.4384 14.6582 29.0224 14.6582 28.7083C14.9648 28.7253 15.2444 28.7847 15.497 28.946C15.7675 29.1243 16.0201 29.328 16.2726 29.5233C16.3538 29.5997 16.444 29.6846 16.5342 29.761ZM12.5657 28.1396C12.3673 28.233 12.0066 28.1311 11.9254 27.9443C11.9073 27.8934 11.9164 27.817 11.9524 27.7746C12.0246 27.6812 12.1058 27.5878 12.205 27.5199C12.3854 27.4011 12.5838 27.2992 12.8183 27.2567C13.0347 27.5878 12.8814 27.9783 12.5657 28.1396ZM13.621 23.7508C13.5128 23.8867 13.3684 23.997 13.2512 24.1244C12.9445 24.4639 12.9987 24.7865 13.3955 25.0242C13.5669 25.126 13.7202 25.2364 13.7923 25.4231C13.8104 25.4741 13.8104 25.525 13.8194 25.5844C13.5218 25.5759 13.2602 25.5675 12.9987 25.559C12.4305 25.542 11.9073 25.6778 11.4203 25.9579C11.3662 25.9919 11.276 26.0174 11.2129 26.0089C10.798 25.9579 10.3831 25.8646 10.0043 25.6778C9.86903 25.6099 9.72472 25.5505 9.58943 25.4911C9.61649 25.2534 9.83295 24.8714 10.0133 24.7271C10.338 24.4724 10.6898 24.2941 11.1227 24.2347C11.3752 24.2008 11.6187 24.1159 11.8532 24.0395C12.4665 23.8442 13.0528 23.598 13.612 23.2924C13.639 23.2755 13.6751 23.267 13.7022 23.267C13.7202 23.267 13.7292 23.267 13.7743 23.2755C13.8645 23.4707 13.7292 23.615 13.621 23.7508ZM14.3155 23.284C14.5139 23.0463 14.6492 23.0208 14.9197 23.1906C14.9558 23.2076 14.9829 23.233 15.0189 23.2585C15.028 23.267 15.037 23.284 15.046 23.3264C14.7303 23.7084 14.2162 23.8612 13.8374 24.2008C13.7292 24.014 13.7382 23.9376 13.8555 23.8018C14.0178 23.6235 14.1711 23.4537 14.3155 23.284ZM15.7315 15.9835C15.4338 16.1279 15.1272 16.2807 14.8205 16.4165C14.6672 16.4844 14.4958 16.5353 14.3245 16.5693C14.09 16.6202 13.9006 16.5268 13.7473 16.374C13.648 16.2807 13.648 16.1958 13.7563 16.1109C13.9998 15.9326 14.2884 15.7968 14.6041 15.8817C14.9017 15.9666 15.1542 15.9156 15.4068 15.7713C15.4519 15.7459 15.4879 15.7204 15.533 15.6949C15.7856 15.5336 15.8216 15.5421 15.975 15.8477C15.8848 15.8987 15.8126 15.9496 15.7315 15.9835ZM17.2827 17.7407C16.6785 17.571 16.0471 17.4521 15.4789 17.1635C15.3797 17.1126 15.2444 17.0701 15.2444 16.9513C15.2534 16.8154 15.4068 16.7985 15.506 16.7815C15.7675 16.756 16.0291 16.756 16.2997 16.756C16.3538 16.756 16.4079 16.79 16.453 16.8155C16.8138 17.0531 17.1024 17.3587 17.391 17.7068C17.3278 17.7238 17.3008 17.7407 17.2827 17.7407ZM16.1463 20.593C15.7224 20.6609 15.3076 20.7458 14.8837 20.8392C14.4147 20.941 14.3425 20.8901 14.2794 20.4487C14.2613 20.3044 14.2433 20.1516 14.2253 20.0073C14.2162 20.0073 14.2072 20.0073 14.1982 19.9988C14.2794 19.481 14.3606 18.9546 14.4507 18.4368C14.4778 18.2755 14.5139 18.1142 14.568 17.9614C14.6131 17.8086 14.6492 17.7917 14.8205 17.8086C15.4158 17.885 16.0111 17.953 16.6153 18.0378C16.6694 18.0463 16.7236 18.0718 16.7777 18.0888C16.8769 18.1227 16.913 18.1822 16.9039 18.284C16.8228 18.9631 16.6785 19.6337 16.4981 20.2959C16.444 20.4741 16.3448 20.559 16.1463 20.593ZM18.1305 20.3468C18.2839 19.8629 18.4462 19.3791 18.6176 18.8613C18.6897 18.9122 18.7348 18.9377 18.7709 18.9801C18.9423 19.1584 19.1136 19.3366 19.285 19.5149C19.4383 19.6762 19.3932 20.0412 19.2038 20.1601C19.0505 20.2534 18.365 20.3808 18.1305 20.3468ZM17.3008 21.0259C17.5263 21.2891 17.7517 21.5437 17.9682 21.8069C18.0584 21.9173 18.1486 22.0276 18.2207 22.1549C18.2478 22.2059 18.2658 22.3077 18.2388 22.3417C18.1937 22.3926 18.0945 22.4351 18.0313 22.4266C17.6706 22.3587 17.3278 22.2398 17.1384 21.9088C17.0663 21.7729 16.9851 21.6965 16.8138 21.739C16.7777 21.7475 16.7145 21.7305 16.6785 21.705C16.5702 21.6201 16.462 21.5353 16.3628 21.4419C16.2906 21.3825 16.2726 21.3145 16.3267 21.2381C16.3989 21.1278 16.48 21.0174 16.5342 20.8986C16.6604 20.6185 16.8047 20.3468 16.8859 20.0582C17.0302 19.5658 17.1294 19.065 17.2557 18.5387C17.4992 18.4793 17.7698 18.4029 18.0945 18.3265C18.0855 18.4368 18.0855 18.5217 18.0674 18.5981C17.887 19.1244 17.6886 19.6422 17.4992 20.1601C17.4271 20.3553 17.3549 20.559 17.2737 20.7543C17.2196 20.8477 17.2286 20.941 17.3008 21.0259ZM10.5184 26.6371C10.1216 26.5437 9.75178 26.3994 9.40905 26.2041C9.27376 26.1277 9.27376 26.0853 9.40003 25.8731C9.88706 26.0259 10.3831 26.1871 10.8792 26.3484C10.8611 26.5607 10.7168 26.6795 10.5184 26.6371ZM8.913 25.0666C8.68752 24.9817 8.54322 24.8544 8.46204 24.6676C8.43499 24.6082 8.48008 24.5233 8.51616 24.4554C8.63341 24.2092 8.77771 23.9631 8.87692 23.7169C9.13848 23.0802 9.20161 22.4096 9.11142 21.739C9.06632 21.357 8.84987 21.0174 8.57027 20.7373C8.49812 20.6609 8.46204 20.593 8.4891 20.4911C8.63341 20.0412 8.76869 19.5828 8.92202 19.1244C9.11142 18.5387 9.53532 18.1822 10.1576 18.0124C10.4282 17.936 10.7078 17.885 10.9874 17.9275C11.0325 17.936 11.0776 17.953 11.1497 17.9784C11.1137 18.0463 11.0956 18.0973 11.0505 18.1482C10.6717 18.6406 10.4913 19.2008 10.4012 19.795C10.32 20.3044 10.311 20.8137 10.32 21.3315C10.329 21.5353 10.329 21.739 10.3651 21.9342C10.4012 22.1974 10.3651 22.4436 10.338 22.6982C10.3019 22.9953 10.1396 23.2245 9.89608 23.4028C9.75178 23.5047 9.59845 23.6065 9.44513 23.6999C9.28278 23.7933 9.18357 23.9291 9.13848 24.1074C9.07534 24.4045 8.99417 24.7186 8.913 25.0666ZM9.26475 28.3518C9.18357 28.3773 9.12044 28.3942 9.05731 28.4197C8.99417 28.5386 9.1024 28.598 9.13848 28.6829C9.15652 28.7253 9.1475 28.7847 9.15652 28.8357C9.1024 28.8272 9.03025 28.8357 8.98515 28.8102C8.78673 28.6914 8.74164 28.581 8.83183 28.3773C8.88594 28.2499 8.90398 28.1396 8.85888 27.9953C8.77771 27.7746 8.79575 27.6218 8.85888 27.4859C8.97613 27.5538 9.22867 28.0717 9.26475 28.3518ZM8.66948 25.6354C8.4891 25.3807 8.2997 25.1685 8.19147 24.9053C8.20951 24.8883 8.22755 24.8799 8.24558 24.8629C8.2997 24.9138 8.36283 24.9563 8.41695 25.0072C8.50714 25.0921 8.58831 25.1939 8.68752 25.2788C8.81379 25.4147 8.81379 25.4147 8.66948 25.6354ZM10.2478 7.3334C9.92314 6.90047 9.60747 6.46754 9.28278 6.03461C9.22867 5.95821 9.11142 5.84785 9.21965 5.77145C9.35494 5.68656 9.38199 5.84785 9.43611 5.92425C9.75178 6.32323 10.0584 6.73069 10.3651 7.12967C10.4192 7.19758 10.4553 7.28247 10.5094 7.36736C10.3651 7.44376 10.3019 7.4098 10.2478 7.3334ZM5.98178 19.846C6.13511 19.9648 6.30647 20.0582 6.47784 20.1516C6.64018 20.2365 6.6492 20.2534 6.56803 20.4062C6.54999 20.4402 6.52293 20.4741 6.50489 20.5081C5.99982 21.4079 5.87355 22.3332 6.24334 23.3009C6.30647 23.4792 6.39666 23.649 6.49587 23.8697C6.58606 23.4622 6.65822 23.1142 6.73939 22.7661C6.84762 22.2908 7.0731 21.8918 7.51503 21.6117C7.65934 21.5183 7.78561 21.4079 7.92089 21.3061C7.94795 21.2806 7.99305 21.2721 8.03814 21.2551C8.17343 21.4334 8.29068 21.6201 8.2997 21.8324C8.32676 22.2738 8.27264 22.6982 8.03814 23.0972C7.8758 23.3773 7.72247 23.6575 7.58719 23.9546C7.30759 24.5658 7.38877 25.143 7.80365 25.6693C7.94795 25.8561 8.11932 26.0174 8.29068 26.2126C8.22755 26.289 8.15539 26.3654 8.08324 26.4503C7.95697 26.6031 7.95697 26.7389 8.07422 26.9002C8.12833 26.9681 8.20049 27.0275 8.2546 27.0955C8.34479 27.2058 8.46204 27.3162 8.50714 27.4435C8.62439 27.783 8.73262 28.1226 8.62439 28.4961C8.59733 28.6319 8.60635 28.7847 8.77771 28.8781C9.08436 29.0394 9.41807 29.0818 9.7608 29.0479C9.91412 29.0309 9.93216 28.9885 9.91412 28.8357C9.88706 28.6404 9.82393 28.4622 9.68864 28.3009C9.5263 28.1056 9.36396 27.9104 9.20161 27.7066C8.94908 27.3756 8.92202 26.9087 9.13848 26.6031C9.60747 26.8238 10.1125 26.9596 10.6357 27.0275C10.6357 27.0955 10.6447 27.1294 10.6357 27.1719C10.5996 27.4774 10.5815 27.7746 10.6176 28.0802C10.6627 28.5131 11.0325 28.9715 11.4654 29.0988C11.9524 29.2346 12.4214 29.1667 12.8634 28.963C13.3143 28.7508 13.6029 28.3348 13.5128 27.7406C13.4857 27.5708 13.4316 27.401 13.3865 27.2058C13.4857 27.07 13.6661 27.1039 13.8284 27.0955C13.9908 27.087 14.117 27.1464 14.1802 27.2992C14.2523 27.469 14.3245 27.6472 14.4056 27.817C14.4507 27.9104 14.4327 27.9698 14.3876 28.0547C14.2523 28.2924 14.1261 28.5386 13.9908 28.7847C13.9096 28.929 13.9547 29.0394 14.0719 29.1413C14.1531 29.2092 14.2433 29.2601 14.3245 29.328C14.4598 29.4469 14.4507 29.5572 14.2704 29.5912C14.117 29.6251 13.9367 29.6251 13.7833 29.5912C13.4947 29.5317 13.3053 29.6166 13.179 29.8628C13.143 29.9392 13.0979 30.0071 12.9896 30.0241C12.7281 30.0665 12.6018 30.2448 12.5116 30.457C12.4936 30.491 12.5116 30.5334 12.5116 30.6013C12.6199 30.5589 12.701 30.5165 12.7822 30.491C13.3143 30.2873 13.8555 30.3212 14.3966 30.4316C14.9558 30.5419 15.4789 30.7711 15.966 31.0597C15.993 31.0767 16.0291 31.0767 16.0652 31.0852C16.1193 30.839 16.0742 30.6438 15.8307 30.5249C15.7675 30.491 15.7044 30.4485 15.6322 30.4316C15.2895 30.3297 14.9558 30.2363 14.6131 30.1345C14.5229 30.109 14.4147 30.1005 14.3966 29.9562C14.6041 29.9053 14.8115 29.8968 15.0099 29.9392C15.524 30.0411 16.0381 30.1684 16.5522 30.2873C16.7055 30.3212 16.8588 30.3806 17.0302 30.4316C17.0483 30.3806 17.0753 30.3297 17.0753 30.2957C17.0483 30.0835 17.0122 29.8713 16.8859 29.6761C16.7867 29.5318 16.7055 29.379 16.6153 29.2346C16.4981 29.0564 16.48 28.8696 16.5702 28.6574C17.0032 28.6404 17.409 28.7932 17.8149 28.8951C18.2388 28.997 18.6446 29.1413 19.0956 29.2686C19.1136 29.0903 19.1227 28.929 19.1407 28.7762C19.2128 28.7508 19.276 28.7253 19.3301 28.7083C19.5646 28.6319 19.5556 28.6319 19.7269 28.8102C20.1869 29.3026 20.7731 29.6166 21.4406 29.7949C21.5759 29.8289 21.7202 29.8543 21.9005 29.8034C21.7923 29.727 21.7111 29.6761 21.648 29.6082C21.5759 29.5402 21.4766 29.4808 21.4857 29.3705C21.5127 29.362 21.5308 29.345 21.5398 29.345C21.7923 29.4129 22.0448 29.4893 22.2974 29.5657C22.4958 29.6166 22.5589 29.5912 22.6401 29.4129C22.7213 29.2346 22.7574 29.0394 22.7393 28.8442C22.7303 28.7847 22.7393 28.7338 22.7393 28.6574C22.9287 28.6744 23.046 28.7678 23.1722 28.8357C23.515 29.0224 23.515 29.0224 23.8126 28.7678C23.8397 28.7423 23.8757 28.7168 23.9028 28.6829C24.4439 28.1141 24.7957 27.452 24.949 26.705C24.9761 26.5946 25.0212 26.4927 25.0482 26.3909C25.2286 26.3654 25.4 26.4673 25.5352 26.3484C25.5172 26.2041 25.3008 26.1871 25.3549 26.0174C25.5984 25.9834 25.8509 26.0343 26.0944 25.8985C26.0493 25.8646 26.0223 25.8391 25.9862 25.8221C25.6525 25.6439 25.3819 25.4147 25.1925 25.1006C24.9851 24.7525 24.7957 24.4045 24.5882 24.0564C24.4259 23.7848 24.3267 23.7593 24.0651 23.9291C24.0561 23.9376 24.0381 23.9291 23.9749 23.9291C23.8667 23.7508 23.7314 23.5471 23.6142 23.3519C23.533 23.216 23.4879 23.0717 23.4789 22.9104C23.4789 22.7916 23.4158 22.6728 23.3436 22.5709C23.2624 22.452 23.1813 22.452 23.046 22.5284C23.0009 22.5539 22.9468 22.5794 22.8836 22.6218C22.8566 22.452 22.8385 22.2992 22.8115 22.1295C22.6942 22.1295 22.604 22.121 22.5048 22.1295C22.3876 22.138 22.3154 22.0955 22.2523 22.0106C22.1531 21.8663 22.0539 21.722 21.9727 21.5692C21.9005 21.4504 21.9366 21.3825 22.0899 21.3655C22.126 21.3655 22.1531 21.3655 22.1892 21.3655C23.064 21.357 23.8938 21.1787 24.6694 20.7882C25.0031 20.6185 25.3458 20.5081 25.7066 20.4147C25.8509 20.3808 26.0042 20.3638 26.1215 20.4911C26.374 20.7458 26.6266 20.992 26.8701 21.2466C26.9873 21.374 27.0505 21.5183 27.0144 21.6965C26.9873 21.8409 27.0505 21.9427 27.1497 22.0531C27.2669 22.1719 27.3571 22.3162 27.4473 22.452C27.5646 22.6218 27.5736 22.8001 27.5104 22.9868C27.4653 23.1057 27.4293 23.2245 27.3751 23.3349C27.294 23.5047 27.3391 23.649 27.4834 23.7508C27.6908 23.8952 27.9073 24.0225 28.1328 24.1413C28.2951 24.2262 28.3943 24.1668 28.4214 23.9885C28.4574 23.6829 28.4394 23.3773 28.259 23.1057C28.0335 22.7576 27.9163 22.3841 27.9163 21.9767C27.9163 21.5862 27.7359 21.2806 27.4563 21.0005C27.2399 20.7882 27.0595 20.5421 26.8881 20.2959C26.7709 20.1346 26.6987 19.9478 26.5995 19.7781C26.4372 19.5064 26.2387 19.2942 25.8599 19.3282C25.6886 19.3451 25.5172 19.3451 25.3368 19.3451C25.2917 19.3451 25.2466 19.3197 25.2015 19.3027C25.2015 19.2857 25.1925 19.2687 25.1925 19.2518C25.5172 19.1669 25.7066 18.9292 25.9231 18.7085C26.1756 18.4453 26.4281 18.1906 26.6897 17.9445C26.825 17.8171 26.8611 17.8171 26.9963 17.936C27.0414 17.9699 27.0775 18.0124 27.1136 18.0548C27.312 18.2586 27.5014 18.4623 27.7089 18.649C27.8351 18.7679 27.9073 18.8867 27.8892 19.065C27.8712 19.2433 27.9524 19.3621 28.1418 19.4215C28.2049 19.4385 28.2771 19.4894 28.3131 19.5489C28.5206 19.846 28.4935 20.0073 28.241 20.2789C28.2229 20.3044 28.1959 20.3298 28.1688 20.3468C28.0155 20.4911 28.0155 20.6524 28.0967 20.8222C28.2139 21.0599 28.4033 21.2297 28.6649 21.3145C28.8813 21.3825 28.9896 21.3485 29.0166 21.1363C29.0437 20.958 29.0347 20.7797 28.9986 20.6015C28.9084 20.194 28.8002 19.795 28.8633 19.3791C28.8994 19.1329 28.7821 18.9462 28.6108 18.7764C28.3402 18.5132 28.0786 18.2416 27.8261 17.9614C27.5736 17.6813 27.3301 17.3927 27.2399 17.0277C27.2218 16.9682 27.1948 16.9088 27.1677 16.8579C27.0505 16.6627 26.8701 16.6032 26.6717 16.7221C26.5183 16.8155 26.3921 16.9343 26.2748 17.0701C26.0764 17.2908 25.8419 17.4606 25.5713 17.5794C25.409 17.6558 25.3098 17.6219 25.2376 17.4606C25.1925 17.3757 25.1655 17.2823 25.1564 17.1974C25.0753 16.756 24.8949 16.3486 24.6153 15.9835C24.489 15.8307 24.3537 15.6864 24.2275 15.5251C24.011 15.2535 23.7495 15.0158 23.6232 14.6763C23.3797 14.0226 23.1181 13.3775 22.8746 12.7238C22.8205 12.5965 22.7844 12.4607 22.7303 12.2994C22.9017 12.3164 23.046 12.3164 23.1813 12.3418C23.4879 12.3843 23.7855 12.4352 24.0381 12.622C24.1643 12.7153 24.2726 12.8257 24.4079 12.9021C24.5071 12.9615 24.6243 13.0124 24.7416 13.0379C24.7957 13.0549 24.8859 13.0124 24.931 12.97C24.949 12.953 24.9039 12.8681 24.8859 12.8087C24.8769 12.7832 24.8678 12.7578 24.8588 12.7323C24.949 12.7493 25.0121 12.7832 25.0663 12.8172C25.2106 12.9106 25.3188 12.9191 25.436 12.7917C25.4902 12.7238 25.5172 12.6304 25.5262 12.5371C25.5352 12.3928 25.5172 12.24 25.5082 12.0956C25.4992 11.9428 25.436 11.8325 25.2827 11.7646C25.1835 11.7137 25.0933 11.6373 25.0302 11.5609C24.7145 11.1534 24.4079 10.7289 24.1012 10.313C24.0471 10.2366 24.002 10.1517 23.9749 10.0668C23.9208 9.88855 23.8667 9.72726 23.7224 9.59144C23.7044 9.57446 23.7134 9.5405 23.7044 9.49806C23.7946 9.48108 23.8667 9.47259 23.9749 9.45562C23.8847 9.28584 23.8306 9.11606 23.7224 8.98024C23.6503 8.87837 23.524 8.77651 23.4067 8.74255C23.2534 8.70011 23.073 8.68313 22.9197 8.71709C22.604 8.785 22.3786 8.69162 22.1621 8.49638C22.0358 8.38602 21.8825 8.30113 21.7472 8.20775C21.7111 8.19078 21.666 8.19927 21.6029 8.19078C21.6119 8.28415 21.6209 8.36055 21.639 8.46242C21.2602 8.37753 20.9896 8.34358 20.701 8.30962C20.683 8.51335 20.9084 8.58126 20.9535 8.75953C20.8724 8.77651 20.8092 8.79348 20.7371 8.79348C20.3853 8.81046 20.0246 8.79348 19.6728 8.89535C19.6367 8.91233 19.5556 8.87837 19.5105 8.84442C19.3391 8.72557 19.1587 8.70011 18.9513 8.75104C18.6446 8.81895 18.356 8.94628 18.0945 9.10757C18.0313 9.12455 17.9772 9.14153 17.878 9.19246C17.878 9.03117 17.8419 8.89535 17.887 8.785C18.0674 8.27567 18.0404 7.77482 17.869 7.27398C17.7968 7.06176 17.6976 6.85803 17.6074 6.62883C17.6255 6.61185 17.6435 6.57789 17.6706 6.55243C17.887 6.38265 17.9772 6.14496 17.9953 5.8903C18.0043 5.76296 17.9502 5.61865 17.878 5.49981C17.8149 5.39794 17.6796 5.47434 17.5804 5.45737C17.4721 5.44888 17.3459 5.4319 17.2557 5.37248C16.9671 5.2027 16.6785 5.21119 16.3808 5.34701C16.0111 5.52528 15.6322 5.66959 15.2174 5.72901C14.9107 5.77145 14.6131 5.78843 14.3155 5.68657C14.2343 5.6611 14.1531 5.64412 14.0449 5.61865C14.1441 5.98367 14.3966 6.18741 14.6762 6.37416C14.586 6.52696 14.4237 6.37416 14.3335 6.46754C14.3335 6.49301 14.3335 6.50998 14.3425 6.51847C14.6041 6.72221 14.8927 6.84954 15.2444 6.83256C15.3256 6.82407 15.4068 6.83256 15.4879 6.84954C15.6954 6.90896 15.8938 6.92594 16.0832 6.83256C16.1463 6.7986 16.2185 6.77314 16.2816 6.82407C16.2816 6.84954 16.2906 6.84954 16.2816 6.85803C16.2726 6.875 16.2636 6.90047 16.2455 6.91745C15.8938 7.1806 15.7856 7.52865 15.7856 7.92762C15.7856 8.13984 15.7585 8.34358 15.6593 8.53882C15.6142 8.61522 15.6142 8.70011 15.5872 8.785C15.5691 8.84442 15.5511 8.89535 15.524 8.95477C15.3436 8.91233 15.1903 8.8614 15.028 8.83593C14.9197 8.81895 14.7935 8.81046 14.6943 8.85291C14.55 8.90384 14.4507 8.88686 14.3245 8.81046C14.0629 8.64917 13.7833 8.62371 13.5037 8.785C13.3234 8.88686 13.161 8.99722 12.9896 9.10757C12.8634 9.19246 12.7371 9.28584 12.6018 9.36224C12.5116 9.41317 12.4034 9.42166 12.3493 9.31131C12.2411 9.08211 12.1328 8.84442 12.0246 8.60673C11.9254 8.41149 11.8532 8.19078 11.5466 8.20775C11.4203 8.21624 11.3752 8.13135 11.3752 8.021C11.3752 7.96158 11.3933 7.8682 11.3572 7.84273C11.2039 7.72389 11.1588 7.5626 11.1137 7.39282C11.0956 7.30794 11.0415 7.24851 10.9513 7.29096C10.9423 7.39282 10.9423 7.47771 10.9423 7.51167C10.9964 7.65598 11.0415 7.75785 11.0866 7.88518C11.0776 7.88518 11.1046 7.89367 11.1407 7.90216C11.249 7.93611 11.267 8.021 11.1948 8.08042C11.1046 8.16531 10.9964 8.2502 10.8792 8.30113C10.8341 8.3266 10.7168 8.30113 10.6807 8.25869C10.5455 8.11438 10.329 7.99553 10.4733 7.74936C10.4192 7.51167 10.5364 7.38434 10.7619 7.32491C10.7709 7.32491 10.78 7.29945 10.78 7.29096C10.7078 7.19758 10.6266 7.11269 10.5545 7.01932C10.2478 6.62883 9.95922 6.23834 9.65257 5.84785C9.58041 5.76296 9.49924 5.69505 9.40905 5.64412C9.30082 5.57621 9.16553 5.60168 9.09338 5.68657C9.00319 5.77145 9.02123 5.87332 9.07534 5.9667C9.11142 6.03461 9.16553 6.10252 9.21063 6.16194C9.55336 6.62034 9.89608 7.07874 10.2388 7.53714C10.2929 7.61353 10.3561 7.68145 10.2929 7.76633C10.2118 7.89367 10.2659 7.99553 10.347 8.08891C10.4282 8.19078 10.5184 8.27567 10.5906 8.37753C10.6627 8.4794 10.7529 8.58975 10.7709 8.70011C10.816 8.94628 10.9423 9.15002 11.0686 9.36224C11.1407 9.47259 11.2129 9.59144 11.276 9.70179C11.3933 9.91401 11.3662 10.0923 11.1768 10.2536C11.0686 10.3469 10.9423 10.4318 10.8521 10.5422C10.7168 10.695 10.5996 10.8648 10.5004 11.043C10.4372 11.1534 10.4102 11.2977 10.5364 11.425C10.6898 11.3911 10.8521 11.3656 11.0054 11.3147C11.258 11.2298 11.4654 11.3996 11.4203 11.6712C11.3933 11.8325 11.3031 11.9598 11.1227 12.0192C11.0415 12.0447 10.9513 12.0617 10.8611 12.0956C10.5545 12.1975 10.2478 12.2994 9.95922 12.4182C9.49924 12.6135 9.47219 13.1143 9.70668 13.4029C9.9051 13.6491 9.86903 13.7764 9.60747 13.9802C9.49022 14.0651 9.36396 14.1415 9.24671 14.2264C9.1024 14.3197 9.01221 14.4471 9.03927 14.6253C9.05731 14.7357 9.00319 14.8036 8.92202 14.863C8.76869 14.9988 8.66046 15.1601 8.59733 15.3554C8.56125 15.4487 8.56125 15.5421 8.64243 15.61C8.7236 15.6864 8.79575 15.627 8.8679 15.6015C9.04829 15.5336 9.21965 15.4487 9.40003 15.4148C9.84197 15.3299 10.2929 15.262 10.7529 15.279C11.1317 15.2959 11.5015 15.3469 11.8081 15.5591C12.0517 15.7204 12.2681 15.9156 12.4936 16.0939C12.5838 16.1703 12.683 16.2552 12.7912 16.2976C12.9175 16.3486 13.0798 16.3316 13.179 16.3995C13.2873 16.4759 13.3324 16.6117 13.4135 16.7221C13.4226 16.7306 13.4226 16.7306 13.4316 16.7391C13.5398 16.8239 13.5218 16.9343 13.4947 17.0447C13.4677 17.155 13.3594 17.138 13.2692 17.1465C12.7822 17.2059 12.3042 17.2654 11.8352 17.4182C11.745 17.4436 11.6819 17.4351 11.6097 17.3842C11.4834 17.2908 11.3662 17.1974 11.2309 17.121C10.7168 16.79 10.1757 16.5438 9.54434 16.5014C9.08436 16.4674 8.6785 16.6117 8.33577 16.9003C7.9209 17.2484 7.6413 17.6898 7.39779 18.1567C7.28054 18.3859 7.19937 18.6151 7.14525 18.8613C7.09114 19.1159 7.01898 19.3621 6.94683 19.6083C6.90173 19.7441 6.8386 19.7781 6.73037 19.7101C6.45078 19.5404 6.15315 19.3961 5.96375 19.1244C5.72023 18.7764 5.72023 18.5981 6.09001 18.2501C6.14413 18.1991 6.2253 18.1822 6.30647 18.1482C6.36961 18.2925 6.29745 18.4368 6.43274 18.5472C6.53195 18.6321 6.6041 18.7509 6.69429 18.8528C6.98291 18.5981 6.91977 18.1142 6.59508 17.9614C6.53195 17.936 6.45078 17.9105 6.37862 17.919C5.97276 17.953 5.68415 18.0888 5.55788 18.5132C5.41358 19.0141 5.51279 19.4979 5.98178 19.846Z" fill="white"/>
<path d="M17.3281 8.87026C17.1927 8.74243 17.0393 8.76799 16.8589 8.80208C16.9852 9.06627 17.1296 9.08331 17.3281 8.87026Z" fill="white"/>
<path d="M43.7269 1.98541H44.9084V5.15175H42.825C43.4022 4.5066 43.6998 3.52189 43.7269 1.98541ZM42.2929 6.07704H45.6209V7.15512H46.7122V5.15175H45.9997V1.05164H42.6807V1.88354C42.6807 3.72562 42.3019 4.61695 41.6164 5.15175H41.2015V7.15512H42.2929V6.07704Z" fill="white"/>
<path d="M47.8846 1.05164V6.07704H51.5735V5.15175H48.976V3.87842H50.8159V3.00407H48.976V1.98541H51.4743V1.05164H47.8846Z" fill="white"/>
<path d="M52.8723 1.05164V6.07704H53.9636V1.98541H56.1372V6.07704H57.2285V1.05164H52.8723Z" fill="white"/>
<path d="M60.8632 2.87777L61.5757 4.57554H60.1507L60.8632 2.87777ZM60.6828 0.95929L58.2927 6.07807H59.4652L59.7628 5.42443H61.9455L62.2431 6.07807H63.4156L61.0526 0.95929H60.6828Z" fill="white"/>
<path d="M65.5892 1.95994H66.5002C67.0052 1.95994 67.3119 2.25705 67.3119 2.67301C67.3119 3.10594 67.0142 3.40305 66.5002 3.40305H65.5892V1.95994ZM65.5892 4.30287H66.5002C67.6275 4.30287 68.4212 3.64074 68.4212 2.67301C68.4212 1.6883 67.6185 1.05164 66.5002 1.05164H64.4889V6.07704H65.5802V4.30287H65.5892Z" fill="white"/>
<path d="M69.269 1.05164V1.98541H70.9737V6.07704H72.065V1.98541H73.7786V1.05164H69.269Z" fill="white"/>
<path d="M76.3038 2.87777L77.0163 4.57554H75.5913L76.3038 2.87777ZM76.1235 0.95929L73.7334 6.07807H74.9059L75.2035 5.42443H77.3861L77.6838 6.07807H78.8562L76.4932 0.95929H76.1235Z" fill="white"/>
<path d="M84.809 0.95929L82.5543 3.68421L80.2995 0.95929H79.9387V6.07807H81.03V3.39559L82.3739 4.98301H82.7346L84.0785 3.39559V6.07807H85.1698V0.95929H84.809Z" fill="white"/>
<path d="M86.7482 1.05164V6.07704H90.437V5.15175H87.8395V3.87842H89.6704V3.00407H87.8395V1.98541H90.3378V1.05164H86.7482Z" fill="white"/>
<path d="M95.1809 1.05164V2.97861H92.8269V1.05164H91.7356V6.07704H92.8269V3.91238H95.1809V6.07704H96.2812V1.05164H95.1809Z" fill="white"/>
<path d="M97.3456 1.05164V1.98541H99.0502V6.07704H100.142V1.98541H101.855V1.05164H97.3456Z" fill="white"/>
<path d="M46.0087 15.2196V10.1942H41.6434V15.2196H42.7347V11.1194H44.9174V15.2196H46.0087Z" fill="white"/>
<path d="M48.6694 11.1025H49.5804C50.0945 11.1025 50.3921 11.3996 50.3921 11.8155C50.3921 12.2485 50.0945 12.5456 49.5804 12.5456H48.6694V11.1025ZM48.6694 13.4454H49.5804C50.7078 13.4454 51.5105 12.7833 51.5105 11.8155C51.5105 10.8308 50.7078 10.1942 49.5804 10.1942H47.5781V15.2196H48.6694V13.4454Z" fill="white"/>
<path d="M56.3357 14.2858H53.7472V13.0209H55.5781V12.1381H53.7472V11.1194H56.2455V10.1942H52.6469V15.2196H56.3357V14.2858Z" fill="white"/>
<path d="M59.817 11.1194H60.9985V14.2858H58.9151C59.4923 13.6406 59.7989 12.6559 59.817 11.1194ZM58.3829 15.2196H61.711V16.2892H62.8023V14.2858H62.0898V10.1857H58.7708V11.0176C58.7708 12.8597 58.392 13.751 57.7065 14.2858H57.2916V16.2892H58.3829V15.2196Z" fill="white"/>
<path d="M65.0662 11.1194H67.2488V15.2196H68.3401V10.1942H63.9749V15.2196H65.0662V11.1194Z" fill="white"/>
<path d="M71.9206 12.5456H71.0096V11.1025H71.9206C72.4256 11.1025 72.7323 11.3996 72.7323 11.8155C72.7323 12.2485 72.4256 12.5456 71.9206 12.5456ZM71.9206 10.1942H69.9093V15.2196H71.0006V13.4454H71.9115C73.0389 13.4454 73.8326 12.7833 73.8326 11.8155C73.8416 10.8308 73.048 10.1942 71.9206 10.1942Z" fill="white"/>
<path d="M76.0784 10.1941H74.9871V15.3129H75.3388L78.5226 12.1296V15.2195H79.6139V10.1008H79.2441L76.0784 13.2501V10.1941Z" fill="white"/>
<path d="M84.6377 12.1211H82.2747V10.1942H81.1833V15.2196H82.2747V13.0464H84.6377V15.2196H85.729V10.1942H84.6377V12.1211Z" fill="white"/>
<path d="M88.3897 13.2501V10.1941H87.2983V15.3129H87.6501L90.8338 12.1381V15.2195H91.9252V10.1008H91.5644L88.3897 13.2501Z" fill="white"/>
<path d="M96.1097 12.8172L93.8549 10.1008H93.4941V15.2195H94.5855V12.5371L95.9293 14.1245H96.2901L97.6339 12.5371V15.2195H98.7252V10.1008H98.3645L96.1097 12.8172Z" fill="white"/>
<path d="M102.36 12.0193L103.073 13.717H101.648L102.36 12.0193ZM100.971 15.2195L101.269 14.5659H103.451L103.749 15.2195H104.922L102.541 10.1008H102.18L99.7897 15.2195H100.971Z" fill="white"/>
<path d="M106.599 15.2196H107.69V11.1194H109.404V10.1942H104.895V11.1194H106.599V15.2196Z" fill="white"/>
<path d="M114.157 14.2858H111.568V13.0209H113.399V12.1381H111.568V11.1194H114.067V10.1942H110.468V15.2196H114.157V14.2858Z" fill="white"/>
<path d="M118.685 15.22H119.776V10.1946H116.304V11.1199C116.304 13.3185 115.889 14.1929 115.032 14.2863V15.254C116.385 15.1606 117.314 14.3457 117.341 11.1199H118.676V15.22H118.685Z" fill="white"/>
<path d="M123.537 14.3117H122.446V12.8176H123.537C124.069 12.8176 124.367 13.1317 124.367 13.5731C124.367 14.0061 124.069 14.3117 123.537 14.3117ZM125.485 13.5647C125.485 12.5884 124.682 11.9178 123.537 11.9178H122.446V10.1861H121.354V15.2115H123.537C124.682 15.22 125.485 14.5663 125.485 13.5647Z" fill="white"/>
<path d="M129.309 15.313C130.346 15.313 131.212 14.8376 131.672 14.0651L130.851 13.5134C130.491 14.0482 129.995 14.3538 129.318 14.3538C128.326 14.3538 127.596 13.6746 127.596 12.7069C127.596 11.7307 128.326 11.0431 129.318 11.0431C129.986 11.0431 130.491 11.3572 130.851 11.892L131.672 11.3402C131.203 10.5677 130.346 10.0923 129.318 10.0923C127.722 10.0923 126.468 11.2214 126.468 12.6984C126.477 14.184 127.731 15.313 129.309 15.313Z" fill="white"/>
<path d="M132.556 11.1194H134.261V15.2196H135.352V11.1194H137.066V10.1942H132.556V11.1194Z" fill="white"/>
<path d="M139.185 14.3367V13.0719H140.43C140.908 13.0719 141.187 13.3181 141.187 13.7085C141.187 14.1075 140.908 14.3367 140.43 14.3367H139.185ZM139.185 11.077H139.934C140.385 11.077 140.628 11.2977 140.628 11.6457C140.628 11.9853 140.385 12.223 139.934 12.223H139.185V11.077ZM142.27 13.7425C142.27 13.1228 141.909 12.6984 141.323 12.5031C141.575 12.2739 141.72 11.9683 141.72 11.5948C141.72 10.7629 141.016 10.1942 140.024 10.1942H138.13V15.2196H140.511C141.548 15.2196 142.27 14.6084 142.27 13.7425Z" fill="white"/>
<path d="M144.786 13.717L145.499 12.0193L146.211 13.717H144.786ZM145.318 10.1008L142.928 15.2195H144.101L144.398 14.5659H146.581L146.879 15.2195H148.051L145.67 10.1008H145.318Z" fill="white"/>
<path d="M46.2702 24.3536V19.2433H45.9095L42.7347 22.3926V19.3282H41.6434V24.4469H42.0042L45.1789 21.2721V24.3536H46.2702Z" fill="white"/>
<path d="M50.6176 19.3282V24.4469H50.9783L54.153 21.2721V24.3536H55.2444V19.2433H54.8836L51.7089 22.3926V19.3282H50.6176Z" fill="white"/>
<path d="M57.9049 22.1889H60.2679V24.3535H61.3592V19.3281H60.2679V21.2551H57.9049V19.3281H56.8136V24.3535H57.9049V22.1889Z" fill="white"/>
<path d="M67.4833 24.3535V19.3281H66.3919V21.2551H64.0289V19.3281H62.9376V24.3535H64.0289V22.1889H66.3919V24.3535H67.4833Z" fill="white"/>
<path d="M69.8643 21.8408C69.8643 20.8731 70.5859 20.1855 71.578 20.1855C72.552 20.1855 73.2916 20.8731 73.2916 21.8408C73.2916 22.817 72.552 23.4961 71.578 23.4961C70.5768 23.4961 69.8643 22.817 69.8643 21.8408ZM74.419 21.8408C74.419 20.3638 73.1383 19.2347 71.5689 19.2347C69.9996 19.2347 68.7369 20.3638 68.7369 21.8408C68.7369 23.3179 69.9996 24.4469 71.5689 24.4469C73.1383 24.4469 74.419 23.3179 74.419 21.8408Z" fill="white"/>
<path d="M77.9636 23.4711H76.7189V22.2062H77.9636C78.4416 22.2062 78.7212 22.4524 78.7212 22.8344C78.7212 23.2334 78.4416 23.4711 77.9636 23.4711ZM76.7099 20.2113H77.4585C77.9094 20.2113 78.153 20.432 78.153 20.7801C78.153 21.1196 77.9094 21.3573 77.4585 21.3573H76.7099V20.2113ZM78.8474 21.6375C79.1 21.4083 79.2443 21.1027 79.2443 20.7292C79.2443 19.8972 78.5408 19.3285 77.5487 19.3285H75.6547V24.3539H78.0357C79.0729 24.3539 79.7944 23.7427 79.7944 22.8768C79.7944 22.2656 79.4337 21.8327 78.8474 21.6375Z" fill="white"/>
<path d="M82.3107 22.8595L83.0232 21.1618L83.7357 22.8595H82.3107ZM82.8428 19.2433L80.4528 24.3621H81.6252L81.9229 23.7084H84.1055L84.4031 24.3621H85.5756L83.1946 19.2433H82.8428Z" fill="white"/>
<path d="M91.0051 19.3281H89.9137V23.4282H87.7492V19.3281H86.6578V24.3535H90.6172V25.4316H91.7086V23.4282H91.0051V19.3281Z" fill="white"/>
<path d="M92.8993 19.3282V24.4469H93.2601L96.4348 21.2721V24.3536H97.5261V19.2433H97.1653L93.9906 22.3926V19.3282H92.8993Z" fill="white"/>
<path d="M101.612 23.4962C100.62 23.4962 99.8981 22.8171 99.8981 21.8409C99.8981 20.8731 100.62 20.1855 101.612 20.1855C102.586 20.1855 103.325 20.8731 103.325 21.8409C103.325 22.8171 102.586 23.4962 101.612 23.4962ZM101.603 19.2433C100.033 19.2433 98.7708 20.3723 98.7708 21.8494C98.7708 23.3264 100.033 24.4554 101.603 24.4554C103.172 24.4554 104.453 23.3264 104.453 21.8494C104.444 20.3638 103.172 19.2433 101.603 19.2433Z" fill="white"/>
<path d="M110.243 24.3535V19.3281H109.152V21.2551H106.789V19.3281H105.697V24.3535H106.789V22.1889H109.152V24.3535H110.243Z" fill="white"/>
<path d="M115.267 21.2551H112.904V19.3281H111.812V24.3535H112.904V22.1889H115.267V24.3535H116.358V19.3281H115.267V21.2551Z" fill="white"/>
<path d="M120.453 23.4962C119.46 23.4962 118.739 22.8171 118.739 21.8409C118.739 20.8731 119.46 20.1855 120.453 20.1855C121.436 20.1855 122.166 20.8731 122.166 21.8409C122.166 22.8171 121.436 23.4962 120.453 23.4962ZM120.444 19.2433C118.874 19.2433 117.612 20.3723 117.612 21.8494C117.612 23.3264 118.874 24.4554 120.444 24.4554C122.013 24.4554 123.294 23.3264 123.294 21.8494C123.294 20.3638 122.013 19.2433 120.444 19.2433Z" fill="white"/>
<path d="M124.538 24.3535H125.63V20.2619H127.984V19.3281H124.538V24.3535Z" fill="white"/>
<path d="M131.519 23.4962C130.527 23.4962 129.805 22.8171 129.805 21.8409C129.805 20.8731 130.527 20.1855 131.519 20.1855C132.502 20.1855 133.232 20.8731 133.232 21.8409C133.232 22.8171 132.493 23.4962 131.519 23.4962ZM131.51 19.2433C129.94 19.2433 128.678 20.3723 128.678 21.8494C128.678 23.3264 129.94 24.4554 131.51 24.4554C133.079 24.4554 134.36 23.3264 134.36 21.8494C134.36 20.3638 133.079 19.2433 131.51 19.2433Z" fill="white"/>
<path d="M140.412 21.6799H139.501V20.2368H140.412C140.917 20.2368 141.223 20.5339 141.223 20.9499C141.223 21.3913 140.917 21.6799 140.412 21.6799ZM140.412 19.3285H138.401V24.3539H139.492V22.5797H140.403C141.53 22.5797 142.324 21.9176 142.324 20.9499C142.333 19.9736 141.539 19.3285 140.412 19.3285Z" fill="white"/>
<path d="M144.389 22.8595L145.102 21.1618L145.814 22.8595H144.389ZM144.922 19.2433L142.531 24.3621H143.704L144.002 23.7084H146.184L146.482 24.3621H147.654L145.273 19.2433H144.922Z" fill="white"/>
<path d="M151.731 21.6965C152.037 21.4588 152.218 21.1278 152.218 20.7203C152.218 19.8629 151.406 19.2347 150.387 19.2347C149.53 19.2347 148.818 19.6762 148.466 20.3298L149.224 20.8391C149.521 20.4317 149.909 20.1855 150.378 20.1855C150.829 20.1855 151.127 20.4317 151.127 20.7797C151.127 21.1023 150.883 21.357 150.441 21.357H149.62V22.2058H150.676C151.154 22.2058 151.424 22.469 151.424 22.817C151.424 23.25 150.991 23.4961 150.468 23.4961C149.927 23.4961 149.485 23.2585 149.133 22.7661L148.367 23.2839C148.755 23.98 149.503 24.4469 150.477 24.4469C151.614 24.4469 152.506 23.8187 152.506 22.868C152.506 22.3332 152.218 21.9257 151.731 21.6965Z" fill="white"/>
<path d="M156.078 23.4711H154.834V22.2062H156.078C156.556 22.2062 156.836 22.4524 156.836 22.8344C156.836 23.2334 156.556 23.4711 156.078 23.4711ZM154.834 20.2113H155.582C156.033 20.2113 156.277 20.432 156.277 20.7801C156.277 21.1196 156.033 21.3573 155.582 21.3573H154.834V20.2113ZM156.971 21.6375C157.224 21.4083 157.368 21.1027 157.368 20.7292C157.368 19.8972 156.664 19.3285 155.681 19.3285H153.787V24.3539H156.168C157.206 24.3539 157.927 23.7427 157.927 22.8768C157.918 22.2656 157.548 21.8327 156.971 21.6375Z" fill="white"/>
<path d="M160.236 22.3926V19.3282H159.144V24.4469H159.496L162.68 21.2721V24.3536H163.771V19.2433H163.401L160.236 22.3926Z" fill="white"/>
<path d="M164.836 20.2619H166.54V24.3535H167.632V20.2619H169.354V19.3281H164.836V20.2619Z" fill="white"/>
<path d="M171.51 22.3926V19.3282H170.418V24.4469H170.77L173.954 21.2721V24.3536H175.045V19.2433H174.685L171.51 22.3926Z" fill="white"/>
<path d="M179.41 21.9087H178.599C178.021 21.9087 177.67 21.5607 177.67 21.0683C177.67 20.593 178.021 20.2364 178.599 20.2364H179.41V21.9087ZM178.617 19.3281C177.408 19.3281 176.551 20.0242 176.551 21.0683C176.551 21.705 176.885 22.2228 177.417 22.5199L176.146 24.3535H177.363L178.445 22.8001C178.5 22.8086 178.554 22.8086 178.608 22.8086H179.401V24.3535H180.493V19.3281H178.617Z" fill="white"/>
<path d="M41.6434 33.496H42.7347V29.3959H45.0797V28.4706H41.6434V33.496Z" fill="white"/>
<path d="M48.6243 32.6387C47.6322 32.6387 46.9107 31.9596 46.9107 30.9834C46.9107 30.0157 47.6322 29.3281 48.6243 29.3281C49.5984 29.3281 50.338 30.0157 50.338 30.9834C50.338 31.9596 49.5984 32.6387 48.6243 32.6387ZM48.6153 28.3773C47.046 28.3773 45.7833 29.5063 45.7833 30.9834C45.7833 32.4605 47.046 33.5895 48.6153 33.5895C50.1847 33.5895 51.4654 32.4605 51.4654 30.9834C51.4654 29.5063 50.1847 28.3773 48.6153 28.3773Z" fill="white"/>
<path d="M54.7123 30.8225H53.8014V29.3794H54.7123C55.2174 29.3794 55.524 29.6765 55.524 30.0924C55.524 30.5254 55.2264 30.8225 54.7123 30.8225ZM54.7123 28.4711H52.701V33.4965H53.7924V31.7223H54.7033C55.8307 31.7223 56.6244 31.0602 56.6244 30.0924C56.6424 29.1077 55.8397 28.4711 54.7123 28.4711Z" fill="white"/>
<path d="M60.4393 32.6387C59.4472 32.6387 58.7257 31.9596 58.7257 30.9834C58.7257 30.0157 59.4472 29.3281 60.4393 29.3281C61.4133 29.3281 62.1529 30.0157 62.1529 30.9834C62.1529 31.9596 61.4224 32.6387 60.4393 32.6387ZM60.4303 28.3773C58.8609 28.3773 57.5983 29.5063 57.5983 30.9834C57.5983 32.4605 58.8609 33.5895 60.4303 33.5895C61.9996 33.5895 63.2803 32.4605 63.2803 30.9834C63.2803 29.5063 61.9996 28.3773 60.4303 28.3773Z" fill="white"/>
<path d="M67.6908 32.5627H65.6073C66.1936 31.9175 66.4912 30.9328 66.5092 29.3964H67.6908V32.5627ZM68.7911 28.4711H65.472V29.303C65.472 31.1451 65.0932 32.0364 64.3988 32.5712H63.9839V34.5746H65.0752V33.505H68.4033V34.5746H69.4946V32.5712H68.7821V28.4711H68.7911Z" fill="white"/>
<path d="M72.2184 31.9936L72.9309 30.2958L73.6434 31.9936H72.2184ZM72.7505 28.3773L70.3605 33.4961H71.533L71.8306 32.8425H74.0132L74.3108 33.4961H75.4833L73.1023 28.3773H72.7505Z" fill="white"/>
<path d="M81.9589 31.0938L79.7042 28.3773H79.3434V33.4961H80.4347V30.8136L81.7786 32.401H82.1393L83.4832 30.8136V33.4961H84.5745V28.3773H84.2137L81.9589 31.0938Z" fill="white"/>
<path d="M88.6783 32.6387C87.6862 32.6387 86.9647 31.9596 86.9647 30.9834C86.9647 30.0157 87.6862 29.3281 88.6783 29.3281C89.6524 29.3281 90.3919 30.0157 90.3919 30.9834C90.3919 31.9596 89.6524 32.6387 88.6783 32.6387ZM88.6693 28.3773C87.1 28.3773 85.8373 29.5063 85.8373 30.9834C85.8373 32.4605 87.1 33.5895 88.6693 33.5895C90.2386 33.5895 91.5193 32.4605 91.5193 30.9834C91.5103 29.5063 90.2386 28.3773 88.6693 28.3773Z" fill="white"/>
<path d="M95.3796 29.3281C96.047 29.3281 96.5521 29.6422 96.9038 30.177L97.7245 29.6252C97.2555 28.8527 96.3987 28.3773 95.3706 28.3773C93.7742 28.3773 92.5205 29.5063 92.5205 30.9834C92.5205 32.4605 93.7742 33.5895 95.3615 33.5895C96.3987 33.5895 97.2646 33.1141 97.7245 32.3416L96.9038 31.7898C96.5521 32.3246 96.047 32.6387 95.3796 32.6387C94.3875 32.6387 93.6569 31.9596 93.6569 30.9919C93.6569 30.0157 94.3875 29.3281 95.3796 29.3281Z" fill="white"/>
<path d="M103.361 28.4706H102.063L100.015 30.7966V28.4706H98.924V33.496H100.015V30.873L102.306 33.496H103.632L101.314 30.839L103.361 28.4706Z" fill="white"/>
<path d="M106.996 32.6132H105.751V31.3484H106.996C107.474 31.3484 107.754 31.5945 107.754 31.9765C107.754 32.3755 107.465 32.6132 106.996 32.6132ZM105.742 29.3535H106.491C106.942 29.3535 107.185 29.5742 107.185 29.9222C107.185 30.2618 106.942 30.4995 106.491 30.4995H105.742V29.3535ZM107.88 30.7796C108.132 30.5504 108.277 30.2448 108.277 29.8713C108.277 29.0394 107.573 28.4706 106.59 28.4706H104.696V33.496H107.077C108.114 33.496 108.836 32.8848 108.836 32.019C108.827 31.3993 108.466 30.9749 107.88 30.7796Z" fill="white"/>
<path d="M112.218 32.5877H111.127V31.0937H112.218C112.75 31.0937 113.048 31.4078 113.048 31.8492C113.057 32.2821 112.759 32.5877 112.218 32.5877ZM112.218 30.2024H111.127V28.4706H110.036V33.496H112.218C113.364 33.496 114.166 32.8424 114.166 31.8407C114.175 30.8645 113.373 30.2024 112.218 30.2024Z" fill="white"/>
<path d="M116.196 28.4706H115.104V33.496H116.196V28.4706Z" fill="white"/>
</g>
<defs>
<clipPath id="clip0_6245_395">
<rect width="179.932" height="37.8518" fill="white" transform="translate(0.570312 0.703613)"/>
</clipPath>
</defs>
</svg>
