<svg width="181" height="40" viewBox="0 0 181 40" fill="none" xmlns="http://www.w3.org/2000/svg">
<g clip-path="url(#clip0_6290_11)">
<path d="M0.707669 0.699708H32.8431V31.5586C32.8431 34.8329 30.6747 36.7885 27.0457 36.7885H23.1353C20.5587 36.7885 18.472 37.5241 16.7845 39.0401C15.0788 37.5331 13.0012 36.7885 10.4336 36.7885H6.53233C2.88511 36.7885 0.707669 34.8329 0.707669 31.5586V0.699708ZM0 31.5586C0 35.2187 2.50406 37.4882 6.53233 37.4882H10.4427C12.9014 37.4882 14.8701 38.2059 16.4669 39.686L16.7935 39.991L17.1201 39.686C18.7079 38.2059 20.6766 37.4882 23.1444 37.4882H27.0547C31.0649 37.4882 33.5598 35.2187 33.5598 31.5586V0H0V31.5586Z" fill="#FF4261"/>
<path d="M6.62297 21.7629C6.84979 21.4579 6.93145 21.099 6.94052 20.7402C6.95866 20.0943 7.14012 19.4933 7.43044 18.9192C7.56653 18.6411 7.72984 18.372 7.89315 18.0759C7.82964 18.1118 7.78428 18.1298 7.73891 18.1567C7.54839 18.3181 7.35786 18.4975 7.15826 18.659C7.1129 18.6949 7.04939 18.7218 6.97681 18.7667C6.97681 18.7039 6.95866 18.668 6.96774 18.6411C7.33064 17.9593 7.80242 17.3762 8.51009 17.0084C8.70062 16.9097 8.90022 16.8649 9.10889 16.8739C9.7712 16.9187 10.3065 17.2327 10.7692 17.6902C10.8327 17.753 10.8781 17.8158 10.8236 17.9055C10.7692 18.0042 10.7057 18.058 10.5877 18.04C10.3156 18.0131 10.0434 17.9862 9.7712 17.9683C9.04538 17.9145 8.55546 18.2823 8.19255 18.8564C7.9113 19.2959 7.74799 19.7714 7.66633 20.2827C7.56653 20.9017 7.26713 21.404 6.78628 21.8167C6.73185 21.8615 6.66834 21.8884 6.6139 21.9243C6.59576 21.9064 6.58668 21.8884 6.56854 21.8705C6.58668 21.8346 6.59576 21.7898 6.62297 21.7629ZM11.8851 18.3809C12.2753 18.2015 12.7017 18.1477 13.119 18.0759C13.3005 18.049 13.3368 18.0939 13.3458 18.2733C13.364 18.5873 13.3912 18.8923 13.4184 19.2062C13.491 20.0136 13.1916 20.7043 12.7561 21.3592C12.4839 21.7718 12.1755 22.1396 11.74 22.3908C11.5676 22.4895 11.4224 22.633 11.2682 22.7586C11.2047 22.8124 11.1593 22.8752 11.0686 22.9739C11.4134 23.1533 11.74 23.1174 12.0484 23.1712C12.1029 23.2789 12.0575 23.3417 11.9668 23.3776C11.7853 23.4493 11.613 23.5121 11.4315 23.5839C11.114 23.6915 10.7964 23.7812 10.4879 23.9068C9.88007 24.158 9.43551 24.5796 9.10889 25.1448C9.02724 25.2793 8.95465 25.4139 8.873 25.5485C8.82764 25.6202 8.7732 25.701 8.68247 25.6471C8.63711 25.6202 8.60082 25.5215 8.60082 25.4587C8.63711 24.9115 8.89115 24.4989 9.34478 24.1849C9.84378 23.844 10.1613 23.3955 10.2158 22.7855C10.3065 21.7629 10.4426 20.7581 10.6966 19.7624C10.8599 19.1165 11.2773 18.668 11.8851 18.3809ZM12.121 15.0528C11.5585 15.008 11.0323 14.8375 10.5152 14.6402C9.94358 14.4159 9.372 14.4428 8.83671 14.7568C8.81856 14.7658 8.79135 14.7747 8.76413 14.7837C8.65526 14.6761 8.70062 14.5774 8.78227 14.4787C8.96373 14.2634 9.19962 14.1289 9.4718 14.0571C10.1432 13.8597 10.8055 13.6534 11.4769 13.4561C11.6129 13.4112 11.74 13.3664 11.8761 13.3125C11.9214 13.2946 11.9668 13.2497 12.0484 13.1959C11.1412 13.0434 10.3246 13.1511 9.50809 13.465C9.28127 13.0883 9.31756 12.9089 9.65325 12.6577C9.95265 12.4424 10.2883 12.3706 10.6422 12.3706C11.1321 12.3706 11.622 12.4244 12.0938 12.559C12.5202 12.6846 12.9557 12.8191 13.3821 12.9447C13.4003 12.9447 13.4003 12.9716 13.4275 12.9896C13.3095 13.1241 13.1281 13.1331 12.9829 13.2228C12.8378 13.3036 12.6835 13.3753 12.5384 13.4471C12.3841 13.5278 12.2208 13.5996 12.0666 13.6803C11.9214 13.7521 11.7672 13.8239 11.6129 13.8866C11.4496 13.9494 11.2863 13.9943 11.1321 14.084C11.2682 14.1468 11.3861 14.084 11.5222 14.075C11.6583 14.0571 11.8035 14.0392 11.9396 14.0212C12.0757 14.0033 12.2208 13.9853 12.3569 13.9584C12.493 13.9315 12.6291 13.9046 12.7743 13.8687C12.6926 14.1019 12.5565 14.2006 11.9486 14.4518C11.9849 14.4697 12.0121 14.4967 12.0394 14.4967C12.493 14.4787 12.9376 14.4518 13.3368 14.2096C13.4366 14.1468 13.5545 14.084 13.6634 14.0391C13.6997 14.0212 13.7722 14.0212 13.7995 14.0481C13.8267 14.075 13.8267 14.1468 13.8176 14.1827C13.7178 14.4339 13.5545 14.6402 13.3277 14.7927C12.9466 15.008 12.5474 15.0887 12.121 15.0528ZM11.0686 8.45942C11.25 8.70163 11.4134 8.93487 11.5857 9.15913C12.7198 10.711 13.8448 12.254 14.9789 13.8059C15.7864 14.9093 16.5848 16.0127 17.3922 17.1071C18.2451 18.2643 19.0979 19.4215 19.9507 20.5787C20.486 21.3143 21.0213 22.0409 21.5566 22.7765C21.6383 22.8932 21.7199 23.0008 21.8832 23.0098C21.9921 23.0098 22.0284 23.1084 22.0375 23.1982C22.0647 23.4135 22.0919 23.6377 22.1282 23.9068C21.8288 23.7633 21.5657 23.6377 21.2935 23.5032C21.3207 23.4314 21.3389 23.3776 21.3661 23.3327C21.4568 23.2071 21.4387 23.0995 21.3479 22.9739C20.7673 22.1755 20.1957 21.3771 19.6151 20.5877C18.8439 19.5202 18.0636 18.4437 17.2834 17.3762C16.6483 16.5061 16.0223 15.6359 15.3872 14.7658C14.0172 12.8819 12.6472 10.9891 11.2773 9.10531C11.1865 8.98869 11.0958 8.87207 11.0051 8.74648C10.9416 8.65678 10.9416 8.56707 11.0686 8.45942ZM13.7995 9.28472C14.0898 9.49105 14.3529 9.72428 14.6251 9.95752C14.8791 10.1728 15.1059 10.415 15.4325 10.5227C15.5959 10.5765 15.7682 10.5855 15.986 10.6213C15.7864 10.738 15.5959 10.7918 15.4144 10.7738C15.2239 10.7649 15.0334 10.6931 14.8338 10.6393C14.9971 10.9263 15.614 11.1237 16.3307 11.0968C16.3307 11.1686 16.3489 11.2583 16.3217 11.3211C16.2491 11.4915 16.1674 11.6709 16.0586 11.8234C15.8771 12.0836 15.6231 12.1553 15.3146 12.0836C14.1442 11.8144 13.3549 11.0788 12.8378 10.0383C12.7833 9.93958 12.7561 9.82296 12.738 9.70634C12.7198 9.54487 12.6745 9.40134 12.5202 9.31163C12.4839 9.29369 12.4658 9.23987 12.4204 9.17707C12.9285 8.99766 13.3821 8.98869 13.7995 9.28472ZM15.6231 5.51706C15.3509 5.66059 15.0969 5.84 14.7884 5.89383C14.5616 5.92971 14.362 5.86691 14.1714 5.7503C14.1261 5.72338 14.1079 5.66956 14.0626 5.58882C14.235 5.60677 14.362 5.60677 14.4981 5.62471C14.7521 5.66059 14.9789 5.61574 15.1967 5.49015C15.4416 5.34662 15.6957 5.20309 15.9497 5.05059C16.1311 4.94294 16.3307 4.93397 16.5303 4.99676C16.5666 5.00573 16.6029 5.05059 16.6392 5.08647C16.6029 5.11338 16.5939 5.14029 16.5666 5.14029C16.2037 5.15823 15.9134 5.35559 15.6231 5.51706ZM14.5434 6.27956C14.5344 6.26162 14.5344 6.24368 14.5253 6.22574C14.7975 6.10912 15.0787 5.98353 15.3781 5.85794C15.1967 6.16294 14.861 6.32442 14.5434 6.27956ZM16.866 6.21677C16.9477 6.37824 17.0021 6.54868 17.0656 6.71912C17.111 6.83574 17.1291 6.96133 17.1654 7.11383C16.9477 7.09589 16.7753 7.09589 16.612 7.07795C16.4305 7.06001 16.3489 6.95236 16.3761 6.77295C16.4033 6.56662 16.4759 6.37824 16.6029 6.2078C16.7118 6.06427 16.7844 6.0553 16.866 6.21677ZM16.3852 7.8853C16.5939 7.8853 16.6211 7.92119 16.5757 8.11854C16.5485 8.23516 16.5213 8.33383 16.7027 8.36972C16.7209 8.22619 16.739 8.09163 16.7572 7.9481C17.238 7.86736 17.3287 7.9481 17.2017 8.36972C17.1291 8.60295 17.0203 8.82722 16.9023 9.04251C16.8116 9.20399 16.7299 9.19501 16.5757 9.08737C16.3217 8.90795 16.2219 8.63884 16.1221 8.36972C16.0586 8.1903 16.0223 8.00192 15.9588 7.83148C15.9134 7.69692 15.9497 7.60721 16.0404 7.51751C16.3307 7.21251 16.9205 7.23942 17.1926 7.56236C17.0566 7.7328 16.8297 7.76869 16.6211 7.67898C16.5213 7.63413 16.4033 7.60721 16.2945 7.60721C16.2309 7.60721 16.1584 7.67001 16.0949 7.70589C16.1584 7.84045 16.2582 7.8853 16.3852 7.8853ZM18.608 8.93487C18.6171 8.9259 18.6352 8.94384 18.6806 8.94384C18.6624 8.98869 18.6443 9.03354 18.6171 9.06046C18.4265 9.23987 18.2904 9.44619 18.1816 9.6884C18.1362 9.77811 18.0818 9.86781 18.0092 9.92164C17.5102 10.2535 17.2289 10.738 17.0747 11.2852C16.9386 11.7427 16.8842 12.2181 16.7662 12.6756C16.7209 12.873 16.6211 13.0614 16.5122 13.2318C16.4215 13.3753 16.2582 13.4291 16.0313 13.4112C16.1311 13.6444 16.2854 13.7969 16.4487 13.9225C16.6029 14.0481 16.7935 14.1289 16.9749 14.2365C16.866 14.4697 16.7481 14.703 16.6211 14.9721C16.2491 14.4787 15.9043 14.0302 15.5686 13.5906C15.7864 13.2677 15.9951 12.9806 16.1856 12.6846C16.4396 12.2899 16.5666 11.8413 16.5939 11.3749C16.6029 11.1416 16.6664 10.9353 16.7662 10.738C17.1564 9.91266 17.7914 9.32957 18.608 8.93487ZM19.1342 10.6931C19.1977 10.7738 19.1433 10.8456 19.0979 10.9174C18.6171 11.6709 18.4447 12.4872 18.5082 13.3664C18.5354 13.7252 18.5536 14.093 18.5626 14.4518C18.5626 14.9811 18.2723 15.3309 17.8005 15.5372C17.6644 15.6 17.5193 15.627 17.3741 15.6539C17.2743 15.6718 17.2108 15.609 17.238 15.5014C17.3197 15.1246 17.4104 14.7568 17.737 14.5056C17.864 14.4069 17.9003 14.2903 17.8822 14.1378C17.855 13.9494 17.8368 13.7611 17.8096 13.5727C17.7733 13.2946 17.8368 13.0255 17.9185 12.7743C18.0001 12.5231 18.1181 12.2899 18.2179 12.0477C18.2269 12.0208 18.236 11.9938 18.2542 11.9669C18.0092 12.0477 17.8459 12.254 17.5646 12.2988C17.5737 12.2361 17.5737 12.2002 17.5918 12.1643C17.8005 11.7516 18.0546 11.3659 18.3902 11.034C18.5354 10.8905 18.7169 10.7828 18.8892 10.6662C18.9709 10.6213 19.0707 10.6034 19.1342 10.6931ZM19.2431 11.3121C19.4155 10.3881 19.8147 9.59869 20.6947 9.12325C20.7854 9.06943 20.8943 9.04251 20.9941 8.99766C21.1574 8.93487 21.3116 8.9259 21.475 8.99766C21.5657 9.03354 21.6746 9.04251 21.7653 9.0784C21.8469 9.11428 21.9286 9.12325 22.0012 9.06943C22.1282 8.98869 22.228 9.02457 22.3459 9.10531C22.5183 9.2309 22.7088 9.33854 22.8812 9.46413C22.981 9.5359 23.0808 9.61663 23.1625 9.71531C23.2804 9.84987 23.2351 9.95752 23.0717 10.0113C22.9901 10.0383 22.9084 10.0383 22.8268 10.0652C22.7905 10.0741 22.7633 10.101 22.6998 10.1459C22.7814 10.1638 22.8177 10.1728 22.854 10.1728C22.8994 10.1818 22.9357 10.1818 22.9629 10.1818C23.0264 10.2715 23.0627 10.3791 23.1353 10.424C23.2078 10.4688 23.3258 10.4419 23.4165 10.4599C23.4709 10.4688 23.5254 10.4868 23.5707 10.5227C23.607 10.5496 23.6433 10.5944 23.6615 10.6393C23.8701 11.1147 24.2421 11.4556 24.6232 11.7875C24.6504 11.8055 24.6685 11.8324 24.6958 11.8593C24.7048 11.8683 24.7048 11.8862 24.7048 11.9131C24.6776 12.0118 24.605 12.0028 24.5324 12.0028C24.3238 11.9849 24.1242 12.0028 23.9246 12.0836C23.852 12.1105 23.7613 12.0925 23.6887 12.0746C23.3167 11.958 22.9447 11.8413 22.5727 11.7247C22.4185 11.6799 22.2643 11.644 22.1191 11.5902C21.6201 11.4018 21.4659 10.9981 21.7108 10.5227C21.7471 10.4419 21.7925 10.3612 21.8288 10.2805C21.8288 10.2805 21.8197 10.2715 21.8016 10.2356C21.5657 10.406 21.4024 10.6124 21.3752 10.9084C21.3389 11.2852 21.4568 11.6261 21.6292 11.949C21.7925 12.254 22.0012 12.5411 22.1282 12.855C22.3278 13.3305 22.4729 13.8328 22.6363 14.3172C22.6816 14.4428 22.7088 14.5684 22.7451 14.694C22.9084 15.304 22.8359 15.905 22.6907 16.4971C22.6181 16.8021 22.5183 17.0981 22.4004 17.3852C22.3096 17.6274 22.2643 17.6364 22.0012 17.5646C21.7471 17.4928 21.4931 17.43 21.23 17.3673C21.0213 17.3224 20.8126 17.2955 20.5949 17.3942C20.7401 17.5108 20.9124 17.5556 21.0939 17.5915C21.4387 17.6633 21.7925 17.735 22.1191 17.8965C22.2461 17.9593 22.3278 18.049 22.3641 18.1836C22.4094 18.363 22.4548 18.5514 22.5183 18.7308C22.5637 18.8564 22.5183 18.9281 22.4004 18.9461C22.1826 18.9909 21.9649 19.0358 21.7381 19.0537C21.4931 19.0717 21.2391 19.0537 20.9941 19.0537C20.985 19.0717 20.976 19.0896 20.976 19.1076C21.0213 19.1434 21.0667 19.1883 21.112 19.2062C21.5385 19.3587 21.974 19.5023 22.4004 19.6548C22.4548 19.6727 22.5002 19.7086 22.5365 19.7534C22.6453 19.879 22.7814 19.9418 22.9538 19.9508C23.4528 19.9598 23.9518 19.9687 24.4508 19.8701C24.7956 19.8073 25.1585 19.7803 25.5214 19.8252C25.721 19.8521 25.8661 19.9418 25.9659 20.1033C26.0294 20.202 26.0929 20.3006 26.1383 20.3993C26.1474 20.4262 26.1383 20.489 26.1202 20.507C26.102 20.5249 26.0385 20.5339 26.0113 20.5159C25.9206 20.4711 25.8389 20.4262 25.7482 20.3724C25.5667 20.2648 25.3944 20.2648 25.2038 20.3634C24.7865 20.5518 24.3691 20.7312 23.9518 20.9106C23.5345 21.0811 23.108 21.1349 22.6544 21.099C22.0919 21.0542 21.5294 20.9914 20.985 20.812C20.5495 20.6684 20.1594 20.4531 19.8782 20.0853C19.479 19.574 19.0979 19.0627 18.7078 18.5514C18.4719 18.2464 18.4084 17.9055 18.5082 17.5287C18.6534 16.9546 18.6806 16.3536 18.7622 15.7705C18.8439 15.1694 18.9437 14.5684 19.0253 13.9674C19.0616 13.6893 19.0707 13.4112 19.0979 13.1331C19.1161 12.5141 19.1342 11.9041 19.2431 11.3121ZM24.3964 18.677C24.478 18.4437 24.6232 18.2733 24.8681 18.1746C25.1312 18.0759 25.3762 17.9414 25.6302 17.8248C25.8026 17.753 25.8026 17.753 26.0204 17.8248C25.8752 18.0131 25.7482 18.1836 25.603 18.3361C25.4125 18.5334 25.222 18.7218 25.0042 18.8923C24.9044 18.973 24.7411 18.9999 24.6141 19.0089C24.4145 19.0178 24.3328 18.8653 24.3964 18.677ZM22.2643 24.2477C22.4276 24.3285 22.482 24.454 22.5002 24.6514C22.4185 24.6065 22.3731 24.5976 22.3278 24.5617C22.2008 24.472 22.0738 24.463 21.9377 24.5437C21.856 24.5976 21.8288 24.6604 21.8832 24.7501C21.974 24.8846 22.0465 25.0371 22.1554 25.1627C22.4004 25.4767 22.6453 25.7907 22.727 26.1854C22.7542 26.3379 22.7723 26.4993 22.7814 26.6518C22.7905 26.8761 22.8812 27.0286 23.0899 27.1183C23.1171 27.1273 23.1443 27.1542 23.1988 27.1991C23.108 27.3157 23.0264 27.4413 22.9357 27.5489C22.8177 27.6835 22.6998 27.827 22.5637 27.9526C22.3096 28.1948 22.0102 28.2038 21.7018 28.0782C21.4205 27.9616 21.1665 27.6924 21.2028 27.3516C21.2209 27.1363 21.2391 26.9299 21.2663 26.7146C21.3116 26.2123 21.3661 25.701 21.4114 25.1986C21.4205 25.1179 21.4114 25.0371 21.4024 24.9564C21.357 24.5886 21.1665 24.4002 20.7945 24.4182C20.5133 24.4271 20.2411 24.4989 19.9598 24.5617C19.7784 24.5976 19.606 24.6693 19.4336 24.6962C19.3519 24.7142 19.2431 24.6962 19.1705 24.6514C18.8892 24.4899 18.6261 24.3105 18.3449 24.149C18.0273 23.9607 17.6916 23.7812 17.365 23.6018C17.3469 23.5929 17.3197 23.6018 17.3015 23.6018C17.356 23.8171 17.4467 24.0235 17.4558 24.2298C17.4558 24.4361 17.3741 24.6424 17.3287 24.8667C17.3469 24.8846 17.3832 24.9205 17.4104 24.9564C17.4467 25.0102 17.5102 25.0999 17.492 25.1179C17.4376 25.1717 17.365 25.2255 17.2924 25.2345C17.111 25.2435 16.9205 25.2524 16.7481 25.2255C16.2945 25.1538 15.8499 25.0551 15.4053 24.9654C15.1967 24.9295 14.988 24.8936 14.7612 24.8757C15.1241 25.2704 15.5233 25.6202 15.7592 26.1136C15.7319 26.1405 15.7138 26.1674 15.6957 26.1674C15.3237 26.1674 14.9789 26.311 14.6342 26.4096C14.4981 26.4455 14.4073 26.4276 14.3348 26.311C14.235 26.1495 14.1352 25.988 14.0263 25.8355C13.8448 25.5574 13.9537 25.3152 14.1442 25.0999C14.235 25.0012 14.3257 24.9026 14.4346 24.8218C14.7975 24.5796 15.0334 24.2298 15.2965 23.9068C15.36 23.8261 15.4053 23.7364 15.4779 23.6736C15.5233 23.6287 15.5959 23.5839 15.6594 23.5749C16.3035 23.4762 16.9386 23.3776 17.5828 23.2879C18.5263 23.1533 19.4155 22.8214 20.2864 22.4715C20.4044 22.4267 20.4679 22.4446 20.5405 22.5433C20.6766 22.7137 20.8217 22.8932 20.976 23.0546C21.0848 23.1623 21.0758 23.2609 21.0122 23.3865C20.8943 23.6018 20.8943 23.6018 21.112 23.7095C21.4931 23.871 21.8742 24.0593 22.2643 24.2477ZM22.8449 23.7902C23.0899 24.1401 23.1443 24.5617 23.3893 24.9115C23.48 24.8487 23.5617 24.8129 23.6343 24.759C23.725 24.6873 23.8066 24.6962 23.8792 24.768C23.9518 24.8308 23.9337 24.8936 23.8792 24.9654C23.725 25.1896 23.8248 25.378 24.1151 25.396C24.2421 25.4049 24.3147 25.4588 24.3601 25.5754C24.4508 25.8176 24.5506 26.0598 24.6413 26.3199C24.5869 26.3468 24.5324 26.3738 24.4599 26.4007C24.4689 26.5173 24.4871 26.6249 24.4962 26.7415C24.4054 26.8223 24.3419 26.7595 24.2784 26.7057C24.0607 26.4993 23.8429 26.302 23.6343 26.0867C23.5072 25.9521 23.4074 25.7996 23.2804 25.6471C23.3258 25.5933 23.3439 25.5664 23.3711 25.5305C23.5163 25.3332 23.4709 25.1986 23.2441 25.091C23.108 25.0282 23.0082 24.9564 22.9719 24.7949C22.9266 24.6065 22.8359 24.4271 22.7814 24.2387C22.7542 24.0862 22.6998 23.9427 22.8449 23.7902ZM23.4619 28.0154C23.2169 28.5177 22.7996 28.8317 22.2915 29.038C22.1645 29.0919 22.0465 29.1277 21.9104 29.1726C21.8106 29.4686 21.7108 29.7736 21.611 30.0876C21.3479 30.0158 21.1302 29.8992 20.9578 29.7198C20.8126 29.5763 20.8126 29.3699 20.976 29.2085C21.1574 29.0201 21.357 28.8407 21.5838 28.7061C22.0647 28.446 22.5637 28.2217 23.0536 27.9795C23.1897 27.9167 23.3349 27.8449 23.4709 27.7732C23.5526 27.8808 23.4982 27.9436 23.4619 28.0154ZM20.4407 25.5933C20.5042 25.369 20.5495 25.1358 20.604 24.9026C20.8036 24.8936 20.9487 25.0102 20.9578 25.2165C20.9578 25.3242 20.9397 25.4498 20.9034 25.5574C20.8036 25.8176 20.6947 26.0688 20.5768 26.3289C20.5495 26.3827 20.5042 26.4186 20.4316 26.4904C20.3681 26.1585 20.359 25.8804 20.4407 25.5933ZM20.5768 28.4818C20.3772 28.8945 20.0596 29.1995 19.6967 29.4686C19.6786 29.4866 19.6513 29.4776 19.5788 29.4955C19.7421 29.1457 19.8782 28.8317 20.0233 28.5267C20.0143 28.5177 20.0052 28.5088 19.9961 28.4998C19.86 28.5805 19.7239 28.6613 19.5878 28.733C19.4427 28.8048 19.2884 28.8586 19.1161 28.8945C19.3429 28.5626 19.479 28.2127 19.5425 27.836C19.3247 27.9257 19.1342 28.0513 18.9255 28.0871C18.5989 28.141 18.2723 28.141 17.9366 28.1679C17.9275 28.1499 17.9185 28.132 17.9094 28.1141C17.9548 28.0782 17.991 28.0333 18.0455 28.0064C18.2814 27.8988 18.5173 27.8001 18.7531 27.6924C18.7985 27.6745 18.8348 27.6476 18.9255 27.5938C18.6987 27.5668 18.5354 27.5489 18.3721 27.531C18.2088 27.513 18.0455 27.4951 17.8731 27.4323C18.0908 27.3426 18.3086 27.2618 18.5082 27.1452C18.7078 27.0286 18.8802 26.8761 19.107 26.7146C19.0163 26.6967 18.9709 26.6788 18.9346 26.6788C18.2723 26.7326 17.6191 26.6608 16.984 26.4635C16.8932 26.4365 16.8116 26.3827 16.7299 26.3199C17.365 26.311 17.991 26.2392 18.5717 25.988C18.2451 25.997 17.9185 25.979 17.6009 25.8893C17.2924 25.7996 16.993 25.7099 16.6937 25.5843C16.6937 25.5664 16.6937 25.5485 16.6937 25.5305C16.7481 25.5215 16.8116 25.5036 16.866 25.5036C17.4285 25.5485 17.9729 25.4677 18.5173 25.3332C18.7804 25.2704 19.0525 25.2076 19.3066 25.1179C19.8419 24.9385 20.0687 25.4139 20.0233 25.7638C19.978 26.0957 19.9417 26.4276 19.8963 26.7685C19.8691 26.9838 19.9507 27.1363 20.1322 27.2439C20.3499 27.3695 20.486 27.5668 20.5768 27.7911C20.6947 28.0154 20.6856 28.2486 20.5768 28.4818ZM17.9548 29.1008C17.9003 29.0919 17.8459 29.0829 17.7914 29.0739C17.5011 28.9842 17.2108 28.9214 16.9114 28.9394C16.5213 28.9573 16.1311 28.9842 15.741 28.9663C15.4325 28.9483 15.115 28.9663 14.8065 28.8586C14.5253 28.751 14.2985 28.5805 14.1352 28.3383C13.9628 28.0871 13.99 27.8091 14.0807 27.531C14.1533 27.3067 14.1352 27.226 13.9083 27.1811C13.6724 27.1273 13.4366 27.0824 13.1916 27.0824C12.7561 27.0645 12.3297 27.0466 11.9033 27.1721C11.5132 27.2888 11.1593 27.4682 10.9234 27.818C10.5605 28.3473 10.5424 28.9214 10.7601 29.5135C10.7783 29.5583 10.7873 29.6121 10.8055 29.666C10.7873 29.6749 10.7783 29.6929 10.7601 29.7019C10.6966 29.648 10.624 29.5942 10.5787 29.5314C10.243 29.1098 10.2067 28.6254 10.3065 28.123C10.3609 27.8898 10.4698 27.6566 10.5877 27.4413C10.8236 27.0196 11.25 26.8313 11.6855 26.6698C12.1664 26.4904 12.6654 26.4276 13.1735 26.5352C13.4184 26.589 13.6543 26.6429 13.8993 26.6788C14.3075 26.7326 14.7158 26.7236 15.115 26.616C15.1513 26.607 15.1967 26.598 15.233 26.5801C15.5051 26.4814 15.6957 26.5711 15.8862 26.7864C16.0949 27.0286 16.358 27.226 16.5939 27.4413C16.6392 27.4861 16.6846 27.531 16.7299 27.5668C16.7209 27.5848 16.7118 27.6027 16.6937 27.6207C16.6029 27.6117 16.5213 27.6027 16.4033 27.5938C16.4305 27.6566 16.4396 27.7014 16.4668 27.7373C16.7299 28.141 17.1201 28.3832 17.5465 28.5895C17.6191 28.6254 17.7007 28.6613 17.7733 28.6971C17.991 28.7958 18.0001 28.8138 17.9548 29.1008ZM16.0586 30.7066C15.8499 30.8501 15.2874 30.7783 14.8973 30.572C14.5071 30.3657 14.1714 29.9261 14.1714 29.5942C14.4799 29.6122 14.7612 29.6749 15.0152 29.8454C15.2874 30.0338 15.5414 30.2491 15.7955 30.4554C15.8771 30.5361 15.9678 30.6258 16.0586 30.7066ZM12.0666 28.9932C11.867 29.0919 11.5041 28.9842 11.4224 28.7869C11.4043 28.733 11.4134 28.6523 11.4496 28.6074C11.5222 28.5088 11.6039 28.4101 11.7037 28.3383C11.8851 28.2127 12.0847 28.1051 12.3206 28.0602C12.5384 28.4101 12.3841 28.8227 12.0666 28.9932ZM13.1281 24.3554C13.0192 24.4989 12.8741 24.6155 12.7561 24.7501C12.4476 25.1089 12.5021 25.4498 12.9013 25.701C13.0737 25.8086 13.2279 25.9252 13.3005 26.1226C13.3186 26.1764 13.3186 26.2302 13.3277 26.293C13.0283 26.284 12.7652 26.2751 12.5021 26.2661C11.9305 26.2482 11.4043 26.3917 10.9144 26.6877C10.8599 26.7236 10.7692 26.7505 10.7057 26.7415C10.2883 26.6877 9.871 26.589 9.48994 26.3917C9.35385 26.3199 9.20869 26.2571 9.0726 26.1943C9.09982 25.9432 9.31756 25.5395 9.49902 25.387C9.82563 25.1179 10.1795 24.9295 10.615 24.8667C10.869 24.8308 11.114 24.7411 11.3498 24.6604C11.9668 24.454 12.5565 24.1939 13.119 23.871C13.1462 23.853 13.1825 23.844 13.2097 23.844C13.2279 23.844 13.237 23.844 13.2823 23.853C13.3731 24.0593 13.237 24.2118 13.1281 24.3554ZM13.8267 23.862C14.0263 23.6108 14.1624 23.5839 14.4346 23.7633C14.4708 23.7812 14.4981 23.8082 14.5344 23.8351C14.5434 23.844 14.5525 23.862 14.5616 23.9068C14.244 24.3105 13.7269 24.472 13.3458 24.8308C13.237 24.6335 13.246 24.5527 13.364 24.4092C13.5273 24.2208 13.6815 24.0414 13.8267 23.862ZM15.2511 16.1472C14.9517 16.2997 14.6432 16.4612 14.3348 16.6047C14.1805 16.6765 14.0081 16.7303 13.8358 16.7662C13.5999 16.82 13.4093 16.7214 13.2551 16.5599C13.1553 16.4612 13.1553 16.3715 13.2642 16.2818C13.5091 16.0934 13.7995 15.9499 14.117 16.0396C14.4164 16.1293 14.6704 16.0755 14.9245 15.923C14.9698 15.8961 15.0061 15.8692 15.0515 15.8422C15.3055 15.6718 15.3418 15.6808 15.4961 16.0037C15.4053 16.0575 15.3327 16.1114 15.2511 16.1472ZM16.8116 18.0042C16.2037 17.8248 15.5686 17.6992 14.9971 17.3942C14.8973 17.3403 14.7612 17.2955 14.7612 17.1699C14.7702 17.0264 14.9245 17.0084 15.0243 16.9905C15.2874 16.9636 15.5505 16.9636 15.8227 16.9636C15.8771 16.9636 15.9315 16.9995 15.9769 17.0264C16.3398 17.2775 16.6301 17.6005 16.9205 17.9683C16.857 17.9862 16.8297 18.0042 16.8116 18.0042ZM15.6684 21.0183C15.242 21.0901 14.8247 21.1798 14.3983 21.2784C13.9265 21.3861 13.8539 21.3323 13.7904 20.8658C13.7722 20.7133 13.7541 20.5518 13.736 20.3993C13.7269 20.3993 13.7178 20.3993 13.7087 20.3903C13.7904 19.8431 13.872 19.287 13.9628 18.7398C13.99 18.5693 14.0263 18.3989 14.0807 18.2374C14.1261 18.0759 14.1624 18.058 14.3348 18.0759C14.9336 18.1567 15.5323 18.2284 16.1402 18.3181C16.1947 18.3271 16.2491 18.354 16.3035 18.372C16.4033 18.4078 16.4396 18.4706 16.4305 18.5783C16.3489 19.2959 16.2037 20.0046 16.0223 20.7043C15.9678 20.8927 15.868 20.9824 15.6684 21.0183ZM17.6644 20.7581C17.8187 20.2468 17.982 19.7355 18.1544 19.1883C18.2269 19.2421 18.2723 19.269 18.3086 19.3139C18.481 19.5023 18.6534 19.6906 18.8257 19.879C18.98 20.0495 18.9346 20.4352 18.7441 20.5608C18.5898 20.6595 17.9003 20.794 17.6644 20.7581ZM16.8297 21.4758C17.0566 21.7539 17.2834 22.023 17.5011 22.3011C17.5918 22.4177 17.6826 22.5343 17.7552 22.6689C17.7824 22.7227 17.8005 22.8304 17.7733 22.8662C17.7279 22.9201 17.6281 22.9649 17.5646 22.9559C17.2017 22.8842 16.857 22.7586 16.6664 22.4087C16.5939 22.2652 16.5122 22.1845 16.3398 22.2293C16.3035 22.2383 16.24 22.2204 16.2037 22.1934C16.0949 22.1037 15.986 22.014 15.8862 21.9154C15.8136 21.8526 15.7955 21.7808 15.8499 21.7001C15.9225 21.5834 16.0041 21.4668 16.0586 21.3412C16.1856 21.0452 16.3307 20.7581 16.4124 20.4531C16.5576 19.9328 16.6574 19.4036 16.7844 18.8474C17.0293 18.7846 17.3015 18.7039 17.6281 18.6231C17.6191 18.7398 17.6191 18.8295 17.6009 18.9102C17.4195 19.4664 17.2199 20.0136 17.0293 20.5608C16.9568 20.7671 16.8842 20.9824 16.8025 21.1887C16.7481 21.2874 16.7572 21.3861 16.8297 21.4758ZM10.0071 27.4054C9.60789 27.3067 9.23591 27.1542 8.89115 26.9479C8.75506 26.8671 8.75505 26.8223 8.88207 26.598C9.372 26.7595 9.871 26.9299 10.37 27.1004C10.3518 27.3246 10.2067 27.4502 10.0071 27.4054ZM8.39215 25.7458C8.16533 25.6561 8.02017 25.5215 7.93851 25.3242C7.9113 25.2614 7.95666 25.1717 7.99295 25.0999C8.11089 24.8398 8.25606 24.5796 8.35586 24.3195C8.61896 23.6467 8.68247 22.938 8.59175 22.2293C8.54638 21.8256 8.32864 21.4668 8.04739 21.1708C7.9748 21.0901 7.93851 21.0183 7.96573 20.9106C8.11089 20.4352 8.24698 19.9508 8.40122 19.4664C8.59175 18.8474 9.01816 18.4706 9.64418 18.2912C9.91636 18.2105 10.1976 18.1567 10.4789 18.2015C10.5242 18.2105 10.5696 18.2284 10.6422 18.2553C10.6059 18.3271 10.5877 18.3809 10.5424 18.4348C10.1613 18.955 9.97987 19.5471 9.88914 20.1751C9.80749 20.7133 9.79841 21.2515 9.80749 21.7987C9.81656 22.014 9.81656 22.2293 9.85285 22.4357C9.88914 22.7137 9.85285 22.9739 9.82563 23.243C9.78934 23.557 9.62603 23.7992 9.38107 23.9876C9.23591 24.0952 9.08167 24.2029 8.92744 24.3015C8.76413 24.4002 8.66433 24.5437 8.61896 24.7321C8.55546 25.0461 8.4738 25.378 8.39215 25.7458ZM8.74598 29.2174C8.66433 29.2444 8.60082 29.2623 8.53731 29.2892C8.4738 29.4148 8.58267 29.4776 8.61896 29.5673C8.63711 29.6121 8.62804 29.6749 8.63711 29.7288C8.58267 29.7198 8.51009 29.7288 8.46473 29.7019C8.26513 29.5763 8.21977 29.4596 8.31049 29.2444C8.36493 29.1098 8.38307 28.9932 8.33771 28.8407C8.25606 28.6074 8.2742 28.446 8.33771 28.3024C8.45566 28.3742 8.70969 28.9214 8.74598 29.2174ZM8.14718 26.3468C7.96573 26.0777 7.77521 25.8535 7.66633 25.5754C7.68448 25.5574 7.70262 25.5485 7.72077 25.5305C7.77521 25.5843 7.83871 25.6292 7.89315 25.683C7.98388 25.7727 8.06553 25.8804 8.16533 25.9701C8.29235 26.1136 8.29235 26.1136 8.14718 26.3468ZM9.7349 7.00618C9.40829 6.54868 9.09074 6.09118 8.76413 5.63368C8.70969 5.55294 8.59175 5.43632 8.70062 5.35559C8.83671 5.26588 8.86393 5.43632 8.91836 5.51706C9.23591 5.93868 9.54438 6.36927 9.85285 6.79089C9.90729 6.86265 9.94358 6.95236 9.99801 7.04207C9.85285 7.1228 9.78934 7.08692 9.7349 7.00618ZM5.44353 20.2289C5.59776 20.3545 5.77014 20.4531 5.94252 20.5518C6.10583 20.6415 6.1149 20.6595 6.03325 20.8209C6.01511 20.8568 5.98789 20.8927 5.96974 20.9286C5.46167 21.8795 5.33465 22.8573 5.70663 23.8799C5.77014 24.0683 5.86087 24.2477 5.96067 24.481C6.0514 24.0504 6.12398 23.6826 6.20563 23.3148C6.3145 22.8124 6.54132 22.3908 6.98588 22.0948C7.13104 21.9961 7.25806 21.8795 7.39415 21.7718C7.42137 21.7449 7.46673 21.7359 7.5121 21.718C7.64819 21.9064 7.76613 22.1037 7.7752 22.328C7.80242 22.7945 7.74799 23.243 7.5121 23.6646C7.34879 23.9607 7.19455 24.2567 7.05846 24.5707C6.77721 25.2165 6.85886 25.8265 7.27621 26.3827C7.42137 26.5801 7.59375 26.7505 7.76613 26.9568C7.70262 27.0376 7.63004 27.1183 7.55746 27.208C7.43044 27.3695 7.43044 27.513 7.54839 27.6835C7.60282 27.7552 7.67541 27.818 7.72984 27.8898C7.82057 28.0064 7.93851 28.123 7.98388 28.2576C8.10182 28.6164 8.21069 28.9752 8.10182 29.3699C8.0746 29.5135 8.08368 29.6749 8.25606 29.7736C8.56453 29.9441 8.90022 29.9889 9.24498 29.953C9.39922 29.9351 9.41736 29.8902 9.39922 29.7288C9.372 29.5224 9.30849 29.3341 9.1724 29.1636C9.00909 28.9573 8.84578 28.751 8.68247 28.5357C8.42844 28.1858 8.40122 27.6924 8.61896 27.3695C9.09074 27.6027 9.59881 27.7463 10.125 27.818C10.125 27.8898 10.1341 27.9257 10.125 27.9705C10.0887 28.2935 10.0706 28.6074 10.1069 28.9304C10.1522 29.3879 10.5242 29.8723 10.9597 30.0069C11.4496 30.1504 11.9214 30.0786 12.366 29.8633C12.8196 29.6391 13.1099 29.1995 13.0192 28.5716C12.992 28.3921 12.9376 28.2127 12.8922 28.0064C12.992 27.8629 13.1735 27.8988 13.3368 27.8898C13.5001 27.8808 13.6271 27.9436 13.6906 28.1051C13.7632 28.2845 13.8358 28.4729 13.9174 28.6523C13.9628 28.751 13.9446 28.8138 13.8993 28.9035C13.7632 29.1546 13.6362 29.4148 13.5001 29.6749C13.4184 29.8274 13.4638 29.9441 13.5817 30.0517C13.6634 30.1235 13.7541 30.1773 13.8358 30.2491C13.9718 30.3747 13.9628 30.4913 13.7813 30.5272C13.6271 30.563 13.4456 30.563 13.2914 30.5272C13.0011 30.4644 12.8105 30.5541 12.6835 30.8142C12.6472 30.8949 12.6019 30.9667 12.493 30.9847C12.2299 31.0295 12.1029 31.2179 12.0121 31.4422C11.994 31.478 12.0121 31.5229 12.0121 31.5947C12.121 31.5498 12.2027 31.5049 12.2843 31.478C12.8196 31.2627 13.364 31.2986 13.9083 31.4152C14.4708 31.5319 14.9971 31.7741 15.487 32.0791C15.5142 32.097 15.5505 32.097 15.5868 32.106C15.6412 31.8458 15.5959 31.6395 15.3509 31.5139C15.2874 31.478 15.2239 31.4332 15.1513 31.4152C14.8065 31.3076 14.4708 31.2089 14.1261 31.1013C14.0354 31.0744 13.9265 31.0654 13.9083 30.9129C14.117 30.8591 14.3257 30.8501 14.5253 30.8949C15.0424 31.0026 15.5596 31.1372 16.0767 31.2627C16.2309 31.2986 16.3852 31.3614 16.5576 31.4152C16.5757 31.3614 16.6029 31.3076 16.6029 31.2717C16.5757 31.0474 16.5394 30.8232 16.4124 30.6169C16.3126 30.4644 16.2309 30.3029 16.1402 30.1504C16.0223 29.962 16.0041 29.7646 16.0949 29.5404C16.5303 29.5224 16.9386 29.6839 17.3469 29.7916C17.7733 29.8992 18.1816 30.0517 18.6352 30.1863C18.6534 29.9979 18.6624 29.8274 18.6806 29.666C18.7531 29.6391 18.8167 29.6122 18.8711 29.5942C19.107 29.5135 19.0979 29.5135 19.2703 29.7019C19.733 30.2222 20.3227 30.5541 20.9941 30.7424C21.1302 30.7783 21.2754 30.8052 21.4568 30.7514C21.3479 30.6707 21.2663 30.6169 21.2028 30.5451C21.1302 30.4733 21.0304 30.4105 21.0395 30.2939C21.0667 30.2849 21.0848 30.267 21.0939 30.267C21.3479 30.3388 21.602 30.4195 21.856 30.5002C22.0556 30.5541 22.1191 30.5272 22.2008 30.3388C22.2824 30.1504 22.3187 29.9441 22.3006 29.7377C22.2915 29.6749 22.3006 29.6211 22.3006 29.5404C22.4911 29.5583 22.609 29.657 22.7361 29.7288C23.0808 29.9261 23.0808 29.9261 23.3802 29.657C23.4074 29.6301 23.4437 29.6032 23.4709 29.5673C24.0153 28.9663 24.3691 28.2666 24.5234 27.4771C24.5506 27.3605 24.596 27.2529 24.6232 27.1452C24.8046 27.1183 24.977 27.226 25.1131 27.1004C25.095 26.9479 24.8772 26.9299 24.9316 26.7505C25.1766 26.7146 25.4306 26.7685 25.6756 26.6249C25.6302 26.5891 25.603 26.5621 25.5667 26.5442C25.231 26.3558 24.9589 26.1136 24.7683 25.7817C24.5597 25.4139 24.3691 25.0461 24.1605 24.6783C23.9972 24.3912 23.8974 24.3643 23.6343 24.5437C23.6252 24.5527 23.607 24.5437 23.5435 24.5437C23.4347 24.3554 23.2986 24.1401 23.1806 23.9337C23.099 23.7902 23.0536 23.6377 23.0445 23.4673C23.0445 23.3417 22.981 23.2161 22.9084 23.1084C22.8268 22.9829 22.7451 22.9829 22.609 23.0636C22.5637 23.0905 22.5092 23.1174 22.4457 23.1623C22.4185 22.9829 22.4004 22.8214 22.3731 22.642C22.2552 22.642 22.1645 22.633 22.0647 22.642C21.9467 22.6509 21.8742 22.6061 21.8106 22.5164C21.7108 22.3639 21.611 22.2114 21.5294 22.0499C21.4568 21.9243 21.4931 21.8526 21.6473 21.8346C21.6836 21.8346 21.7108 21.8346 21.7471 21.8346C22.6272 21.8256 23.4619 21.6373 24.2421 21.2246C24.5778 21.0452 24.9226 20.9286 25.2855 20.8299C25.4306 20.794 25.5849 20.7761 25.7028 20.9106C25.9569 21.1798 26.2109 21.4399 26.4559 21.709C26.5738 21.8436 26.6373 21.9961 26.601 22.1845C26.5738 22.337 26.6373 22.4446 26.7371 22.5612C26.8551 22.6868 26.9458 22.8393 27.0365 22.9829C27.1545 23.1623 27.1635 23.3507 27.1 23.548C27.0547 23.6736 27.0184 23.7992 26.9639 23.9158C26.8823 24.0952 26.9276 24.2477 27.0728 24.3554C27.2815 24.5079 27.4992 24.6424 27.726 24.768C27.8893 24.8577 27.9891 24.7949 28.0164 24.6065C28.0526 24.2836 28.0345 23.9607 27.8531 23.6736C27.6262 23.3058 27.5083 22.9111 27.5083 22.4805C27.5083 22.0679 27.3268 21.7449 27.0456 21.4489C26.8278 21.2246 26.6464 20.9645 26.474 20.7043C26.3561 20.5339 26.2835 20.3365 26.1837 20.1571C26.0204 19.8701 25.8208 19.6458 25.4397 19.6817C25.2673 19.6996 25.095 19.6996 24.9135 19.6996C24.8681 19.6996 24.8228 19.6727 24.7774 19.6548C24.7774 19.6368 24.7683 19.6189 24.7683 19.6009C25.095 19.5112 25.2855 19.2601 25.5032 19.0268C25.7573 18.7487 26.0113 18.4796 26.2744 18.2195C26.4105 18.0849 26.4468 18.0849 26.5829 18.2105C26.6282 18.2464 26.6645 18.2912 26.7008 18.3361C26.9004 18.5514 27.0909 18.7667 27.2996 18.964C27.4266 19.0896 27.4992 19.2152 27.4811 19.4036C27.4629 19.592 27.5446 19.7176 27.7351 19.7803C27.7986 19.7983 27.8712 19.8521 27.9075 19.9149C28.1162 20.2289 28.0889 20.3993 27.8349 20.6864C27.8168 20.7133 27.7895 20.7402 27.7623 20.7581C27.6081 20.9106 27.6081 21.0811 27.6897 21.2605C27.8077 21.5117 27.9982 21.6911 28.2613 21.7808C28.4791 21.8526 28.5879 21.8167 28.6152 21.5924C28.6424 21.404 28.6333 21.2156 28.597 21.0273C28.5063 20.5967 28.3974 20.1751 28.4609 19.7355C28.4972 19.4753 28.3793 19.278 28.2069 19.0986C27.9347 18.8205 27.6716 18.5334 27.4176 18.2374C27.1635 17.9414 26.9186 17.6364 26.8278 17.2506C26.8097 17.1878 26.7825 17.125 26.7553 17.0712C26.6373 16.8649 26.4559 16.8021 26.2563 16.9277C26.102 17.0264 25.975 17.152 25.8571 17.2955C25.6575 17.5287 25.4216 17.7081 25.1494 17.8337C24.9861 17.9145 24.8863 17.8786 24.8137 17.7081C24.7683 17.6184 24.7411 17.5198 24.732 17.43C24.6504 16.9636 24.4689 16.533 24.1877 16.1472C24.0607 15.9858 23.9246 15.8333 23.7976 15.6628C23.5798 15.3758 23.3167 15.1246 23.1897 14.7658C22.9447 14.075 22.6816 13.3933 22.4367 12.7025C22.3822 12.568 22.3459 12.4244 22.2915 12.254C22.4639 12.2719 22.609 12.2719 22.7451 12.2988C23.0536 12.3437 23.353 12.3975 23.607 12.5949C23.7341 12.6936 23.8429 12.8102 23.979 12.8909C24.0788 12.9537 24.1968 13.0075 24.3147 13.0344C24.3691 13.0524 24.4599 13.0075 24.5052 12.9627C24.5234 12.9447 24.478 12.855 24.4599 12.7922C24.4508 12.7653 24.4417 12.7384 24.4326 12.7115C24.5234 12.7294 24.5869 12.7653 24.6413 12.8012C24.7865 12.8999 24.8954 12.9089 25.0133 12.7743C25.0677 12.7025 25.095 12.6039 25.104 12.5052C25.1131 12.3527 25.095 12.1912 25.0859 12.0387C25.0768 11.8772 25.0133 11.7606 24.8591 11.6888C24.7593 11.635 24.6685 11.5543 24.605 11.4736C24.2875 11.043 23.979 10.5944 23.6705 10.1549C23.6161 10.0741 23.5707 9.98443 23.5435 9.89472C23.4891 9.70634 23.4347 9.5359 23.2895 9.39237C23.2713 9.37443 23.2804 9.33854 23.2713 9.29369C23.3621 9.27575 23.4347 9.26678 23.5435 9.24884C23.4528 9.06943 23.3984 8.89001 23.2895 8.74648C23.2169 8.63884 23.0899 8.53119 22.9719 8.49531C22.8177 8.45045 22.6363 8.43251 22.482 8.46839C22.1645 8.54016 21.9377 8.44148 21.7199 8.23516C21.5929 8.11854 21.4387 8.02883 21.3026 7.93016C21.2663 7.91222 21.2209 7.92119 21.1574 7.91222C21.1665 8.01089 21.1756 8.09163 21.1937 8.19928C20.8126 8.10957 20.5405 8.07369 20.2501 8.0378C20.232 8.2531 20.4588 8.32486 20.5042 8.51325C20.4225 8.53119 20.359 8.54913 20.2864 8.54913C19.9326 8.56707 19.5697 8.54913 19.2159 8.65678C19.1796 8.67472 19.0979 8.63884 19.0525 8.60295C18.8802 8.47737 18.6987 8.45045 18.49 8.50428C18.1816 8.57604 17.8912 8.7106 17.6281 8.88104C17.5646 8.89898 17.5102 8.91693 17.4104 8.97075C17.4104 8.80031 17.3741 8.65678 17.4195 8.54016C17.6009 8.00192 17.5737 7.47266 17.4013 6.94339C17.3287 6.71912 17.2289 6.50383 17.1382 6.26162C17.1564 6.24368 17.1745 6.2078 17.2017 6.18089C17.4195 6.00147 17.5102 5.7503 17.5283 5.48118C17.5374 5.34662 17.483 5.19412 17.4104 5.06853C17.3469 4.96088 17.2108 5.04162 17.111 5.02368C17.0021 5.0147 16.8751 4.99676 16.7844 4.93397C16.4941 4.75456 16.2037 4.76353 15.9043 4.90706C15.5323 5.09544 15.1513 5.24794 14.734 5.31074C14.4255 5.35559 14.1261 5.37353 13.8267 5.26588C13.745 5.23897 13.6634 5.22103 13.5545 5.19412C13.6543 5.57985 13.9083 5.79515 14.1896 5.9925C14.0989 6.15397 13.9356 5.9925 13.8448 6.09118C13.8448 6.11809 13.8448 6.13603 13.8539 6.145C14.117 6.3603 14.4073 6.49486 14.7612 6.47692C14.8428 6.46795 14.9245 6.47692 15.0061 6.49486C15.2148 6.55765 15.4144 6.57559 15.6049 6.47692C15.6684 6.44103 15.741 6.41412 15.8045 6.46795C15.8045 6.49486 15.8136 6.49486 15.8045 6.50383C15.7955 6.52177 15.7864 6.54868 15.7682 6.56662C15.4144 6.84471 15.3055 7.21251 15.3055 7.63413C15.3055 7.85839 15.2783 8.07369 15.1785 8.28001C15.1332 8.36075 15.1332 8.45045 15.1059 8.54016C15.0878 8.60295 15.0696 8.65678 15.0424 8.71957C14.861 8.67472 14.7067 8.62089 14.5434 8.59398C14.4346 8.57604 14.3075 8.56707 14.2077 8.61192C14.0626 8.66575 13.9628 8.64781 13.8358 8.56707C13.5726 8.39663 13.2914 8.36972 13.0101 8.54016C12.8287 8.64781 12.6654 8.76442 12.493 8.88104C12.366 8.97075 12.239 9.06943 12.1029 9.15016C12.0121 9.20399 11.9033 9.21296 11.8488 9.09634C11.74 8.85413 11.6311 8.60295 11.5222 8.35178C11.4224 8.14545 11.3498 7.91222 11.0414 7.93016C10.9144 7.93913 10.869 7.84942 10.869 7.7328C10.869 7.67001 10.8871 7.57133 10.8508 7.54442C10.6966 7.41883 10.6512 7.24839 10.6059 7.06898C10.5877 6.97927 10.5333 6.91648 10.4426 6.96133C10.4335 7.06898 10.4335 7.15868 10.4335 7.19457C10.4879 7.34707 10.5333 7.45471 10.5787 7.58927C10.5696 7.58927 10.5968 7.59824 10.6331 7.60721C10.742 7.6431 10.7601 7.7328 10.6875 7.7956C10.5968 7.8853 10.4879 7.97501 10.37 8.02883C10.3246 8.05575 10.2067 8.02883 10.1704 7.98398C10.0343 7.83148 9.81656 7.70589 9.96172 7.44574C9.90729 7.19457 10.0252 7.06001 10.252 6.99721C10.2611 6.99721 10.2702 6.9703 10.2702 6.96133C10.1976 6.86265 10.116 6.77295 10.0434 6.67427C9.7349 6.26162 9.44458 5.84897 9.13611 5.43632C9.06353 5.34662 8.98187 5.27485 8.89115 5.22103C8.78227 5.14926 8.64618 5.17618 8.5736 5.26588C8.48287 5.35559 8.50102 5.46324 8.55546 5.56191C8.59175 5.63368 8.64618 5.70544 8.69155 5.76824C9.03631 6.25265 9.38107 6.73706 9.72583 7.22148C9.78027 7.30221 9.84378 7.37398 9.78027 7.46368C9.69861 7.59824 9.75305 7.70589 9.8347 7.80457C9.91636 7.91222 10.0071 8.00192 10.0797 8.10957C10.1522 8.21722 10.243 8.33384 10.2611 8.45045C10.3065 8.7106 10.4335 8.9259 10.5605 9.15016C10.6331 9.26678 10.7057 9.39237 10.7692 9.50899C10.8871 9.73325 10.8599 9.92163 10.6694 10.0921C10.5605 10.1908 10.4335 10.2805 10.3428 10.3971C10.2067 10.5585 10.0887 10.738 9.98894 10.9263C9.92543 11.043 9.89821 11.1955 10.0252 11.33C10.1795 11.2941 10.3428 11.2672 10.497 11.2134C10.751 11.1237 10.9597 11.3031 10.9144 11.5902C10.8871 11.7606 10.7964 11.8952 10.615 11.958C10.5333 11.9849 10.4426 12.0028 10.3518 12.0387C10.0434 12.1463 9.7349 12.254 9.44458 12.3796C8.98187 12.5859 8.95465 13.1152 9.19054 13.4202C9.39014 13.6803 9.35385 13.8149 9.09074 14.0302C8.9728 14.1199 8.84578 14.2006 8.72784 14.2903C8.58267 14.389 8.49195 14.5236 8.51917 14.7119C8.53731 14.8286 8.48287 14.9003 8.40122 14.9631C8.24698 15.1067 8.13811 15.2771 8.0746 15.4834C8.03831 15.5821 8.03831 15.6808 8.11997 15.7525C8.20162 15.8333 8.2742 15.7705 8.34678 15.7436C8.52824 15.6718 8.70062 15.5821 8.88207 15.5462C9.32663 15.4565 9.78027 15.3847 10.243 15.4027C10.624 15.4206 10.996 15.4744 11.3045 15.6987C11.5494 15.8692 11.7672 16.0755 11.994 16.2639C12.0847 16.3446 12.1845 16.4343 12.2934 16.4792C12.4204 16.533 12.5837 16.515 12.6835 16.5868C12.7924 16.6675 12.8378 16.8111 12.9194 16.9277C12.9285 16.9367 12.9285 16.9367 12.9376 16.9456C13.0464 17.0353 13.0283 17.152 13.0011 17.2686C12.9739 17.3852 12.865 17.3673 12.7743 17.3762C12.2843 17.439 11.8035 17.5018 11.3317 17.6633C11.241 17.6902 11.1775 17.6812 11.1049 17.6274C10.9779 17.5287 10.8599 17.43 10.7238 17.3493C10.2067 16.9995 9.66232 16.7393 9.02724 16.6945C8.56453 16.6586 8.15626 16.8111 7.8115 17.1161C7.39415 17.4839 7.1129 17.9503 6.86794 18.4437C6.74999 18.6859 6.66834 18.9281 6.6139 19.1883C6.55947 19.4574 6.48688 19.7176 6.4143 19.9777C6.36894 20.1212 6.30543 20.1571 6.19656 20.0853C5.91531 19.9059 5.61591 19.7534 5.42538 19.4664C5.18042 19.0986 5.18042 18.9102 5.5524 18.5424C5.60683 18.4886 5.68849 18.4706 5.77014 18.4348C5.83365 18.5873 5.76107 18.7398 5.89716 18.8564C5.99696 18.9461 6.06954 19.0717 6.16027 19.1793C6.45059 18.9102 6.38708 18.3989 6.06047 18.2374C5.99696 18.2105 5.91531 18.1836 5.84272 18.1925C5.43445 18.2284 5.14413 18.372 5.01711 18.8205C4.87195 19.3498 4.97175 19.8611 5.44353 20.2289Z" fill="#FF4261"/>
<path d="M16.8573 8.62976C16.7212 8.4952 16.567 8.52211 16.3855 8.558C16.5125 8.83609 16.6577 8.85403 16.8573 8.62976Z" fill="#FF4261"/>
<path d="M43.4129 1.35444H44.6014V4.70049H42.5056C43.0863 4.01872 43.3857 2.97813 43.4129 1.35444ZM41.9704 5.67828H45.3182V6.81755H46.416V4.70049H45.6992V0.367676H42.3605V1.2468C42.3605 3.19342 41.9794 4.13534 41.2899 4.70049H40.8726V6.81755H41.9704V5.67828Z" fill="#FF4261"/>
<path d="M47.5953 0.367676V5.67828H51.3061V4.70049H48.6931V3.35489H50.544V2.43092H48.6931V1.35444H51.2063V0.367676H47.5953Z" fill="#FF4261"/>
<path d="M52.6125 0.367676V5.67828H53.7103V1.35444H55.8968V5.67828H56.9946V0.367676H52.6125Z" fill="#FF4261"/>
<path d="M60.6508 2.2964L61.3675 4.09053H59.934L60.6508 2.2964ZM60.4693 0.269043L58.0651 5.67833H59.2445L59.5439 4.98759H61.7395L62.0389 5.67833H63.2183L60.8413 0.269043H60.4693Z" fill="#FF4261"/>
<path d="M65.4051 1.32753H66.3214C66.8295 1.32753 67.138 1.6415 67.138 2.08106C67.138 2.53857 66.8386 2.85254 66.3214 2.85254H65.4051V1.32753ZM65.4051 3.80342H66.3214C67.4555 3.80342 68.2539 3.10371 68.2539 2.08106C68.2539 1.04047 67.4465 0.367676 66.3214 0.367676H64.2982V5.67828H65.396V3.80342H65.4051Z" fill="#FF4261"/>
<path d="M69.1066 0.367676V1.35444H70.8213V5.67828H71.9191V1.35444H73.6429V0.367676H69.1066Z" fill="#FF4261"/>
<path d="M76.1833 2.2964L76.9 4.09053H75.4665L76.1833 2.2964ZM76.0018 0.269043L73.5975 5.67833H74.777L75.0764 4.98759H77.272L77.5714 5.67833H78.7508L76.3738 0.269043H76.0018Z" fill="#FF4261"/>
<path d="M84.7388 0.269043L82.4707 3.14861L80.2025 0.269043H79.8396V5.67833H80.9374V2.84361L82.2892 4.52112H82.6521L84.004 2.84361V5.67833H85.1018V0.269043H84.7388Z" fill="#FF4261"/>
<path d="M86.6896 0.367676V5.67828H90.4003V4.70049H87.7874V3.35489H89.6291V2.43092H87.7874V1.35444H90.3005V0.367676H86.6896Z" fill="#FF4261"/>
<path d="M95.1723 0.367676V2.40401H92.8043V0.367676H91.7065V5.67828H92.8043V3.39077H95.1723V5.67828H96.2792V0.367676H95.1723Z" fill="#FF4261"/>
<path d="M97.3497 0.367676V1.35444H99.0645V5.67828H100.162V1.35444H101.886V0.367676H97.3497Z" fill="#FF4261"/>
<path d="M45.7082 15.3399V10.0293H41.317V15.3399H42.4148V11.0071H44.6104V15.3399H45.7082Z" fill="#FF4261"/>
<path d="M48.3849 10.9892H49.3012C49.8184 10.9892 50.1178 11.3031 50.1178 11.7427C50.1178 12.2002 49.8184 12.5142 49.3012 12.5142H48.3849V10.9892ZM48.3849 13.465H49.3012C50.4353 13.465 51.2428 12.7653 51.2428 11.7427C51.2428 10.7021 50.4353 10.0293 49.3012 10.0293H47.2871V15.3399H48.3849V13.465Z" fill="#FF4261"/>
<path d="M56.0965 14.3531H53.4926V13.0165H55.3344V12.0836H53.4926V11.0071H56.0057V10.0293H52.3857V15.3399H56.0965V14.3531Z" fill="#FF4261"/>
<path d="M59.5985 11.0068H60.787V14.3528H58.6912C59.2718 13.6711 59.5803 12.6305 59.5985 11.0068ZM58.1559 15.3396H61.5037V16.4699H62.6015V14.3528H61.8848V10.02H58.546V10.8991C58.546 12.8458 58.165 13.7877 57.4754 14.3528H57.0581V16.4699H58.1559V15.3396Z" fill="#FF4261"/>
<path d="M64.8789 11.0071H67.0745V15.3399H68.1723V10.0293H63.7811V15.3399H64.8789V11.0071Z" fill="#FF4261"/>
<path d="M71.7738 12.5142H70.8575V10.9892H71.7738C72.2819 10.9892 72.5904 11.3031 72.5904 11.7427C72.5904 12.2002 72.2819 12.5142 71.7738 12.5142ZM71.7738 10.0293H69.7506V15.3399H70.8484V13.465H71.7647C72.8988 13.465 73.6972 12.7653 73.6972 11.7427C73.7063 10.7021 72.9079 10.0293 71.7738 10.0293Z" fill="#FF4261"/>
<path d="M75.9563 10.0293H74.8585V15.4386H75.2124L78.415 12.0746V15.3399H79.5128V9.93066H79.1408L75.9563 13.2588V10.0293Z" fill="#FF4261"/>
<path d="M84.5664 12.0656H82.1893V10.0293H81.0916V15.3399H82.1893V13.0434H84.5664V15.3399H85.6642V10.0293H84.5664V12.0656Z" fill="#FF4261"/>
<path d="M88.341 13.2588V10.0293H87.2432V15.4386H87.597L90.7997 12.0836V15.3399H91.8974V9.93066H91.5345L88.341 13.2588Z" fill="#FF4261"/>
<path d="M96.1067 12.8013L93.8385 9.93066H93.4756V15.3399H94.5734V12.5052L95.9252 14.1827H96.2881L97.6399 12.5052V15.3399H98.7377V9.93066H98.3748L96.1067 12.8013Z" fill="#FF4261"/>
<path d="M102.394 11.958L103.111 13.7521H101.677L102.394 11.958ZM100.997 15.3399L101.296 14.6492H103.492L103.791 15.3399H104.971L102.575 9.93066H102.213L99.8082 15.3399H100.997Z" fill="#FF4261"/>
<path d="M106.658 15.3399H107.756V11.0071H109.48V10.0293H104.944V11.0071H106.658V15.3399Z" fill="#FF4261"/>
<path d="M114.261 14.3531H111.658V13.0165H113.499V12.0836H111.658V11.0071H114.171V10.0293H110.551V15.3399H114.261V14.3531Z" fill="#FF4261"/>
<path d="M118.816 15.3399H119.914V10.0293H116.421V11.0071C116.421 13.3305 116.003 14.2545 115.141 14.3531V15.3758C116.502 15.2771 117.437 14.4159 117.464 11.0071H118.807V15.3399H118.816Z" fill="#FF4261"/>
<path d="M123.697 14.3797H122.599V12.8009H123.697C124.232 12.8009 124.531 13.1328 124.531 13.5993C124.531 14.0568 124.232 14.3797 123.697 14.3797ZM125.657 13.5903C125.657 12.5587 124.849 11.85 123.697 11.85H122.599V10.02H121.501V15.3306H123.697C124.849 15.3396 125.657 14.6489 125.657 13.5903Z" fill="#FF4261"/>
<path d="M129.503 15.4383C130.547 15.4383 131.418 14.936 131.88 14.1196L131.055 13.5365C130.692 14.1017 130.193 14.4246 129.512 14.4246C128.514 14.4246 127.78 13.707 127.78 12.6843C127.78 11.6527 128.514 10.9261 129.512 10.9261C130.184 10.9261 130.692 11.258 131.055 11.8232L131.88 11.2401C131.409 10.4237 130.547 9.92139 129.512 9.92139C127.907 9.92139 126.646 11.1145 126.646 12.6754C126.655 14.2452 127.916 15.4383 129.503 15.4383Z" fill="#FF4261"/>
<path d="M132.77 11.0071H134.484V15.3399H135.582V11.0071H137.306V10.0293H132.77V11.0071Z" fill="#FF4261"/>
<path d="M139.438 14.407V13.0703H140.69C141.171 13.0703 141.452 13.3305 141.452 13.7431C141.452 14.1648 141.171 14.407 140.69 14.407H139.438ZM139.438 10.9622H140.191C140.645 10.9622 140.89 11.1955 140.89 11.5633C140.89 11.9221 140.645 12.1733 140.191 12.1733H139.438V10.9622ZM142.541 13.779C142.541 13.1242 142.178 12.6756 141.588 12.4693C141.842 12.2271 141.987 11.9042 141.987 11.5094C141.987 10.6303 141.28 10.0293 140.282 10.0293H138.376V15.3399H140.772C141.815 15.3399 142.541 14.694 142.541 13.779Z" fill="#FF4261"/>
<path d="M145.072 13.7521L145.789 11.958L146.506 13.7521H145.072ZM145.607 9.93066L143.203 15.3399H144.383L144.682 14.6492H146.878L147.177 15.3399H148.356L145.961 9.93066H145.607Z" fill="#FF4261"/>
<path d="M45.9713 24.9921V19.5918H45.6084L42.4148 22.9199V19.6815H41.317V25.0908H41.6799L44.8735 21.7358V24.9921H45.9713Z" fill="#FF4261"/>
<path d="M50.3444 19.6815V25.0908H50.7073L53.9008 21.7358V24.9921H54.9986V19.5918H54.6357L51.4422 22.9199V19.6815H50.3444Z" fill="#FF4261"/>
<path d="M57.6751 22.7047H60.0521V24.9922H61.1499V19.6816H60.0521V21.718H57.6751V19.6816H56.5773V24.9922H57.6751V22.7047Z" fill="#FF4261"/>
<path d="M67.3103 24.9922V19.6816H66.2125V21.718H63.8355V19.6816H62.7377V24.9922H63.8355V22.7047H66.2125V24.9922H67.3103Z" fill="#FF4261"/>
<path d="M69.7054 22.337C69.7054 21.3143 70.4312 20.5877 71.4292 20.5877C72.409 20.5877 73.153 21.3143 73.153 22.337C73.153 23.3686 72.409 24.0863 71.4292 24.0863C70.4221 24.0863 69.7054 23.3686 69.7054 22.337ZM74.2871 22.337C74.2871 20.7761 72.9988 19.583 71.4201 19.583C69.8415 19.583 68.5713 20.7761 68.5713 22.337C68.5713 23.8979 69.8415 25.091 71.4201 25.091C72.9988 25.091 74.2871 23.8979 74.2871 22.337Z" fill="#FF4261"/>
<path d="M77.8526 24.0593H76.6006V22.7227H77.8526C78.3335 22.7227 78.6147 22.9828 78.6147 23.3865C78.6147 23.8081 78.3335 24.0593 77.8526 24.0593ZM76.5915 20.6146H77.3446C77.7982 20.6146 78.0432 20.8478 78.0432 21.2156C78.0432 21.5744 77.7982 21.8256 77.3446 21.8256H76.5915V20.6146ZM78.7418 22.1216C78.9958 21.8794 79.141 21.5565 79.141 21.1618C79.141 20.2827 78.4333 19.6816 77.4353 19.6816H75.53V24.9922H77.9252C78.9686 24.9922 79.6944 24.3464 79.6944 23.4314C79.6944 22.7855 79.3315 22.328 78.7418 22.1216Z" fill="#FF4261"/>
<path d="M82.2259 23.4133L82.9426 21.6192L83.6594 23.4133H82.2259ZM82.7612 19.5918L80.3569 25.0011H81.5364L81.8358 24.3103H84.0314L84.3308 25.0011H85.5102L83.115 19.5918H82.7612Z" fill="#FF4261"/>
<path d="M90.9717 19.6816H89.8739V24.0144H87.6964V19.6816H86.5986V24.9922H90.5816V26.1315H91.6794V24.0144H90.9717V19.6816Z" fill="#FF4261"/>
<path d="M92.8773 19.6815V25.0908H93.2402L96.4338 21.7358V24.9921H97.5316V19.5918H97.1687L93.9751 22.9199V19.6815H92.8773Z" fill="#FF4261"/>
<path d="M101.641 24.0861C100.643 24.0861 99.9175 23.3684 99.9175 22.3368C99.9175 21.3142 100.643 20.5875 101.641 20.5875C102.621 20.5875 103.365 21.3142 103.365 22.3368C103.365 23.3684 102.621 24.0861 101.641 24.0861ZM101.632 19.5918C100.054 19.5918 98.7834 20.7849 98.7834 22.3458C98.7834 23.9067 100.054 25.0998 101.632 25.0998C103.211 25.0998 104.499 23.9067 104.499 22.3458C104.49 20.7759 103.211 19.5918 101.632 19.5918Z" fill="#FF4261"/>
<path d="M110.324 24.9922V19.6816H109.226V21.718H106.849V19.6816H105.751V24.9922H106.849V22.7047H109.226V24.9922H110.324Z" fill="#FF4261"/>
<path d="M115.377 21.718H113V19.6816H111.902V24.9922H113V22.7047H115.377V24.9922H116.475V19.6816H115.377V21.718Z" fill="#FF4261"/>
<path d="M120.594 24.0861C119.596 24.0861 118.87 23.3684 118.87 22.3368C118.87 21.3142 119.596 20.5875 120.594 20.5875C121.583 20.5875 122.318 21.3142 122.318 22.3368C122.318 23.3684 121.583 24.0861 120.594 24.0861ZM120.585 19.5918C119.007 19.5918 117.736 20.7849 117.736 22.3458C117.736 23.9067 119.007 25.0998 120.585 25.0998C122.164 25.0998 123.452 23.9067 123.452 22.3458C123.452 20.7759 122.164 19.5918 120.585 19.5918Z" fill="#FF4261"/>
<path d="M124.704 24.9922H125.802V20.6684H128.17V19.6816H124.704V24.9922Z" fill="#FF4261"/>
<path d="M131.726 24.0861C130.728 24.0861 130.002 23.3684 130.002 22.3368C130.002 21.3142 130.728 20.5875 131.726 20.5875C132.715 20.5875 133.45 21.3142 133.45 22.3368C133.45 23.3684 132.706 24.0861 131.726 24.0861ZM131.717 19.5918C130.138 19.5918 128.868 20.7849 128.868 22.3458C128.868 23.9067 130.138 25.0998 131.717 25.0998C133.296 25.0998 134.584 23.9067 134.584 22.3458C134.584 20.7759 133.296 19.5918 131.717 19.5918Z" fill="#FF4261"/>
<path d="M140.672 22.1665H139.756V20.6415H140.672C141.18 20.6415 141.489 20.9555 141.489 21.395C141.489 21.8615 141.18 22.1665 140.672 22.1665ZM140.672 19.6816H138.649V24.9922H139.747V23.1174H140.663C141.797 23.1174 142.595 22.4177 142.595 21.395C142.605 20.3634 141.806 19.6816 140.672 19.6816Z" fill="#FF4261"/>
<path d="M144.673 23.4133L145.39 21.6192L146.107 23.4133H144.673ZM145.208 19.5918L142.804 25.0011H143.984L144.283 24.3103H146.479L146.778 25.0011H147.957L145.562 19.5918H145.208Z" fill="#FF4261"/>
<path d="M152.058 22.1845C152.367 21.9333 152.548 21.5835 152.548 21.1529C152.548 20.2468 151.732 19.583 150.706 19.583C149.845 19.583 149.128 20.0495 148.774 20.7402L149.536 21.2785C149.836 20.8479 150.226 20.5877 150.697 20.5877C151.151 20.5877 151.45 20.8479 151.45 21.2157C151.45 21.5565 151.205 21.8257 150.761 21.8257H149.935V22.7227H150.997C151.478 22.7227 151.75 23.0008 151.75 23.3686C151.75 23.8261 151.314 24.0863 150.788 24.0863C150.244 24.0863 149.799 23.8351 149.445 23.3148L148.674 23.862C149.064 24.5976 149.817 25.091 150.797 25.091C151.94 25.091 152.839 24.4271 152.839 23.4224C152.839 22.8573 152.548 22.4267 152.058 22.1845Z" fill="#FF4261"/>
<path d="M156.431 24.0593H155.179V22.7227H156.431C156.912 22.7227 157.194 22.9828 157.194 23.3865C157.194 23.8081 156.912 24.0593 156.431 24.0593ZM155.179 20.6146H155.932C156.386 20.6146 156.631 20.8478 156.631 21.2156C156.631 21.5744 156.386 21.8256 155.932 21.8256H155.179V20.6146ZM157.33 22.1216C157.584 21.8794 157.729 21.5565 157.729 21.1618C157.729 20.2827 157.021 19.6816 156.032 19.6816H154.127V24.9922H156.522C157.566 24.9922 158.291 24.3464 158.291 23.4314C158.282 22.7855 157.91 22.328 157.33 22.1216Z" fill="#FF4261"/>
<path d="M160.613 22.9199V19.6815H159.516V25.0908H159.869L163.072 21.7358V24.9921H164.17V19.5918H163.798L160.613 22.9199Z" fill="#FF4261"/>
<path d="M165.241 20.6684H166.955V24.9922H168.053V20.6684H169.786V19.6816H165.241V20.6684Z" fill="#FF4261"/>
<path d="M171.955 22.9199V19.6815H170.857V25.0908H171.211L174.413 21.7358V24.9921H175.511V19.5918H175.148L171.955 22.9199Z" fill="#FF4261"/>
<path d="M179.902 22.4087H179.086C178.505 22.4087 178.151 22.0409 178.151 21.5206C178.151 21.0183 178.505 20.6415 179.086 20.6415H179.902V22.4087ZM179.104 19.6816C177.888 19.6816 177.026 20.4172 177.026 21.5206C177.026 22.1934 177.362 22.7406 177.897 23.0546L176.618 24.9922H177.843L178.931 23.3506C178.986 23.3596 179.04 23.3596 179.095 23.3596H179.893V24.9922H180.991V19.6816H179.104Z" fill="#FF4261"/>
<path d="M41.317 34.6534H42.4148V30.3206H44.7737V29.3428H41.317V34.6534Z" fill="#FF4261"/>
<path d="M48.3395 33.7474C47.3415 33.7474 46.6157 33.0297 46.6157 31.9981C46.6157 30.9755 47.3415 30.2489 48.3395 30.2489C49.3193 30.2489 50.0633 30.9755 50.0633 31.9981C50.0633 33.0297 49.3193 33.7474 48.3395 33.7474ZM48.3304 29.2441C46.7517 29.2441 45.4816 30.4372 45.4816 31.9981C45.4816 33.559 46.7517 34.7521 48.3304 34.7521C49.909 34.7521 51.1974 33.559 51.1974 31.9981C51.1974 30.4372 49.909 29.2441 48.3304 29.2441Z" fill="#FF4261"/>
<path d="M54.4636 31.8276H53.5473V30.3026H54.4636C54.9717 30.3026 55.2802 30.6166 55.2802 31.0562C55.2802 31.5137 54.9808 31.8276 54.4636 31.8276ZM54.4636 29.3428H52.4404V34.6534H53.5382V32.7785H54.4546C55.5887 32.7785 56.387 32.0788 56.387 31.0562C56.4052 30.0156 55.5977 29.3428 54.4636 29.3428Z" fill="#FF4261"/>
<path d="M60.2243 33.7474C59.2264 33.7474 58.5005 33.0297 58.5005 31.9981C58.5005 30.9755 59.2264 30.2489 60.2243 30.2489C61.2042 30.2489 61.9482 30.9755 61.9482 31.9981C61.9482 33.0297 61.2133 33.7474 60.2243 33.7474ZM60.2153 29.2441C58.6366 29.2441 57.3665 30.4372 57.3665 31.9981C57.3665 33.559 58.6366 34.7521 60.2153 34.7521C61.7939 34.7521 63.0822 33.559 63.0822 31.9981C63.0822 30.4372 61.7939 29.2441 60.2153 29.2441Z" fill="#FF4261"/>
<path d="M67.5192 33.6666H65.4234C66.0131 32.9848 66.3125 31.9443 66.3306 30.3206H67.5192V33.6666ZM68.626 29.3428H65.2873V30.2219C65.2873 32.1685 64.9062 33.1104 64.2076 33.6756H63.7903V35.7927H64.8881V34.6624H68.2359V35.7927H69.3337V33.6756H68.617V29.3428H68.626Z" fill="#FF4261"/>
<path d="M72.0736 33.0656L72.7903 31.2715L73.507 33.0656H72.0736ZM72.6089 29.2441L70.2046 34.6534H71.384L71.6834 33.9627H73.879L74.1784 34.6534H75.3579L72.9627 29.2441H72.6089Z" fill="#FF4261"/>
<path d="M81.8717 32.1147L79.6035 29.2441H79.2406V34.6534H80.3384V31.8187L81.6902 33.4962H82.0531L83.405 31.8187V34.6534H84.5028V29.2441H84.1398L81.8717 32.1147Z" fill="#FF4261"/>
<path d="M88.6311 33.7474C87.6331 33.7474 86.9073 33.0297 86.9073 31.9981C86.9073 30.9755 87.6331 30.2489 88.6311 30.2489C89.6109 30.2489 90.3549 30.9755 90.3549 31.9981C90.3549 33.0297 89.6109 33.7474 88.6311 33.7474ZM88.622 29.2441C87.0434 29.2441 85.7732 30.4372 85.7732 31.9981C85.7732 33.559 87.0434 34.7521 88.622 34.7521C90.2007 34.7521 91.489 33.559 91.489 31.9981C91.4799 30.4372 90.2007 29.2441 88.622 29.2441Z" fill="#FF4261"/>
<path d="M95.3723 30.2489C96.0436 30.2489 96.5517 30.5808 96.9055 31.1459L97.7311 30.5628C97.2594 29.7465 96.3975 29.2441 95.3632 29.2441C93.7573 29.2441 92.4962 30.4372 92.4962 31.9981C92.4962 33.559 93.7573 34.7521 95.3541 34.7521C96.3975 34.7521 97.2684 34.2497 97.7311 33.4334L96.9055 32.8503C96.5517 33.4155 96.0436 33.7474 95.3723 33.7474C94.3743 33.7474 93.6394 33.0297 93.6394 32.0071C93.6394 30.9755 94.3743 30.2489 95.3723 30.2489Z" fill="#FF4261"/>
<path d="M103.401 29.3428H102.095L100.035 31.8007V29.3428H98.9376V34.6534H100.035V31.8815L102.34 34.6534H103.674L101.342 31.8456L103.401 29.3428Z" fill="#FF4261"/>
<path d="M107.058 33.7204H105.806V32.3838H107.058C107.538 32.3838 107.82 32.644 107.82 33.0476C107.82 33.4693 107.529 33.7204 107.058 33.7204ZM105.796 30.2757H106.549C107.003 30.2757 107.248 30.509 107.248 30.8767C107.248 31.2356 107.003 31.4867 106.549 31.4867H105.796V30.2757ZM107.947 31.7828C108.201 31.5406 108.346 31.2176 108.346 30.8229C108.346 29.9438 107.638 29.3428 106.649 29.3428H104.744V34.6534H107.139C108.183 34.6534 108.908 34.0075 108.908 33.0925C108.899 32.4376 108.536 31.9891 107.947 31.7828Z" fill="#FF4261"/>
<path d="M112.311 33.6935H111.213V32.1147H112.311C112.846 32.1147 113.146 32.4466 113.146 32.9131C113.155 33.3706 112.855 33.6935 112.311 33.6935ZM112.311 31.1728H111.213V29.3428H110.115V34.6534H112.311C113.463 34.6534 114.271 33.9626 114.271 32.9041C114.28 31.8725 113.472 31.1728 112.311 31.1728Z" fill="#FF4261"/>
<path d="M116.312 29.3428H115.214V34.6534H116.312V29.3428Z" fill="#FF4261"/>
</g>
<defs>
<clipPath id="clip0_6290_11">
<rect width="181" height="40" fill="white"/>
</clipPath>
</defs>
</svg>
