<svg width="20" height="20" viewBox="0 0 20 20" fill="none" xmlns="http://www.w3.org/2000/svg">
<rect x="0.5" y="0.5" width="19" height="19" stroke="white"/>
<g clip-path="url(#clip0_2048_13792)">
<path d="M9.71555 15.2859C9.72743 15.3649 9.67992 15.5799 9.55522 15.7949C9.39786 16.07 9.20783 16.0637 9.1336 16.0321C9.39192 15.9878 9.57006 15.659 9.71555 15.2859ZM15.3153 7.47962C15.0867 8.06138 14.6769 8.58622 14.1633 8.95614C13.7357 9.26599 13.2488 9.42724 12.7916 9.42724C11.8771 9.42724 11.4376 8.83284 11.2536 8.38703C11.1051 8.02344 11.0279 7.82741 11.0279 7.82741C11.0131 7.78947 10.9626 7.79263 10.9507 7.83057C10.8498 8.12145 10.6865 8.41233 10.4667 8.68107C10.4489 8.70321 10.4549 8.72534 10.4697 8.73798C10.4697 8.73798 11.9483 10.0596 12.0285 10.1291C12.1087 10.2019 12.0908 10.3252 12.0136 10.3789C11.9632 10.4169 10.6627 11.3306 10.6627 11.3306C10.6122 11.3654 10.5499 11.3654 10.4935 11.3274C10.4935 11.3274 10.4014 11.2642 10.348 11.2263C10.2945 11.1883 10.247 11.1472 10.2203 11.1188L9.29394 10.0691C9.27909 10.0533 9.25831 10.0501 9.24049 10.0627L8.8456 10.3473C8.83075 10.3568 8.82482 10.3789 8.83075 10.3979L9.42161 12.0799C9.44239 12.14 9.42161 12.2064 9.37113 12.2412L8.72387 12.6933C8.71199 12.7028 8.70605 12.7154 8.70605 12.7312V12.785C8.70605 12.8134 8.72683 12.8324 8.75356 12.8292C9.30284 12.7565 9.84322 12.5984 10.1283 12.5984C10.2619 12.5984 10.4074 12.6111 10.443 12.7755C10.4667 12.8767 10.4697 13.0442 10.4578 13.1454C10.4489 13.2118 10.4341 13.2561 10.4044 13.313C10.3925 13.332 10.3955 13.3572 10.4133 13.3731C10.5885 13.5469 10.9448 13.6323 11.212 13.6955C11.3604 13.7303 11.4881 13.7619 11.5653 13.7999C11.6009 13.8189 11.6455 13.8568 11.6633 13.9516C11.687 14.0655 11.6574 14.2425 11.6188 14.2963C11.5831 14.3469 11.4792 14.3722 11.3515 14.3816C11.3308 14.3816 11.3129 14.4006 11.3129 14.4227V14.4354C11.3129 14.4575 11.3248 14.4765 11.3426 14.4797C11.5297 14.5397 11.7078 14.6504 11.8563 14.799C12.1146 15.0614 12.2571 15.4282 12.2571 15.8297C12.2571 16.2976 11.9721 16.7814 11.497 16.7814C11.4525 16.7814 11.405 16.7751 11.3545 16.7656C11.3337 16.7624 11.31 16.7656 11.2922 16.7782C11.1556 16.8636 11.0101 16.9078 10.8676 16.9078C10.7874 16.9078 10.7072 16.8952 10.6271 16.8667C10.4994 16.8193 10.3866 16.7371 10.2975 16.6296C10.2856 16.6138 10.2678 16.6201 10.2648 16.6391C10.2589 16.734 10.2084 16.8162 10.1372 16.8573C10.1223 16.8667 10.1134 16.8826 10.1164 16.8984C10.1223 16.9426 10.1312 17.0248 10.1312 17.0312C10.1312 17.0501 10.1312 17.0754 10.0897 17.1007C10.0778 17.1102 10.0689 17.1228 10.0689 17.1418L10.1312 20H9.92042L9.84916 17.0375C9.84916 17.0153 9.83431 16.9995 9.8165 16.9932C9.81056 16.9932 9.80165 16.9901 9.79572 16.9901C9.76899 16.9837 9.74524 17.0059 9.74524 17.0343L9.81353 20H9.72446V19.9526C9.72446 19.9368 9.71258 19.9241 9.69774 19.921C9.6918 19.921 9.68883 19.921 9.68289 19.9178C9.66508 19.9146 9.64726 19.9304 9.64726 19.9494V19.9968H9.55819L9.51365 16.9806C9.51365 16.9584 9.49584 16.9395 9.47505 16.9363C9.4513 16.9331 9.42458 16.93 9.40082 16.93C9.37707 16.9268 9.35332 16.9489 9.35629 16.9742L9.39489 19.9968H9.30581V19.9241C9.30581 19.902 9.288 19.8799 9.26721 19.8799C9.24643 19.8799 9.22565 19.8767 9.20783 19.8735C9.18408 19.8704 9.16033 19.8925 9.16033 19.9178V19.9937H9.07125L9.04453 16.9426C9.04453 16.9173 9.02672 16.8984 9.00296 16.8984C8.96436 16.8952 8.9228 16.8952 8.88123 16.892C8.85748 16.892 8.83669 16.911 8.83669 16.9363C8.83966 17.322 8.85748 19.9937 8.85748 19.9937H8.7684V19.8957C8.7684 19.8704 8.74762 19.8482 8.72387 19.8514C8.66745 19.8546 8.60807 19.8546 8.54869 19.8482C8.52493 19.8451 8.50415 19.8672 8.50415 19.8925V19.9937H8.41508C8.41508 19.9937 8.41211 17.3031 8.41211 16.9268C8.41211 16.9015 8.39429 16.8826 8.37054 16.8826C8.32897 16.8826 8.26365 16.8826 8.21912 16.8826C8.19536 16.8826 8.17755 16.9015 8.17755 16.9268C8.17755 17.3031 8.17458 19.9937 8.17458 19.9937H8.08551V19.8925C8.08551 19.8672 8.06472 19.8451 8.04097 19.8482C7.98456 19.8546 7.9222 19.8546 7.86579 19.8514C7.84204 19.8482 7.82125 19.8704 7.82125 19.8957V19.9937H7.73218C7.73218 19.9937 7.74999 17.322 7.75296 16.9363C7.75296 16.911 7.73218 16.892 7.70843 16.892C7.66686 16.892 7.62529 16.8952 7.58669 16.8984C7.56294 16.8984 7.54809 16.9173 7.54513 16.9426L7.5184 19.9937H7.42933V19.9178C7.42933 19.8925 7.40855 19.8704 7.38182 19.8735C7.36104 19.8767 7.34026 19.8767 7.32244 19.8799C7.30166 19.8799 7.28384 19.902 7.28384 19.9241V19.9968H7.19477L7.23337 16.9742C7.23337 16.9489 7.21258 16.9268 7.18883 16.93C7.16508 16.9331 7.13836 16.9363 7.1146 16.9363C7.09382 16.9395 7.07601 16.9584 7.07601 16.9806L7.03147 19.9968H6.94239V19.9494C6.94239 19.9304 6.92755 19.9146 6.90677 19.9178C6.90083 19.9178 6.89786 19.921 6.89192 19.921C6.87707 19.9241 6.86817 19.9368 6.8652 19.9526V20H6.77612L6.84441 17.0343C6.84441 17.0059 6.82066 16.9837 6.79394 16.9901C6.78503 16.9901 6.77909 16.9932 6.77316 16.9932C6.75534 16.9964 6.7405 17.0153 6.7405 17.0375L6.66924 20H6.45843L6.52078 17.1418C6.52078 17.126 6.51187 17.1102 6.5 17.1007C6.45843 17.0754 6.45843 17.0501 6.45843 17.0312C6.45843 17.0217 6.45843 17.0059 6.45843 16.9964C6.45843 16.9774 6.44358 16.9679 6.43468 16.9648C6.15558 16.8541 6.06354 16.5063 6.09917 16.1775C6.10213 16.1554 6.07838 16.1427 6.06057 16.1554C5.91211 16.2913 5.72209 16.3798 5.51128 16.3925C5.49644 16.3925 5.48159 16.3988 5.46971 16.4083C5.40736 16.4557 5.24703 16.5474 4.98872 16.5474C4.41865 16.5474 4 16.0352 4 15.3554C4 14.3152 4.98278 13.9516 5.0481 13.9232C5.06591 13.9169 5.07482 13.8979 5.07482 13.8789L5.06888 13.7778C5.06591 13.7493 5.05107 13.743 5.03325 13.7398C4.84323 13.7019 4.74228 13.6671 4.70071 13.588C4.65617 13.5027 4.6829 13.2086 4.71259 13.1328C4.75416 13.0316 4.87292 13.0095 5.06294 13.0095C5.33313 13.0095 5.69537 13.0253 6.07541 13.0253C6.7108 13.0253 7.25118 13 7.70843 12.9589C7.73515 12.9557 7.75296 12.9273 7.74406 12.8988L6.20012 8.08667C6.1823 8.02976 6.20012 7.96653 6.24762 7.93175L8.73574 6.0695C9.20486 5.72487 9.72743 5.63635 10.1312 5.81656C10.1669 5.83237 10.1995 5.79443 10.1847 5.75649L9.98574 5.26643C9.96199 5.20635 9.9798 5.1368 10.0303 5.09885C10.0303 5.09885 11.0873 4.30843 11.0903 4.30843C11.209 4.21358 11.2862 4.31791 11.3545 4.40328C11.4555 4.52975 11.4941 4.57717 11.5119 4.61827C11.5119 4.61827 12.7975 7.62506 12.8242 7.69146C12.8509 7.75785 12.8806 7.79579 12.9341 7.8116C13.1003 7.86219 13.2963 7.81793 13.4774 7.68513C13.8159 7.44168 13.9555 6.98956 13.7981 6.63861L12.3788 3.48322C12.3521 3.42315 12.3699 3.35043 12.4204 3.31249C12.4204 3.31249 13.418 2.56632 13.4715 2.52522C13.5279 2.48412 13.5873 2.49677 13.6348 2.53787C13.8011 2.69279 13.8723 2.77816 13.899 2.83507L15.3539 5.88296C15.5617 6.32876 15.5469 6.89471 15.3153 7.47962ZM15.2619 6.45523C15.2619 6.49633 15.2916 6.52795 15.3302 6.52795C15.3687 6.52795 15.3984 6.49633 15.3984 6.45523C15.3984 6.41413 15.3687 6.38251 15.3302 6.38251C15.2916 6.38251 15.2619 6.41413 15.2619 6.45523ZM5.0867 13.3256C5.0867 13.3509 5.10451 13.3699 5.12826 13.3699C5.26187 13.3699 5.8171 13.3857 6.26841 13.3857C8.41805 13.3857 9.42755 13.0347 9.97683 12.9842C10.0036 12.981 10.054 12.9715 10.054 12.9241C10.054 12.8767 10.0036 12.8735 9.97683 12.8735C9.40973 12.9241 8.51306 13.275 6.27137 13.275C5.78741 13.275 5.43705 13.2624 5.13123 13.2592C5.10748 13.2592 5.08967 13.2782 5.08967 13.3035V13.3256H5.0867ZM4.82245 13.2245C4.83135 13.2213 4.84323 13.2181 4.85214 13.2181C4.86995 13.215 4.88183 13.1992 4.8848 13.1802C4.8848 13.1739 4.88777 13.1644 4.88777 13.1581C4.89074 13.1359 4.86995 13.117 4.84917 13.1233C4.81948 13.1328 4.79572 13.1454 4.78385 13.1865C4.77791 13.2086 4.79869 13.2308 4.82245 13.2245ZM4.86995 13.3225C4.87292 13.3003 4.85214 13.2845 4.83432 13.2877C4.81948 13.2908 4.81057 13.294 4.79869 13.2972C4.78088 13.3035 4.769 13.3193 4.769 13.3383C4.769 13.3509 4.769 13.3604 4.769 13.3731C4.769 13.3952 4.78682 13.411 4.8076 13.4047C4.81651 13.4015 4.82838 13.3983 4.83729 13.3952C4.85511 13.392 4.86698 13.3762 4.86698 13.3572C4.86698 13.3446 4.86698 13.332 4.86995 13.3225ZM5.23218 16.3767C5.20843 16.3609 5.15499 16.3704 5.14014 16.3735C5.09264 16.383 5.04513 16.3862 4.99465 16.3862C4.51069 16.3893 4.14846 15.9435 4.14846 15.3523C4.14846 14.8369 4.45724 14.5081 4.48397 14.4575C4.50178 14.4196 4.47506 14.4038 4.43349 14.4544C4.24644 14.6662 4.08907 14.9729 4.08907 15.3554C4.08907 15.9815 4.46912 16.4526 4.9709 16.4526C5.05997 16.4526 5.13717 16.4399 5.19952 16.4209C5.23812 16.4115 5.25594 16.3956 5.23218 16.3767ZM4.35036 15.5293C4.38302 15.7728 4.49287 15.9593 4.63242 16.07C4.65617 16.089 4.68884 16.0542 4.66805 16.0289C4.54929 15.8929 4.45724 15.7222 4.40083 15.5167C4.39192 15.4882 4.34442 15.4977 4.35036 15.5293ZM6.27731 15.3744C6.27731 14.8622 5.95368 14.6314 5.6538 14.6314C5.43111 14.6314 5.19062 14.8116 5.19062 15.1025C5.19062 15.346 5.34501 15.5104 5.48753 15.5104C5.51425 15.5104 5.54097 15.504 5.56472 15.4946C5.58551 15.4851 5.57957 15.4503 5.55582 15.4503C5.41627 15.4471 5.2975 15.3207 5.2975 15.0993C5.2975 14.8622 5.45487 14.701 5.68943 14.701C5.93586 14.701 6.20308 14.9476 6.20308 15.346C6.20308 15.7886 5.91508 16.1206 5.53206 16.1206C5.11045 16.1206 4.67696 15.7601 4.67696 15.0962C4.67696 14.4322 5.18765 14.1856 5.53206 14.1856C5.9418 14.1856 6.24762 14.2394 6.93646 14.2394C8.54869 14.2394 9.09204 13.939 9.35629 13.939C9.55522 13.939 9.64726 14.1508 9.64726 14.603C9.64726 15.3491 9.36223 15.9498 9.03562 15.9498C9.02968 15.9498 9.02078 15.9498 9.01484 15.9498C8.97624 15.9467 8.95546 15.9973 8.98515 16.0257C9.05938 16.1016 9.14548 16.1427 9.23752 16.1427C9.62648 16.1427 9.96793 15.4218 9.96793 14.603C9.96793 14.2647 9.91448 13.6323 9.55819 13.6323C9.29987 13.6323 8.66448 14.037 7.21852 14.037C6.21199 14.037 6.04572 13.9169 5.53206 13.9169C4.86401 13.9169 4.43052 14.4354 4.43052 15.0646C4.43052 15.8645 4.94715 16.2945 5.43111 16.2945C5.9032 16.3008 6.27731 15.8993 6.27731 15.3744ZM9.95902 13.4173C9.95902 13.3889 9.92933 13.3857 9.91151 13.3857C9.58788 13.3983 8.52493 13.7588 6.33966 13.7588C5.98337 13.7588 5.50831 13.7366 5.2975 13.7493C5.27375 13.7493 5.24406 13.7619 5.24703 13.7872C5.25 13.8125 5.27969 13.8189 5.30047 13.8189C5.44596 13.803 5.99228 13.8283 6.33966 13.8283C8.53087 13.8283 9.49584 13.4869 9.90854 13.4521C9.92339 13.4521 9.95902 13.4489 9.95902 13.4173ZM9.91745 13.6197C9.89964 13.6228 9.88182 13.6228 9.86401 13.626C9.84619 13.6292 9.82244 13.6418 9.84322 13.6671C9.86401 13.6924 9.89667 13.6861 9.91151 13.6861C9.92933 13.6829 9.95902 13.6734 9.95605 13.6481C9.95308 13.626 9.92933 13.6197 9.91745 13.6197ZM10.5113 14.3753C10.5439 14.3563 10.6093 14.3469 10.6894 14.3311C10.7161 14.3279 10.734 14.2963 10.7221 14.2678C10.7161 14.252 10.7102 14.2394 10.7043 14.2236C10.6954 14.2046 10.6775 14.1983 10.6597 14.2014C10.5291 14.2267 10.4074 14.2362 10.2916 14.2362C10.2233 14.2362 10.1579 14.233 10.0867 14.2299C10.06 14.2267 10.0392 14.252 10.0422 14.2805C10.0422 14.2836 10.0422 14.2868 10.0422 14.2899C10.0451 14.3121 10.06 14.3279 10.0778 14.3279C10.149 14.3342 10.3094 14.3563 10.3361 14.3722C10.3094 14.388 10.1669 14.388 10.0926 14.388C10.0689 14.388 10.0511 14.4069 10.0511 14.4354C10.0511 14.4417 10.0511 14.4512 10.0511 14.4575C10.0511 14.4797 10.0689 14.4986 10.0867 14.4986C10.1728 14.5081 10.2619 14.5239 10.2916 14.5429C10.2589 14.5555 10.1758 14.5587 10.0956 14.5587C10.0718 14.5587 10.054 14.5777 10.054 14.603C10.054 14.6093 10.054 14.6188 10.054 14.6283C10.054 14.6504 10.0689 14.6694 10.0897 14.6725C10.1817 14.6852 10.2708 14.701 10.3005 14.7168C10.2767 14.7294 10.1758 14.7326 10.0897 14.7294C10.0659 14.7294 10.0481 14.7484 10.0481 14.7705C10.0481 14.78 10.0481 14.7863 10.0481 14.7958C10.0481 14.8211 10.0629 14.8401 10.0837 14.8432C10.1995 14.8559 10.3331 14.878 10.3569 14.897C10.3272 14.9096 10.1936 14.9065 10.0778 14.9033C10.057 14.9033 10.0362 14.9191 10.0332 14.9444C10.0332 14.9476 10.0332 14.9507 10.0332 14.9539C10.0303 14.9792 10.0481 15.0045 10.0718 15.0045C10.3895 15.0235 10.6894 15.0772 10.823 15.1057C10.8498 15.112 10.8735 15.0867 10.8735 15.0582C10.8735 15.0488 10.8735 15.0393 10.8705 15.0298C10.8705 15.0077 10.8527 14.9918 10.8319 14.9887C10.7102 14.9792 10.5825 14.9507 10.5231 14.9191C10.5825 14.9096 10.7191 14.9191 10.8141 14.9255C10.8408 14.9255 10.8616 14.9033 10.8587 14.8749C10.8557 14.8591 10.8557 14.8432 10.8527 14.8274C10.8498 14.8053 10.8349 14.7895 10.8141 14.7895C10.734 14.7863 10.5974 14.7674 10.5707 14.7452C10.6182 14.7326 10.7132 14.7326 10.7904 14.7294C10.8171 14.7294 10.8349 14.7041 10.829 14.6757C10.826 14.6567 10.823 14.6409 10.8171 14.6219C10.8141 14.5998 10.7963 14.5872 10.7755 14.5872C10.6983 14.5872 10.5944 14.5808 10.5588 14.565C10.5974 14.5492 10.6746 14.5429 10.7429 14.5334C10.7696 14.5302 10.7874 14.5018 10.7785 14.4765C10.7726 14.4575 10.7666 14.4385 10.7636 14.4227C10.7577 14.4038 10.7399 14.3911 10.7191 14.3911C10.6479 14.3911 10.538 14.388 10.5113 14.3753ZM10.6271 14.0781C10.6211 14.0686 10.6182 14.0623 10.6122 14.056C10.6033 14.0402 10.5855 14.0339 10.5677 14.0402C10.4519 14.0686 10.342 14.0844 10.2292 14.0844C10.1758 14.0844 10.1194 14.0813 10.0629 14.075C10.0362 14.0718 10.0125 14.0908 10.0184 14.1255C10.0243 14.154 10.0481 14.1635 10.0659 14.1666C10.247 14.1793 10.4074 14.1825 10.5974 14.1508C10.6271 14.1413 10.6419 14.1066 10.6271 14.0781ZM10.0154 15.0993C10.0154 15.1025 10.0154 15.1057 10.0154 15.1057C10.0125 15.131 10.0303 15.1563 10.054 15.1563C10.3806 15.1784 10.7013 15.2385 10.8349 15.2701C10.8616 15.2764 10.8854 15.2543 10.8854 15.2258C10.8854 15.2195 10.8854 15.2163 10.8854 15.21C10.8854 15.1879 10.8705 15.1721 10.8527 15.1657C10.7399 15.1436 10.4103 15.0804 10.0629 15.0582C10.0392 15.0614 10.0214 15.0772 10.0154 15.0993ZM9.9798 15.2796C9.97386 15.3049 9.99168 15.327 10.0125 15.327C10.3391 15.3396 10.6835 15.4155 10.829 15.4503C10.8527 15.4566 10.8735 15.4471 10.8765 15.4124C10.8794 15.3902 10.8646 15.3744 10.8468 15.3681C10.7369 15.3428 10.3836 15.2701 10.0214 15.2511C10.0036 15.2511 9.98574 15.2574 9.9798 15.2796ZM9.95902 15.5293C9.9412 15.5293 9.90557 15.5325 9.89667 15.561C9.88776 15.5863 9.92042 15.5989 9.93823 15.5989C10.3153 15.6337 10.541 15.6937 10.7607 15.757C10.7755 15.7601 10.8082 15.7633 10.8171 15.7317C10.826 15.7001 10.7904 15.6874 10.7726 15.6811C10.538 15.6115 10.2945 15.561 9.95902 15.5293ZM10.6211 15.9498C10.3895 15.8771 10.1579 15.8107 9.84916 15.7981C9.83135 15.7981 9.78681 15.8012 9.77196 15.8297C9.75712 15.8582 9.79572 15.8708 9.81947 15.8708C10.2173 15.8771 10.5499 16.0036 10.5914 16.0162C10.6182 16.0257 10.6538 16.0321 10.6686 16.0099C10.6865 15.9878 10.6597 15.9625 10.6211 15.9498ZM9.35035 16.4304C9.37113 16.4304 9.38598 16.4115 9.38004 16.3925C9.36816 16.3261 9.32363 16.2723 9.2494 16.266C9.22268 16.2629 9.17814 16.2597 9.14251 16.2597C9.12173 16.2597 9.10688 16.2818 9.11282 16.3008C9.12173 16.3261 9.12767 16.3514 9.13063 16.3767C9.1336 16.3988 9.14845 16.4178 9.16923 16.4178L9.35035 16.4304ZM9.29394 16.5221L9.14845 16.5126C9.13063 16.5126 9.11282 16.5126 9.09797 16.5442C9.08313 16.5759 9.10094 16.5885 9.12173 16.5885L9.22862 16.5948C9.26128 16.598 9.288 16.5948 9.30581 16.579C9.3355 16.5569 9.32363 16.5253 9.29394 16.5221ZM9.39785 16.6486C9.49287 16.6486 9.56116 16.5727 9.57006 16.4526C9.57897 16.3545 9.52553 16.2534 9.42755 16.2376C9.40082 16.2312 9.38301 16.266 9.40082 16.2882C9.43051 16.3261 9.44536 16.3798 9.44239 16.4462C9.43942 16.5095 9.40676 16.5632 9.3741 16.598C9.35926 16.617 9.3741 16.6486 9.39785 16.6486ZM8.83669 16.0953C8.86638 16.0984 8.90498 16.0858 8.89014 16.0573C8.87529 16.0289 8.81888 16.0226 8.80106 16.0226C8.32897 16.0004 7.16805 16.0004 6.65142 16.1585C6.63658 16.1617 6.61282 16.1775 6.61876 16.2028C6.62767 16.2281 6.66033 16.2249 6.67221 16.2218C7.31353 16.051 8.5665 16.0795 8.83669 16.0953ZM8.55759 16.2249C7.93705 16.2091 7.34619 16.247 7.02553 16.2913C7.00475 16.2945 6.97506 16.3103 6.98693 16.3356C6.99881 16.3609 7.04631 16.3672 7.06413 16.364C7.3937 16.3229 7.92814 16.2882 8.51603 16.3008C8.53681 16.3008 8.57838 16.2976 8.59026 16.266C8.60213 16.2407 8.57838 16.2249 8.55759 16.2249ZM6.94536 16.4684C6.93052 16.3862 6.87114 16.3293 6.81769 16.3387C6.76425 16.3482 6.73159 16.4273 6.74643 16.5095C6.76128 16.5917 6.82066 16.6486 6.87411 16.6391C6.92755 16.6296 6.96021 16.5506 6.94536 16.4684ZM7.00772 15.8265C6.96615 15.855 6.72268 15.9309 6.60688 15.9688C6.5861 15.9751 6.55938 15.9941 6.56829 16.0257C6.57422 16.0573 6.60688 16.0479 6.6247 16.0415C7.20962 15.8613 8.48931 15.8866 8.68527 15.8993C8.71793 15.9024 8.76543 15.8866 8.75059 15.8518C8.73574 15.8139 8.6823 15.8076 8.65261 15.8044C8.45961 15.7949 8.10629 15.776 8.05581 15.7475C8.12113 15.7159 8.42992 15.7096 8.63182 15.7096C8.65261 15.7096 8.67636 15.6969 8.65854 15.659C8.6437 15.621 8.61401 15.6147 8.59916 15.6115C8.519 15.5957 8.46852 15.5799 8.43883 15.5641C8.46555 15.5483 8.50415 15.5388 8.54572 15.5325C8.57244 15.5293 8.59025 15.4977 8.57838 15.4693C8.54869 15.3902 8.51603 15.3333 8.47446 15.3333C8.42102 15.3333 8.40023 15.4187 8.36757 15.5167C8.33788 15.6021 8.25771 15.6432 8.18646 15.6052C8.13004 15.5768 8.10035 15.5104 8.11223 15.444C8.13598 15.3207 8.2013 15.2068 8.22208 15.1531C8.24287 15.0962 8.25178 14.9982 8.17161 14.976C8.08254 14.9507 8.04097 15.0677 8.02909 15.1152C8.00831 15.2037 7.98159 15.406 7.94002 15.523C7.91627 15.5926 7.85094 15.6305 7.78266 15.6147C7.71437 15.5989 7.66983 15.5262 7.68467 15.4471C7.69061 15.4124 7.76781 15.0962 7.76781 14.9824C7.76781 14.8622 7.62529 14.6409 7.50356 14.6409C7.41448 14.6409 7.26306 14.8211 7.26306 14.9982C7.26306 15.1088 7.38182 15.4377 7.39073 15.4724C7.40855 15.5483 7.36995 15.6242 7.30166 15.6463C7.23337 15.6685 7.16508 15.6337 7.13836 15.5673C7.08491 15.4408 7.01365 15.1689 7.00475 15.1499C6.99881 15.1278 6.95724 15.0203 6.86223 15.0551C6.79394 15.0804 6.79097 15.1626 6.8266 15.2258C6.85035 15.2669 6.93349 15.3934 6.96615 15.5072C6.98693 15.5736 6.96318 15.6495 6.9038 15.6843C6.83254 15.7254 6.75237 15.6874 6.71674 15.6084C6.68705 15.5357 6.64845 15.4282 6.60392 15.4282C6.54453 15.4282 6.52672 15.5483 6.52375 15.6463C6.52375 15.6748 6.54453 15.6969 6.57126 15.6937C6.61876 15.6874 6.66033 15.6874 6.68408 15.6937C6.66033 15.7159 6.60688 15.7475 6.55641 15.7728C6.54156 15.7791 6.52969 15.7981 6.53266 15.8171C6.53266 15.8265 6.53563 15.8392 6.53563 15.8487C6.5386 15.8676 6.55641 15.8803 6.57126 15.874C6.7108 15.8455 6.95427 15.8139 7.00772 15.8265ZM7.14133 14.9539C7.16211 14.9539 7.17696 14.9381 7.18289 14.9191C7.18586 14.9096 7.18586 14.9033 7.18883 14.8938C7.19477 14.8749 7.17992 14.8527 7.15914 14.8527C6.93943 14.8591 6.63361 14.8527 6.37826 14.8464C6.35451 14.8464 6.33966 14.8749 6.35154 14.8938C6.35748 14.9033 6.36342 14.9128 6.36936 14.9223C6.37529 14.9349 6.39014 14.9444 6.40498 14.9444C6.59204 14.9539 6.84145 14.9602 7.14133 14.9539ZM6.76128 15.4851C6.76722 15.4946 6.77019 15.5072 6.77612 15.5167C6.78206 15.5325 6.79691 15.542 6.81472 15.542C6.82363 15.542 6.83254 15.542 6.84144 15.542C6.86223 15.542 6.87707 15.5199 6.86817 15.4977C6.86223 15.4851 6.85926 15.4724 6.85332 15.4629C6.84738 15.4471 6.83254 15.4377 6.81472 15.4377C6.80582 15.4377 6.79691 15.4377 6.788 15.4377C6.76425 15.4408 6.7494 15.4661 6.76128 15.4851ZM7.07304 15.0962C7.07601 15.1057 7.07897 15.1152 7.08491 15.1246C7.09085 15.1404 7.1057 15.1531 7.12351 15.1531C7.13242 15.1531 7.14133 15.1531 7.15023 15.1531C7.16805 15.1531 7.18289 15.1341 7.17992 15.1152C7.17992 15.1057 7.17696 15.0993 7.17696 15.0899C7.17399 15.0677 7.15617 15.0519 7.13539 15.0519C7.12351 15.0519 7.11163 15.0519 7.09976 15.0519C7.07897 15.0519 7.06413 15.0741 7.07304 15.0962ZM7.13539 15.2859C7.13836 15.2954 7.14133 15.3049 7.14429 15.3143C7.15023 15.3333 7.16508 15.346 7.18586 15.346C7.1918 15.346 7.19774 15.346 7.20665 15.346C7.22743 15.346 7.24228 15.3238 7.23337 15.3049C7.2304 15.2954 7.22743 15.2859 7.22446 15.2796C7.21852 15.2606 7.20071 15.2479 7.18289 15.2479C7.17696 15.2479 7.17102 15.2479 7.16508 15.2479C7.14429 15.2448 7.12945 15.2638 7.13539 15.2859ZM7.19774 15.4819C7.20071 15.4914 7.20665 15.504 7.20962 15.5167C7.21555 15.5325 7.23337 15.5451 7.25118 15.5451C7.26009 15.5451 7.269 15.5451 7.27791 15.5451C7.29572 15.5451 7.31057 15.5262 7.30463 15.5072C7.30166 15.4946 7.29572 15.4819 7.29275 15.4693C7.28681 15.4535 7.269 15.4408 7.25415 15.444C7.24524 15.444 7.23634 15.444 7.22743 15.444C7.20368 15.4376 7.18883 15.4598 7.19774 15.4819ZM7.25415 14.7389C7.26009 14.7294 7.26603 14.7199 7.27494 14.7105C7.28978 14.6883 7.27494 14.6599 7.25118 14.6599C6.93349 14.6694 6.48515 14.6599 6.19418 14.6472C6.16449 14.6472 6.15261 14.6852 6.17636 14.7041C6.18527 14.7105 6.19715 14.7199 6.20605 14.7294C6.2209 14.7421 6.23871 14.7484 6.25653 14.7516C6.52672 14.761 6.83254 14.7705 7.22149 14.761C7.23337 14.7579 7.24821 14.7516 7.25415 14.7389ZM6.30403 15.8582C6.31294 15.8645 6.32482 15.874 6.33966 15.8835C6.35451 15.8961 6.38123 15.8993 6.38123 15.8645C6.38123 15.8297 6.36936 15.8107 6.34263 15.7949C6.31591 15.7791 6.29513 15.7823 6.28622 15.8012C6.27434 15.8234 6.28919 15.8487 6.30403 15.8582ZM6.2209 15.9909C6.20605 15.9815 6.18824 15.9846 6.17636 16.0004C6.16746 16.0162 6.17042 16.0352 6.1823 16.0479C6.28919 16.1332 6.36936 16.2376 6.39608 16.2723C6.41389 16.2945 6.44061 16.3103 6.45843 16.2976C6.47921 16.2818 6.47031 16.2534 6.45249 16.2312C6.37529 16.1143 6.27434 16.0321 6.2209 15.9909ZM6.48812 15.1468C6.55047 15.1499 6.61282 15.1499 6.67517 15.1499C6.69596 15.1499 6.71377 15.1373 6.71674 15.1152C6.71971 15.1088 6.71971 15.0993 6.72268 15.0899C6.72862 15.0709 6.71377 15.0488 6.69596 15.0488C6.61282 15.0488 6.53859 15.0456 6.47031 15.0456C6.44952 15.0456 6.43468 15.0677 6.44061 15.0867C6.44358 15.0962 6.44655 15.1057 6.44952 15.112C6.45546 15.1341 6.47031 15.1468 6.48812 15.1468ZM6.48812 15.2764C6.48812 15.2859 6.49109 15.2954 6.49109 15.3017C6.49406 15.3238 6.51187 15.3396 6.53266 15.3396C6.58313 15.3396 6.67221 15.3428 6.73456 15.3428C6.75831 15.3428 6.77316 15.3175 6.76128 15.2954C6.75534 15.2859 6.7494 15.2764 6.74643 15.2669C6.74049 15.2511 6.72565 15.2448 6.7108 15.2416C6.64845 15.2416 6.5861 15.2385 6.52078 15.2385C6.5 15.2416 6.48515 15.2574 6.48812 15.2764ZM7.82719 15.2448C7.82422 15.2543 7.82422 15.2638 7.82125 15.2732C7.81532 15.2954 7.83313 15.3143 7.85094 15.3112C7.85688 15.3112 7.86282 15.3112 7.87173 15.308C7.88954 15.3049 7.90439 15.2922 7.91033 15.2732C7.9133 15.2638 7.9133 15.2543 7.91627 15.2448C7.91923 15.2258 7.90439 15.2068 7.88361 15.2068C7.87767 15.2068 7.87173 15.2068 7.86579 15.21C7.84798 15.2132 7.83313 15.2258 7.82719 15.2448ZM7.88657 15.112C7.89548 15.112 7.90439 15.1088 7.9133 15.1088C7.93111 15.1057 7.94299 15.0962 7.94893 15.0772C7.95189 15.0677 7.95486 15.0582 7.95783 15.0488C7.96674 15.0266 7.94893 15.0045 7.92814 15.0077C7.91627 15.0077 7.90439 15.0108 7.89251 15.0108C7.87173 15.014 7.85688 15.0298 7.85391 15.0519C7.85391 15.0614 7.85391 15.0677 7.85391 15.0772C7.85094 15.0993 7.86876 15.1152 7.88657 15.112ZM7.81532 15.4092C7.7975 15.4092 7.78266 15.425 7.77969 15.4408C7.77672 15.4503 7.77672 15.4598 7.77375 15.4693C7.77078 15.4882 7.78562 15.504 7.80344 15.504C7.81235 15.504 7.81828 15.504 7.82719 15.504C7.84501 15.504 7.85985 15.4914 7.86579 15.4724C7.86876 15.4661 7.87173 15.4566 7.87173 15.4471C7.87767 15.425 7.85985 15.406 7.83907 15.406C7.83313 15.4092 7.82422 15.4092 7.81532 15.4092ZM8.64964 16.3988C8.64667 16.4905 8.70605 16.5664 8.78325 16.5664C8.86045 16.5664 8.9228 16.4968 8.92577 16.4051C8.92873 16.3134 8.86935 16.2376 8.79215 16.2376C8.71496 16.2376 8.65261 16.3071 8.64964 16.3988ZM8.94358 15.8139C8.84263 15.6843 8.78622 15.4377 8.78622 15.1721C8.78622 14.8622 8.87232 14.682 8.9703 14.6061C9.00296 14.584 8.98218 14.5524 8.95843 14.5524C8.84857 14.5524 8.72387 14.8053 8.72387 15.1721C8.72387 15.5072 8.79512 15.7507 8.91389 15.8455C8.93467 15.8613 8.96139 15.836 8.94358 15.8139ZM9.35035 14.8875C9.35035 15.0488 9.31472 15.2037 9.2494 15.3175C9.24049 15.3333 9.23752 15.3428 9.2494 15.3523C9.26128 15.3586 9.27612 15.3523 9.288 15.3365C9.43052 15.1531 9.47208 14.7073 9.38301 14.4891C9.36816 14.4512 9.33847 14.4196 9.30878 14.4196C9.27315 14.4196 9.25831 14.4575 9.27315 14.486C9.32066 14.5871 9.35035 14.7263 9.35035 14.8875ZM9.26128 14.8875C9.26128 14.6219 9.17517 14.4227 9.05938 14.4227C9.04156 14.4227 9.02078 14.4291 8.99999 14.4385C8.97624 14.4512 8.97921 14.4891 9.00593 14.4986C9.0861 14.5239 9.16329 14.6314 9.16329 14.9128C9.16329 14.9666 9.15736 15.2005 9.07719 15.2543C9.05938 15.2669 9.06234 15.2954 9.07719 15.308C9.08907 15.3143 9.10094 15.3207 9.11282 15.3207C9.1722 15.3207 9.26128 15.1404 9.26128 14.8875ZM9.10391 14.9128C9.10391 14.8812 9.06531 14.8685 9.05047 14.8938C9.02375 14.9381 9.00593 15.0077 9.00593 15.0804C9.00593 15.1404 9.01484 15.2005 9.04156 15.2005C9.08016 15.2037 9.10391 15.033 9.10391 14.9128ZM9.13657 15.7949C9.3266 15.7949 9.58788 15.3143 9.58788 14.6472C9.58788 14.3469 9.4988 14.1666 9.35629 14.1666C9.1247 14.1666 8.54275 14.467 6.93646 14.467C6.08135 14.467 5.9329 14.4133 5.53206 14.4133C4.98278 14.4133 4.78979 14.78 4.78979 15.1152C4.78979 15.6716 5.16686 16.0036 5.53206 16.0036C5.89727 16.0036 6.08729 15.6685 6.08729 15.3365C6.08729 15.0203 5.87945 14.8243 5.68943 14.8243C5.52316 14.8243 5.41627 14.9349 5.41627 15.1025C5.41627 15.1752 5.44299 15.2606 5.51128 15.2606C5.59145 15.2606 5.59145 15.112 5.5291 15.0171C5.67755 14.9729 5.79038 15.1246 5.79038 15.3017C5.79038 15.4819 5.66864 15.6526 5.49644 15.6526C5.2886 15.6526 5.06591 15.4377 5.06591 15.1183C5.06591 14.8369 5.23812 14.5397 5.68349 14.5397C5.91211 14.5397 6.55344 14.5682 6.94536 14.5682C7.74406 14.5682 8.21615 14.5018 8.29334 14.5302C8.23099 14.5713 7.98159 14.6093 7.74109 14.6346C7.71733 14.6377 7.70546 14.6694 7.72327 14.6883C7.72921 14.6946 7.73218 14.701 7.73812 14.7073C7.75593 14.7294 7.77969 14.7389 7.80641 14.7389C7.92517 14.7326 8.09441 14.7294 8.14786 14.7484C8.10035 14.7863 7.96971 14.8085 7.85094 14.8274C7.83313 14.8306 7.82125 14.8496 7.82719 14.8685C7.83016 14.878 7.83313 14.8875 7.8361 14.897C7.84204 14.916 7.85985 14.9286 7.87767 14.9286C8.00534 14.9191 8.12113 14.8812 8.18942 14.9002C8.326 14.9349 8.35273 15.0741 8.30522 15.2037C8.28147 15.2701 8.22208 15.3618 8.2013 15.4788C8.19536 15.504 8.20724 15.5293 8.23099 15.5388C8.25475 15.5483 8.2785 15.5325 8.28741 15.5009C8.30522 15.4503 8.34382 15.2574 8.47743 15.2574C8.51306 15.2574 8.54275 15.2701 8.5665 15.289C8.59322 15.3143 8.63479 15.2891 8.63479 15.2511C8.63479 15.229 8.63479 15.2068 8.63479 15.1847C8.63479 14.6788 8.85451 14.3405 9.06234 14.3405H9.31769C9.41864 14.3405 9.51959 14.4385 9.51959 14.7832C9.51959 15.1563 9.37707 15.4661 9.25534 15.4661C9.18111 15.4661 9.09501 15.4661 9.0475 15.4313C8.97921 15.3839 8.91686 15.2638 8.91686 15.0962C8.91686 14.9792 8.96139 14.818 9.05938 14.78C9.08016 14.7705 9.08907 14.7484 9.0861 14.7294C9.08313 14.7168 9.08016 14.7073 9.07719 14.6978C9.06828 14.6725 9.04156 14.6599 9.01781 14.6725C8.92577 14.7263 8.84857 14.9033 8.84857 15.191C8.8456 15.4376 8.91983 15.7949 9.13657 15.7949ZM5.63598 15.2669C5.62114 15.3049 5.59145 15.3302 5.54988 15.3428C5.5291 15.3491 5.53206 15.3839 5.55285 15.3871C5.60926 15.3934 5.66567 15.3681 5.6924 15.2954C5.70724 15.2543 5.70724 15.2037 5.68943 15.1626C5.68052 15.1373 5.64786 15.1499 5.65083 15.1752C5.6538 15.2068 5.64786 15.2353 5.63598 15.2669ZM5.53206 14.3152C5.9032 14.3152 6.07541 14.369 6.93646 14.369C8.55463 14.369 9.10094 14.0686 9.35629 14.0686C9.42755 14.0686 9.43051 14.0054 9.35629 14.0054C9.11579 14.0054 8.55463 14.3058 6.93646 14.3058C6.05166 14.3058 5.98337 14.252 5.53206 14.252C5.43705 14.252 5.4133 14.3152 5.53206 14.3152ZM6.44358 16.8035C6.26841 16.6992 6.20308 16.4462 6.22684 16.2281C6.22684 16.2186 6.22387 16.1933 6.20308 16.1901C6.1823 16.187 6.16746 16.1996 6.16449 16.2218C6.14667 16.4873 6.21496 16.7561 6.41686 16.8604C6.43171 16.8667 6.44952 16.8667 6.45843 16.8446C6.46734 16.8256 6.45546 16.8098 6.44358 16.8035ZM6.61282 16.734C6.63361 16.7276 6.63658 16.7023 6.6247 16.6834C6.60392 16.6581 6.57719 16.6138 6.56532 16.5506C6.55641 16.5 6.55641 16.4494 6.56829 16.4051C6.57422 16.383 6.55938 16.364 6.5386 16.364C6.46437 16.3735 6.39608 16.4557 6.41686 16.5854C6.43765 16.6992 6.53563 16.7624 6.61282 16.734ZM6.93052 19.7471C6.93052 19.7281 6.91567 19.7123 6.89786 19.7154C6.89192 19.7154 6.88895 19.7154 6.88301 19.7186C6.86817 19.7218 6.85629 19.7344 6.85629 19.7502V19.7945C6.85629 19.8135 6.87411 19.8293 6.89192 19.8261C6.89786 19.8261 6.9038 19.8229 6.90973 19.8229C6.92161 19.8198 6.93349 19.8071 6.93349 19.7913C6.93052 19.7787 6.93052 19.7629 6.93052 19.7471ZM6.93349 19.5416C6.93349 19.5226 6.91864 19.5068 6.90083 19.5099C6.89786 19.5099 6.89192 19.5099 6.88895 19.5131C6.87411 19.5163 6.86223 19.5289 6.86223 19.5447V19.589C6.86223 19.6079 6.88004 19.6238 6.89786 19.6206C6.9038 19.6206 6.90677 19.6174 6.9127 19.6174C6.92458 19.6143 6.93646 19.6016 6.93646 19.5858L6.93349 19.5416ZM6.93646 19.336C6.93646 19.3171 6.92161 19.3044 6.9038 19.3076C6.89786 19.3076 6.89489 19.3107 6.88895 19.3107C6.87707 19.3139 6.8652 19.3234 6.8652 19.3392V19.3898C6.8652 19.4088 6.88004 19.4214 6.89786 19.4182C6.9038 19.4182 6.90973 19.4151 6.91567 19.4151C6.92755 19.4119 6.93646 19.3993 6.93646 19.3866V19.336ZM6.93943 19.1305C6.93943 19.1116 6.92458 19.0989 6.90677 19.1021C6.90083 19.1021 6.89786 19.1052 6.89192 19.1052C6.88004 19.1084 6.86817 19.1179 6.86817 19.1337V19.1843C6.86817 19.2032 6.88301 19.2159 6.90083 19.2127C6.90677 19.2127 6.9127 19.2096 6.91567 19.2096C6.92755 19.2064 6.93646 19.1938 6.93646 19.1811L6.93943 19.1305ZM6.94239 18.925C6.94239 18.906 6.92755 18.8934 6.90973 18.8966C6.90677 18.8966 6.90083 18.8966 6.89786 18.8997C6.88598 18.9029 6.87411 18.9124 6.87411 18.9282V18.9788C6.87411 18.9977 6.88895 19.0104 6.90677 19.0072C6.9127 19.0072 6.91567 19.0041 6.92161 19.0041C6.93349 19.0009 6.94239 18.9883 6.94239 18.9756V18.925ZM6.94536 18.7195C6.94536 18.7005 6.93052 18.6879 6.9127 18.6911C6.90973 18.6911 6.90677 18.691 6.90083 18.6942C6.88895 18.6974 6.87707 18.7069 6.87707 18.7227V18.7733C6.87707 18.7922 6.89192 18.8049 6.90973 18.8017C6.91567 18.8017 6.91864 18.7985 6.92161 18.7985C6.93349 18.7954 6.94239 18.7827 6.94239 18.7701L6.94536 18.7195ZM6.94833 18.514C6.94833 18.495 6.93349 18.4824 6.91567 18.4855C6.9127 18.4855 6.90973 18.4855 6.90677 18.4887C6.89489 18.4919 6.88301 18.5045 6.88301 18.5172V18.5677C6.88301 18.5867 6.89786 18.5994 6.91567 18.5962C6.91864 18.5962 6.92458 18.593 6.92755 18.593C6.93943 18.5899 6.94833 18.5772 6.94833 18.5646V18.514ZM6.9513 18.3116C6.9513 18.2927 6.93646 18.28 6.91864 18.2832C6.91567 18.2832 6.9127 18.2832 6.90973 18.2832C6.89786 18.2864 6.88895 18.2958 6.88598 18.3116V18.3622C6.88598 18.3812 6.90083 18.3939 6.91864 18.3907C6.92161 18.3907 6.92458 18.3907 6.92755 18.3875C6.93943 18.3844 6.94833 18.3717 6.94833 18.3591L6.9513 18.3116ZM6.95427 18.1061C6.95427 18.0872 6.93943 18.0745 6.92161 18.0777C6.91864 18.0777 6.91567 18.0777 6.91567 18.0777C6.9038 18.0808 6.89489 18.0903 6.89192 18.1061V18.1567C6.89192 18.1757 6.90677 18.1883 6.92458 18.1852C6.92755 18.1852 6.93052 18.1852 6.93349 18.182C6.94536 18.1789 6.95427 18.1662 6.95427 18.1536V18.1061ZM6.95724 17.9006C6.95724 17.8817 6.94239 17.869 6.92458 17.8722C6.90677 17.8753 6.89786 17.888 6.89786 17.9006V17.9512C6.89786 17.9702 6.9127 17.986 6.93052 17.9797C6.94833 17.9765 6.95724 17.9639 6.95724 17.9512V17.9006ZM6.96021 17.6951C6.96021 17.6761 6.94536 17.6635 6.92755 17.6667C6.90973 17.6698 6.90083 17.6825 6.90083 17.6951V17.7457C6.90083 17.7647 6.91864 17.7805 6.93349 17.7742C6.9513 17.771 6.95724 17.7583 6.96021 17.7457V17.6951ZM6.96318 17.4896C6.96318 17.4706 6.94833 17.458 6.93052 17.4611C6.9127 17.4643 6.90677 17.477 6.90677 17.4896V17.5402C6.90677 17.5592 6.92161 17.5718 6.93943 17.5686C6.95427 17.5655 6.96318 17.5528 6.96318 17.5402V17.4896ZM6.96912 17.2841C6.96912 17.2651 6.95427 17.2525 6.93646 17.2556C6.91864 17.2588 6.9127 17.2683 6.9127 17.2841V17.3347C6.9127 17.3536 6.92755 17.3663 6.94536 17.3631C6.96021 17.36 6.96615 17.3473 6.96615 17.3347L6.96912 17.2841ZM6.97209 17.0786C6.97209 17.0596 6.95724 17.047 6.94239 17.0501C6.92458 17.0533 6.92161 17.0628 6.92161 17.0786V17.1292C6.92161 17.1481 6.93646 17.1608 6.95427 17.1576C6.96912 17.1545 6.97506 17.1418 6.97506 17.1292L6.97209 17.0786ZM7.42042 19.7186C7.42042 19.6933 7.39964 19.6712 7.37292 19.6743C7.35213 19.6775 7.33135 19.6775 7.31353 19.6807C7.29275 19.6807 7.27494 19.7028 7.27494 19.7249V19.7439C7.27494 19.7692 7.29572 19.7913 7.31947 19.7882C7.34026 19.7882 7.36401 19.785 7.38479 19.7818C7.40558 19.7787 7.42042 19.7597 7.42042 19.7376V19.7186ZM7.42042 19.5163C7.42042 19.491 7.39964 19.4688 7.37292 19.472C7.35213 19.4752 7.33432 19.4752 7.31353 19.4783C7.29275 19.4783 7.27494 19.5004 7.27494 19.5226V19.5416C7.27494 19.5668 7.29572 19.589 7.31947 19.5858C7.34026 19.5858 7.36401 19.5827 7.38479 19.5795C7.40558 19.5763 7.42042 19.5574 7.42042 19.5352V19.5163ZM7.42339 19.3107C7.42339 19.2855 7.40261 19.2633 7.37589 19.2665C7.3551 19.2696 7.33729 19.2696 7.3165 19.2728C7.29572 19.2728 7.27791 19.2949 7.27791 19.3171V19.336C7.27791 19.3613 7.29869 19.3835 7.32244 19.3803C7.34323 19.3803 7.36401 19.3771 7.38479 19.374C7.40558 19.3708 7.42042 19.3518 7.42042 19.3297L7.42339 19.3107ZM7.42339 19.1052C7.42339 19.0799 7.40261 19.0578 7.37589 19.061C7.35807 19.0641 7.33729 19.0641 7.31947 19.0673C7.29869 19.0673 7.28087 19.0894 7.28087 19.1116V19.1305C7.28087 19.1558 7.30166 19.178 7.32541 19.1748C7.34619 19.1748 7.36698 19.1716 7.38776 19.1685C7.40855 19.1653 7.42339 19.1463 7.42339 19.1242V19.1052ZM7.42636 18.8997C7.42636 18.8744 7.40558 18.8523 7.37886 18.8555C7.36104 18.8586 7.34026 18.8586 7.32244 18.8618C7.30166 18.8618 7.28384 18.8839 7.28384 18.906V18.925C7.28384 18.9503 7.30463 18.9724 7.32838 18.9693C7.34916 18.9693 7.36995 18.9661 7.39073 18.963C7.41152 18.9598 7.42636 18.9408 7.42636 18.9187V18.8997ZM7.42933 18.6942C7.42933 18.6689 7.40855 18.6468 7.38182 18.65C7.36401 18.6531 7.34323 18.6531 7.32541 18.6531C7.30463 18.6531 7.28681 18.6752 7.28681 18.6974V18.7163C7.28681 18.7416 7.3076 18.7638 7.33135 18.7606C7.35213 18.7606 7.37292 18.7574 7.3937 18.7543C7.41448 18.7511 7.42933 18.7322 7.42933 18.71V18.6942ZM7.42933 18.4887C7.42933 18.4634 7.40855 18.4413 7.38182 18.4444C7.36401 18.4476 7.34619 18.4476 7.32541 18.4476C7.30463 18.4476 7.28681 18.4697 7.28681 18.4919V18.5108C7.28681 18.5361 7.3076 18.5583 7.33135 18.5551C7.35213 18.5551 7.37292 18.5519 7.39073 18.5488C7.41152 18.5456 7.42636 18.5266 7.42636 18.5045L7.42933 18.4887ZM7.4323 18.2864C7.4323 18.2611 7.41152 18.2389 7.38479 18.2421C7.36698 18.2452 7.34916 18.2452 7.33135 18.2452C7.31057 18.2452 7.29275 18.2674 7.29275 18.2895V18.3085C7.29275 18.3338 7.31353 18.3559 7.33729 18.3527C7.35807 18.3527 7.37589 18.3496 7.39667 18.3464C7.41745 18.3433 7.4323 18.3243 7.4323 18.3022V18.2864ZM7.43527 18.0808C7.43527 18.0555 7.41448 18.0334 7.38776 18.0366C7.36995 18.0397 7.35213 18.0397 7.33432 18.0397C7.31353 18.0397 7.29572 18.0619 7.29572 18.084V18.103C7.29572 18.1283 7.3165 18.1504 7.34026 18.1472C7.36104 18.1472 7.37886 18.1441 7.39964 18.1409C7.42042 18.1378 7.43527 18.1188 7.43527 18.0967V18.0808ZM7.43527 17.8753C7.43527 17.85 7.41448 17.8279 7.38776 17.8311C7.36995 17.8342 7.35213 17.8342 7.33432 17.8342C7.31353 17.8342 7.29572 17.8564 7.29572 17.8785V17.8975C7.29572 17.9228 7.3165 17.9449 7.34026 17.9417C7.35807 17.9417 7.37886 17.9386 7.39964 17.9354C7.42042 17.9322 7.43527 17.9133 7.43527 17.8911V17.8753ZM7.43824 17.6698C7.43824 17.6445 7.41745 17.6224 7.39073 17.6256C7.37292 17.6287 7.3551 17.6287 7.33729 17.6287C7.3165 17.6287 7.29869 17.6508 7.29869 17.673V17.6919C7.29869 17.7172 7.31947 17.7394 7.34323 17.7362C7.36104 17.7362 7.38182 17.7331 7.39964 17.7299C7.42042 17.7267 7.43527 17.7078 7.43527 17.6856L7.43824 17.6698ZM7.44121 17.4643C7.44121 17.439 7.42042 17.4169 7.3937 17.42C7.37589 17.4232 7.35807 17.4232 7.34323 17.4232C7.32244 17.4232 7.30463 17.4453 7.30463 17.4675V17.4864C7.30463 17.5117 7.32541 17.5339 7.34916 17.5307C7.36698 17.5307 7.38776 17.5275 7.40558 17.5244C7.42636 17.5212 7.44121 17.5022 7.44121 17.4801V17.4643ZM7.44121 17.2588C7.44121 17.2335 7.42042 17.2114 7.3937 17.2145C7.37589 17.2177 7.35807 17.2177 7.34323 17.2177C7.32244 17.2177 7.30463 17.2367 7.30463 17.262V17.2841C7.30463 17.3094 7.32541 17.3315 7.34916 17.3284C7.36698 17.3284 7.38776 17.3252 7.40558 17.322C7.42636 17.3189 7.44121 17.2999 7.44121 17.2778V17.2588ZM7.44418 17.0564C7.44418 17.028 7.42339 17.009 7.39667 17.0122C7.37886 17.0153 7.36401 17.0153 7.34619 17.0153C7.32541 17.0153 7.3076 17.0375 7.3076 17.0596V17.0786C7.3076 17.1039 7.32838 17.126 7.35213 17.1228C7.36995 17.1228 7.38776 17.1197 7.40558 17.1165C7.42636 17.1134 7.44121 17.0944 7.44121 17.0723L7.44418 17.0564ZM8.07363 19.6965C8.07363 19.6712 8.05284 19.649 8.02909 19.6522C7.97268 19.6585 7.91033 19.6585 7.85688 19.6554C7.83313 19.6522 7.81235 19.6743 7.81235 19.6996V19.7186C7.81235 19.7407 7.83016 19.7629 7.85094 19.7629C7.91033 19.7692 7.97565 19.766 8.038 19.7597C8.05878 19.7565 8.0766 19.7376 8.0766 19.7154L8.07363 19.6965ZM8.07363 19.491C8.07363 19.4657 8.05284 19.4435 8.02909 19.4467C7.97268 19.453 7.9133 19.453 7.85688 19.4499C7.83313 19.4467 7.81235 19.4688 7.81235 19.4941V19.5131C7.81235 19.5352 7.83016 19.5574 7.85094 19.5574C7.91033 19.5637 7.97565 19.5605 8.038 19.5542C8.05878 19.551 8.0766 19.5321 8.0766 19.5099L8.07363 19.491ZM8.07363 19.2855C8.07363 19.2602 8.05284 19.238 8.02909 19.2412C7.97268 19.2475 7.9133 19.2475 7.85688 19.2444C7.83313 19.2412 7.81235 19.2633 7.81235 19.2886V19.3076C7.81235 19.3297 7.83016 19.3518 7.85094 19.3518C7.91033 19.3582 7.97565 19.355 8.03503 19.3487C8.05581 19.3455 8.07363 19.3266 8.07363 19.3044V19.2855ZM8.07363 19.0799C8.07363 19.0546 8.05284 19.0325 8.02909 19.0357C7.97268 19.042 7.9133 19.042 7.85985 19.0388C7.8361 19.0357 7.81532 19.0578 7.81532 19.0831V19.1021C7.81532 19.1242 7.83313 19.1463 7.85391 19.1463C7.9133 19.1527 7.97862 19.1495 8.038 19.1432C8.05878 19.14 8.0766 19.121 8.0766 19.0989L8.07363 19.0799ZM8.07363 18.8744C8.07363 18.8491 8.05284 18.827 8.02909 18.8302C7.97268 18.8365 7.9133 18.8365 7.85985 18.8333C7.8361 18.8302 7.81532 18.8523 7.81532 18.8776V18.8966C7.81532 18.9187 7.83313 18.9408 7.85391 18.9408C7.91033 18.9472 7.97565 18.944 8.038 18.9377C8.05878 18.9345 8.0766 18.9155 8.0766 18.8934L8.07363 18.8744ZM8.07363 18.6689C8.07363 18.6436 8.05284 18.6215 8.02909 18.6247C7.97268 18.631 7.91627 18.631 7.85985 18.6278C7.8361 18.6247 7.81532 18.6468 7.81532 18.6721V18.6911C7.81532 18.7132 7.83313 18.7353 7.85391 18.7353C7.91033 18.7385 7.97565 18.7385 8.03503 18.7322C8.05581 18.729 8.07363 18.71 8.07363 18.6879V18.6689ZM8.07363 18.4666C8.07363 18.4413 8.05284 18.4191 8.02909 18.4223C7.97268 18.4286 7.91627 18.4286 7.86282 18.4255C7.83907 18.4223 7.81828 18.4444 7.81828 18.4697V18.4887C7.81828 18.5108 7.8361 18.533 7.85688 18.533C7.9133 18.5361 7.97862 18.5361 8.038 18.5298C8.05878 18.5266 8.0766 18.5077 8.0766 18.4855L8.07363 18.4666ZM8.0766 18.2611C8.0766 18.2358 8.05581 18.2136 8.03206 18.2168C7.97565 18.2231 7.91923 18.2231 7.86579 18.22C7.84204 18.2168 7.82125 18.2389 7.82125 18.2642V18.2832C7.82125 18.3053 7.83907 18.3275 7.85985 18.3275C7.91627 18.3306 7.98159 18.3306 8.04097 18.3243C8.06175 18.3211 8.07957 18.3022 8.07957 18.28L8.0766 18.2611ZM8.0766 18.0555C8.0766 18.0303 8.05581 18.0081 8.03206 18.0113C7.97862 18.0176 7.91923 18.0176 7.86876 18.0144C7.84501 18.0113 7.82422 18.0334 7.82422 18.0587V18.0777C7.82422 18.0998 7.84204 18.1219 7.86282 18.1219C7.91923 18.1251 7.98159 18.1251 8.04097 18.1188C8.06175 18.1156 8.07957 18.0966 8.07957 18.0745L8.0766 18.0555ZM8.0766 17.85C8.0766 17.8247 8.05581 17.8026 8.03206 17.8058C7.97862 17.8121 7.9222 17.8121 7.86876 17.8089C7.84501 17.8058 7.82422 17.8279 7.82422 17.8532V17.8722C7.82422 17.8943 7.84204 17.9164 7.86282 17.9164C7.91923 17.9196 7.98159 17.9196 8.04097 17.9133C8.06175 17.9101 8.07957 17.8911 8.07957 17.869L8.0766 17.85ZM8.0766 17.6445C8.0766 17.6192 8.05581 17.5971 8.03206 17.6003C7.97862 17.6066 7.9222 17.6066 7.86876 17.6034C7.84501 17.6003 7.82422 17.6224 7.82422 17.6477V17.6667C7.82422 17.6888 7.84204 17.7109 7.86282 17.7109C7.91923 17.7141 7.98159 17.7141 8.038 17.7078C8.05878 17.7046 8.0766 17.6856 8.0766 17.6635V17.6445ZM8.0766 17.439C8.0766 17.4137 8.05581 17.3916 8.03206 17.3947C7.97862 17.4011 7.9222 17.4011 7.86876 17.3979C7.84501 17.3947 7.82422 17.4169 7.82422 17.4422V17.4611C7.82422 17.4833 7.84204 17.5054 7.86282 17.5054C7.91923 17.5086 7.98159 17.5086 8.038 17.5022C8.05878 17.4991 8.0766 17.4801 8.0766 17.458V17.439ZM8.0766 17.2367C8.0766 17.2114 8.05581 17.1892 8.03206 17.1924C7.97862 17.1987 7.9222 17.1987 7.87173 17.1956C7.84798 17.1924 7.82719 17.2145 7.82719 17.2398V17.2588C7.82719 17.2809 7.84501 17.3031 7.86579 17.3031C7.9222 17.3062 7.98159 17.3062 8.04097 17.2999C8.06175 17.2967 8.07957 17.2778 8.07957 17.2556L8.0766 17.2367ZM8.0766 17.0312C8.0766 17.0059 8.05581 16.9837 8.03206 16.9869C7.98456 16.9901 7.9222 16.9901 7.87173 16.9869C7.84798 16.9869 7.82719 17.0059 7.82719 17.0312V17.0501C7.82719 17.0723 7.84501 17.0944 7.86579 17.0944C7.91923 17.0975 7.98159 17.0975 8.038 17.0912C8.05878 17.0881 8.0766 17.0691 8.0766 17.047V17.0312ZM8.48931 17.0501C8.48931 17.0723 8.50712 17.0912 8.5279 17.0944C8.58432 17.1007 8.64667 17.1007 8.70011 17.0975C8.7209 17.0944 8.73871 17.0754 8.73871 17.0533V17.0343C8.73871 17.009 8.71793 16.9901 8.69417 16.9901C8.6437 16.9932 8.58135 16.9932 8.53384 16.9901C8.51009 16.9869 8.48931 17.009 8.48931 17.0343V17.0501ZM8.48931 17.2556C8.48931 17.2778 8.50712 17.2967 8.5279 17.2999C8.58432 17.3062 8.64667 17.3062 8.70308 17.3031C8.72387 17.2999 8.74168 17.2809 8.74168 17.2588V17.2398C8.74168 17.2145 8.7209 17.1924 8.69714 17.1956C8.64667 17.1987 8.59026 17.1987 8.53681 17.1924C8.51306 17.1892 8.49227 17.2114 8.49227 17.2367L8.48931 17.2556ZM8.48931 17.4611C8.48931 17.4833 8.50712 17.5022 8.5279 17.5054C8.58432 17.5117 8.64667 17.5117 8.70308 17.5086C8.72387 17.5054 8.74168 17.4864 8.74168 17.4643V17.4453C8.74168 17.42 8.7209 17.3979 8.69714 17.4011C8.6437 17.4042 8.59025 17.4042 8.53384 17.3979C8.51009 17.3947 8.48931 17.4169 8.48931 17.4422V17.4611ZM8.48931 17.6635C8.48931 17.6856 8.50415 17.7046 8.5279 17.7078C8.58432 17.7141 8.64964 17.7141 8.70308 17.7109C8.72387 17.7078 8.74168 17.6888 8.74168 17.6667V17.6477C8.74168 17.6224 8.7209 17.6003 8.69714 17.6034C8.6437 17.6066 8.58729 17.6066 8.53384 17.6003C8.51009 17.5971 8.48931 17.6192 8.48931 17.6445V17.6635ZM8.48931 17.869C8.48931 17.8911 8.50415 17.9101 8.5279 17.9133C8.58729 17.9196 8.64964 17.9196 8.70605 17.9164C8.72683 17.9133 8.74465 17.8943 8.74465 17.8722V17.8532C8.74465 17.8279 8.72387 17.8058 8.70011 17.8089C8.64667 17.8121 8.59026 17.8121 8.53681 17.8058C8.51306 17.8026 8.49227 17.8247 8.49227 17.85L8.48931 17.869ZM8.48931 18.0745C8.48931 18.0966 8.50415 18.1156 8.5279 18.1188C8.58729 18.1251 8.64964 18.1251 8.70605 18.1219C8.72683 18.1188 8.74465 18.0998 8.74465 18.0777V18.0587C8.74465 18.0334 8.72387 18.0113 8.70011 18.0144C8.64667 18.0176 8.59026 18.0176 8.53681 18.0113C8.51306 18.0081 8.49227 18.0303 8.49227 18.0555L8.48931 18.0745ZM8.48931 18.28C8.48931 18.3022 8.50415 18.3211 8.5279 18.3243C8.58729 18.3306 8.64964 18.3306 8.70902 18.3275C8.7298 18.3243 8.74762 18.3053 8.74762 18.2832V18.2642C8.74762 18.2389 8.72683 18.2168 8.70308 18.22C8.64964 18.2231 8.59322 18.2231 8.53681 18.2168C8.51306 18.2136 8.49227 18.2358 8.49227 18.2611L8.48931 18.28ZM8.48931 18.4855C8.48931 18.5077 8.50415 18.5266 8.5279 18.5298C8.58729 18.5361 8.65261 18.5361 8.70902 18.533C8.7298 18.5298 8.74762 18.5108 8.74762 18.4887V18.4697C8.74762 18.4444 8.72683 18.4223 8.70308 18.4255C8.64964 18.4286 8.59026 18.4286 8.53681 18.4223C8.51306 18.4191 8.49227 18.4413 8.49227 18.4666L8.48931 18.4855ZM8.48931 18.6911C8.48931 18.7132 8.50415 18.7322 8.5279 18.7353C8.58729 18.7416 8.65261 18.7416 8.70902 18.7385C8.7298 18.7353 8.74762 18.7163 8.74762 18.6942V18.6752C8.74762 18.6499 8.72683 18.6278 8.70308 18.631C8.64964 18.6341 8.59025 18.6341 8.53384 18.6278C8.51009 18.6247 8.48931 18.6468 8.48931 18.6721V18.6911ZM8.49227 18.8934C8.49227 18.9155 8.50712 18.9345 8.53087 18.9377C8.59026 18.944 8.65558 18.944 8.71496 18.9408C8.73574 18.9377 8.75356 18.9187 8.75356 18.8966V18.8776C8.75356 18.8523 8.73277 18.8302 8.70902 18.8333C8.65558 18.8365 8.59619 18.8365 8.53978 18.8302C8.51603 18.827 8.49524 18.8491 8.49524 18.8744L8.49227 18.8934ZM8.49227 19.0989C8.49227 19.121 8.50712 19.14 8.53087 19.1432C8.59026 19.1495 8.65558 19.1495 8.71496 19.1463C8.73574 19.1432 8.75356 19.1242 8.75356 19.1021V19.0831C8.75356 19.0578 8.73277 19.0357 8.70902 19.0388C8.65558 19.042 8.59619 19.042 8.53978 19.0357C8.51603 19.0325 8.49524 19.0546 8.49524 19.0799L8.49227 19.0989ZM8.49227 19.3044C8.49227 19.3266 8.50712 19.3455 8.53087 19.3487C8.59026 19.355 8.65855 19.355 8.71496 19.3518C8.73574 19.3487 8.75356 19.3297 8.75356 19.3076V19.2886C8.75356 19.2633 8.73277 19.2412 8.70902 19.2444C8.65558 19.2475 8.59322 19.2475 8.53681 19.2412C8.51306 19.238 8.49227 19.2602 8.49227 19.2855V19.3044ZM8.49227 19.5099C8.49227 19.5321 8.50712 19.551 8.53087 19.5542C8.59322 19.5605 8.65854 19.5605 8.71793 19.5574C8.73871 19.5542 8.75653 19.5352 8.75653 19.5131V19.4941C8.75653 19.4688 8.73574 19.4467 8.71199 19.4499C8.65558 19.453 8.59619 19.453 8.53978 19.4467C8.51603 19.4435 8.49524 19.4657 8.49524 19.491L8.49227 19.5099ZM8.75653 19.7154V19.6965C8.75653 19.6712 8.73574 19.649 8.71199 19.6522C8.65558 19.6554 8.59619 19.6554 8.53978 19.649C8.51603 19.6459 8.49524 19.668 8.49524 19.6933V19.7123C8.49524 19.7344 8.51009 19.7534 8.53384 19.7565C8.59619 19.7629 8.66151 19.7629 8.7209 19.7597C8.73871 19.7597 8.75653 19.7407 8.75653 19.7154ZM9.12173 17.0754C9.12173 17.0975 9.13657 17.1165 9.15736 17.1197C9.17517 17.1228 9.19299 17.1228 9.2108 17.126C9.23455 17.1292 9.25534 17.107 9.25534 17.0817V17.0628C9.25534 17.0406 9.23752 17.0185 9.21674 17.0185C9.19892 17.0185 9.18408 17.0153 9.16626 17.0153C9.14251 17.0122 9.11876 17.0343 9.11876 17.0596L9.12173 17.0754ZM9.1247 17.2809C9.1247 17.3031 9.13954 17.322 9.16033 17.3252C9.17814 17.3284 9.19892 17.3315 9.21674 17.3315C9.24049 17.3315 9.26128 17.3125 9.26128 17.2873V17.2651C9.26128 17.243 9.24346 17.224 9.22268 17.2209C9.20486 17.2209 9.18705 17.2177 9.1722 17.2177C9.14845 17.2145 9.1247 17.2367 9.1247 17.262V17.2809ZM9.1247 17.4833C9.1247 17.5054 9.13954 17.5244 9.16033 17.5275C9.17814 17.5307 9.19892 17.5339 9.21674 17.5339C9.24049 17.5339 9.26128 17.5149 9.26128 17.4896V17.4706C9.26128 17.4485 9.24346 17.4264 9.22268 17.4264C9.20486 17.4264 9.18705 17.4232 9.1722 17.4232C9.14845 17.42 9.1247 17.4422 9.1247 17.4675V17.4833ZM9.12767 17.6888C9.12767 17.7109 9.14251 17.7299 9.16329 17.7331C9.18111 17.7362 9.20189 17.7394 9.21971 17.7394C9.24346 17.7394 9.26424 17.7204 9.26424 17.6951V17.6761C9.26424 17.654 9.24643 17.6319 9.22565 17.6319C9.20783 17.6319 9.19002 17.6287 9.1722 17.6287C9.14845 17.6256 9.1247 17.6477 9.1247 17.673L9.12767 17.6888ZM9.13063 17.8943C9.13063 17.9164 9.14548 17.9354 9.16626 17.9386C9.18705 17.9417 9.20486 17.9449 9.22565 17.9449C9.2494 17.9449 9.27018 17.9259 9.27018 17.9006V17.8817C9.27018 17.8595 9.25237 17.8374 9.23158 17.8374C9.21377 17.8374 9.19595 17.8342 9.17814 17.8342C9.15439 17.8311 9.13063 17.8532 9.13063 17.8785V17.8943ZM9.13063 18.0998C9.13063 18.1219 9.14548 18.1409 9.16626 18.1441C9.18705 18.1472 9.20486 18.1504 9.22565 18.1504C9.2494 18.1504 9.27018 18.1314 9.27018 18.1061V18.0872C9.27018 18.065 9.25237 18.0429 9.23158 18.0429C9.21377 18.0429 9.19595 18.0397 9.17814 18.0397C9.15439 18.0366 9.13063 18.0587 9.13063 18.084V18.0998ZM9.1336 18.3053C9.1336 18.3275 9.14845 18.3464 9.16923 18.3496C9.19002 18.3527 9.20783 18.3559 9.22862 18.3559C9.25237 18.3559 9.27315 18.3369 9.27315 18.3116V18.2927C9.27315 18.2705 9.25534 18.2484 9.23455 18.2484C9.21674 18.2484 9.19892 18.2452 9.18111 18.2452C9.15736 18.2421 9.1336 18.2642 9.1336 18.2895V18.3053ZM9.13657 18.5108C9.13657 18.533 9.15142 18.5519 9.1722 18.5551C9.19299 18.5583 9.21377 18.5614 9.23158 18.5614C9.25534 18.5614 9.27612 18.5424 9.27612 18.5172V18.4982C9.27612 18.4761 9.25831 18.4539 9.23752 18.4539C9.21971 18.4539 9.20189 18.4508 9.18111 18.4508C9.15736 18.4476 9.1336 18.4697 9.1336 18.495L9.13657 18.5108ZM9.13657 18.7132C9.13657 18.7353 9.15142 18.7543 9.1722 18.7574C9.19299 18.7606 9.21377 18.7638 9.23455 18.7638C9.25831 18.7638 9.27909 18.7448 9.27909 18.7195V18.7005C9.27909 18.6784 9.26128 18.6563 9.24049 18.6563C9.22268 18.6563 9.20189 18.6531 9.18408 18.6531C9.16033 18.6499 9.13657 18.6721 9.13657 18.6974V18.7132ZM9.13954 18.9187C9.13954 18.9408 9.15439 18.9598 9.17517 18.963C9.19595 18.9661 9.21674 18.9693 9.23752 18.9693C9.26128 18.9693 9.28206 18.9503 9.28206 18.925V18.906C9.28206 18.8839 9.26424 18.8618 9.24346 18.8618C9.22565 18.8618 9.20486 18.8586 9.18705 18.8555C9.16329 18.8523 9.13954 18.8744 9.13954 18.8997V18.9187ZM9.13954 19.1242C9.13954 19.1463 9.15439 19.1653 9.17517 19.1685C9.19595 19.1716 9.21674 19.1748 9.23752 19.1748C9.26128 19.1748 9.28206 19.1558 9.28206 19.1305V19.1116C9.28206 19.0894 9.26424 19.0673 9.24346 19.0673C9.22565 19.0673 9.20486 19.0641 9.18705 19.061C9.16329 19.0578 9.13954 19.0799 9.13954 19.1052V19.1242ZM9.14251 19.3297C9.14251 19.3518 9.15736 19.3708 9.17814 19.374C9.19892 19.3771 9.21971 19.3803 9.24049 19.3803C9.26424 19.3803 9.28503 19.3613 9.28503 19.336V19.3171C9.28503 19.2949 9.26721 19.2728 9.24643 19.2728C9.22565 19.2728 9.20783 19.2696 9.18705 19.2665C9.16329 19.2633 9.13954 19.2855 9.13954 19.3107L9.14251 19.3297ZM9.14548 19.5352C9.14548 19.5574 9.16033 19.5763 9.18111 19.5795C9.20189 19.5827 9.22565 19.5858 9.24643 19.5858C9.27018 19.5858 9.29097 19.5668 9.29097 19.5416V19.5226C9.29097 19.5004 9.27315 19.4783 9.25237 19.4783C9.23158 19.4783 9.21377 19.4752 9.19299 19.472C9.16923 19.4688 9.14548 19.491 9.14548 19.5163V19.5352ZM9.29394 19.7439V19.7249C9.29394 19.7028 9.27612 19.6807 9.25534 19.6807C9.23455 19.6807 9.21674 19.6775 9.19595 19.6743C9.1722 19.6712 9.14845 19.6933 9.14845 19.7186V19.7376C9.14845 19.7597 9.16329 19.7787 9.18408 19.7818C9.20486 19.785 9.22862 19.7882 9.2494 19.7882C9.27315 19.7913 9.29394 19.7692 9.29394 19.7439ZM9.59679 17.1292C9.59679 17.1418 9.60272 17.1545 9.61757 17.1576C9.63241 17.1608 9.65023 17.1481 9.65023 17.1292V17.0786C9.65023 17.0659 9.64429 17.0533 9.62945 17.0501C9.61163 17.047 9.59679 17.0596 9.59975 17.0786L9.59679 17.1292ZM9.59975 17.3347C9.59975 17.3473 9.60866 17.36 9.62054 17.3631C9.63835 17.3663 9.6532 17.3536 9.6532 17.3347V17.2841C9.6532 17.2714 9.64726 17.2588 9.62945 17.2556C9.61163 17.2525 9.59679 17.2651 9.59679 17.2841L9.59975 17.3347ZM9.60272 17.5402C9.60272 17.5528 9.61163 17.5655 9.62648 17.5686C9.64429 17.5718 9.65914 17.5592 9.65914 17.5402V17.4896C9.65914 17.477 9.65023 17.4643 9.63538 17.4611C9.62054 17.458 9.60272 17.4706 9.60272 17.4896V17.5402ZM9.60569 17.7457C9.60569 17.7583 9.6146 17.771 9.63241 17.7742C9.65023 17.7773 9.66508 17.7647 9.66508 17.7457V17.6951C9.66508 17.6825 9.65617 17.6698 9.63835 17.6667C9.62054 17.6635 9.60569 17.6761 9.60569 17.6951V17.7457ZM9.60866 17.9512C9.60866 17.9639 9.61757 17.9765 9.63538 17.9797C9.6532 17.9828 9.66804 17.9702 9.66804 17.9512V17.9006C9.66804 17.888 9.65617 17.8753 9.64132 17.8722C9.62351 17.869 9.60866 17.8817 9.60866 17.9006V17.9512ZM9.61163 18.1536C9.61163 18.1662 9.62054 18.1789 9.63241 18.182C9.63538 18.182 9.63835 18.182 9.64132 18.1852C9.65914 18.1883 9.67398 18.1757 9.67398 18.1567V18.1061C9.67398 18.0935 9.66508 18.0808 9.65023 18.0777C9.64726 18.0777 9.64429 18.0777 9.64429 18.0777C9.62648 18.0745 9.61163 18.0872 9.61163 18.1061V18.1536ZM9.6146 18.3591C9.6146 18.3717 9.62351 18.3844 9.63538 18.3875C9.63835 18.3875 9.64132 18.3907 9.64429 18.3907C9.66211 18.3939 9.67695 18.3812 9.67695 18.3622V18.3116C9.67695 18.299 9.66804 18.2864 9.6532 18.2832C9.65023 18.2832 9.64726 18.2832 9.64429 18.2832C9.62648 18.28 9.61163 18.2927 9.61163 18.3116L9.6146 18.3591ZM9.61757 18.5646C9.61757 18.5772 9.62648 18.5899 9.63835 18.593C9.64132 18.593 9.64726 18.5962 9.65023 18.5962C9.66804 18.5994 9.68289 18.5867 9.68289 18.5677V18.5172C9.68289 18.5045 9.67398 18.4919 9.65914 18.4887C9.65617 18.4887 9.6532 18.4887 9.65023 18.4855C9.63242 18.4824 9.61757 18.495 9.61757 18.514V18.5646ZM9.62054 18.7701C9.62054 18.7827 9.62945 18.7954 9.64132 18.7985C9.64429 18.7985 9.65023 18.8017 9.6532 18.8017C9.67101 18.8049 9.68586 18.7922 9.68586 18.7733V18.7227C9.68586 18.71 9.67695 18.6974 9.66211 18.6942C9.65914 18.6942 9.65617 18.6942 9.65023 18.6911C9.63242 18.6879 9.61757 18.7005 9.61757 18.7195L9.62054 18.7701ZM9.62351 18.9756C9.62351 18.9883 9.63242 19.0009 9.64429 19.0041C9.65023 19.0041 9.6532 19.0072 9.65914 19.0072C9.67695 19.0104 9.6918 18.9977 9.6918 18.9788V18.9282C9.6918 18.9124 9.67992 18.9029 9.66804 18.8997C9.66508 18.8997 9.65914 18.8997 9.65617 18.8966C9.63835 18.8934 9.62351 18.906 9.62351 18.925V18.9756ZM9.62648 19.178C9.62648 19.1906 9.63538 19.2032 9.64726 19.2064C9.6532 19.2064 9.65914 19.2096 9.66211 19.2096C9.67992 19.2127 9.69477 19.2001 9.69477 19.1811V19.1305C9.69477 19.1147 9.68289 19.1052 9.67101 19.1021C9.66508 19.1021 9.66211 19.1021 9.65617 19.0989C9.63835 19.0958 9.62351 19.1084 9.62351 19.1274L9.62648 19.178ZM9.62945 19.3835C9.62945 19.3961 9.63835 19.4088 9.65023 19.4119C9.65617 19.4119 9.66211 19.4151 9.66804 19.4151C9.68586 19.4182 9.7007 19.4056 9.7007 19.3866V19.336C9.7007 19.3202 9.68883 19.3107 9.67695 19.3076C9.67101 19.3076 9.66804 19.3044 9.66211 19.3044C9.64429 19.3013 9.62945 19.3139 9.62945 19.3329V19.3835ZM9.63241 19.589C9.63241 19.6048 9.64132 19.6174 9.65617 19.6206C9.66211 19.6206 9.66508 19.6238 9.67101 19.6238C9.68883 19.6269 9.70664 19.6111 9.70664 19.5921V19.5479C9.70664 19.5321 9.69477 19.5194 9.67992 19.5163C9.67695 19.5163 9.67101 19.5163 9.66804 19.5131C9.65023 19.5099 9.63242 19.5257 9.63538 19.5447L9.63241 19.589ZM9.70961 19.7945V19.7502C9.70961 19.7344 9.69774 19.7218 9.68289 19.7186C9.67695 19.7186 9.67398 19.7186 9.66804 19.7154C9.65023 19.7123 9.63242 19.7281 9.63538 19.7471C9.63538 19.7629 9.63538 19.7787 9.63538 19.7913C9.63538 19.8071 9.64429 19.8166 9.65914 19.8229C9.66508 19.8229 9.67101 19.8261 9.67695 19.8261C9.6918 19.8293 9.70961 19.8135 9.70961 19.7945ZM10.0243 16.9015C10.0214 16.8762 10.0036 16.8604 9.98574 16.8541C9.84916 16.794 9.37707 16.7245 8.66448 16.7055C8.54572 16.7023 8.3646 16.6992 8.2399 16.6517C8.31116 16.6328 8.42102 16.6233 8.54869 16.6201C8.58135 16.6201 8.62292 16.6106 8.6051 16.5664C8.58729 16.519 8.53087 16.5126 8.50712 16.5126C8.26068 16.5031 7.48277 16.5158 7.09382 16.5727C7.07304 16.5759 7.03147 16.5854 7.02256 16.617C7.01365 16.6486 7.04631 16.6612 7.07601 16.6612C7.20071 16.6517 7.37589 16.6517 7.4709 16.6739C7.37292 16.7181 7.10867 16.7498 6.99287 16.7656C6.77612 16.794 6.65142 16.8256 6.59204 16.8478C6.56829 16.8573 6.54453 16.8731 6.54453 16.9015C6.54453 16.93 6.56829 16.9205 6.5861 16.9173C6.66924 16.892 7.12648 16.7909 8.28444 16.7909C9.44239 16.7909 9.90261 16.8952 9.98574 16.9205C10.0006 16.9237 10.0243 16.9268 10.0243 16.9015ZM9.59382 16.6328C9.57006 16.6676 9.61163 16.677 9.63538 16.6802C9.79275 16.7023 9.89667 16.7245 9.96793 16.7466C9.9798 16.7498 10.0065 16.7624 10.0065 16.7371C10.0065 16.7118 9.98574 16.6928 9.96793 16.6834C9.91745 16.6581 9.81947 16.6328 9.67695 16.6075C9.65914 16.6043 9.61757 16.598 9.59382 16.6328ZM9.65023 16.3672C9.65914 16.402 9.68883 16.4115 9.70664 16.4146C9.74821 16.4241 9.78681 16.4304 9.81947 16.4399C9.83728 16.4431 9.86698 16.4462 9.88182 16.4178C9.8937 16.3893 9.86994 16.3735 9.84619 16.3672C9.80759 16.3577 9.75415 16.3451 9.69477 16.3324C9.67398 16.3261 9.64429 16.3293 9.65023 16.3672ZM10.1669 16.2534C10.155 16.2376 10.1312 16.2407 10.1253 16.247C10.0303 16.3198 9.97683 16.3956 9.92933 16.5316C9.92339 16.5506 9.9323 16.5695 9.95011 16.579C9.96793 16.5854 9.98574 16.5759 9.99168 16.5601C10.0332 16.4526 10.0867 16.3704 10.1639 16.3008C10.1758 16.285 10.1787 16.266 10.1669 16.2534ZM9.67101 16.0984C10.0718 16.07 10.3302 16.2218 10.5469 16.2218C10.7132 16.2218 11.0249 16.0162 11.0249 15.2321C11.0249 14.3563 10.728 13.7208 10.3212 13.7208C10.2767 13.7208 10.2233 13.7272 10.1906 13.7335C10.1698 13.7366 10.1609 13.7619 10.1698 13.7809C10.1906 13.8157 10.2114 13.8568 10.1758 13.8979C10.1461 13.9327 10.0867 13.9422 10.0154 13.92C9.99168 13.9137 9.96793 13.9264 9.9798 13.9675C9.98574 13.9864 9.99762 13.9959 10.0125 13.9991C10.1787 14.0244 10.3302 14.0212 10.4935 13.9896C10.5172 13.9833 10.5261 13.9516 10.5053 13.9358C10.4994 13.9295 10.4935 13.9264 10.4875 13.92C10.4756 13.9105 10.4608 13.9105 10.4489 13.9137C10.3806 13.939 10.2975 13.9422 10.25 13.939C10.2737 13.8916 10.2767 13.8378 10.253 13.7967C10.342 13.7714 10.4638 13.7967 10.5825 13.9232C10.7577 14.1097 10.9418 14.565 10.9418 15.2321C10.9418 15.7918 10.7429 16.1332 10.5499 16.1332C10.345 16.1332 10.1164 16.0004 9.7304 16.0131C9.7007 16.0131 9.63242 16.0257 9.61163 16.0573C9.59085 16.089 9.63242 16.1016 9.67101 16.0984ZM10.6211 16.3261C10.6122 16.3166 10.5914 16.3071 10.5736 16.3198C10.5588 16.3293 10.5558 16.3545 10.5677 16.3704C10.6003 16.4146 10.6449 16.4526 10.6924 16.4779C10.7221 16.4937 10.7607 16.5063 10.8052 16.5095C10.826 16.5126 10.8408 16.4937 10.8438 16.4747C10.8468 16.4462 10.8201 16.4336 10.8112 16.4336C10.7369 16.4241 10.6686 16.3862 10.6211 16.3261ZM11.1467 16.7055C11.1378 16.6865 11.114 16.6865 11.1051 16.6897C11.0279 16.7213 10.9448 16.7371 10.8676 16.7371C10.7844 16.7371 10.7013 16.7181 10.6241 16.6834C10.4786 16.617 10.3658 16.4968 10.3034 16.3482C10.2945 16.3293 10.2767 16.3261 10.2619 16.3356C10.247 16.3451 10.2441 16.3609 10.25 16.3735C10.3242 16.5601 10.4727 16.7055 10.6538 16.7719C10.8082 16.8288 10.9745 16.8193 11.1318 16.7529C11.1496 16.7466 11.1526 16.7245 11.1467 16.7055ZM11.1882 14.5397C11.1437 14.5302 11.1081 14.5713 11.117 14.6188C11.1199 14.6314 11.1229 14.6472 11.1229 14.663C11.1288 14.701 11.1585 14.7294 11.1942 14.7358C11.7316 14.8211 12.0701 15.2321 12.0701 15.8202C12.0701 16.1743 11.8622 16.5537 11.5267 16.5537C11.304 16.5537 11.0695 16.3767 11.0012 16.0415C10.9952 16.0131 10.9655 16.0068 10.9477 16.0321C10.9329 16.0542 10.9329 16.0826 10.9329 16.1016C10.9448 16.1807 10.9685 16.2565 11.0131 16.364C10.9655 16.3387 10.921 16.2692 10.8854 16.2059C10.8705 16.1807 10.8408 16.1775 10.8201 16.1965C10.7993 16.2154 10.8052 16.2407 10.8141 16.2597C10.9893 16.579 11.2803 16.6865 11.4881 16.6865C11.9097 16.6865 12.1591 16.2502 12.1591 15.8297C12.1621 15.1057 11.696 14.6377 11.1882 14.5397ZM11.1467 15.8423C11.1467 16.149 11.3129 16.383 11.5326 16.383C11.8028 16.383 11.9275 16.0573 11.9275 15.7854C11.9275 15.2511 11.5861 14.995 11.2417 14.9191C11.2001 14.9096 11.1615 14.9444 11.1645 14.9887C11.1645 15.0077 11.1674 15.0235 11.1674 15.0424C11.1704 15.0772 11.1971 15.1057 11.2298 15.1057C11.497 15.0962 11.8444 15.3143 11.8444 15.776C11.8444 16.0194 11.7375 16.2818 11.5297 16.2818C11.3634 16.2818 11.2328 16.0858 11.2328 15.8234C11.2328 15.621 11.3337 15.5009 11.4258 15.4851C11.5208 15.4693 11.5802 15.5736 11.5891 15.64C11.5623 15.6874 11.5386 15.7538 11.5386 15.8044C11.5386 15.8676 11.5712 15.8961 11.6039 15.8961C11.6484 15.8961 11.696 15.8423 11.696 15.719C11.696 15.5451 11.6188 15.3681 11.4525 15.3681C11.2832 15.3713 11.1467 15.5831 11.1467 15.8423ZM11.1734 15.2606C11.1823 15.2827 11.209 15.2922 11.2298 15.2796C11.2536 15.2638 11.2773 15.2511 11.304 15.2416C11.3278 15.2321 11.3218 15.1974 11.2981 15.1974C11.2684 15.1942 11.2357 15.1974 11.2001 15.2037C11.1823 15.2068 11.1645 15.2321 11.1734 15.2606ZM11.4792 15.6685C11.4851 15.6526 11.4733 15.6337 11.4555 15.6337C11.4139 15.6337 11.3693 15.7064 11.3693 15.8202C11.3693 16.0637 11.5237 16.1364 11.595 16.0953C11.6158 16.0826 11.6128 16.0479 11.5891 16.0447C11.4822 16.0162 11.4228 15.8423 11.4792 15.6685ZM11.4733 14.2172C11.3931 14.1856 11.2595 14.154 11.1556 14.1255C11.0903 14.1097 11.019 14.0908 10.9448 14.0718C10.924 14.0655 10.8943 14.0686 10.9032 14.0939C10.9121 14.1192 10.9388 14.1319 10.9655 14.1382C10.9952 14.1445 11.1645 14.1888 11.2031 14.1983C11.2773 14.2172 11.3307 14.2362 11.3456 14.271C11.3515 14.2836 11.3634 14.2868 11.3753 14.2868C11.4079 14.2836 11.4347 14.2836 11.4584 14.2741C11.497 14.2647 11.5 14.2267 11.4733 14.2172ZM11.4673 13.8916C11.4673 13.9137 11.4851 13.9295 11.497 13.9327C11.5237 13.9453 11.5445 13.9485 11.5534 13.939C11.5683 13.9232 11.5356 13.8853 11.5 13.8726C11.4881 13.8694 11.4673 13.8694 11.4673 13.8916ZM11.4851 14.1192C11.5059 14.1287 11.5267 14.135 11.5445 14.1445C11.5534 14.1508 11.5712 14.1477 11.5772 14.1255C11.5802 14.1097 11.5742 14.0971 11.5653 14.0908C11.5534 14.0813 11.5356 14.0718 11.5119 14.0623C11.497 14.056 11.4762 14.056 11.4703 14.075C11.4584 14.1034 11.4703 14.1161 11.4851 14.1192ZM11.2922 14.0307C11.2922 14.0054 11.2625 13.9896 11.2476 13.9864C11.2239 13.9801 10.9507 13.9169 10.8349 13.8853C10.8112 13.8789 10.7785 13.8789 10.7933 13.9074C10.8082 13.9327 10.8557 13.9516 10.8735 13.958C10.9537 13.9801 11.1437 14.0275 11.2387 14.0528C11.2654 14.056 11.2922 14.056 11.2922 14.0307ZM10.345 13.4394C10.3331 13.4268 10.3094 13.43 10.3034 13.4426C10.2945 13.4553 10.2975 13.4711 10.3064 13.4806C10.5202 13.6861 10.9121 13.7778 11.2001 13.8441C11.2209 13.8505 11.2417 13.8536 11.2625 13.86C11.2773 13.8631 11.2922 13.8568 11.2922 13.8378C11.2922 13.8189 11.2773 13.8094 11.2654 13.8062C11.2387 13.7999 11.2179 13.7936 11.1912 13.7872C10.8943 13.7177 10.535 13.6323 10.345 13.4394ZM10.345 12.8988C10.3361 12.8956 10.3212 12.8893 10.3064 12.8861C10.2856 12.8798 10.2678 12.8988 10.2678 12.9209C10.2678 12.9336 10.2708 12.9431 10.2708 12.9525C10.2737 12.9715 10.2856 12.9873 10.3034 12.9905C10.3123 12.9936 10.3242 12.9968 10.3331 13C10.3509 13.0063 10.3717 12.9905 10.3717 12.9684C10.3717 12.9589 10.3717 12.9494 10.3717 12.9367C10.3717 12.9209 10.3598 12.9051 10.345 12.8988ZM10.25 12.7502C10.25 12.7597 10.253 12.7692 10.253 12.7755C10.2559 12.7945 10.2678 12.8103 10.2856 12.8134C10.2975 12.8166 10.3064 12.8198 10.3153 12.8198C10.3391 12.8261 10.3598 12.8008 10.348 12.7755C10.3361 12.747 10.3153 12.7249 10.2856 12.7123C10.2678 12.7091 10.2441 12.7281 10.25 12.7502ZM10.1253 13.1264C9.4513 13.1264 8.67042 13.528 6.27731 13.528C6.07541 13.528 5.22625 13.5122 5.06294 13.5122C5.00653 13.5122 4.95309 13.5185 4.91152 13.5248C4.86698 13.5343 4.84917 13.588 4.90855 13.6133C4.93527 13.6228 4.96793 13.6292 5.00356 13.6355C5.01841 13.6386 5.03325 13.6323 5.04216 13.6197C5.08076 13.5786 5.1728 13.5817 5.30047 13.5817C5.50534 13.5817 6.0962 13.5975 6.27731 13.5975C8.64073 13.5975 9.46318 13.2118 10.0125 13.2118C10.0629 13.2118 10.1847 13.2181 10.1847 13.294C10.1847 13.3572 10.0867 13.4015 10.1223 13.6102C10.1253 13.6292 10.1431 13.645 10.1639 13.6418C10.1847 13.6386 10.1965 13.6165 10.1936 13.5944C10.1639 13.411 10.3598 13.3035 10.3598 13.2023C10.3539 13.1391 10.2114 13.1264 10.1253 13.1264ZM6.07541 13.1201C5.88836 13.1201 5.33313 13.1075 5.12826 13.1043C5.10451 13.1043 5.0867 13.1201 5.0867 13.1486C5.0867 13.177 5.10451 13.196 5.12826 13.196C5.38658 13.196 5.92399 13.2118 6.26841 13.2118C8.45664 13.2118 9.4513 12.8482 9.9798 12.8103C10.0036 12.8071 10.054 12.8008 10.054 12.7534C10.054 12.7059 10.0065 12.7059 9.98277 12.7091C9.27909 12.8071 8.32303 13.1201 6.07541 13.1201ZM6.52969 8.31115L6.54156 8.34909C6.55047 8.37755 6.58313 8.38703 6.60688 8.37123L9.69477 6.0695C9.72743 6.04421 9.71258 5.9873 9.67101 5.9873C9.64132 5.9873 9.62945 5.9873 9.61163 5.9873C9.59382 5.9873 9.576 5.99678 9.55819 6.00943C9.54037 6.02207 6.84145 8.03925 6.55047 8.26057C6.52969 8.27321 6.52375 8.29218 6.52969 8.31115ZM6.54453 8.18469L9.33253 6.10112C9.35629 6.08215 9.33847 6.04421 9.31175 6.05369C9.16626 6.10428 9.02078 6.18016 8.87826 6.2845L6.48515 8.07403C6.47031 8.08667 6.46437 8.10564 6.47031 8.12461L6.48218 8.16255C6.49109 8.19101 6.52375 8.20049 6.54453 8.18469ZM6.59204 8.50402L6.60392 8.54196C6.61282 8.57041 6.64548 8.5799 6.66924 8.56409L9.96793 6.10428C9.99762 6.08215 9.98871 6.03472 9.95605 6.02524C9.93823 6.01891 9.93823 6.01891 9.92042 6.01575C9.89964 6.00943 9.87588 6.01259 9.85213 6.03156L6.60688 8.45343C6.59204 8.46292 6.5861 8.48505 6.59204 8.50402ZM10.4667 7.41955C10.4935 7.40058 10.4994 7.36264 10.5024 7.34999C10.5113 7.30889 10.4697 7.28044 10.437 7.30257L9.47208 8.01079C9.46021 8.02028 9.45427 8.03608 9.45427 8.05189C9.45427 8.06138 9.45427 8.0677 9.45427 8.07719C9.45427 8.11197 9.49287 8.1341 9.51959 8.11197C9.52256 8.11197 10.443 7.43852 10.4667 7.41955ZM10.345 7.61558C10.0926 7.79896 9.49287 8.23843 9.46911 8.2574C9.43942 8.27954 9.42755 8.31748 9.42458 8.32696C9.4127 8.36806 9.45427 8.40284 9.48693 8.37755C9.48693 8.37755 10.2945 7.78631 10.3361 7.75785C10.3777 7.7294 10.3984 7.6883 10.4044 7.67249C10.4222 7.62822 10.3777 7.59028 10.345 7.61558ZM10.5113 7.14764C10.5291 7.135 10.538 7.11919 10.541 7.09706C10.541 7.08441 10.541 7.08125 10.5439 7.0686C10.5469 7.03066 10.5053 7.00853 10.4786 7.03066L9.44239 7.79263C9.42755 7.80212 9.42161 7.82109 9.42458 7.84006C9.42755 7.84954 9.42755 7.85903 9.43051 7.86535C9.43645 7.89697 9.47208 7.90962 9.49584 7.89381L10.5113 7.14764ZM10.538 6.84728C10.538 6.83463 10.538 6.83463 10.535 6.82515C10.5321 6.79037 10.4964 6.77456 10.4697 6.79353C10.2619 6.94846 9.5285 7.48595 9.37707 7.59661C9.36223 7.60925 9.35629 7.63139 9.36223 7.65036C9.36519 7.65984 9.36816 7.66933 9.37113 7.67881C9.38004 7.70727 9.4127 7.71675 9.43348 7.70094L10.5053 6.91368C10.5321 6.89471 10.541 6.87257 10.538 6.84728ZM9.39489 8.04873C9.38895 7.93807 9.36223 7.8116 9.30581 7.663C9.30284 7.65352 9.29691 7.64087 9.29394 7.62822C9.23752 7.48279 9.09797 7.16661 8.8456 7.16661C8.77434 7.16661 8.70605 7.19191 8.64073 7.23933L7.77969 7.87484C7.69655 7.93807 7.66092 8.05189 7.69655 8.15307C7.69655 8.15307 7.97268 8.94033 8.01425 9.06364C8.05581 9.18695 8.20724 9.27864 8.34976 9.17746C8.44774 9.10474 9.16923 8.5799 9.16923 8.5799C9.29097 8.48821 9.4127 8.33012 9.39489 8.04873ZM10.5024 6.63861C10.4994 6.62596 10.4964 6.61648 10.4935 6.60383C10.4846 6.57537 10.4519 6.56273 10.4281 6.5817L9.30284 7.41323C9.28503 7.42587 9.27909 7.45117 9.29097 7.47014C9.29394 7.47962 9.29987 7.48911 9.30284 7.49543C9.31472 7.52073 9.34441 7.52705 9.36519 7.51124L10.4875 6.68287C10.4994 6.67655 10.5083 6.65442 10.5024 6.63861ZM10.4281 6.43942C10.4222 6.42994 10.4163 6.41729 10.4103 6.4078C10.3984 6.38567 10.3688 6.37935 10.3509 6.39199L9.20189 7.24566C9.18111 7.26147 9.17814 7.28992 9.19299 7.30889C9.19892 7.31838 9.20486 7.32786 9.2108 7.33419C9.22268 7.35316 9.2494 7.35632 9.26721 7.34367L10.4133 6.49633C10.4341 6.48368 10.44 6.45839 10.4281 6.43942ZM10.3183 6.26553C10.3094 6.25604 10.3005 6.24656 10.2916 6.23707C10.2767 6.22126 10.2559 6.22126 10.2381 6.23391L9.06531 7.10338C9.04156 7.12235 9.04156 7.16029 9.06531 7.1761C9.07422 7.18242 9.08313 7.18875 9.09204 7.19823C9.10688 7.21088 9.12767 7.21088 9.14251 7.19823L10.3123 6.33192C10.3302 6.31928 10.3331 6.28766 10.3183 6.26553ZM10.1639 6.12641C10.152 6.11693 10.1401 6.1106 10.1253 6.10112C10.1104 6.09163 10.0926 6.09479 10.0808 6.10428L8.84857 7.02118C8.81591 7.04647 8.83075 7.10022 8.86935 7.10338C8.8842 7.10338 8.89014 7.10654 8.90795 7.1097C8.92577 7.11286 8.94061 7.11286 8.95546 7.10022L10.1639 6.20229C10.1906 6.18332 10.1906 6.14538 10.1639 6.12641ZM6.65142 8.69688L6.6633 8.73166C6.67221 8.76012 6.70487 8.7696 6.72862 8.75379L7.60451 8.10248C7.61638 8.093 7.62232 8.08035 7.62232 8.06454C7.62232 8.04241 7.62529 8.01711 7.63123 7.99498C7.63717 7.96653 7.60748 7.9444 7.58669 7.96337L6.66924 8.6463C6.65439 8.65578 6.64548 8.67791 6.65142 8.69688ZM6.71377 8.88658L6.72268 8.9182C6.73159 8.94666 6.76425 8.95614 6.788 8.94033L7.64904 8.30167C7.66389 8.28902 7.66983 8.27005 7.66389 8.24792C7.66092 8.23843 7.65795 8.22579 7.65201 8.2163C7.64311 8.18785 7.61045 8.17836 7.58966 8.19417L6.72862 8.83284C6.71377 8.84864 6.70783 8.86761 6.71377 8.88658ZM6.77612 9.07945L6.78503 9.1079C6.79394 9.13636 6.8266 9.14585 6.84738 9.13004L7.71437 8.48821C7.72921 8.47556 7.73515 8.45343 7.72921 8.43446L7.71733 8.406C7.70843 8.37755 7.67577 8.36806 7.65498 8.38387L6.79097 9.02886C6.77612 9.03835 6.77019 9.06048 6.77612 9.07945ZM6.83848 9.27231L6.84738 9.29761C6.85629 9.32606 6.88895 9.33555 6.90973 9.31974L7.78266 8.67791C7.7975 8.66527 7.80344 8.64313 7.7975 8.62416L7.78859 8.59571C7.77969 8.56725 7.74703 8.55777 7.72624 8.57358L6.85629 9.2154C6.83848 9.23121 6.83254 9.25334 6.83848 9.27231ZM6.89786 9.46202L6.90677 9.48731C6.91567 9.51577 6.94833 9.52525 6.96912 9.50944L7.84501 8.86445C7.85985 8.85181 7.86579 8.82967 7.85985 8.8107L7.85094 8.78541C7.84204 8.75695 7.80938 8.74747 7.78859 8.76328L6.9127 9.40827C6.90083 9.42408 6.89192 9.44305 6.89786 9.46202ZM6.96021 9.65488L6.96615 9.67701C6.97506 9.70547 7.00772 9.71495 7.0285 9.69914L7.91033 9.05099C7.92517 9.03835 7.93408 9.01621 7.92517 8.99724L7.91627 8.97511C7.90736 8.94666 7.8747 8.93717 7.85391 8.95298L6.97209 9.60113C6.96021 9.61694 6.95427 9.63591 6.96021 9.65488ZM7.02256 9.84775L7.0285 9.86672C7.03741 9.89517 7.07007 9.90466 7.09085 9.88885L7.99049 9.23121C8.01128 9.2154 8.01425 9.18695 7.9994 9.16798C7.99643 9.16165 7.99346 9.15849 7.98752 9.15217C7.97565 9.1332 7.94893 9.12687 7.93111 9.13952L7.03444 9.79716C7.02256 9.80664 7.01662 9.82877 7.02256 9.84775ZM7.08491 10.0406L7.09085 10.0564C7.09976 10.0849 7.13242 10.0944 7.1532 10.0786L8.17755 9.32922C8.19833 9.31342 8.19239 9.27864 8.16567 9.27231C8.15083 9.26915 8.13598 9.26283 8.1241 9.25967C8.11223 9.25334 8.09738 9.25651 8.08551 9.26283L7.09976 9.9837C7.08491 9.99951 7.07897 10.0216 7.08491 10.0406ZM7.14429 10.2303L7.15023 10.2461C7.15914 10.2746 7.1918 10.2841 7.21258 10.2683C7.57779 10.0027 10.0332 8.2163 10.0926 8.17204C10.1579 8.12461 10.2203 8.04241 10.2411 8.00447C10.2589 7.97601 10.2262 7.94123 10.1995 7.9602L7.15914 10.1797C7.14726 10.1924 7.13836 10.2113 7.14429 10.2303ZM7.20665 10.4232L7.20962 10.4358C7.21852 10.4643 7.25118 10.4738 7.27197 10.458L9.94714 8.51666C9.95902 8.50718 9.96496 8.49453 9.96496 8.48189C9.96496 8.46608 9.96793 8.45027 9.97089 8.43762C9.97683 8.40917 9.94714 8.3902 9.92636 8.406L7.22149 10.3758C7.20665 10.3821 7.20071 10.4042 7.20665 10.4232ZM7.269 10.616L7.27197 10.6255C7.28087 10.654 7.31353 10.6635 7.33432 10.6477L9.99762 8.71901C10.0154 8.70637 10.0214 8.67791 10.0095 8.65894C10.0065 8.65578 10.0036 8.65262 10.0036 8.6463C9.99168 8.62416 9.96496 8.61784 9.94417 8.63365L7.28384 10.5655C7.269 10.5749 7.26306 10.5971 7.269 10.616ZM11.3307 9.85091C11.31 9.83194 11.2892 9.84142 11.2743 9.85091L10.2203 10.6002C10.2025 10.6129 10.1965 10.6445 10.2144 10.6603C10.2292 10.673 10.247 10.6761 10.2619 10.6666L11.3248 9.91098C11.3456 9.89833 11.3486 9.86988 11.3307 9.85091ZM10.348 10.7488C10.3302 10.7615 10.3272 10.7899 10.342 10.8089C10.3569 10.8279 10.3806 10.8216 10.3955 10.8121L11.4733 10.0501C11.4941 10.0343 11.497 10.0058 11.4792 9.98686C11.4584 9.96789 11.4376 9.98054 11.4228 9.99002L10.348 10.7488ZM11.1793 9.71495C11.1615 9.69914 11.1378 9.70547 11.1259 9.71495L10.0867 10.4516C10.0689 10.4643 10.0659 10.4959 10.0808 10.5117C10.0956 10.5307 10.1194 10.5275 10.1342 10.518L11.1734 9.78135C11.1942 9.76554 11.1971 9.73392 11.1793 9.71495ZM11.0309 9.58216L11.0249 9.57584C11.0131 9.56319 10.9952 9.56319 10.9804 9.57268L9.96199 10.2999C9.9412 10.3157 9.93823 10.3441 9.95605 10.3631C9.97386 10.3821 9.99465 10.3789 10.0125 10.3663L11.0279 9.64223C11.0487 9.63275 11.0487 9.60113 11.0309 9.58216ZM10.8824 9.45253L10.8765 9.44621C10.8646 9.43356 10.8468 9.43356 10.8319 9.44305L9.83432 10.1544C9.81353 10.1702 9.81056 10.1987 9.82838 10.2177C9.84619 10.2366 9.86994 10.2335 9.88479 10.224L10.8794 9.5126C10.9002 9.49996 10.9002 9.46834 10.8824 9.45253ZM10.734 9.31974L10.725 9.31025C10.7132 9.29761 10.6954 9.29761 10.6805 9.30709L9.70367 10.0058C9.68289 10.0216 9.67992 10.0501 9.69774 10.0691C9.71555 10.088 9.7393 10.088 9.75712 10.0754L10.731 9.37665C10.7518 9.36717 10.7518 9.33555 10.734 9.31974ZM10.5855 9.18695L10.5736 9.17746C10.5617 9.16482 10.5439 9.16482 10.5291 9.1743L9.57303 9.86039C9.55225 9.8762 9.54928 9.90466 9.56709 9.92363L9.57303 9.92995C9.58788 9.94576 9.60866 9.94892 9.62351 9.93627L10.5825 9.25018C10.6033 9.23437 10.6033 9.20276 10.5855 9.18695ZM10.437 9.05416L10.4252 9.04151C10.4133 9.02886 10.3955 9.02886 10.3806 9.03835L9.44536 9.71179C9.42458 9.7276 9.42161 9.75606 9.43942 9.77503L9.44536 9.78135C9.46021 9.79716 9.48099 9.80032 9.49584 9.78767L10.4341 9.11423C10.4549 9.10474 10.4578 9.07313 10.437 9.05416ZM10.2886 8.92136L10.2737 8.90872C10.2619 8.89607 10.2411 8.89607 10.2292 8.90556L9.31769 9.56319C9.29691 9.579 9.29394 9.61062 9.31175 9.63275C9.31472 9.63591 9.31472 9.63591 9.31769 9.63907C9.33253 9.65488 9.35332 9.65804 9.37113 9.6454L10.2856 8.9846C10.3064 8.97195 10.3094 8.94033 10.2886 8.92136ZM10.1431 8.79173L10.1283 8.77909C10.1164 8.76644 10.0956 8.76644 10.0837 8.77593L9.1247 9.4715C9.10391 9.48731 9.10985 9.52209 9.13657 9.52841C9.14845 9.53157 9.16329 9.53474 9.1722 9.5379C9.18408 9.54106 9.19892 9.54106 9.20783 9.53157L10.1401 8.85813C10.1609 8.83916 10.1609 8.80754 10.1431 8.79173ZM7.33135 10.8057L7.33432 10.8121C7.34323 10.8405 7.37589 10.85 7.39667 10.8342C7.57482 10.7046 8.22208 10.2366 8.33491 10.1544C8.34679 10.1481 8.35273 10.1355 8.35273 10.1197C8.35273 10.107 8.35569 10.0944 8.35866 10.0817C8.3646 10.0533 8.33491 10.0343 8.31413 10.0501L7.34619 10.7552C7.33135 10.7678 7.32541 10.7868 7.33135 10.8057ZM7.39073 10.9986L7.3937 11.0081C7.40261 11.0334 7.4323 11.046 7.45308 11.0302L8.37351 10.3663C8.38836 10.3536 8.39726 10.3315 8.38836 10.3125L8.37945 10.2904C8.37351 10.2714 8.34976 10.2651 8.33491 10.2746L7.40261 10.948C7.39073 10.9607 7.38479 10.9796 7.39073 10.9986ZM7.45605 11.1978C7.46496 11.2231 7.49465 11.2357 7.51543 11.2199L8.43883 10.556C8.45368 10.5433 8.46258 10.5212 8.45368 10.5022L8.44774 10.4832C8.4418 10.4643 8.41805 10.458 8.4032 10.4674L7.47387 11.1377C7.45902 11.1472 7.44714 11.1693 7.45605 11.1978ZM7.51543 11.3875C7.52137 11.4128 7.55403 11.4254 7.57482 11.4096L8.50118 10.7457C8.51603 10.733 8.53087 10.7172 8.519 10.6888C8.50712 10.6603 8.4804 10.654 8.45961 10.6666L7.53325 11.3306C7.5184 11.3401 7.5095 11.359 7.51543 11.3875ZM7.57779 11.5772C7.58669 11.6025 7.61638 11.6151 7.63717 11.5993L8.56947 10.9322C8.58432 10.9196 8.59619 10.9006 8.58729 10.8753C8.57541 10.8468 8.54869 10.8405 8.5279 10.8532L7.5956 11.5203C7.58076 11.5329 7.56888 11.5487 7.57779 11.5772ZM7.63717 11.7637C7.64608 11.7922 7.67577 11.8017 7.69655 11.7859L8.63182 11.1188C8.64667 11.1061 8.66151 11.0903 8.65261 11.065C8.6437 11.0365 8.61401 11.0302 8.59322 11.0429L7.66389 11.71C7.64608 11.7195 7.62826 11.7384 7.63717 11.7637ZM7.69952 11.9598C7.70843 11.9851 7.73218 11.9914 7.75296 11.9787L8.70308 11.3021C8.71793 11.2926 8.72683 11.2705 8.71793 11.2484C8.70902 11.2231 8.6823 11.2168 8.66448 11.2294L7.71733 11.906C7.70249 11.9155 7.69358 11.9376 7.69952 11.9598ZM7.76187 12.1495C7.77078 12.1716 7.79453 12.1811 7.81532 12.1684L8.7684 11.4887C8.78325 11.4792 8.79216 11.4602 8.78325 11.4349C8.77434 11.4128 8.74762 11.4033 8.7298 11.416L7.77672 12.0957C7.76484 12.1084 7.75296 12.1273 7.76187 12.1495ZM7.82125 12.3392C7.82719 12.3613 7.85391 12.3708 7.8747 12.3581L8.83372 11.6784C8.84857 11.6689 8.85748 11.6531 8.85154 11.6278C8.84263 11.6057 8.81888 11.5962 8.79809 11.6088L7.84204 12.2886C7.82719 12.3012 7.81532 12.317 7.82125 12.3392ZM7.88361 12.5289C7.88954 12.551 7.91627 12.5605 7.93705 12.5478L8.90201 11.8649C8.91686 11.8554 8.92577 11.8396 8.91983 11.8175C8.91389 11.7922 8.88717 11.7827 8.86638 11.7985L7.90736 12.4783C7.88954 12.4909 7.8747 12.5067 7.88361 12.5289ZM8.326 12.4688C8.326 12.4403 8.30522 12.434 8.28444 12.4498C8.27256 12.4562 7.9994 12.6522 7.97862 12.668C7.95783 12.6838 7.94299 12.7091 7.95189 12.7344C7.9608 12.7565 7.97862 12.7565 8.00534 12.7375C8.03503 12.7186 8.26662 12.5542 8.28741 12.5384C8.31116 12.5162 8.326 12.5004 8.326 12.4688ZM8.2785 12.6901C8.26662 12.6964 8.04988 12.8514 8.02909 12.864C8.01128 12.8767 7.9994 12.8956 8.01425 12.9146C8.02612 12.9336 8.05581 12.9304 8.07066 12.9209C8.08254 12.9114 8.25771 12.7881 8.28147 12.7723C8.30522 12.7565 8.326 12.7407 8.326 12.7059C8.326 12.6743 8.29928 12.6743 8.2785 12.6901ZM9.15736 11.9945C9.14251 12.004 8.62292 12.3708 8.59916 12.3898C8.57244 12.4087 8.56056 12.4277 8.56947 12.4498C8.57541 12.4688 8.59916 12.4751 8.62292 12.4593C8.73277 12.3898 8.96733 12.238 9.01781 12.2317C8.99999 12.2728 8.77137 12.453 8.67339 12.5257C8.64667 12.5447 8.62588 12.5637 8.62885 12.5889C8.63182 12.6111 8.64964 12.6301 8.6823 12.6079C8.83669 12.4973 9.28503 12.1842 9.30581 12.1684C9.32957 12.1526 9.33847 12.121 9.30581 12.0894C9.28206 12.0673 9.2108 11.9945 9.2108 11.9945C9.19892 11.9819 9.17517 11.9819 9.15736 11.9945ZM9.21674 9.90466L9.11876 9.794C9.10688 9.77819 9.08313 9.77503 9.06828 9.78767L8.61104 10.1165C8.59619 10.126 8.59025 10.1449 8.59916 10.1608C8.60807 10.1766 8.62885 10.186 8.64964 10.1766C8.72683 10.1355 8.85748 10.0438 8.93764 10.0216C8.89904 10.0849 8.74168 10.2208 8.74168 10.2208C8.72683 10.2303 8.7209 10.2556 8.7298 10.2714C8.74465 10.2967 8.77434 10.2841 8.79512 10.2683L9.2108 9.96789C9.23158 9.95524 9.23455 9.92363 9.21674 9.90466ZM11.7821 10.1449C11.7494 10.1671 10.4192 11.1061 10.4192 11.1061C10.4044 11.1156 10.3955 11.1409 10.4133 11.1567C10.4311 11.1725 10.4638 11.163 10.4905 11.1472C10.5172 11.1314 10.7251 10.9891 10.8082 10.9733C10.7844 11.0176 10.5825 11.182 10.5647 11.1978C10.5469 11.2136 10.541 11.2357 10.5558 11.2547C10.5707 11.2705 10.5974 11.2642 10.6152 11.2515C10.6152 11.2515 11.9394 10.3188 11.9661 10.2999C11.9899 10.2841 12.0107 10.2588 11.9958 10.2366C11.981 10.2113 11.9364 10.2335 11.9068 10.2493C11.8771 10.2683 11.4703 10.5402 11.3901 10.5623C11.4376 10.4896 11.8385 10.1955 11.8622 10.1766C11.886 10.1608 11.8919 10.1323 11.8771 10.1197C11.8563 10.1038 11.8117 10.1228 11.7821 10.1449ZM10.9062 7.55234C10.8884 7.54286 10.8646 7.55234 10.8557 7.57764C10.826 7.66933 10.7904 7.75153 10.7518 7.78631C10.7785 7.64087 10.8141 7.4733 10.823 7.34367C10.826 7.32154 10.8141 7.30257 10.7963 7.29624C10.7815 7.29308 10.7607 7.30257 10.7547 7.3247C10.6835 7.72624 10.4964 8.12461 10.2173 8.46292C10.2055 8.47872 10.2025 8.50718 10.2203 8.52299C10.2381 8.5388 10.2648 8.51983 10.2767 8.50718C10.3658 8.39968 10.4905 8.23527 10.5796 8.14991C10.5677 8.23527 10.437 8.45975 10.342 8.57041C10.3361 8.5799 10.3242 8.61152 10.345 8.62732C10.3688 8.6463 10.3925 8.621 10.3984 8.61468C10.6627 8.29218 10.8408 7.93491 10.924 7.60609C10.9329 7.5808 10.924 7.56183 10.9062 7.55234ZM13.8783 8.61784C14.9085 7.878 15.44 6.52795 15.0392 5.67112C15.0392 5.67112 13.5992 2.65169 13.5873 2.6264C13.5754 2.6011 13.5427 2.59478 13.522 2.61059C13.5012 2.6264 12.4739 3.39469 12.4739 3.39469C12.459 3.40734 12.4531 3.42947 12.462 3.44844C12.462 3.44844 13.715 6.23391 13.8812 6.60383C14.0475 6.97375 13.9287 7.48279 13.5309 7.7705C13.1419 8.05189 12.7262 7.95704 12.5511 7.57131C12.4887 7.43536 11.209 4.4349 11.2001 4.4096C11.1912 4.38431 11.1645 4.37798 11.1407 4.39379C11.1288 4.40328 10.0837 5.18422 10.0837 5.18422C10.0689 5.19687 10.0629 5.21584 10.0689 5.23481L10.3717 5.98097C10.3806 5.99994 10.3747 6.02524 10.3569 6.03788C10.3361 6.05369 10.3183 6.05053 10.2945 6.03156C10.1194 5.89244 9.91448 5.82605 9.68586 5.82605C9.39785 5.82605 9.08016 5.93671 8.78622 6.1517L6.2981 8.01395C6.28325 8.02344 6.27731 8.04557 6.28325 8.06138L7.84204 12.9146C7.84798 12.9336 7.86579 12.9462 7.88657 12.9462H7.89548C7.9222 12.9431 7.94002 12.9146 7.93111 12.8861L6.39608 8.08983C6.39311 8.07719 6.39608 8.06138 6.40795 8.05506L8.8456 6.23075C9.12173 6.0284 9.4127 5.9209 9.68883 5.9209C9.98574 5.9209 10.2322 6.04421 10.3955 6.26553C10.446 6.33508 10.4905 6.41729 10.5261 6.50582C10.5528 6.57537 10.5707 6.65126 10.5855 6.72714C10.6716 7.22985 10.4816 7.85903 10.0837 8.33329C10.0451 8.38071 10.0243 8.44395 10.0273 8.50718C10.0303 8.57041 10.06 8.63049 10.1075 8.67159L11.5891 9.99318C11.595 9.99951 11.6009 10.009 11.6009 10.0185C11.6009 10.028 11.595 10.0374 11.5891 10.0438L10.3806 10.8974C10.3688 10.9069 10.3539 10.9038 10.342 10.8911L9.25534 9.6612C9.21377 9.61378 9.15439 9.58532 9.09204 9.58532C9.0475 9.58532 9.00296 9.59797 8.96733 9.62643L8.51009 9.95524C8.42398 10.0153 8.39132 10.1323 8.42695 10.2335L8.99405 11.8459C8.99999 11.8586 8.99406 11.8744 8.98218 11.8839L8.48337 12.2348C8.42102 12.2791 8.38242 12.3518 8.38242 12.434V12.8356C8.38242 12.8609 8.4032 12.883 8.42992 12.8798H8.43883C8.45961 12.8767 8.47743 12.8577 8.47743 12.8356V12.4372C8.47743 12.3898 8.49821 12.3487 8.53384 12.3234L9.0861 11.9345C9.10094 11.925 9.10688 11.9029 9.10094 11.8839L8.51306 10.1987C8.49227 10.1386 8.51306 10.0722 8.56056 10.0374L9.01781 9.70863C9.07125 9.67069 9.13954 9.68017 9.18408 9.7276L10.3153 11.0207C10.3272 11.0365 10.3509 11.0397 10.3658 11.0271L11.7286 10.0659C11.7405 10.0596 11.7464 10.0469 11.7464 10.0343C11.7464 10.0216 11.7435 10.009 11.7316 9.99951L10.1639 8.59887C10.1342 8.57041 10.1164 8.52931 10.1194 8.48505C10.1223 8.45343 10.1342 8.42181 10.155 8.39652C10.4875 7.99814 10.6894 7.47962 10.6983 7.01169C10.6983 6.97375 10.7132 6.9611 10.734 6.95478C10.7547 6.95162 10.7726 6.95794 10.7844 6.98323C10.8022 7.0275 11.2239 8.06454 11.3397 8.34593C11.4525 8.62732 11.6811 9.00041 12.1087 9.13004C12.5956 9.2818 13.2132 9.09842 13.8783 8.61784ZM15.4073 6.65442C15.4103 6.61331 15.3539 6.61015 15.348 6.64809C15.3005 7.11286 15.1342 7.57764 14.9768 7.70094C15.1312 7.37213 15.2351 7.05595 15.2767 6.75559C15.2826 6.71449 15.2262 6.705 15.2203 6.74611C15.0421 7.67249 14.3978 8.36174 13.9287 8.69688C13.4863 9.01621 13.0558 9.20592 12.6728 9.25967C12.6372 9.26599 12.6401 9.3229 12.6787 9.3229C13.1093 9.30393 13.6021 9.0257 14.0386 8.77593C13.9911 8.85181 13.81 8.98144 13.5813 9.1079C13.5487 9.12687 13.5695 9.18062 13.6051 9.16482C13.7803 9.0921 13.9525 8.99725 14.1158 8.8771C14.8848 8.3238 15.3747 7.42904 15.4073 6.65442ZM4.87292 15.1404C4.87292 15.5451 5.16686 15.8993 5.52019 15.8993C5.86164 15.8993 5.99822 15.5799 5.99822 15.3302C5.99822 15.112 5.8557 14.9444 5.71318 14.9223C5.79632 15.0077 5.87351 15.0993 5.87351 15.289C5.87351 15.4946 5.76069 15.738 5.48456 15.738C5.21734 15.738 4.97387 15.444 4.97387 15.1404C4.97387 14.8938 5.04216 14.7547 5.10451 14.6441C4.99169 14.682 4.87292 14.8844 4.87292 15.1404ZM7.53028 15.8171C7.65795 15.8076 7.81235 15.7854 7.86876 15.7538C7.82125 15.7349 7.65498 15.7222 7.5184 15.7317C7.35213 15.7443 7.2304 15.7665 7.16508 15.8044C7.22149 15.8234 7.36401 15.8297 7.53028 15.8171ZM13.8248 8.53563C13.326 8.89291 12.8509 9.08261 12.4501 9.08261C11.981 9.08261 11.6366 8.82335 11.4228 8.30799L11.0546 7.40058L10.9804 7.2172L10.1847 5.25694C10.1787 5.24429 10.1847 5.22848 10.1936 5.219C10.1936 5.219 11.0962 4.54556 11.111 4.53291C11.1259 4.52342 11.1467 4.52658 11.1556 4.54556C11.1585 4.55188 12.2482 7.10338 12.459 7.59345C12.6817 8.11513 13.2132 8.12461 13.5843 7.84954C13.9644 7.56499 14.19 7.04331 13.9495 6.51846C13.8278 6.25288 12.5778 3.47057 12.5778 3.47057C12.5718 3.45793 12.5748 3.43896 12.5867 3.42947C12.5867 3.42947 13.4863 2.75919 13.5012 2.74654C13.516 2.73389 13.5368 2.74022 13.5457 2.75919C13.5517 2.77184 14.956 5.71539 14.956 5.71539C15.3331 6.53111 14.8165 7.82109 13.8248 8.53563ZM15.0125 6.51214C15.0154 6.48685 14.9887 6.46788 14.9679 6.48368L14.1158 7.09389C14.1069 7.10022 14.1009 7.11287 14.098 7.12235C14.095 7.135 14.095 7.14448 14.092 7.15713C14.0861 7.18558 14.1158 7.20455 14.1366 7.18875L14.9917 6.57854C15.0006 6.57221 15.0095 6.55957 15.0095 6.54692C15.0095 6.53427 15.0095 6.52163 15.0125 6.51214ZM14.9739 6.22759L14.1247 6.8378C14.1128 6.84728 14.1039 6.86309 14.1069 6.8789C14.1069 6.88838 14.1069 6.89787 14.1098 6.90735C14.1098 6.93265 14.1366 6.94529 14.1544 6.93265L15.0035 6.3256C15.0154 6.31611 15.0243 6.30347 15.0214 6.28766C15.0214 6.27501 15.0214 6.26553 15.0214 6.25288C15.0184 6.22759 14.9917 6.21494 14.9739 6.22759ZM14.9442 5.99678C14.7957 6.10428 14.2138 6.52163 14.0831 6.61648C14.0683 6.62596 14.0623 6.64809 14.0683 6.66706C14.0712 6.67655 14.0742 6.68287 14.0742 6.69236C14.0802 6.71449 14.1039 6.72081 14.1188 6.71133L14.9768 6.09479C14.9917 6.08531 14.9976 6.06634 14.9946 6.05053C14.9917 6.04104 14.9917 6.0284 14.9887 6.01891C14.9857 5.99678 14.962 5.98413 14.9442 5.99678ZM12.7351 3.55594L13.5338 2.95838C13.5517 2.94573 13.5576 2.92044 13.5457 2.90147L13.5279 2.86669C13.516 2.84139 13.4863 2.83507 13.4655 2.85088L12.6698 3.44528C12.652 3.45793 12.6461 3.48006 12.655 3.50219L12.6698 3.53697C12.6847 3.56226 12.7144 3.57175 12.7351 3.55594ZM12.8183 3.73932L13.6199 3.14176C13.6378 3.12911 13.6437 3.10381 13.6348 3.08484L13.614 3.04058C13.6021 3.01529 13.5724 3.00896 13.5517 3.02477L12.753 3.62234C12.7351 3.63498 12.7292 3.65711 12.7381 3.67925L12.7589 3.72351C12.7678 3.74564 12.7975 3.75513 12.8183 3.73932ZM12.9014 3.9227L13.706 3.32197C13.7239 3.30933 13.7298 3.28403 13.7209 3.26506L13.7001 3.2208C13.6882 3.1955 13.6585 3.18918 13.6378 3.20499L12.8331 3.80571C12.8153 3.81836 12.8094 3.84049 12.8183 3.86263L12.8361 3.90373C12.8509 3.93218 12.8806 3.93851 12.9014 3.9227ZM12.9845 4.10924L13.7951 3.50851C13.8129 3.49587 13.8189 3.47057 13.81 3.4516L13.7892 3.4105C13.7773 3.38521 13.7476 3.37888 13.7268 3.39469L12.9192 3.99542C12.9014 4.00806 12.8955 4.0302 12.9044 4.05233L12.9222 4.09343C12.9341 4.11556 12.9638 4.12505 12.9845 4.10924ZM13.0677 4.29262L13.8812 3.68873C13.899 3.67608 13.905 3.65079 13.8961 3.63182L13.8783 3.59388C13.8664 3.56859 13.8367 3.56226 13.8159 3.57807L13.0024 4.18196C12.9845 4.19461 12.9786 4.21674 12.9875 4.23887L13.0053 4.27681C13.0172 4.29894 13.0469 4.30843 13.0677 4.29262ZM13.1508 4.476L13.9703 3.87211C13.9881 3.85946 13.994 3.83417 13.9851 3.8152L13.9673 3.78042C13.9555 3.75513 13.9258 3.7488 13.905 3.76461L13.0855 4.3685C13.0677 4.38115 13.0617 4.40328 13.0707 4.42541L13.0855 4.46019C13.1003 4.48548 13.13 4.49181 13.1508 4.476ZM13.234 4.66254L14.0564 4.05549C14.0742 4.04284 14.0802 4.01755 14.0712 3.99858L14.0564 3.9638C14.0445 3.93851 14.0148 3.93218 13.994 3.94799L13.1716 4.55504C13.1538 4.56769 13.1479 4.58982 13.1568 4.61195L13.1716 4.64673C13.1835 4.66886 13.2132 4.67835 13.234 4.66254ZM13.3171 4.84592L14.1425 4.23887C14.1603 4.22622 14.1663 4.20093 14.1573 4.18196L14.1425 4.15034C14.1306 4.12505 14.1009 4.11872 14.0802 4.13453L13.2547 4.74158C13.2369 4.75423 13.231 4.77636 13.2399 4.79849L13.2547 4.83011C13.2666 4.8554 13.2933 4.86173 13.3171 4.84592ZM13.4002 5.03246L14.2316 4.42225C14.2494 4.4096 14.2553 4.38431 14.2464 4.36534L14.2316 4.33688C14.2197 4.31159 14.19 4.30527 14.1692 4.32107L13.3379 4.93128C13.3201 4.94393 13.3141 4.96922 13.323 4.98819L13.3349 5.01665C13.3497 5.03878 13.3765 5.04827 13.4002 5.03246ZM13.4834 5.21584L14.3177 4.60563C14.3355 4.59298 14.3414 4.56769 14.3325 4.54872L14.3207 4.52026C14.3088 4.49497 14.2791 4.48864 14.2583 4.50445L13.424 5.11466C13.4062 5.12731 13.4002 5.1526 13.4091 5.17157L13.421 5.19687C13.4329 5.22216 13.4596 5.23165 13.4834 5.21584ZM13.5665 5.39922L14.4068 4.78585C14.4246 4.7732 14.4305 4.7479 14.4216 4.72893L14.4097 4.70364C14.3978 4.67835 14.3711 4.67202 14.3503 4.68783L13.5131 5.3012C13.4952 5.31385 13.4893 5.33914 13.4982 5.35812L13.5101 5.38341C13.5131 5.4087 13.5427 5.41503 13.5665 5.39922ZM13.6467 5.58576L14.4899 4.97239C14.5077 4.95974 14.5136 4.93445 14.5047 4.91548L14.4929 4.89334C14.481 4.86805 14.4513 4.86173 14.4305 4.87753L13.5902 5.48775C13.5724 5.50039 13.5665 5.52569 13.5754 5.54466L13.5843 5.56679C13.5962 5.59208 13.6259 5.60157 13.6467 5.58576ZM13.7298 5.76914L14.579 5.1526C14.5968 5.13996 14.6027 5.11466 14.5938 5.09569L14.5849 5.07356C14.573 5.04827 14.5433 5.04194 14.5226 5.05775L13.6764 5.67429C13.6585 5.68693 13.6526 5.71223 13.6615 5.7312L13.6704 5.75017C13.6793 5.77546 13.709 5.78495 13.7298 5.76914ZM13.8129 5.95568L14.6651 5.33914C14.6829 5.3265 14.6888 5.3012 14.6799 5.28223L14.671 5.26326C14.6591 5.23797 14.6294 5.23165 14.6087 5.24746L13.7565 5.86399C13.7387 5.87664 13.7328 5.90193 13.7417 5.9209L13.7506 5.93987C13.7625 5.962 13.7921 5.96833 13.8129 5.95568ZM13.8961 6.13906L14.7512 5.52252C14.769 5.50988 14.7749 5.48458 14.766 5.46561L14.7571 5.4498C14.7452 5.42451 14.7155 5.41819 14.6948 5.434L13.8397 6.05369C13.8218 6.06634 13.8159 6.09163 13.8248 6.1106L13.8307 6.12641C13.8456 6.14538 13.8753 6.15487 13.8961 6.13906ZM13.9792 6.32244L14.8402 5.70274C14.8581 5.69009 14.864 5.6648 14.8551 5.64583L14.8492 5.63002C14.8373 5.60473 14.8106 5.59841 14.7898 5.61421L13.9287 6.23707C13.9109 6.24972 13.905 6.27501 13.9139 6.29398L13.9198 6.30663C13.9287 6.33192 13.9584 6.33825 13.9792 6.32244ZM14.0623 6.50898L14.9234 5.88928C14.9382 5.87664 14.9471 5.8545 14.9382 5.83553C14.9353 5.82605 14.9323 5.81972 14.9293 5.81024C14.9204 5.78811 14.8967 5.78178 14.8788 5.79443L14.0119 6.42361C13.994 6.43626 13.9881 6.46155 13.997 6.48052C14 6.48368 14 6.48685 14.003 6.49001C14.0119 6.5153 14.0416 6.52479 14.0623 6.50898ZM14.0297 7.50808C14.0297 7.50808 14.9056 6.88206 14.9234 6.86941C14.9412 6.85677 14.9531 6.83147 14.962 6.79353C14.9679 6.76508 14.9382 6.74611 14.9174 6.76192C14.7096 6.91052 14.0564 7.37845 14.0386 7.3911C14.0178 7.4069 14.003 7.42271 13.9881 7.46381C13.9703 7.50808 14.003 7.52705 14.0297 7.50808ZM10.3391 5.34547L11.1378 4.7479C11.1556 4.73526 11.1615 4.71313 11.1526 4.69416L11.1378 4.65938C11.1259 4.63408 11.0962 4.6246 11.0754 4.64041L10.2767 5.23797C10.2589 5.25062 10.253 5.27275 10.2619 5.29172L10.2767 5.3265C10.2886 5.35179 10.3183 5.36128 10.3391 5.34547ZM10.4163 5.53201L11.2179 4.93445C11.2357 4.9218 11.2417 4.89967 11.2328 4.8807L11.215 4.83643C11.2031 4.81114 11.1734 4.80165 11.1526 4.81746L10.3509 5.41503C10.3331 5.42767 10.3272 5.4498 10.3361 5.46878L10.3539 5.50988C10.3628 5.53833 10.3925 5.54782 10.4163 5.53201ZM10.4905 5.71855L11.2951 5.11782C11.3129 5.10518 11.3189 5.08305 11.31 5.06408L11.2922 5.02297C11.2803 4.99768 11.2506 4.98819 11.2298 5.004L10.4252 5.60473C10.4074 5.61738 10.4014 5.63951 10.4103 5.65848L10.4252 5.69958C10.44 5.72487 10.4697 5.73436 10.4905 5.71855ZM10.5677 5.90193L11.3753 5.3012C11.3931 5.28856 11.399 5.26643 11.3901 5.24746L11.3723 5.20951C11.3604 5.18422 11.3307 5.17474 11.31 5.19054L10.5024 5.79127C10.4846 5.80392 10.4786 5.82605 10.4875 5.84502L10.5024 5.88296C10.5142 5.91141 10.5439 5.91774 10.5677 5.90193ZM10.6419 6.08847L11.4555 5.48775C11.4733 5.4751 11.4792 5.45297 11.4703 5.43083L11.4555 5.39606C11.4436 5.37076 11.4139 5.36128 11.3931 5.37709L10.5825 5.97781C10.5647 5.99046 10.5588 6.01259 10.5677 6.03156L10.5825 6.06634C10.5885 6.09479 10.6211 6.10428 10.6419 6.08847ZM10.7161 6.27501L11.5326 5.67112C11.5505 5.65848 11.5564 5.63635 11.5475 5.61421L11.5326 5.57943C11.5208 5.55414 11.4911 5.54466 11.4703 5.56046L10.6568 6.16435C10.6389 6.177 10.633 6.19913 10.6419 6.2181L10.6568 6.24972C10.6657 6.28133 10.6954 6.29082 10.7161 6.27501ZM10.7933 6.46155L11.6128 5.85767C11.6306 5.84502 11.6366 5.82289 11.6277 5.80075L11.6128 5.76914C11.6009 5.74384 11.5712 5.73436 11.5505 5.75017L10.731 6.35405C10.7132 6.3667 10.7072 6.38883 10.7161 6.4078L10.728 6.43942C10.7399 6.46788 10.7696 6.47736 10.7933 6.46155ZM10.8676 6.64493L11.69 6.04104C11.7078 6.0284 11.7138 6.00627 11.7049 5.98413L11.693 5.95568C11.6811 5.93038 11.6514 5.9209 11.6306 5.93671L10.8082 6.54376C10.7904 6.5564 10.7844 6.57854 10.7933 6.59751L10.8052 6.62596C10.8171 6.65126 10.8468 6.66074 10.8676 6.64493ZM10.9448 6.83147L11.7702 6.22442C11.788 6.21178 11.7939 6.18965 11.785 6.16751L11.7731 6.13906C11.7613 6.11376 11.7316 6.10428 11.7108 6.12009L10.8854 6.72714C10.8676 6.73978 10.8616 6.76192 10.8705 6.78089L10.8824 6.80618C10.8913 6.8378 10.921 6.84728 10.9448 6.83147ZM11.019 7.01801L11.8474 6.41096C11.8652 6.39832 11.8711 6.37619 11.8622 6.35405L11.8503 6.32876C11.8385 6.30347 11.8088 6.29398 11.788 6.30979L10.9596 6.91684C10.9418 6.92949 10.9359 6.95162 10.9448 6.97059L10.9537 6.99588C10.9655 7.02434 10.9982 7.03382 11.019 7.01801ZM11.0932 7.20455L11.9275 6.59751C11.9454 6.58486 11.9513 6.56273 11.9424 6.5406L11.9335 6.51846C11.9216 6.49317 11.8919 6.48368 11.8711 6.49949L11.0398 7.1097C11.022 7.12235 11.016 7.14448 11.0249 7.16345L11.0338 7.18558C11.0427 7.21088 11.0724 7.22036 11.0932 7.20455ZM11.1704 7.38793L12.0077 6.77772C12.0255 6.76508 12.0315 6.74294 12.0226 6.72081L12.0136 6.70184C12.0018 6.67655 11.9721 6.66706 11.9513 6.68287L11.114 7.29308C11.0962 7.30573 11.0903 7.32786 11.0992 7.34683L11.1081 7.3658C11.117 7.39426 11.1467 7.40374 11.1704 7.38793ZM11.2446 7.57447L12.0849 6.96426C12.1027 6.95162 12.1087 6.92949 12.0998 6.90735L12.0908 6.88838C12.079 6.86309 12.0493 6.8536 12.0285 6.86941L11.1882 7.47962C11.1704 7.49227 11.1645 7.5144 11.1734 7.53337L11.1793 7.55234C11.1942 7.5808 11.2239 7.59028 11.2446 7.57447ZM11.3189 7.76102L12.1651 7.15081C12.1829 7.13816 12.1888 7.11603 12.1799 7.09389L12.174 7.07809C12.1621 7.05279 12.1324 7.04331 12.1116 7.05912L11.2684 7.67249C11.2506 7.68513 11.2446 7.70727 11.2536 7.72624L11.2595 7.74205C11.2684 7.76734 11.2981 7.77682 11.3189 7.76102ZM11.3961 7.94756L12.2423 7.33419C12.2601 7.32154 12.266 7.29941 12.2571 7.27727L12.2512 7.26463C12.2393 7.23933 12.2096 7.22985 12.1888 7.24566L11.3426 7.85903C11.3248 7.87168 11.3189 7.89381 11.3278 7.91278L11.3337 7.92542C11.3456 7.95388 11.3753 7.96337 11.3961 7.94756ZM11.4703 8.13094L12.3195 7.51756C12.3373 7.50492 12.3432 7.48279 12.3343 7.46065L12.3284 7.45117C12.3165 7.42587 12.2868 7.41639 12.266 7.4322L11.4169 8.04557C11.399 8.05822 11.3931 8.08035 11.402 8.09932L11.405 8.1088C11.4198 8.13726 11.4495 8.14674 11.4703 8.13094ZM11.5475 8.31748L12.3996 7.7041C12.4174 7.69146 12.4234 7.66933 12.4145 7.64719C12.4145 7.64403 12.4115 7.64087 12.4115 7.63771C12.3996 7.61242 12.3699 7.60293 12.3492 7.61874L11.497 8.23527C11.4792 8.24792 11.4733 8.27005 11.4822 8.29218L11.4851 8.29851C11.497 8.3238 11.5267 8.33329 11.5475 8.31748ZM11.6336 8.49453L12.5095 7.86535C12.5243 7.85587 12.5273 7.83374 12.5154 7.81793C12.5125 7.8116 12.5065 7.80844 12.5036 7.80212C12.4887 7.78315 12.465 7.77999 12.4471 7.79263C12.3017 7.89697 11.7256 8.31115 11.5831 8.41549C11.5653 8.42814 11.5594 8.45659 11.5712 8.47556C11.5712 8.47872 11.5742 8.47872 11.5742 8.48189C11.5861 8.50402 11.6158 8.51034 11.6336 8.49453ZM11.7435 8.65578L12.652 8.00447C12.6698 7.99182 12.6698 7.96653 12.652 7.95388C12.6461 7.95072 12.6401 7.9444 12.6342 7.94123C12.6193 7.92859 12.5986 7.92859 12.5837 7.93807L11.69 8.5799C11.6692 8.59255 11.6663 8.62416 11.6781 8.64313C11.6989 8.66843 11.7256 8.67159 11.7435 8.65578ZM11.8919 8.79173C11.9216 8.7696 12.6431 8.25424 12.845 8.1088C12.8658 8.093 12.8598 8.06138 12.8361 8.05189C12.8272 8.04873 12.8212 8.04557 12.8123 8.04241C12.8005 8.03608 12.7856 8.03925 12.7737 8.04557C12.6431 8.13726 11.8474 8.70953 11.8296 8.72218C11.8088 8.73798 11.8028 8.76644 11.8207 8.78857C11.8414 8.81387 11.8652 8.8107 11.8919 8.79173ZM12.0612 8.90872C12.073 8.89923 13.0944 8.17204 13.1271 8.14991C13.1597 8.12777 13.1389 8.10564 13.1122 8.10564C13.0588 8.10564 13.0291 8.11513 13.0053 8.13094C12.9964 8.13726 12.0047 8.84548 12.0047 8.84548C11.984 8.86129 11.9721 8.88659 11.9929 8.90556C12.0166 8.92453 12.0433 8.92136 12.0612 8.90872ZM14.8076 7.19823C14.8373 7.1761 14.8462 7.15081 14.8581 7.12235C14.8699 7.09389 14.8373 7.0686 14.8135 7.08441L12.2334 8.92136C12.2126 8.93717 12.1977 8.96247 12.2245 8.98144C12.2512 9.00357 12.2779 8.99092 12.2957 8.97827C12.3046 8.97511 14.7779 7.22036 14.8076 7.19823ZM12.6164 8.99724C12.6253 8.99092 14.4632 7.6883 14.5493 7.62506C14.6383 7.56183 14.668 7.5144 14.6829 7.48911C14.6977 7.46381 14.668 7.43852 14.6473 7.45433L12.5273 8.96247C12.5065 8.97827 12.5065 9.00357 12.5332 9.01305C12.56 9.02254 12.5986 9.00989 12.6164 8.99724ZM14.1455 8.15307C14.2435 8.08351 14.2791 8.04241 14.3058 8.01079C14.3325 7.97917 14.3177 7.92859 14.2583 7.96969C14.1989 8.01079 13.1122 8.77909 13.0825 8.80438C13.0528 8.82967 13.0439 8.85813 13.0677 8.86445C13.0914 8.87078 13.1657 8.84232 13.228 8.80122C13.2755 8.7696 14.0475 8.22263 14.1455 8.15307ZM9.21674 7.69778C9.35926 8.07403 9.32363 8.34277 9.11579 8.49453C9.11579 8.49453 8.34976 9.05099 8.29631 9.0921C8.24287 9.13004 8.13895 9.12688 8.10332 9.0257C8.06769 8.92453 7.78562 8.11513 7.78562 8.11513C7.76484 8.05506 7.78562 7.99182 7.83313 7.95388L8.69417 7.31838C8.76543 7.26463 8.83669 7.24882 8.90795 7.27411C8.98812 7.30257 9.10094 7.38793 9.21674 7.69778ZM8.04988 8.20049L8.92577 7.55234C8.94358 7.5397 8.96139 7.53021 8.97624 7.52073C8.99999 7.50808 9.0089 7.4733 8.99109 7.45117C8.94952 7.39742 8.91092 7.37213 8.88123 7.36264C8.82185 7.34683 8.77731 7.36896 8.74465 7.39426L7.88361 8.02976C7.86876 8.03925 7.85985 8.06138 7.86876 8.08035C7.87767 8.09616 7.90439 8.09932 7.91923 8.08667C7.93705 8.07403 8.38242 7.76734 8.43586 7.76418C8.41211 7.81793 8.00831 8.13726 8.00831 8.13726C7.99346 8.14674 7.98456 8.17204 7.99643 8.19417C8.00831 8.2163 8.02909 8.2163 8.04988 8.20049ZM9.1336 7.73256C9.11876 7.69146 9.10391 7.65352 9.08907 7.6219C9.08016 7.60293 9.06234 7.59345 9.04453 7.59661C9.02375 7.60293 8.99999 7.61242 8.97624 7.63139L8.1152 8.26689C8.10035 8.27637 8.09441 8.29851 8.10035 8.31748L8.30522 8.90239C8.31413 8.93085 8.34679 8.94033 8.36757 8.92453L9.06531 8.41549C9.23752 8.29218 9.26128 8.0677 9.1336 7.73256Z" fill="white"/>
</g>
<defs>
<clipPath id="clip0_2048_13792">
<rect width="11.5" height="17.5" fill="white" transform="translate(4 2.5)"/>
</clipPath>
</defs>
</svg>
