<svg width="19" height="19" viewBox="0 0 19 19" fill="none" xmlns="http://www.w3.org/2000/svg">
<path d="M10.0415 0.996094C10.8962 0.996094 11.7509 0.996094 12.6055 0.996094C12.8502 1.01358 13.0954 1.03509 13.3405 1.04854C14.2506 1.09829 15.1565 1.17136 16.0427 1.40534C17.2041 1.71194 18.0462 2.36728 18.4421 3.53047C18.671 4.20373 18.7884 4.89717 18.8514 5.60226C18.8851 5.97923 18.9162 6.35666 18.9481 6.73408C18.9481 7.77983 18.9481 8.82604 18.9481 9.87179C18.044 9.82652 17.138 9.8068 16.2365 9.72791C15.4502 9.65932 14.6563 9.58357 13.8902 9.40606C12.189 9.01116 11.0662 7.95868 10.566 6.27507C10.2669 5.26742 10.2057 4.22615 10.1418 3.18712C10.0973 2.45692 10.0743 1.72628 10.0415 0.996094Z" fill="#FF4261"/>
<path d="M0.955078 12.5609C0.955078 11.724 0.955078 10.8876 0.955078 10.0507C1.85923 10.096 2.76609 10.1157 3.6671 10.1946C4.45295 10.2632 5.24735 10.3394 6.01295 10.5169C7.75334 10.9208 8.87701 12.0091 9.36373 13.7326C9.63678 14.6995 9.6993 15.6959 9.76273 16.6906C9.80996 17.4347 9.82975 18.1805 9.86169 18.926C8.99217 18.926 8.1222 18.926 7.25268 18.926C7.03002 18.9094 6.8078 18.8888 6.58514 18.8767C5.67333 18.8278 4.76558 18.7534 3.87942 18.5149C2.74585 18.2097 1.91546 17.5687 1.51601 16.4333C1.23397 15.6323 1.11522 14.8026 1.05089 13.9617C1.01536 13.495 0.987016 13.028 0.955078 12.5609Z" fill="#FF4261"/>
<path d="M7.34265 0.996094C8.18248 0.996094 9.02186 0.996094 9.86169 0.996094C9.81536 1.89707 9.79467 2.80028 9.71505 3.69811C9.64577 4.4812 9.5684 5.2719 9.39297 6.03616C9.01331 7.68839 7.98995 8.80049 6.36022 9.32C5.33461 9.64677 4.26402 9.70729 3.19837 9.77273C2.45166 9.8189 1.70314 9.83952 0.955078 9.87134C0.955078 9.03447 0.955078 8.19805 0.955078 7.36117C0.971722 7.16977 0.996462 6.97837 1.00411 6.78652C1.03875 5.89227 1.12286 5.0052 1.32124 4.13022C1.64961 2.68149 2.49439 1.74556 3.96983 1.39189C4.87624 1.1745 5.79434 1.08798 6.72054 1.04764C6.92836 1.03823 7.13528 1.01358 7.34265 0.996094Z" fill="#FF4261"/>
<path d="M12.6055 18.9259C11.7509 18.9259 10.8962 18.9259 10.0415 18.9259C10.0869 18.0245 10.1067 17.1204 10.1859 16.2217C10.2547 15.4381 10.333 14.647 10.5089 13.8827C10.8746 12.2955 11.8404 11.1964 13.3986 10.65C14.2447 10.3532 15.1309 10.2591 16.017 10.1955C16.9131 10.1314 17.8114 10.1063 18.7093 10.0646C18.7727 10.0614 18.8366 10.0641 18.918 10.0641C18.918 10.1838 18.9193 10.273 18.918 10.3618C18.8973 11.4438 18.9094 12.5281 18.8433 13.6079C18.7961 14.3771 18.6863 15.149 18.5271 15.9034C18.223 17.3436 17.3062 18.2119 15.8735 18.5521C15.0184 18.7551 14.1493 18.834 13.2749 18.8766C13.0509 18.8878 12.8282 18.9093 12.6055 18.9259Z" fill="#FF4261"/>
</svg>
