<svg width="54" height="101" viewBox="0 0 54 101" fill="none" xmlns="http://www.w3.org/2000/svg">
<path d="M29.2811 88.3677C29.2811 87.1125 28.2511 86.1055 27.0004 86.1055C25.735 86.1055 24.7197 87.1271 24.7197 88.3677C24.7197 89.6229 25.7497 90.63 27.0004 90.63C28.2658 90.63 29.2811 89.6083 29.2811 88.3677Z" stroke="#FF4261" stroke-width="2" stroke-miterlimit="10" stroke-linecap="round" stroke-linejoin="round"/>
<path d="M1 15.5659H53" stroke="#FF4261" stroke-width="2" stroke-miterlimit="10" stroke-linecap="round" stroke-linejoin="round"/>
<path d="M1 76.4724H53" stroke="#FF4261" stroke-width="2" stroke-miterlimit="10" stroke-linecap="round" stroke-linejoin="round"/>
<path d="M45.1279 1H8.85739C4.51669 1 1 4.48828 1 8.80849V92.1915C1 96.4971 4.51669 100 8.85739 100H45.1279C49.4686 100 52.9853 96.5117 52.9853 92.1915V8.80849C53 4.48828 49.4686 1 45.1279 1Z" stroke="#FF4261" stroke-width="2" stroke-miterlimit="10" stroke-linecap="round" stroke-linejoin="round"/>
</svg>
