<svg width="40" height="40" viewBox="0 0 40 40" fill="none" xmlns="http://www.w3.org/2000/svg">
<rect width="40" height="40" fill="#E5E5E5"/>
<g clip-path="url(#clip0_648_261)">
<rect width="1440" height="5378" transform="translate(-1270 -173)" fill="white"/>
<rect x="-1270" y="-28" width="1440" height="753" fill="#FF4261"/>
<rect x="0.5" y="0.5" width="39" height="39" stroke="white"/>
<g clip-path="url(#clip1_648_261)">
<path d="M19.4311 30.5718C19.4549 30.7299 19.3598 31.1599 19.1104 31.5898C18.7957 32.14 18.4157 32.1273 18.2672 32.0641C18.7838 31.9756 19.1401 31.3179 19.4311 30.5718ZM30.6306 14.9592C30.1734 16.1228 29.3539 17.1724 28.3266 17.9123C27.4715 18.532 26.4976 18.8545 25.5831 18.8545C23.7541 18.8545 22.8753 17.6657 22.5071 16.7741C22.2102 16.0469 22.0558 15.6548 22.0558 15.6548C22.0261 15.5789 21.9252 15.5853 21.9014 15.6611C21.6995 16.2429 21.3729 16.8247 20.9335 17.3621C20.8978 17.4064 20.9097 17.4507 20.9394 17.476C20.9394 17.476 23.8967 20.1192 24.057 20.2583C24.2173 20.4037 24.1817 20.6503 24.0273 20.7578C23.9263 20.8337 21.3254 22.6612 21.3254 22.6612C21.2244 22.7307 21.0997 22.7307 20.9869 22.6549C20.9869 22.6549 20.8028 22.5284 20.6959 22.4525C20.5891 22.3766 20.494 22.2944 20.4406 22.2375L18.5879 20.1381C18.5582 20.1065 18.5166 20.1002 18.481 20.1255L17.6912 20.6946C17.6615 20.7136 17.6496 20.7578 17.6615 20.7958L18.8432 24.1598C18.8848 24.28 18.8432 24.4128 18.7423 24.4823L17.4477 25.3866C17.424 25.4055 17.4121 25.4308 17.4121 25.4625V25.5699C17.4121 25.6269 17.4537 25.6648 17.5071 25.6585C18.6057 25.513 19.6864 25.1969 20.2565 25.1969C20.5237 25.1969 20.8147 25.2222 20.886 25.551C20.9335 25.7533 20.9394 26.0885 20.9157 26.2908C20.8978 26.4236 20.8682 26.5121 20.8088 26.626C20.785 26.6639 20.791 26.7145 20.8266 26.7461C21.1769 27.0939 21.8895 27.2646 22.424 27.3911C22.7209 27.4607 22.9762 27.5239 23.1306 27.5998C23.2019 27.6377 23.291 27.7136 23.3266 27.9033C23.3741 28.1309 23.3147 28.485 23.2375 28.5925C23.1663 28.6937 22.9584 28.7443 22.7031 28.7633C22.6615 28.7633 22.6259 28.8012 22.6259 28.8455V28.8708C22.6259 28.915 22.6496 28.953 22.6853 28.9593C23.0594 29.0794 23.4157 29.3008 23.7126 29.598C24.2292 30.1228 24.5142 30.8563 24.5142 31.6594C24.5142 32.5953 23.9442 33.5628 22.994 33.5628C22.905 33.5628 22.81 33.5501 22.709 33.5311C22.6674 33.5248 22.6199 33.5311 22.5843 33.5564C22.3111 33.7272 22.0202 33.8157 21.7351 33.8157C21.5748 33.8157 21.4145 33.7904 21.2541 33.7335C20.9988 33.6386 20.7731 33.4742 20.595 33.2592C20.5712 33.2276 20.5356 33.2403 20.5297 33.2782C20.5178 33.4679 20.4168 33.6323 20.2743 33.7145C20.2446 33.7335 20.2268 33.7651 20.2328 33.7967C20.2446 33.8852 20.2625 34.0497 20.2625 34.0623C20.2625 34.1002 20.2625 34.1508 20.1793 34.2014C20.1556 34.2204 20.1378 34.2457 20.1378 34.2836L20.2625 40H19.8408L19.6983 34.075C19.6983 34.0307 19.6686 33.9991 19.633 33.9864C19.6211 33.9864 19.6033 33.9801 19.5914 33.9801C19.538 33.9675 19.4905 34.0117 19.4905 34.0686L19.6271 40H19.4489V39.9051C19.4489 39.8735 19.4252 39.8482 19.3955 39.8419C19.3836 39.8419 19.3777 39.8419 19.3658 39.8356C19.3302 39.8293 19.2945 39.8609 19.2945 39.8988V39.9937H19.1164L19.0273 33.9611C19.0273 33.9169 18.9917 33.8789 18.9501 33.8726C18.9026 33.8663 18.8492 33.86 18.8016 33.86C18.7541 33.8536 18.7066 33.8979 18.7126 33.9485L18.7898 39.9937H18.6116V39.8482C18.6116 39.804 18.576 39.7597 18.5344 39.7597C18.4929 39.7597 18.4513 39.7534 18.4157 39.7471C18.3682 39.7407 18.3207 39.785 18.3207 39.8356V39.9874H18.1425L18.0891 33.8853C18.0891 33.8347 18.0534 33.7967 18.0059 33.7967C17.9287 33.7904 17.8456 33.7904 17.7625 33.7841C17.715 33.7841 17.6734 33.822 17.6734 33.8726C17.6793 34.6441 17.715 39.9874 17.715 39.9874H17.5368V39.7913C17.5368 39.7407 17.4952 39.6965 17.4477 39.7028C17.3349 39.7091 17.2161 39.7091 17.0974 39.6965C17.0499 39.6901 17.0083 39.7344 17.0083 39.785V39.9874H16.8302C16.8302 39.9874 16.8242 34.6061 16.8242 33.8536C16.8242 33.803 16.7886 33.7651 16.7411 33.7651C16.6579 33.7651 16.5273 33.7651 16.4382 33.7651C16.3907 33.7651 16.3551 33.803 16.3551 33.8536C16.3551 34.6061 16.3492 39.9874 16.3492 39.9874H16.171V39.785C16.171 39.7344 16.1294 39.6901 16.0819 39.6965C15.9691 39.7091 15.8444 39.7091 15.7316 39.7028C15.6841 39.6965 15.6425 39.7407 15.6425 39.7913V39.9874H15.4644C15.4644 39.9874 15.5 34.6441 15.5059 33.8726C15.5059 33.822 15.4644 33.7841 15.4169 33.7841C15.3337 33.7841 15.2506 33.7904 15.1734 33.7967C15.1259 33.7967 15.0962 33.8347 15.0903 33.8853L15.0368 39.9874H14.8587V39.8356C14.8587 39.785 14.8171 39.7407 14.7636 39.7471C14.7221 39.7534 14.6805 39.7534 14.6449 39.7597C14.6033 39.7597 14.5677 39.804 14.5677 39.8482V39.9937H14.3895L14.4667 33.9485C14.4667 33.8979 14.4252 33.8536 14.3777 33.86C14.3302 33.8663 14.2767 33.8726 14.2292 33.8726C14.1876 33.8789 14.152 33.9169 14.152 33.9611L14.0629 39.9937H13.8848V39.8988C13.8848 39.8609 13.8551 39.8293 13.8135 39.8356C13.8017 39.8356 13.7957 39.8419 13.7838 39.8419C13.7541 39.8482 13.7363 39.8735 13.7304 39.9051V40H13.5522L13.6888 34.0686C13.6888 34.0117 13.6413 33.9675 13.5879 33.9801C13.5701 33.9801 13.5582 33.9864 13.5463 33.9864C13.5107 33.9927 13.481 34.0307 13.481 34.075L13.3385 40H12.9169L13.0416 34.2836C13.0416 34.252 13.0237 34.2204 13 34.2014C12.9169 34.1508 12.9169 34.1002 12.9169 34.0623C12.9169 34.0433 12.9169 34.0117 12.9169 33.9927C12.9169 33.9548 12.8872 33.9358 12.8694 33.9295C12.3112 33.7082 12.1271 33.0126 12.1983 32.355C12.2043 32.3107 12.1568 32.2854 12.1211 32.3107C11.8242 32.5826 11.4442 32.7597 11.0226 32.785C10.9929 32.785 10.9632 32.7976 10.9394 32.8166C10.8147 32.9114 10.4941 33.0948 9.97743 33.0948C8.83729 33.0948 8 32.0704 8 30.7109C8 28.6305 9.96556 27.9033 10.0962 27.8464C10.1318 27.8337 10.1496 27.7958 10.1496 27.7579L10.1378 27.5555C10.1318 27.4986 10.1021 27.4859 10.0665 27.4796C9.68646 27.4037 9.48456 27.3342 9.40142 27.1761C9.31235 27.0054 9.36579 26.4173 9.42518 26.2655C9.50831 26.0632 9.74584 26.0189 10.1259 26.0189C10.6663 26.0189 11.3907 26.0505 12.1508 26.0505C13.4216 26.0505 14.5024 25.9999 15.4169 25.9177C15.4703 25.9114 15.5059 25.8545 15.4881 25.7976L12.4002 16.1733C12.3646 16.0595 12.4002 15.9331 12.4952 15.8635L17.4715 12.139C18.4097 11.4497 19.4549 11.2727 20.2625 11.6331C20.3337 11.6647 20.399 11.5889 20.3693 11.513L19.9715 10.5329C19.924 10.4127 19.9596 10.2736 20.0606 10.1977C20.0606 10.1977 22.1746 8.61685 22.1805 8.61685C22.418 8.42715 22.5724 8.63582 22.709 8.80656C22.9109 9.05949 22.9881 9.15434 23.0237 9.23655C23.0237 9.23655 25.595 15.2501 25.6484 15.3829C25.7019 15.5157 25.7613 15.5916 25.8681 15.6232C26.2007 15.7244 26.5926 15.6359 26.9548 15.3703C27.6318 14.8834 27.9109 13.9791 27.5962 13.2772L24.7577 6.96644C24.7043 6.8463 24.7399 6.70086 24.8408 6.62498C24.8408 6.62498 26.8361 5.13265 26.943 5.05044C27.0558 4.96824 27.1746 4.99353 27.2696 5.07574C27.6021 5.38558 27.7446 5.55632 27.7981 5.67014L30.7078 11.7659C31.1235 12.6575 31.0938 13.7894 30.6306 14.9592ZM30.5237 12.9105C30.5237 12.9927 30.5831 13.0559 30.6603 13.0559C30.7375 13.0559 30.7969 12.9927 30.7969 12.9105C30.7969 12.8283 30.7375 12.765 30.6603 12.765C30.5831 12.765 30.5237 12.8283 30.5237 12.9105ZM10.1734 26.6513C10.1734 26.7018 10.209 26.7398 10.2565 26.7398C10.5237 26.7398 11.6342 26.7714 12.5368 26.7714C16.8361 26.7714 18.8551 26.0695 19.9537 25.9683C20.0071 25.962 20.1081 25.943 20.1081 25.8482C20.1081 25.7533 20.0071 25.747 19.9537 25.747C18.8195 25.8482 17.0261 26.5501 12.5427 26.5501C11.5748 26.5501 10.8741 26.5248 10.2625 26.5185C10.215 26.5185 10.1793 26.5564 10.1793 26.607V26.6513H10.1734ZM9.64489 26.4489C9.66271 26.4426 9.68646 26.4363 9.70427 26.4363C9.7399 26.4299 9.76366 26.3983 9.76959 26.3604C9.76959 26.3477 9.77553 26.3288 9.77553 26.3161C9.78147 26.2718 9.7399 26.2339 9.69833 26.2466C9.63895 26.2655 9.59145 26.2908 9.56769 26.373C9.55582 26.4173 9.59739 26.4616 9.64489 26.4489ZM9.7399 26.6449C9.74584 26.6007 9.70427 26.5691 9.66864 26.5754C9.63895 26.5817 9.62114 26.588 9.59738 26.5943C9.56176 26.607 9.538 26.6386 9.538 26.6765C9.538 26.7018 9.538 26.7208 9.538 26.7461C9.538 26.7904 9.57363 26.822 9.6152 26.8093C9.63301 26.803 9.65677 26.7967 9.67458 26.7904C9.71021 26.784 9.73396 26.7524 9.73396 26.7145C9.73396 26.6892 9.73396 26.6639 9.7399 26.6449ZM10.4644 32.7534C10.4169 32.7217 10.31 32.7407 10.2803 32.747C10.1853 32.766 10.0903 32.7723 9.98931 32.7723C9.02138 32.7787 8.29691 31.887 8.29691 30.7046C8.29691 29.6738 8.91449 29.0162 8.96793 28.915C9.00356 28.8392 8.95012 28.8075 8.86698 28.9087C8.49287 29.3324 8.17815 29.9458 8.17815 30.7109C8.17815 31.9629 8.93824 32.9051 9.9418 32.9051C10.1199 32.9051 10.2743 32.8798 10.399 32.8419C10.4762 32.8229 10.5119 32.7913 10.4644 32.7534ZM8.70071 31.0587C8.76603 31.5456 8.98575 31.9187 9.26484 32.14C9.31235 32.1779 9.37767 32.1084 9.3361 32.0578C9.09857 31.7859 8.91449 31.4444 8.80166 31.0334C8.78385 30.9765 8.68884 30.9954 8.70071 31.0587ZM12.5546 30.7488C12.5546 29.7244 11.9074 29.2628 11.3076 29.2628C10.8622 29.2628 10.3812 29.6233 10.3812 30.205C10.3812 30.6919 10.69 31.0207 10.9751 31.0207C11.0285 31.0207 11.0819 31.0081 11.1294 30.9891C11.171 30.9702 11.1591 30.9006 11.1116 30.9006C10.8325 30.8943 10.595 30.6413 10.595 30.1987C10.595 29.7244 10.9097 29.4019 11.3789 29.4019C11.8717 29.4019 12.4062 29.8952 12.4062 30.6919C12.4062 31.5772 11.8302 32.2412 11.0641 32.2412C10.2209 32.2412 9.35392 31.5203 9.35392 30.1924C9.35392 28.8645 10.3753 28.3712 11.0641 28.3712C11.8836 28.3712 12.4952 28.4787 13.8729 28.4787C17.0974 28.4787 18.1841 27.878 18.7126 27.878C19.1104 27.878 19.2945 28.3017 19.2945 29.2059C19.2945 30.6982 18.7245 31.8997 18.0712 31.8997C18.0594 31.8997 18.0416 31.8997 18.0297 31.8997C17.9525 31.8934 17.9109 31.9945 17.9703 32.0515C18.1188 32.2032 18.291 32.2854 18.475 32.2854C19.253 32.2854 19.9359 30.8437 19.9359 29.2059C19.9359 28.5293 19.829 27.2646 19.1164 27.2646C18.5997 27.2646 17.329 28.074 14.437 28.074C12.424 28.074 12.0914 27.8337 11.0641 27.8337C9.72803 27.8337 8.86104 28.8708 8.86104 30.1291C8.86104 31.729 9.8943 32.5889 10.8622 32.5889C11.8064 32.6016 12.5546 31.7985 12.5546 30.7488ZM19.918 26.8346C19.918 26.7777 19.8587 26.7714 19.823 26.7714C19.1758 26.7967 17.0499 27.5176 12.6793 27.5176C11.9667 27.5176 11.0166 27.4733 10.595 27.4986C10.5475 27.4986 10.4881 27.5239 10.4941 27.5745C10.5 27.6251 10.5594 27.6377 10.6009 27.6377C10.8919 27.6061 11.9846 27.6567 12.6793 27.6567C17.0617 27.6567 18.9917 26.9737 19.8171 26.9042C19.8468 26.9042 19.918 26.8979 19.918 26.8346ZM19.8349 27.2393C19.7993 27.2457 19.7636 27.2457 19.728 27.252C19.6924 27.2583 19.6449 27.2836 19.6864 27.3342C19.728 27.3848 19.7933 27.3721 19.823 27.3721C19.8587 27.3658 19.918 27.3468 19.9121 27.2962C19.9062 27.252 19.8587 27.2393 19.8349 27.2393ZM21.0225 28.7506C21.0879 28.7127 21.2185 28.6937 21.3788 28.6621C21.4323 28.6558 21.4679 28.5925 21.4442 28.5356C21.4323 28.504 21.4204 28.4787 21.4085 28.4471C21.3907 28.4092 21.3551 28.3965 21.3195 28.4028C21.0582 28.4534 20.8147 28.4724 20.5831 28.4724C20.4465 28.4724 20.3159 28.4661 20.1734 28.4598C20.1199 28.4534 20.0784 28.504 20.0843 28.5609C20.0843 28.5673 20.0843 28.5736 20.0843 28.5799C20.0902 28.6242 20.1199 28.6558 20.1556 28.6558C20.2981 28.6684 20.6187 28.7127 20.6722 28.7443C20.6187 28.7759 20.3337 28.7759 20.1853 28.7759C20.1378 28.7759 20.1021 28.8139 20.1021 28.8708C20.1021 28.8834 20.1021 28.9024 20.1021 28.915C20.1021 28.9593 20.1378 28.9972 20.1734 28.9972C20.3456 29.0162 20.5237 29.0478 20.5831 29.0858C20.5178 29.1111 20.3515 29.1174 20.1912 29.1174C20.1437 29.1174 20.1081 29.1553 20.1081 29.2059C20.1081 29.2186 20.1081 29.2375 20.1081 29.2565C20.1081 29.3008 20.1378 29.3387 20.1793 29.345C20.3634 29.3703 20.5416 29.4019 20.6009 29.4336C20.5534 29.4589 20.3515 29.4652 20.1793 29.4589C20.1318 29.4589 20.0962 29.4968 20.0962 29.5411C20.0962 29.56 20.0962 29.5727 20.0962 29.5916C20.0962 29.6422 20.1259 29.6802 20.1674 29.6865C20.399 29.7118 20.6663 29.7561 20.7138 29.794C20.6544 29.8193 20.3872 29.813 20.1556 29.8066C20.114 29.8066 20.0724 29.8383 20.0665 29.8888C20.0665 29.8952 20.0665 29.9015 20.0665 29.9078C20.0606 29.9584 20.0962 30.009 20.1437 30.009C20.7791 30.0469 21.3788 30.1544 21.6461 30.2113C21.6995 30.224 21.747 30.1734 21.747 30.1165C21.747 30.0975 21.747 30.0786 21.7411 30.0596C21.7411 30.0153 21.7054 29.9837 21.6639 29.9774C21.4204 29.9584 21.1651 29.9015 21.0463 29.8383C21.1651 29.8193 21.4382 29.8383 21.6282 29.8509C21.6817 29.8509 21.7233 29.8066 21.7173 29.7497C21.7114 29.7181 21.7114 29.6865 21.7054 29.6549C21.6995 29.6106 21.6698 29.579 21.6282 29.579C21.4679 29.5727 21.1948 29.5347 21.1413 29.4905C21.2363 29.4652 21.4263 29.4652 21.5807 29.4589C21.6342 29.4589 21.6698 29.4083 21.6579 29.3514C21.652 29.3134 21.6461 29.2818 21.6342 29.2439C21.6282 29.1996 21.5926 29.1743 21.5511 29.1743C21.3967 29.1743 21.1888 29.1617 21.1176 29.13C21.1948 29.0984 21.3492 29.0858 21.4857 29.0668C21.5392 29.0605 21.5748 29.0036 21.557 28.953C21.5451 28.915 21.5332 28.8771 21.5273 28.8455C21.5154 28.8075 21.4798 28.7822 21.4382 28.7822C21.2957 28.7822 21.076 28.7759 21.0225 28.7506ZM21.2541 28.1562C21.2423 28.1373 21.2363 28.1246 21.2244 28.112C21.2066 28.0803 21.171 28.0677 21.1354 28.0803C20.9038 28.1373 20.6841 28.1689 20.4584 28.1689C20.3515 28.1689 20.2387 28.1626 20.1259 28.1499C20.0724 28.1436 20.0249 28.1815 20.0368 28.2511C20.0487 28.308 20.0962 28.327 20.1318 28.3333C20.494 28.3586 20.8147 28.3649 21.1948 28.3017C21.2541 28.2827 21.2838 28.2131 21.2541 28.1562ZM20.0309 30.1987C20.0309 30.205 20.0309 30.2113 20.0309 30.2113C20.0249 30.2619 20.0606 30.3125 20.1081 30.3125C20.7613 30.3568 21.4026 30.4769 21.6698 30.5402C21.7233 30.5528 21.7708 30.5085 21.7708 30.4516C21.7708 30.439 21.7708 30.4327 21.7708 30.42C21.7708 30.3757 21.7411 30.3441 21.7054 30.3315C21.4798 30.2872 20.8206 30.1608 20.1259 30.1165C20.0784 30.1228 20.0427 30.1544 20.0309 30.1987ZM19.9596 30.5591C19.9477 30.6097 19.9834 30.654 20.0249 30.654C20.6781 30.6793 21.367 30.831 21.6579 30.9006C21.7054 30.9132 21.747 30.8943 21.753 30.8247C21.7589 30.7804 21.7292 30.7488 21.6936 30.7362C21.4739 30.6856 20.7672 30.5402 20.0427 30.5022C20.0071 30.5022 19.9715 30.5149 19.9596 30.5591ZM19.918 31.0587C19.8824 31.0587 19.8111 31.065 19.7933 31.1219C19.7755 31.1725 19.8408 31.1978 19.8765 31.1978C20.6306 31.2674 21.0819 31.3875 21.5214 31.514C21.5511 31.5203 21.6164 31.5266 21.6342 31.4634C21.652 31.4001 21.5807 31.3749 21.5451 31.3622C21.076 31.2231 20.5891 31.1219 19.918 31.0587ZM21.2423 31.8997C20.7791 31.7543 20.3159 31.6215 19.6983 31.5962C19.6627 31.5962 19.5736 31.6025 19.5439 31.6594C19.5142 31.7163 19.5914 31.7416 19.6389 31.7416C20.4347 31.7543 21.0997 32.0072 21.1829 32.0325C21.2363 32.0515 21.3076 32.0641 21.3373 32.0198C21.3729 31.9756 21.3195 31.925 21.2423 31.8997ZM18.7007 32.8609C18.7423 32.8609 18.772 32.8229 18.7601 32.785C18.7363 32.6522 18.6473 32.5447 18.4988 32.532C18.4454 32.5257 18.3563 32.5194 18.285 32.5194C18.2435 32.5194 18.2138 32.5637 18.2256 32.6016C18.2435 32.6522 18.2553 32.7028 18.2613 32.7534C18.2672 32.7976 18.2969 32.8356 18.3385 32.8356L18.7007 32.8609ZM18.5879 33.0442L18.2969 33.0253C18.2613 33.0253 18.2256 33.0253 18.1959 33.0885C18.1663 33.1517 18.2019 33.177 18.2435 33.177L18.4572 33.1897C18.5226 33.196 18.576 33.1897 18.6116 33.1581C18.671 33.1138 18.6473 33.0506 18.5879 33.0442ZM18.7957 33.2972C18.9857 33.2972 19.1223 33.1454 19.1401 32.9051C19.1579 32.7091 19.0511 32.5067 18.8551 32.4751C18.8016 32.4625 18.766 32.532 18.8016 32.5763C18.861 32.6522 18.8907 32.7597 18.8848 32.8925C18.8788 33.0189 18.8135 33.1264 18.7482 33.196C18.7185 33.2339 18.7482 33.2972 18.7957 33.2972ZM17.6734 32.1906C17.7328 32.1969 17.81 32.1716 17.7803 32.1147C17.7506 32.0578 17.6378 32.0451 17.6021 32.0451C16.6579 32.0009 14.3361 32.0009 13.3028 32.317C13.2732 32.3234 13.2256 32.355 13.2375 32.4056C13.2553 32.4562 13.3207 32.4498 13.3444 32.4435C14.6271 32.102 17.133 32.159 17.6734 32.1906ZM17.1152 32.4498C15.8741 32.4182 14.6924 32.4941 14.0511 32.5826C14.0095 32.5889 13.9501 32.6206 13.9739 32.6712C13.9976 32.7217 14.0926 32.7344 14.1283 32.7281C14.7874 32.6459 15.8563 32.5763 17.0321 32.6016C17.0736 32.6016 17.1568 32.5953 17.1805 32.532C17.2043 32.4814 17.1568 32.4498 17.1152 32.4498ZM13.8907 32.9367C13.861 32.7723 13.7423 32.6585 13.6354 32.6775C13.5285 32.6964 13.4632 32.8545 13.4929 33.0189C13.5226 33.1833 13.6413 33.2972 13.7482 33.2782C13.8551 33.2592 13.9204 33.1011 13.8907 32.9367ZM14.0154 31.6531C13.9323 31.71 13.4454 31.8618 13.2138 31.9376C13.1722 31.9503 13.1188 31.9882 13.1366 32.0515C13.1484 32.1147 13.2138 32.0957 13.2494 32.0831C14.4192 31.7226 16.9786 31.7732 17.3705 31.7985C17.4359 31.8048 17.5309 31.7732 17.5012 31.7037C17.4715 31.6278 17.3646 31.6151 17.3052 31.6088C16.9192 31.5898 16.2126 31.5519 16.1116 31.495C16.2423 31.4318 16.8598 31.4191 17.2636 31.4191C17.3052 31.4191 17.3527 31.3938 17.3171 31.3179C17.2874 31.2421 17.228 31.2294 17.1983 31.2231C17.038 31.1915 16.937 31.1599 16.8777 31.1282C16.9311 31.0966 17.0083 31.0777 17.0914 31.065C17.1449 31.0587 17.1805 30.9954 17.1568 30.9385C17.0974 30.7804 17.0321 30.6666 16.9489 30.6666C16.842 30.6666 16.8005 30.8374 16.7351 31.0334C16.6758 31.2041 16.5154 31.2863 16.3729 31.2104C16.2601 31.1535 16.2007 31.0207 16.2245 30.8879C16.272 30.6413 16.4026 30.4137 16.4442 30.3062C16.4857 30.1924 16.5036 29.9963 16.3432 29.9521C16.1651 29.9015 16.0819 30.1355 16.0582 30.2303C16.0166 30.4074 15.9632 30.8121 15.88 31.046C15.8325 31.1851 15.7019 31.261 15.5653 31.2294C15.4287 31.1978 15.3397 31.0524 15.3693 30.8943C15.3812 30.8247 15.5356 30.1924 15.5356 29.9647C15.5356 29.7244 15.2506 29.2818 15.0071 29.2818C14.829 29.2818 14.5261 29.6422 14.5261 29.9963C14.5261 30.2177 14.7636 30.8753 14.7815 30.9449C14.8171 31.0966 14.7399 31.2484 14.6033 31.2926C14.4667 31.3369 14.3302 31.2674 14.2767 31.1346C14.1698 30.8816 14.0273 30.3378 14.0095 30.2999C13.9976 30.2556 13.9145 30.0406 13.7245 30.1102C13.5879 30.1608 13.5819 30.3252 13.6532 30.4516C13.7007 30.5338 13.867 30.7868 13.9323 31.0144C13.9739 31.1472 13.9264 31.299 13.8076 31.3685C13.6651 31.4507 13.5047 31.3749 13.4335 31.2168C13.3741 31.0713 13.2969 30.8563 13.2078 30.8563C13.0891 30.8563 13.0534 31.0966 13.0475 31.2926C13.0475 31.3496 13.0891 31.3938 13.1425 31.3875C13.2375 31.3749 13.3207 31.3749 13.3682 31.3875C13.3207 31.4318 13.2138 31.495 13.1128 31.5456C13.0831 31.5582 13.0594 31.5962 13.0653 31.6341C13.0653 31.6531 13.0713 31.6784 13.0713 31.6973C13.0772 31.7353 13.1128 31.7606 13.1425 31.7479C13.4216 31.691 13.9085 31.6278 14.0154 31.6531ZM14.2827 29.9078C14.3242 29.9078 14.3539 29.8762 14.3658 29.8383C14.3717 29.8193 14.3717 29.8066 14.3777 29.7877C14.3895 29.7497 14.3598 29.7055 14.3183 29.7055C13.8789 29.7181 13.2672 29.7055 12.7565 29.6928C12.709 29.6928 12.6793 29.7497 12.7031 29.7877C12.715 29.8066 12.7268 29.8256 12.7387 29.8446C12.7506 29.8699 12.7803 29.8888 12.81 29.8888C13.1841 29.9078 13.6829 29.9205 14.2827 29.9078ZM13.5226 30.9702C13.5344 30.9891 13.5404 31.0144 13.5522 31.0334C13.5641 31.065 13.5938 31.084 13.6294 31.084C13.6473 31.084 13.6651 31.084 13.6829 31.084C13.7245 31.084 13.7541 31.0397 13.7363 30.9954C13.7245 30.9702 13.7185 30.9449 13.7066 30.9259C13.6948 30.8943 13.6651 30.8753 13.6294 30.8753C13.6116 30.8753 13.5938 30.8753 13.576 30.8753C13.5285 30.8816 13.4988 30.9322 13.5226 30.9702ZM14.1461 30.1924C14.152 30.2113 14.1579 30.2303 14.1698 30.2493C14.1817 30.2809 14.2114 30.3062 14.247 30.3062C14.2648 30.3062 14.2827 30.3062 14.3005 30.3062C14.3361 30.3062 14.3658 30.2683 14.3598 30.2303C14.3598 30.2113 14.3539 30.1987 14.3539 30.1797C14.348 30.1355 14.3123 30.1038 14.2708 30.1038C14.247 30.1038 14.2233 30.1038 14.1995 30.1038C14.1579 30.1038 14.1283 30.1481 14.1461 30.1924ZM14.2708 30.5718C14.2767 30.5907 14.2827 30.6097 14.2886 30.6287C14.3005 30.6666 14.3302 30.6919 14.3717 30.6919C14.3836 30.6919 14.3955 30.6919 14.4133 30.6919C14.4549 30.6919 14.4846 30.6477 14.4667 30.6097C14.4608 30.5907 14.4549 30.5718 14.4489 30.5591C14.437 30.5212 14.4014 30.4959 14.3658 30.4959C14.3539 30.4959 14.342 30.4959 14.3302 30.4959C14.2886 30.4896 14.2589 30.5275 14.2708 30.5718ZM14.3955 30.9638C14.4014 30.9828 14.4133 31.0081 14.4192 31.0334C14.4311 31.065 14.4667 31.0903 14.5024 31.0903C14.5202 31.0903 14.538 31.0903 14.5558 31.0903C14.5914 31.0903 14.6211 31.0524 14.6093 31.0144C14.6033 30.9891 14.5914 30.9638 14.5855 30.9385C14.5736 30.9069 14.538 30.8816 14.5083 30.8879C14.4905 30.8879 14.4727 30.8879 14.4549 30.8879C14.4074 30.8753 14.3777 30.9196 14.3955 30.9638ZM14.5083 29.4778C14.5202 29.4589 14.5321 29.4399 14.5499 29.4209C14.5796 29.3766 14.5499 29.3197 14.5024 29.3197C13.867 29.3387 12.9703 29.3197 12.3884 29.2944C12.329 29.2944 12.3052 29.3703 12.3527 29.4083C12.3705 29.4209 12.3943 29.4399 12.4121 29.4589C12.4418 29.4841 12.4774 29.4968 12.5131 29.5031C13.0534 29.5221 13.6651 29.5411 14.443 29.5221C14.4667 29.5158 14.4964 29.5031 14.5083 29.4778ZM12.6081 31.7163C12.6259 31.729 12.6496 31.7479 12.6793 31.7669C12.709 31.7922 12.7625 31.7985 12.7625 31.729C12.7625 31.6594 12.7387 31.6215 12.6853 31.5898C12.6318 31.5582 12.5903 31.5646 12.5724 31.6025C12.5487 31.6468 12.5784 31.6973 12.6081 31.7163ZM12.4418 31.9819C12.4121 31.9629 12.3765 31.9693 12.3527 32.0009C12.3349 32.0325 12.3408 32.0704 12.3646 32.0957C12.5784 32.2665 12.7387 32.4751 12.7922 32.5447C12.8278 32.5889 12.8812 32.6206 12.9169 32.5953C12.9584 32.5637 12.9406 32.5067 12.905 32.4625C12.7506 32.2285 12.5487 32.0641 12.4418 31.9819ZM12.9762 30.2935C13.1009 30.2999 13.2256 30.2999 13.3503 30.2999C13.3919 30.2999 13.4275 30.2746 13.4335 30.2303C13.4394 30.2177 13.4394 30.1987 13.4454 30.1797C13.4572 30.1418 13.4275 30.0975 13.3919 30.0975C13.2256 30.0975 13.0772 30.0912 12.9406 30.0912C12.899 30.0912 12.8694 30.1355 12.8812 30.1734C12.8872 30.1924 12.8931 30.2113 12.899 30.224C12.9109 30.2683 12.9406 30.2935 12.9762 30.2935ZM12.9762 30.5528C12.9762 30.5718 12.9822 30.5907 12.9822 30.6034C12.9881 30.6477 13.0237 30.6793 13.0653 30.6793C13.1663 30.6793 13.3444 30.6856 13.4691 30.6856C13.5166 30.6856 13.5463 30.635 13.5226 30.5907C13.5107 30.5718 13.4988 30.5528 13.4929 30.5338C13.481 30.5022 13.4513 30.4896 13.4216 30.4832C13.2969 30.4832 13.1722 30.4769 13.0416 30.4769C13 30.4832 12.9703 30.5149 12.9762 30.5528ZM15.6544 30.4896C15.6484 30.5085 15.6484 30.5275 15.6425 30.5465C15.6306 30.5907 15.6663 30.6287 15.7019 30.6224C15.7138 30.6224 15.7256 30.6224 15.7435 30.616C15.7791 30.6097 15.8088 30.5844 15.8207 30.5465C15.8266 30.5275 15.8266 30.5085 15.8325 30.4896C15.8385 30.4516 15.8088 30.4137 15.7672 30.4137C15.7553 30.4137 15.7435 30.4137 15.7316 30.42C15.696 30.4263 15.6663 30.4516 15.6544 30.4896ZM15.7731 30.224C15.791 30.224 15.8088 30.2177 15.8266 30.2177C15.8622 30.2113 15.886 30.1924 15.8979 30.1544C15.9038 30.1355 15.9097 30.1165 15.9157 30.0975C15.9335 30.0533 15.8979 30.009 15.8563 30.0153C15.8325 30.0153 15.8088 30.0216 15.785 30.0216C15.7435 30.028 15.7138 30.0596 15.7078 30.1038C15.7078 30.1228 15.7078 30.1355 15.7078 30.1544C15.7019 30.1987 15.7375 30.2303 15.7731 30.224ZM15.6306 30.8184C15.595 30.8184 15.5653 30.85 15.5594 30.8816C15.5534 30.9006 15.5534 30.9196 15.5475 30.9385C15.5416 30.9765 15.5712 31.0081 15.6069 31.0081C15.6247 31.0081 15.6366 31.0081 15.6544 31.0081C15.69 31.0081 15.7197 30.9828 15.7316 30.9449C15.7375 30.9322 15.7435 30.9132 15.7435 30.8943C15.7553 30.85 15.7197 30.8121 15.6781 30.8121C15.6663 30.8184 15.6484 30.8184 15.6306 30.8184ZM17.2993 32.7976C17.2933 32.981 17.4121 33.1328 17.5665 33.1328C17.7209 33.1328 17.8456 32.9936 17.8515 32.8103C17.8575 32.6269 17.7387 32.4751 17.5843 32.4751C17.4299 32.4751 17.3052 32.6142 17.2993 32.7976ZM17.8872 31.6278C17.6853 31.3685 17.5724 30.8753 17.5724 30.3441C17.5724 29.7244 17.7446 29.364 17.9406 29.2122C18.0059 29.168 17.9644 29.1047 17.9169 29.1047C17.6971 29.1047 17.4477 29.6106 17.4477 30.3441C17.4477 31.0144 17.5902 31.5013 17.8278 31.691C17.8693 31.7226 17.9228 31.6721 17.8872 31.6278ZM18.7007 29.775C18.7007 30.0975 18.6294 30.4074 18.4988 30.635C18.481 30.6666 18.475 30.6856 18.4988 30.7046C18.5226 30.7172 18.5522 30.7046 18.576 30.673C18.861 30.3062 18.9442 29.4146 18.766 28.9783C18.7363 28.9024 18.6769 28.8392 18.6176 28.8392C18.5463 28.8392 18.5166 28.915 18.5463 28.972C18.6413 29.1743 18.7007 29.4525 18.7007 29.775ZM18.5226 29.775C18.5226 29.2439 18.3503 28.8455 18.1188 28.8455C18.0831 28.8455 18.0416 28.8581 18 28.8771C17.9525 28.9024 17.9584 28.9783 18.0119 28.9972C18.1722 29.0478 18.3266 29.2628 18.3266 29.8256C18.3266 29.9331 18.3147 30.401 18.1544 30.5085C18.1188 30.5338 18.1247 30.5907 18.1544 30.616C18.1781 30.6287 18.2019 30.6413 18.2256 30.6413C18.3444 30.6413 18.5226 30.2809 18.5226 29.775ZM18.2078 29.8256C18.2078 29.7624 18.1306 29.7371 18.1009 29.7877C18.0475 29.8762 18.0119 30.0153 18.0119 30.1608C18.0119 30.2809 18.0297 30.401 18.0831 30.401C18.1603 30.4074 18.2078 30.0659 18.2078 29.8256ZM18.2731 31.5898C18.6532 31.5898 19.1758 30.6287 19.1758 29.2944C19.1758 28.6937 18.9976 28.3333 18.7126 28.3333C18.2494 28.3333 17.0855 28.934 13.8729 28.934C12.1627 28.934 11.8658 28.8265 11.0641 28.8265C9.96556 28.8265 9.57957 29.56 9.57957 30.2303C9.57957 31.3432 10.3337 32.0072 11.0641 32.0072C11.7945 32.0072 12.1746 31.3369 12.1746 30.673C12.1746 30.0406 11.7589 29.6486 11.3789 29.6486C11.0463 29.6486 10.8325 29.8699 10.8325 30.205C10.8325 30.3505 10.886 30.5212 11.0226 30.5212C11.1829 30.5212 11.1829 30.224 11.0582 30.0343C11.3551 29.9458 11.5808 30.2493 11.5808 30.6034C11.5808 30.9638 11.3373 31.3053 10.9929 31.3053C10.5772 31.3053 10.1318 30.8753 10.1318 30.2366C10.1318 29.6739 10.4762 29.0794 11.367 29.0794C11.8242 29.0794 13.1069 29.1364 13.8907 29.1364C15.4881 29.1364 16.4323 29.0036 16.5867 29.0605C16.462 29.1427 15.9632 29.2186 15.4822 29.2692C15.4347 29.2755 15.4109 29.3387 15.4465 29.3766C15.4584 29.3893 15.4644 29.4019 15.4762 29.4146C15.5119 29.4589 15.5594 29.4778 15.6128 29.4778C15.8503 29.4652 16.1888 29.4589 16.2957 29.4968C16.2007 29.5727 15.9394 29.6169 15.7019 29.6549C15.6663 29.6612 15.6425 29.6991 15.6544 29.7371C15.6603 29.7561 15.6663 29.775 15.6722 29.794C15.6841 29.8319 15.7197 29.8572 15.7553 29.8572C16.0107 29.8383 16.2423 29.7624 16.3788 29.8003C16.652 29.8699 16.7055 30.1481 16.6104 30.4074C16.5629 30.5402 16.4442 30.7235 16.4026 30.9575C16.3907 31.0081 16.4145 31.0587 16.462 31.0776C16.5095 31.0966 16.557 31.065 16.5748 31.0018C16.6104 30.9006 16.6876 30.5149 16.9549 30.5149C17.0261 30.5149 17.0855 30.5402 17.133 30.5781C17.1864 30.6287 17.2696 30.5781 17.2696 30.5022C17.2696 30.458 17.2696 30.4137 17.2696 30.3694C17.2696 29.3577 17.709 28.6811 18.1247 28.6811H18.6354C18.8373 28.6811 19.0392 28.8771 19.0392 29.5664C19.0392 30.3125 18.7541 30.9322 18.5107 30.9322C18.3622 30.9322 18.19 30.9322 18.095 30.8627C17.9584 30.7678 17.8337 30.5275 17.8337 30.1924C17.8337 29.9584 17.9228 29.6359 18.1188 29.56C18.1603 29.5411 18.1781 29.4968 18.1722 29.4589C18.1663 29.4336 18.1603 29.4146 18.1544 29.3956C18.1366 29.345 18.0831 29.3197 18.0356 29.345C17.8515 29.4525 17.6971 29.8066 17.6971 30.3821C17.6912 30.8753 17.8397 31.5898 18.2731 31.5898ZM11.272 30.5338C11.2423 30.6097 11.1829 30.6603 11.0998 30.6856C11.0582 30.6982 11.0641 30.7678 11.1057 30.7741C11.2185 30.7868 11.3313 30.7362 11.3848 30.5907C11.4145 30.5085 11.4145 30.4074 11.3789 30.3252C11.361 30.2746 11.2957 30.2999 11.3017 30.3505C11.3076 30.4137 11.2957 30.4706 11.272 30.5338ZM11.0641 28.6305C11.8064 28.6305 12.1508 28.738 13.8729 28.738C17.1093 28.738 18.2019 28.1373 18.7126 28.1373C18.8551 28.1373 18.861 28.0108 18.7126 28.0108C18.2316 28.0108 17.1093 28.6115 13.8729 28.6115C12.1033 28.6115 11.9667 28.504 11.0641 28.504C10.8741 28.504 10.8266 28.6305 11.0641 28.6305ZM12.8872 33.607C12.5368 33.3983 12.4062 32.8925 12.4537 32.4562C12.4537 32.4372 12.4477 32.3866 12.4062 32.3803C12.3646 32.374 12.3349 32.3992 12.329 32.4435C12.2933 32.9747 12.4299 33.5122 12.8337 33.7208C12.8634 33.7335 12.899 33.7335 12.9169 33.6892C12.9347 33.6513 12.9109 33.6197 12.8872 33.607ZM13.2256 33.4679C13.2672 33.4553 13.2732 33.4047 13.2494 33.3667C13.2078 33.3161 13.1544 33.2276 13.1306 33.1011C13.1128 33 13.1128 32.8988 13.1366 32.8103C13.1484 32.766 13.1188 32.7281 13.0772 32.7281C12.9287 32.747 12.7922 32.9114 12.8337 33.1707C12.8753 33.3983 13.0713 33.5248 13.2256 33.4679ZM13.861 39.4941C13.861 39.4562 13.8313 39.4246 13.7957 39.4309C13.7838 39.4309 13.7779 39.4309 13.766 39.4372C13.7363 39.4435 13.7126 39.4688 13.7126 39.5004V39.589C13.7126 39.6269 13.7482 39.6585 13.7838 39.6522C13.7957 39.6522 13.8076 39.6459 13.8195 39.6459C13.8432 39.6396 13.867 39.6143 13.867 39.5827C13.861 39.5574 13.861 39.5257 13.861 39.4941ZM13.867 39.0831C13.867 39.0452 13.8373 39.0135 13.8017 39.0199C13.7957 39.0199 13.7838 39.0199 13.7779 39.0262C13.7482 39.0325 13.7245 39.0578 13.7245 39.0894V39.178C13.7245 39.2159 13.7601 39.2475 13.7957 39.2412C13.8076 39.2412 13.8135 39.2349 13.8254 39.2349C13.8492 39.2285 13.8729 39.2032 13.8729 39.1716L13.867 39.0831ZM13.8729 38.6721C13.8729 38.6341 13.8432 38.6088 13.8076 38.6152C13.7957 38.6152 13.7898 38.6215 13.7779 38.6215C13.7541 38.6278 13.7304 38.6468 13.7304 38.6784V38.7796C13.7304 38.8175 13.7601 38.8428 13.7957 38.8365C13.8076 38.8365 13.8195 38.8302 13.8313 38.8302C13.8551 38.8238 13.8729 38.7985 13.8729 38.7733V38.6721ZM13.8789 38.2611C13.8789 38.2231 13.8492 38.1978 13.8135 38.2041C13.8017 38.2041 13.7957 38.2105 13.7838 38.2105C13.7601 38.2168 13.7363 38.2358 13.7363 38.2674V38.3686C13.7363 38.4065 13.766 38.4318 13.8017 38.4255C13.8135 38.4255 13.8254 38.4191 13.8313 38.4191C13.8551 38.4128 13.8729 38.3875 13.8729 38.3622L13.8789 38.2611ZM13.8848 37.85C13.8848 37.8121 13.8551 37.7868 13.8195 37.7931C13.8135 37.7931 13.8017 37.7931 13.7957 37.7994C13.772 37.8058 13.7482 37.8247 13.7482 37.8564V37.9575C13.7482 37.9955 13.7779 38.0208 13.8135 38.0144C13.8254 38.0144 13.8313 38.0081 13.8432 38.0081C13.867 38.0018 13.8848 37.9765 13.8848 37.9512V37.85ZM13.8907 37.439C13.8907 37.4011 13.861 37.3758 13.8254 37.3821C13.8195 37.3821 13.8135 37.3821 13.8017 37.3884C13.7779 37.3947 13.7541 37.4137 13.7541 37.4453V37.5465C13.7541 37.5845 13.7838 37.6097 13.8195 37.6034C13.8313 37.6034 13.8373 37.5971 13.8432 37.5971C13.867 37.5908 13.8848 37.5655 13.8848 37.5402L13.8907 37.439ZM13.8967 37.028C13.8967 36.99 13.867 36.9648 13.8313 36.9711C13.8254 36.9711 13.8195 36.9711 13.8135 36.9774C13.7898 36.9837 13.766 37.009 13.766 37.0343V37.1355C13.766 37.1734 13.7957 37.1987 13.8313 37.1924C13.8373 37.1924 13.8492 37.1861 13.8551 37.1861C13.8789 37.1798 13.8967 37.1545 13.8967 37.1292V37.028ZM13.9026 36.6233C13.9026 36.5854 13.8729 36.5601 13.8373 36.5664C13.8313 36.5664 13.8254 36.5664 13.8195 36.5664C13.7957 36.5727 13.7779 36.5917 13.772 36.6233V36.7245C13.772 36.7624 13.8017 36.7877 13.8373 36.7814C13.8432 36.7814 13.8492 36.7814 13.8551 36.7751C13.8789 36.7687 13.8967 36.7434 13.8967 36.7181L13.9026 36.6233ZM13.9085 36.2123C13.9085 36.1743 13.8789 36.149 13.8432 36.1554C13.8373 36.1554 13.8313 36.1554 13.8313 36.1554C13.8076 36.1617 13.7898 36.1807 13.7838 36.2123V36.3134C13.7838 36.3514 13.8135 36.3767 13.8492 36.3704C13.8551 36.3704 13.861 36.3704 13.867 36.364C13.8907 36.3577 13.9085 36.3324 13.9085 36.3071V36.2123ZM13.9145 35.8012C13.9145 35.7633 13.8848 35.738 13.8492 35.7443C13.8135 35.7507 13.7957 35.776 13.7957 35.8012V35.9024C13.7957 35.9404 13.8254 35.972 13.861 35.9593C13.8967 35.953 13.9145 35.9277 13.9145 35.9024V35.8012ZM13.9204 35.3902C13.9204 35.3523 13.8907 35.327 13.8551 35.3333C13.8195 35.3396 13.8017 35.3649 13.8017 35.3902V35.4914C13.8017 35.5293 13.8373 35.561 13.867 35.5483C13.9026 35.542 13.9145 35.5167 13.9204 35.4914V35.3902ZM13.9264 34.9792C13.9264 34.9413 13.8967 34.916 13.861 34.9223C13.8254 34.9286 13.8135 34.9539 13.8135 34.9792V35.0804C13.8135 35.1183 13.8432 35.1436 13.8789 35.1373C13.9085 35.131 13.9264 35.1057 13.9264 35.0804V34.9792ZM13.9382 34.5682C13.9382 34.5302 13.9085 34.5049 13.8729 34.5113C13.8373 34.5176 13.8254 34.5366 13.8254 34.5682V34.6694C13.8254 34.7073 13.8551 34.7326 13.8907 34.7263C13.9204 34.7199 13.9323 34.6946 13.9323 34.6694L13.9382 34.5682ZM13.9442 34.1572C13.9442 34.1192 13.9145 34.0939 13.8848 34.1002C13.8492 34.1066 13.8432 34.1255 13.8432 34.1572V34.2583C13.8432 34.2963 13.8729 34.3216 13.9085 34.3152C13.9382 34.3089 13.9501 34.2836 13.9501 34.2583L13.9442 34.1572ZM14.8408 39.4372C14.8408 39.3866 14.7993 39.3424 14.7458 39.3487C14.7043 39.355 14.6627 39.355 14.6271 39.3613C14.5855 39.3613 14.5499 39.4056 14.5499 39.4499V39.4878C14.5499 39.5384 14.5914 39.5827 14.6389 39.5763C14.6805 39.5763 14.728 39.57 14.7696 39.5637C14.8112 39.5574 14.8408 39.5194 14.8408 39.4752V39.4372ZM14.8408 39.0325C14.8408 38.9819 14.7993 38.9377 14.7458 38.944C14.7043 38.9503 14.6686 38.9503 14.6271 38.9566C14.5855 38.9566 14.5499 39.0009 14.5499 39.0452V39.0831C14.5499 39.1337 14.5914 39.178 14.6389 39.1716C14.6805 39.1716 14.728 39.1653 14.7696 39.159C14.8112 39.1527 14.8408 39.1147 14.8408 39.0705V39.0325ZM14.8468 38.6215C14.8468 38.5709 14.8052 38.5266 14.7518 38.533C14.7102 38.5393 14.6746 38.5393 14.633 38.5456C14.5914 38.5456 14.5558 38.5899 14.5558 38.6341V38.6721C14.5558 38.7227 14.5974 38.7669 14.6449 38.7606C14.6865 38.7606 14.728 38.7543 14.7696 38.748C14.8112 38.7416 14.8408 38.7037 14.8408 38.6594L14.8468 38.6215ZM14.8468 38.2105C14.8468 38.1599 14.8052 38.1156 14.7518 38.1219C14.7161 38.1283 14.6746 38.1283 14.6389 38.1346C14.5974 38.1346 14.5617 38.1789 14.5617 38.2231V38.2611C14.5617 38.3116 14.6033 38.3559 14.6508 38.3496C14.6924 38.3496 14.734 38.3433 14.7755 38.3369C14.8171 38.3306 14.8468 38.2927 14.8468 38.2484V38.2105ZM14.8527 37.7994C14.8527 37.7489 14.8112 37.7046 14.7577 37.7109C14.7221 37.7172 14.6805 37.7172 14.6449 37.7236C14.6033 37.7236 14.5677 37.7678 14.5677 37.8121V37.85C14.5677 37.9006 14.6093 37.9449 14.6568 37.9386C14.6983 37.9386 14.7399 37.9322 14.7815 37.9259C14.823 37.9196 14.8527 37.8817 14.8527 37.8374V37.7994ZM14.8587 37.3884C14.8587 37.3378 14.8171 37.2936 14.7636 37.2999C14.728 37.3062 14.6865 37.3062 14.6508 37.3062C14.6093 37.3062 14.5736 37.3505 14.5736 37.3947V37.4327C14.5736 37.4833 14.6152 37.5275 14.6627 37.5212C14.7043 37.5212 14.7458 37.5149 14.7874 37.5086C14.829 37.5022 14.8587 37.4643 14.8587 37.42V37.3884ZM14.8587 36.9774C14.8587 36.9268 14.8171 36.8826 14.7636 36.8889C14.728 36.8952 14.6924 36.8952 14.6508 36.8952C14.6093 36.8952 14.5736 36.9395 14.5736 36.9837V37.0217C14.5736 37.0723 14.6152 37.1165 14.6627 37.1102C14.7043 37.1102 14.7458 37.1039 14.7815 37.0975C14.823 37.0912 14.8527 37.0533 14.8527 37.009L14.8587 36.9774ZM14.8646 36.5727C14.8646 36.5221 14.823 36.4779 14.7696 36.4842C14.734 36.4905 14.6983 36.4905 14.6627 36.4905C14.6211 36.4905 14.5855 36.5348 14.5855 36.579V36.617C14.5855 36.6676 14.6271 36.7118 14.6746 36.7055C14.7161 36.7055 14.7518 36.6992 14.7933 36.6928C14.8349 36.6865 14.8646 36.6486 14.8646 36.6043V36.5727ZM14.8705 36.1617C14.8705 36.1111 14.829 36.0668 14.7755 36.0732C14.7399 36.0795 14.7043 36.0795 14.6686 36.0795C14.6271 36.0795 14.5914 36.1237 14.5914 36.168V36.2059C14.5914 36.2565 14.633 36.3008 14.6805 36.2945C14.7221 36.2945 14.7577 36.2882 14.7993 36.2818C14.8408 36.2755 14.8705 36.2376 14.8705 36.1933V36.1617ZM14.8705 35.7507C14.8705 35.7001 14.829 35.6558 14.7755 35.6621C14.7399 35.6685 14.7043 35.6685 14.6686 35.6685C14.6271 35.6685 14.5914 35.7127 14.5914 35.757V35.7949C14.5914 35.8455 14.633 35.8898 14.6805 35.8835C14.7161 35.8835 14.7577 35.8771 14.7993 35.8708C14.8408 35.8645 14.8705 35.8265 14.8705 35.7823V35.7507ZM14.8765 35.3396C14.8765 35.2891 14.8349 35.2448 14.7815 35.2511C14.7458 35.2574 14.7102 35.2574 14.6746 35.2574C14.633 35.2574 14.5974 35.3017 14.5974 35.346V35.3839C14.5974 35.4345 14.6389 35.4788 14.6865 35.4724C14.7221 35.4724 14.7636 35.4661 14.7993 35.4598C14.8408 35.4535 14.8705 35.4155 14.8705 35.3713L14.8765 35.3396ZM14.8824 34.9286C14.8824 34.878 14.8408 34.8338 14.7874 34.8401C14.7518 34.8464 14.7161 34.8464 14.6865 34.8464C14.6449 34.8464 14.6093 34.8907 14.6093 34.9349V34.9729C14.6093 35.0235 14.6508 35.0677 14.6983 35.0614C14.734 35.0614 14.7755 35.0551 14.8112 35.0488C14.8527 35.0424 14.8824 35.0045 14.8824 34.9602V34.9286ZM14.8824 34.5176C14.8824 34.467 14.8408 34.4227 14.7874 34.4291C14.7518 34.4354 14.7161 34.4354 14.6865 34.4354C14.6449 34.4354 14.6093 34.4733 14.6093 34.5239V34.5682C14.6093 34.6188 14.6508 34.663 14.6983 34.6567C14.734 34.6567 14.7755 34.6504 14.8112 34.6441C14.8527 34.6377 14.8824 34.5998 14.8824 34.5555V34.5176ZM14.8884 34.1129C14.8884 34.056 14.8468 34.018 14.7933 34.0244C14.7577 34.0307 14.728 34.0307 14.6924 34.0307C14.6508 34.0307 14.6152 34.075 14.6152 34.1192V34.1572C14.6152 34.2077 14.6568 34.252 14.7043 34.2457C14.7399 34.2457 14.7755 34.2394 14.8112 34.233C14.8527 34.2267 14.8824 34.1888 14.8824 34.1445L14.8884 34.1129ZM16.1473 39.3929C16.1473 39.3424 16.1057 39.2981 16.0582 39.3044C15.9454 39.3171 15.8207 39.3171 15.7138 39.3107C15.6663 39.3044 15.6247 39.3487 15.6247 39.3993V39.4372C15.6247 39.4815 15.6603 39.5257 15.7019 39.5257C15.8207 39.5384 15.9513 39.5321 16.076 39.5194C16.1176 39.5131 16.1532 39.4752 16.1532 39.4309L16.1473 39.3929ZM16.1473 38.9819C16.1473 38.9313 16.1057 38.8871 16.0582 38.8934C15.9454 38.906 15.8266 38.906 15.7138 38.8997C15.6663 38.8934 15.6247 38.9377 15.6247 38.9883V39.0262C15.6247 39.0705 15.6603 39.1147 15.7019 39.1147C15.8207 39.1274 15.9513 39.121 16.076 39.1084C16.1176 39.1021 16.1532 39.0641 16.1532 39.0199L16.1473 38.9819ZM16.1473 38.5709C16.1473 38.5203 16.1057 38.4761 16.0582 38.4824C15.9454 38.495 15.8266 38.495 15.7138 38.4887C15.6663 38.4824 15.6247 38.5266 15.6247 38.5772V38.6152C15.6247 38.6594 15.6603 38.7037 15.7019 38.7037C15.8207 38.7163 15.9513 38.71 16.0701 38.6974C16.1116 38.691 16.1473 38.6531 16.1473 38.6088V38.5709ZM16.1473 38.1599C16.1473 38.1093 16.1057 38.065 16.0582 38.0714C15.9454 38.084 15.8266 38.084 15.7197 38.0777C15.6722 38.0714 15.6306 38.1156 15.6306 38.1662V38.2041C15.6306 38.2484 15.6663 38.2927 15.7078 38.2927C15.8266 38.3053 15.9572 38.299 16.076 38.2864C16.1176 38.28 16.1532 38.2421 16.1532 38.1978L16.1473 38.1599ZM16.1473 37.7489C16.1473 37.6983 16.1057 37.654 16.0582 37.6603C15.9454 37.673 15.8266 37.673 15.7197 37.6667C15.6722 37.6603 15.6306 37.7046 15.6306 37.7552V37.7931C15.6306 37.8374 15.6663 37.8817 15.7078 37.8817C15.8207 37.8943 15.9513 37.888 16.076 37.8753C16.1176 37.869 16.1532 37.8311 16.1532 37.7868L16.1473 37.7489ZM16.1473 37.3378C16.1473 37.2873 16.1057 37.243 16.0582 37.2493C15.9454 37.262 15.8325 37.262 15.7197 37.2556C15.6722 37.2493 15.6306 37.2936 15.6306 37.3442V37.3821C15.6306 37.4264 15.6663 37.4706 15.7078 37.4706C15.8207 37.477 15.9513 37.477 16.0701 37.4643C16.1116 37.458 16.1473 37.42 16.1473 37.3758V37.3378ZM16.1473 36.9331C16.1473 36.8826 16.1057 36.8383 16.0582 36.8446C15.9454 36.8573 15.8325 36.8573 15.7256 36.8509C15.6781 36.8446 15.6366 36.8889 15.6366 36.9395V36.9774C15.6366 37.0217 15.6722 37.0659 15.7138 37.0659C15.8266 37.0723 15.9572 37.0723 16.076 37.0596C16.1176 37.0533 16.1532 37.0153 16.1532 36.9711L16.1473 36.9331ZM16.1532 36.5221C16.1532 36.4715 16.1116 36.4273 16.0641 36.4336C15.9513 36.4462 15.8385 36.4462 15.7316 36.4399C15.6841 36.4336 15.6425 36.4779 15.6425 36.5284V36.5664C15.6425 36.6106 15.6781 36.6549 15.7197 36.6549C15.8325 36.6612 15.9632 36.6612 16.0819 36.6486C16.1235 36.6423 16.1591 36.6043 16.1591 36.5601L16.1532 36.5221ZM16.1532 36.1111C16.1532 36.0605 16.1116 36.0162 16.0641 36.0226C15.9572 36.0352 15.8385 36.0352 15.7375 36.0289C15.69 36.0226 15.6484 36.0668 15.6484 36.1174V36.1554C15.6484 36.1996 15.6841 36.2439 15.7256 36.2439C15.8385 36.2502 15.9632 36.2502 16.0819 36.2376C16.1235 36.2312 16.1591 36.1933 16.1591 36.149L16.1532 36.1111ZM16.1532 35.7001C16.1532 35.6495 16.1116 35.6052 16.0641 35.6115C15.9572 35.6242 15.8444 35.6242 15.7375 35.6179C15.69 35.6115 15.6484 35.6558 15.6484 35.7064V35.7443C15.6484 35.7886 15.6841 35.8329 15.7256 35.8329C15.8385 35.8392 15.9632 35.8392 16.0819 35.8265C16.1235 35.8202 16.1591 35.7823 16.1591 35.738L16.1532 35.7001ZM16.1532 35.289C16.1532 35.2385 16.1116 35.1942 16.0641 35.2005C15.9572 35.2132 15.8444 35.2132 15.7375 35.2068C15.69 35.2005 15.6484 35.2448 15.6484 35.2954V35.3333C15.6484 35.3776 15.6841 35.4218 15.7256 35.4218C15.8385 35.4282 15.9632 35.4282 16.076 35.4155C16.1176 35.4092 16.1532 35.3713 16.1532 35.327V35.289ZM16.1532 34.878C16.1532 34.8274 16.1116 34.7832 16.0641 34.7895C15.9572 34.8021 15.8444 34.8021 15.7375 34.7958C15.69 34.7895 15.6484 34.8338 15.6484 34.8844V34.9223C15.6484 34.9666 15.6841 35.0108 15.7256 35.0108C15.8385 35.0171 15.9632 35.0171 16.076 35.0045C16.1176 34.9982 16.1532 34.9602 16.1532 34.916V34.878ZM16.1532 34.4733C16.1532 34.4227 16.1116 34.3785 16.0641 34.3848C15.9572 34.3974 15.8444 34.3974 15.7435 34.3911C15.696 34.3848 15.6544 34.4291 15.6544 34.4797V34.5176C15.6544 34.5619 15.69 34.6061 15.7316 34.6061C15.8444 34.6124 15.9632 34.6124 16.0819 34.5998C16.1235 34.5935 16.1591 34.5555 16.1591 34.5113L16.1532 34.4733ZM16.1532 34.0623C16.1532 34.0117 16.1116 33.9675 16.0641 33.9738C15.9691 33.9801 15.8444 33.9801 15.7435 33.9738C15.696 33.9738 15.6544 34.0117 15.6544 34.0623V34.1002C15.6544 34.1445 15.69 34.1888 15.7316 34.1888C15.8385 34.1951 15.9632 34.1951 16.076 34.1825C16.1176 34.1761 16.1532 34.1382 16.1532 34.0939V34.0623ZM16.9786 34.1002C16.9786 34.1445 17.0142 34.1825 17.0558 34.1888C17.1686 34.2014 17.2933 34.2014 17.4002 34.1951C17.4418 34.1888 17.4774 34.1508 17.4774 34.1066V34.0686C17.4774 34.018 17.4359 33.9801 17.3883 33.9801C17.2874 33.9864 17.1627 33.9864 17.0677 33.9801C17.0202 33.9738 16.9786 34.018 16.9786 34.0686V34.1002ZM16.9786 34.5113C16.9786 34.5555 17.0142 34.5935 17.0558 34.5998C17.1686 34.6124 17.2933 34.6124 17.4062 34.6061C17.4477 34.5998 17.4834 34.5619 17.4834 34.5176V34.4797C17.4834 34.4291 17.4418 34.3848 17.3943 34.3911C17.2933 34.3974 17.1805 34.3974 17.0736 34.3848C17.0261 34.3785 16.9845 34.4227 16.9845 34.4733L16.9786 34.5113ZM16.9786 34.9223C16.9786 34.9666 17.0142 35.0045 17.0558 35.0108C17.1686 35.0235 17.2933 35.0235 17.4062 35.0171C17.4477 35.0108 17.4834 34.9729 17.4834 34.9286V34.8907C17.4834 34.8401 17.4418 34.7958 17.3943 34.8021C17.2874 34.8085 17.1805 34.8085 17.0677 34.7958C17.0202 34.7895 16.9786 34.8338 16.9786 34.8844V34.9223ZM16.9786 35.327C16.9786 35.3713 17.0083 35.4092 17.0558 35.4155C17.1686 35.4282 17.2993 35.4282 17.4062 35.4218C17.4477 35.4155 17.4834 35.3776 17.4834 35.3333V35.2954C17.4834 35.2448 17.4418 35.2005 17.3943 35.2068C17.2874 35.2132 17.1746 35.2132 17.0677 35.2005C17.0202 35.1942 16.9786 35.2385 16.9786 35.289V35.327ZM16.9786 35.738C16.9786 35.7823 17.0083 35.8202 17.0558 35.8265C17.1746 35.8392 17.2993 35.8392 17.4121 35.8329C17.4537 35.8265 17.4893 35.7886 17.4893 35.7443V35.7064C17.4893 35.6558 17.4477 35.6115 17.4002 35.6179C17.2933 35.6242 17.1805 35.6242 17.0736 35.6115C17.0261 35.6052 16.9845 35.6495 16.9845 35.7001L16.9786 35.738ZM16.9786 36.149C16.9786 36.1933 17.0083 36.2312 17.0558 36.2376C17.1746 36.2502 17.2993 36.2502 17.4121 36.2439C17.4537 36.2376 17.4893 36.1996 17.4893 36.1554V36.1174C17.4893 36.0668 17.4477 36.0226 17.4002 36.0289C17.2933 36.0352 17.1805 36.0352 17.0736 36.0226C17.0261 36.0162 16.9845 36.0605 16.9845 36.1111L16.9786 36.149ZM16.9786 36.5601C16.9786 36.6043 17.0083 36.6423 17.0558 36.6486C17.1746 36.6612 17.2993 36.6612 17.418 36.6549C17.4596 36.6486 17.4952 36.6106 17.4952 36.5664V36.5284C17.4952 36.4779 17.4537 36.4336 17.4062 36.4399C17.2993 36.4462 17.1864 36.4462 17.0736 36.4336C17.0261 36.4273 16.9845 36.4715 16.9845 36.5221L16.9786 36.5601ZM16.9786 36.9711C16.9786 37.0153 17.0083 37.0533 17.0558 37.0596C17.1746 37.0723 17.3052 37.0723 17.418 37.0659C17.4596 37.0596 17.4952 37.0217 17.4952 36.9774V36.9395C17.4952 36.8889 17.4537 36.8446 17.4062 36.8509C17.2993 36.8573 17.1805 36.8573 17.0736 36.8446C17.0261 36.8383 16.9845 36.8826 16.9845 36.9331L16.9786 36.9711ZM16.9786 37.3821C16.9786 37.4264 17.0083 37.4643 17.0558 37.4706C17.1746 37.4833 17.3052 37.4833 17.418 37.477C17.4596 37.4706 17.4952 37.4327 17.4952 37.3884V37.3505C17.4952 37.2999 17.4537 37.2556 17.4062 37.262C17.2993 37.2683 17.1805 37.2683 17.0677 37.2556C17.0202 37.2493 16.9786 37.2936 16.9786 37.3442V37.3821ZM16.9845 37.7868C16.9845 37.8311 17.0142 37.869 17.0617 37.8753C17.1805 37.888 17.3112 37.888 17.4299 37.8817C17.4715 37.8753 17.5071 37.8374 17.5071 37.7931V37.7552C17.5071 37.7046 17.4655 37.6603 17.418 37.6667C17.3112 37.673 17.1924 37.673 17.0796 37.6603C17.0321 37.654 16.9905 37.6983 16.9905 37.7489L16.9845 37.7868ZM16.9845 38.1978C16.9845 38.2421 17.0142 38.28 17.0617 38.2864C17.1805 38.299 17.3112 38.299 17.4299 38.2927C17.4715 38.2864 17.5071 38.2484 17.5071 38.2041V38.1662C17.5071 38.1156 17.4655 38.0714 17.418 38.0777C17.3112 38.084 17.1924 38.084 17.0796 38.0714C17.0321 38.065 16.9905 38.1093 16.9905 38.1599L16.9845 38.1978ZM16.9845 38.6088C16.9845 38.6531 17.0142 38.691 17.0617 38.6974C17.1805 38.71 17.3171 38.71 17.4299 38.7037C17.4715 38.6974 17.5071 38.6594 17.5071 38.6152V38.5772C17.5071 38.5266 17.4655 38.4824 17.418 38.4887C17.3112 38.495 17.1864 38.495 17.0736 38.4824C17.0261 38.4761 16.9845 38.5203 16.9845 38.5709V38.6088ZM16.9845 39.0199C16.9845 39.0641 17.0142 39.1021 17.0617 39.1084C17.1864 39.121 17.3171 39.121 17.4359 39.1147C17.4774 39.1084 17.5131 39.0705 17.5131 39.0262V38.9883C17.5131 38.9377 17.4715 38.8934 17.424 38.8997C17.3112 38.906 17.1924 38.906 17.0796 38.8934C17.0321 38.8871 16.9905 38.9313 16.9905 38.9819L16.9845 39.0199ZM17.5131 39.4309V39.3929C17.5131 39.3424 17.4715 39.2981 17.424 39.3044C17.3112 39.3107 17.1924 39.3107 17.0796 39.2981C17.0321 39.2918 16.9905 39.336 16.9905 39.3866V39.4246C16.9905 39.4688 17.0202 39.5068 17.0677 39.5131C17.1924 39.5257 17.323 39.5257 17.4418 39.5194C17.4774 39.5194 17.5131 39.4815 17.5131 39.4309ZM18.2435 34.1508C18.2435 34.1951 18.2731 34.233 18.3147 34.2394C18.3503 34.2457 18.386 34.2457 18.4216 34.252C18.4691 34.2583 18.5107 34.2141 18.5107 34.1635V34.1255C18.5107 34.0813 18.475 34.037 18.4335 34.037C18.3978 34.037 18.3682 34.0307 18.3325 34.0307C18.285 34.0244 18.2375 34.0686 18.2375 34.1192L18.2435 34.1508ZM18.2494 34.5619C18.2494 34.6061 18.2791 34.6441 18.3207 34.6504C18.3563 34.6567 18.3978 34.663 18.4335 34.663C18.481 34.663 18.5226 34.6251 18.5226 34.5745V34.5302C18.5226 34.486 18.4869 34.448 18.4454 34.4417C18.4097 34.4417 18.3741 34.4354 18.3444 34.4354C18.2969 34.4291 18.2494 34.4733 18.2494 34.5239V34.5619ZM18.2494 34.9666C18.2494 35.0108 18.2791 35.0488 18.3207 35.0551C18.3563 35.0614 18.3978 35.0677 18.4335 35.0677C18.481 35.0677 18.5226 35.0298 18.5226 34.9792V34.9413C18.5226 34.897 18.4869 34.8527 18.4454 34.8527C18.4097 34.8527 18.3741 34.8464 18.3444 34.8464C18.2969 34.8401 18.2494 34.8843 18.2494 34.9349V34.9666ZM18.2553 35.3776C18.2553 35.4218 18.285 35.4598 18.3266 35.4661C18.3622 35.4724 18.4038 35.4788 18.4394 35.4788C18.4869 35.4788 18.5285 35.4408 18.5285 35.3902V35.3523C18.5285 35.308 18.4929 35.2638 18.4513 35.2638C18.4157 35.2638 18.38 35.2574 18.3444 35.2574C18.2969 35.2511 18.2494 35.2954 18.2494 35.346L18.2553 35.3776ZM18.2613 35.7886C18.2613 35.8329 18.291 35.8708 18.3325 35.8771C18.3741 35.8835 18.4097 35.8898 18.4513 35.8898C18.4988 35.8898 18.5404 35.8518 18.5404 35.8012V35.7633C18.5404 35.719 18.5047 35.6748 18.4632 35.6748C18.4275 35.6748 18.3919 35.6685 18.3563 35.6685C18.3088 35.6621 18.2613 35.7064 18.2613 35.757V35.7886ZM18.2613 36.1996C18.2613 36.2439 18.291 36.2818 18.3325 36.2882C18.3741 36.2945 18.4097 36.3008 18.4513 36.3008C18.4988 36.3008 18.5404 36.2629 18.5404 36.2123V36.1743C18.5404 36.1301 18.5047 36.0858 18.4632 36.0858C18.4275 36.0858 18.3919 36.0795 18.3563 36.0795C18.3088 36.0732 18.2613 36.1174 18.2613 36.168V36.1996ZM18.2672 36.6106C18.2672 36.6549 18.2969 36.6928 18.3385 36.6992C18.38 36.7055 18.4157 36.7118 18.4572 36.7118C18.5047 36.7118 18.5463 36.6739 18.5463 36.6233V36.5854C18.5463 36.5411 18.5107 36.4968 18.4691 36.4968C18.4335 36.4968 18.3978 36.4905 18.3622 36.4905C18.3147 36.4842 18.2672 36.5284 18.2672 36.579V36.6106ZM18.2731 37.0217C18.2731 37.0659 18.3028 37.1039 18.3444 37.1102C18.386 37.1165 18.4275 37.1228 18.4632 37.1228C18.5107 37.1228 18.5522 37.0849 18.5522 37.0343V36.9964C18.5522 36.9521 18.5166 36.9078 18.475 36.9078C18.4394 36.9078 18.4038 36.9015 18.3622 36.9015C18.3147 36.8952 18.2672 36.9395 18.2672 36.99L18.2731 37.0217ZM18.2731 37.4264C18.2731 37.4706 18.3028 37.5086 18.3444 37.5149C18.386 37.5212 18.4275 37.5275 18.4691 37.5275C18.5166 37.5275 18.5582 37.4896 18.5582 37.439V37.4011C18.5582 37.3568 18.5226 37.3125 18.481 37.3125C18.4454 37.3125 18.4038 37.3062 18.3682 37.3062C18.3207 37.2999 18.2731 37.3442 18.2731 37.3947V37.4264ZM18.2791 37.8374C18.2791 37.8817 18.3088 37.9196 18.3503 37.9259C18.3919 37.9322 18.4335 37.9386 18.475 37.9386C18.5226 37.9386 18.5641 37.9006 18.5641 37.85V37.8121C18.5641 37.7678 18.5285 37.7236 18.4869 37.7236C18.4513 37.7236 18.4097 37.7172 18.3741 37.7109C18.3266 37.7046 18.2791 37.7489 18.2791 37.7994V37.8374ZM18.2791 38.2484C18.2791 38.2927 18.3088 38.3306 18.3503 38.3369C18.3919 38.3433 18.4335 38.3496 18.475 38.3496C18.5226 38.3496 18.5641 38.3116 18.5641 38.2611V38.2231C18.5641 38.1789 18.5285 38.1346 18.4869 38.1346C18.4513 38.1346 18.4097 38.1283 18.3741 38.1219C18.3266 38.1156 18.2791 38.1599 18.2791 38.2105V38.2484ZM18.285 38.6594C18.285 38.7037 18.3147 38.7416 18.3563 38.748C18.3978 38.7543 18.4394 38.7606 18.481 38.7606C18.5285 38.7606 18.5701 38.7227 18.5701 38.6721V38.6341C18.5701 38.5899 18.5344 38.5456 18.4929 38.5456C18.4513 38.5456 18.4157 38.5393 18.3741 38.533C18.3266 38.5266 18.2791 38.5709 18.2791 38.6215L18.285 38.6594ZM18.291 39.0705C18.291 39.1147 18.3207 39.1527 18.3622 39.159C18.4038 39.1653 18.4513 39.1716 18.4929 39.1716C18.5404 39.1716 18.5819 39.1337 18.5819 39.0831V39.0452C18.5819 39.0009 18.5463 38.9566 18.5047 38.9566C18.4632 38.9566 18.4275 38.9503 18.386 38.944C18.3385 38.9377 18.291 38.9819 18.291 39.0325V39.0705ZM18.5879 39.4878V39.4499C18.5879 39.4056 18.5522 39.3613 18.5107 39.3613C18.4691 39.3613 18.4335 39.355 18.3919 39.3487C18.3444 39.3424 18.2969 39.3866 18.2969 39.4372V39.4752C18.2969 39.5194 18.3266 39.5574 18.3682 39.5637C18.4097 39.57 18.4572 39.5763 18.4988 39.5763C18.5463 39.5827 18.5879 39.5384 18.5879 39.4878ZM19.1936 34.2583C19.1936 34.2836 19.2054 34.3089 19.2351 34.3152C19.2648 34.3216 19.3005 34.2963 19.3005 34.2583V34.1572C19.3005 34.1319 19.2886 34.1066 19.2589 34.1002C19.2233 34.0939 19.1936 34.1192 19.1995 34.1572L19.1936 34.2583ZM19.1995 34.6694C19.1995 34.6946 19.2173 34.7199 19.2411 34.7263C19.2767 34.7326 19.3064 34.7073 19.3064 34.6694V34.5682C19.3064 34.5429 19.2945 34.5176 19.2589 34.5113C19.2233 34.5049 19.1936 34.5302 19.1936 34.5682L19.1995 34.6694ZM19.2054 35.0804C19.2054 35.1057 19.2233 35.131 19.253 35.1373C19.2886 35.1436 19.3183 35.1183 19.3183 35.0804V34.9792C19.3183 34.9539 19.3005 34.9286 19.2708 34.9223C19.2411 34.916 19.2054 34.9413 19.2054 34.9792V35.0804ZM19.2114 35.4914C19.2114 35.5167 19.2292 35.542 19.2648 35.5483C19.3005 35.5546 19.3302 35.5293 19.3302 35.4914V35.3902C19.3302 35.3649 19.3123 35.3396 19.2767 35.3333C19.2411 35.327 19.2114 35.3523 19.2114 35.3902V35.4914ZM19.2173 35.9024C19.2173 35.9277 19.2351 35.953 19.2708 35.9593C19.3064 35.9657 19.3361 35.9404 19.3361 35.9024V35.8012C19.3361 35.776 19.3123 35.7507 19.2826 35.7443C19.247 35.738 19.2173 35.7633 19.2173 35.8012V35.9024ZM19.2233 36.3071C19.2233 36.3324 19.2411 36.3577 19.2648 36.364C19.2708 36.364 19.2767 36.364 19.2826 36.3704C19.3183 36.3767 19.348 36.3514 19.348 36.3134V36.2123C19.348 36.187 19.3302 36.1617 19.3005 36.1554C19.2945 36.1554 19.2886 36.1554 19.2886 36.1554C19.253 36.149 19.2233 36.1743 19.2233 36.2123V36.3071ZM19.2292 36.7181C19.2292 36.7434 19.247 36.7687 19.2708 36.7751C19.2767 36.7751 19.2826 36.7814 19.2886 36.7814C19.3242 36.7877 19.3539 36.7624 19.3539 36.7245V36.6233C19.3539 36.598 19.3361 36.5727 19.3064 36.5664C19.3005 36.5664 19.2945 36.5664 19.2886 36.5664C19.253 36.5601 19.2233 36.5854 19.2233 36.6233L19.2292 36.7181ZM19.2351 37.1292C19.2351 37.1545 19.253 37.1798 19.2767 37.1861C19.2826 37.1861 19.2945 37.1924 19.3005 37.1924C19.3361 37.1987 19.3658 37.1734 19.3658 37.1355V37.0343C19.3658 37.009 19.348 36.9837 19.3183 36.9774C19.3123 36.9774 19.3064 36.9774 19.3005 36.9711C19.2648 36.9648 19.2351 36.99 19.2351 37.028V37.1292ZM19.2411 37.5402C19.2411 37.5655 19.2589 37.5908 19.2826 37.5971C19.2886 37.5971 19.3005 37.6034 19.3064 37.6034C19.342 37.6097 19.3717 37.5845 19.3717 37.5465V37.4453C19.3717 37.42 19.3539 37.3947 19.3242 37.3884C19.3183 37.3884 19.3123 37.3884 19.3005 37.3821C19.2648 37.3758 19.2351 37.4011 19.2351 37.439L19.2411 37.5402ZM19.247 37.9512C19.247 37.9765 19.2648 38.0018 19.2886 38.0081C19.3005 38.0081 19.3064 38.0144 19.3183 38.0144C19.3539 38.0208 19.3836 37.9955 19.3836 37.9575V37.8564C19.3836 37.8247 19.3598 37.8058 19.3361 37.7994C19.3302 37.7994 19.3183 37.7994 19.3123 37.7931C19.2767 37.7868 19.247 37.8121 19.247 37.85V37.9512ZM19.253 38.3559C19.253 38.3812 19.2708 38.4065 19.2945 38.4128C19.3064 38.4128 19.3183 38.4191 19.3242 38.4191C19.3598 38.4255 19.3895 38.4002 19.3895 38.3622V38.2611C19.3895 38.2294 19.3658 38.2105 19.342 38.2041C19.3302 38.2041 19.3242 38.2041 19.3123 38.1978C19.2767 38.1915 19.247 38.2168 19.247 38.2547L19.253 38.3559ZM19.2589 38.7669C19.2589 38.7922 19.2767 38.8175 19.3005 38.8238C19.3123 38.8238 19.3242 38.8302 19.3361 38.8302C19.3717 38.8365 19.4014 38.8112 19.4014 38.7733V38.6721C19.4014 38.6405 19.3777 38.6215 19.3539 38.6152C19.342 38.6152 19.3361 38.6088 19.3242 38.6088C19.2886 38.6025 19.2589 38.6278 19.2589 38.6658V38.7669ZM19.2648 39.178C19.2648 39.2096 19.2826 39.2349 19.3123 39.2412C19.3242 39.2412 19.3302 39.2475 19.342 39.2475C19.3777 39.2538 19.4133 39.2222 19.4133 39.1843V39.0957C19.4133 39.0641 19.3895 39.0388 19.3598 39.0325C19.3539 39.0325 19.342 39.0325 19.3361 39.0262C19.3005 39.0199 19.2648 39.0515 19.2708 39.0894L19.2648 39.178ZM19.4192 39.589V39.5004C19.4192 39.4688 19.3955 39.4435 19.3658 39.4372C19.3539 39.4372 19.348 39.4372 19.3361 39.4309C19.3005 39.4246 19.2648 39.4562 19.2708 39.4941C19.2708 39.5257 19.2708 39.5574 19.2708 39.5827C19.2708 39.6143 19.2886 39.6332 19.3183 39.6459C19.3302 39.6459 19.342 39.6522 19.3539 39.6522C19.3836 39.6585 19.4192 39.6269 19.4192 39.589ZM20.0487 33.803C20.0427 33.7525 20.0071 33.7208 19.9715 33.7082C19.6983 33.588 18.7541 33.4489 17.329 33.411C17.0914 33.4047 16.7292 33.3983 16.4798 33.3035C16.6223 33.2656 16.842 33.2466 17.0974 33.2403C17.1627 33.2403 17.2458 33.2213 17.2102 33.1328C17.1746 33.0379 17.0617 33.0253 17.0142 33.0253C16.5214 33.0063 14.9655 33.0316 14.1876 33.1454C14.1461 33.1517 14.0629 33.1707 14.0451 33.2339C14.0273 33.2972 14.0926 33.3225 14.152 33.3225C14.4014 33.3035 14.7518 33.3035 14.9418 33.3478C14.7458 33.4363 14.2173 33.4995 13.9857 33.5311C13.5522 33.588 13.3028 33.6513 13.1841 33.6955C13.1366 33.7145 13.0891 33.7461 13.0891 33.803C13.0891 33.86 13.1366 33.841 13.1722 33.8347C13.3385 33.7841 14.253 33.5817 16.5689 33.5817C18.8848 33.5817 19.8052 33.7904 19.9715 33.841C20.0012 33.8473 20.0487 33.8536 20.0487 33.803ZM19.1876 33.2656C19.1401 33.3351 19.2233 33.3541 19.2708 33.3604C19.5855 33.4047 19.7933 33.4489 19.9359 33.4932C19.9596 33.4995 20.013 33.5248 20.013 33.4742C20.013 33.4236 19.9715 33.3857 19.9359 33.3667C19.8349 33.3161 19.6389 33.2656 19.3539 33.215C19.3183 33.2086 19.2351 33.196 19.1876 33.2656ZM19.3005 32.7344C19.3183 32.8039 19.3777 32.8229 19.4133 32.8292C19.4964 32.8482 19.5736 32.8609 19.6389 32.8798C19.6746 32.8861 19.734 32.8925 19.7636 32.8356C19.7874 32.7787 19.7399 32.747 19.6924 32.7344C19.6152 32.7154 19.5083 32.6901 19.3895 32.6648C19.348 32.6522 19.2886 32.6585 19.3005 32.7344ZM20.3337 32.5067C20.31 32.4751 20.2625 32.4815 20.2506 32.4941C20.0606 32.6395 19.9537 32.7913 19.8587 33.0632C19.8468 33.1011 19.8646 33.1391 19.9002 33.1581C19.9359 33.1707 19.9715 33.1517 19.9834 33.1201C20.0665 32.9051 20.1734 32.7407 20.3278 32.6016C20.3515 32.57 20.3575 32.532 20.3337 32.5067ZM19.342 32.1969C20.1437 32.14 20.6603 32.4435 21.0938 32.4435C21.4263 32.4435 22.0499 32.0325 22.0499 30.4643C22.0499 28.7127 21.456 27.4417 20.6425 27.4417C20.5534 27.4417 20.4465 27.4543 20.3812 27.467C20.3397 27.4733 20.3218 27.5239 20.3397 27.5618C20.3812 27.6314 20.4228 27.7136 20.3515 27.7958C20.2921 27.8654 20.1734 27.8843 20.0309 27.8401C19.9834 27.8274 19.9359 27.8527 19.9596 27.9349C19.9715 27.9728 19.9952 27.9918 20.0249 27.9981C20.3575 28.0487 20.6603 28.0424 20.9869 27.9792C21.0344 27.9665 21.0522 27.9033 21.0107 27.8717C20.9988 27.859 20.9869 27.8527 20.975 27.8401C20.9513 27.8211 20.9216 27.8211 20.8978 27.8274C20.7613 27.878 20.595 27.8843 20.5 27.878C20.5475 27.7831 20.5534 27.6756 20.5059 27.5934C20.6841 27.5429 20.9275 27.5934 21.1651 27.8464C21.5154 28.2195 21.8836 29.13 21.8836 30.4643C21.8836 31.5835 21.4857 32.2665 21.0997 32.2665C20.69 32.2665 20.2328 32.0009 19.4608 32.0262C19.4014 32.0262 19.2648 32.0515 19.2233 32.1147C19.1817 32.1779 19.2648 32.2032 19.342 32.1969ZM21.2423 32.6522C21.2244 32.6332 21.1829 32.6142 21.1473 32.6395C21.1176 32.6585 21.1116 32.7091 21.1354 32.7407C21.2007 32.8292 21.2898 32.9051 21.3848 32.9557C21.4442 32.9873 21.5214 33.0126 21.6104 33.0189C21.652 33.0253 21.6817 32.9873 21.6876 32.9494C21.6936 32.8925 21.6401 32.8672 21.6223 32.8672C21.4739 32.8482 21.3373 32.7723 21.2423 32.6522ZM22.2933 33.411C22.2755 33.3731 22.228 33.3731 22.2102 33.3794C22.0558 33.4426 21.8895 33.4742 21.7351 33.4742C21.5689 33.4742 21.4026 33.4363 21.2482 33.3667C20.9572 33.2339 20.7316 32.9936 20.6069 32.6964C20.5891 32.6585 20.5534 32.6522 20.5237 32.6712C20.494 32.6901 20.4881 32.7217 20.5 32.747C20.6484 33.1201 20.9454 33.411 21.3076 33.5438C21.6164 33.6576 21.9489 33.6386 22.2636 33.5058C22.2993 33.4932 22.3052 33.4489 22.2933 33.411ZM22.3765 29.0794C22.2874 29.0605 22.2161 29.1427 22.2339 29.2375C22.2399 29.2628 22.2458 29.2944 22.2458 29.3261C22.2577 29.4019 22.3171 29.4589 22.3883 29.4715C23.4632 29.6422 24.1401 30.4643 24.1401 31.6404C24.1401 32.3487 23.7244 33.1075 23.0534 33.1075C22.6081 33.1075 22.1389 32.7534 22.0024 32.0831C21.9905 32.0262 21.9311 32.0135 21.8955 32.0641C21.8658 32.1084 21.8658 32.1653 21.8658 32.2032C21.8895 32.3613 21.937 32.5131 22.0261 32.7281C21.9311 32.6775 21.842 32.5384 21.7708 32.4119C21.7411 32.3613 21.6817 32.355 21.6401 32.3929C21.5986 32.4309 21.6104 32.4815 21.6282 32.5194C21.9786 33.1581 22.5606 33.3731 22.9762 33.3731C23.8195 33.3731 24.3183 32.5004 24.3183 31.6594C24.3242 30.2113 23.3919 29.2755 22.3765 29.0794ZM22.2933 31.6847C22.2933 32.2981 22.6259 32.766 23.0653 32.766C23.6057 32.766 23.8551 32.1147 23.8551 31.5709C23.8551 30.5022 23.1722 29.99 22.4834 29.8383C22.4002 29.8193 22.323 29.8888 22.329 29.9774C22.329 30.0153 22.3349 30.0469 22.3349 30.0849C22.3408 30.1544 22.3943 30.2113 22.4596 30.2113C22.994 30.1924 23.6888 30.6287 23.6888 31.5519C23.6888 32.0388 23.475 32.5637 23.0594 32.5637C22.7268 32.5637 22.4655 32.1716 22.4655 31.6468C22.4655 31.2421 22.6674 31.0018 22.8515 30.9702C23.0415 30.9385 23.1603 31.1472 23.1781 31.28C23.1247 31.3749 23.0772 31.5076 23.0772 31.6088C23.0772 31.7353 23.1425 31.7922 23.2078 31.7922C23.2969 31.7922 23.3919 31.6847 23.3919 31.4381C23.3919 31.0903 23.2375 30.7362 22.905 30.7362C22.5665 30.7425 22.2933 31.1662 22.2933 31.6847ZM22.3468 30.5212C22.3646 30.5655 22.418 30.5844 22.4596 30.5591C22.5071 30.5275 22.5546 30.5022 22.6081 30.4832C22.6556 30.4643 22.6437 30.3947 22.5962 30.3947C22.5368 30.3884 22.4715 30.3947 22.4002 30.4074C22.3646 30.4137 22.329 30.4643 22.3468 30.5212ZM22.9584 31.3369C22.9703 31.3053 22.9465 31.2674 22.9109 31.2674C22.8278 31.2674 22.7387 31.4128 22.7387 31.6404C22.7387 32.1273 23.0475 32.2728 23.19 32.1906C23.2316 32.1653 23.2256 32.0957 23.1781 32.0894C22.9644 32.0325 22.8456 31.6847 22.9584 31.3369ZM22.9465 28.4345C22.7862 28.3712 22.519 28.308 22.3111 28.2511C22.1805 28.2195 22.038 28.1815 21.8895 28.1436C21.848 28.1309 21.7886 28.1373 21.8064 28.1878C21.8242 28.2384 21.8777 28.2637 21.9311 28.2764C21.9905 28.289 22.329 28.3775 22.4062 28.3965C22.5546 28.4345 22.6615 28.4724 22.6912 28.542C22.7031 28.5673 22.7268 28.5736 22.7506 28.5736C22.8159 28.5673 22.8693 28.5673 22.9168 28.5483C22.994 28.5293 23 28.4534 22.9465 28.4345ZM22.9347 27.7831C22.9347 27.8274 22.9703 27.859 22.994 27.8654C23.0475 27.8906 23.0891 27.897 23.1069 27.878C23.1366 27.8464 23.0712 27.7705 23 27.7452C22.9762 27.7389 22.9347 27.7389 22.9347 27.7831ZM22.9703 28.2384C23.0119 28.2574 23.0534 28.2701 23.0891 28.289C23.1069 28.3017 23.1425 28.2953 23.1544 28.2511C23.1603 28.2195 23.1484 28.1942 23.1306 28.1815C23.1069 28.1626 23.0712 28.1436 23.0237 28.1246C22.994 28.112 22.9525 28.112 22.9406 28.1499C22.9168 28.2068 22.9406 28.2321 22.9703 28.2384ZM22.5843 28.0614C22.5843 28.0108 22.5249 27.9792 22.4952 27.9729C22.4477 27.9602 21.9014 27.8337 21.6698 27.7705C21.6223 27.7579 21.557 27.7579 21.5867 27.8148C21.6164 27.8654 21.7114 27.9033 21.747 27.9159C21.9073 27.9602 22.2874 28.0551 22.4774 28.1056C22.5309 28.112 22.5843 28.112 22.5843 28.0614ZM20.69 26.8789C20.6663 26.8536 20.6187 26.8599 20.6069 26.8852C20.5891 26.9105 20.595 26.9421 20.6128 26.9611C21.0404 27.3721 21.8242 27.5555 22.4002 27.6883C22.4418 27.7009 22.4834 27.7073 22.5249 27.7199C22.5546 27.7262 22.5843 27.7136 22.5843 27.6756C22.5843 27.6377 22.5546 27.6187 22.5309 27.6124C22.4774 27.5998 22.4358 27.5871 22.3824 27.5745C21.7886 27.4354 21.0701 27.2646 20.69 26.8789ZM20.69 25.7976C20.6722 25.7913 20.6425 25.7786 20.6128 25.7723C20.5712 25.7597 20.5356 25.7976 20.5356 25.8419C20.5356 25.8671 20.5416 25.8861 20.5416 25.9051C20.5475 25.943 20.5712 25.9746 20.6069 25.981C20.6247 25.9873 20.6484 25.9936 20.6663 25.9999C20.7019 26.0126 20.7435 25.981 20.7435 25.9367C20.7435 25.9177 20.7435 25.8988 20.7435 25.8735C20.7435 25.8419 20.7197 25.8102 20.69 25.7976ZM20.5 25.5004C20.5 25.5194 20.5059 25.5383 20.5059 25.551C20.5119 25.5889 20.5356 25.6205 20.5712 25.6269C20.595 25.6332 20.6128 25.6395 20.6306 25.6395C20.6781 25.6522 20.7197 25.6016 20.6959 25.551C20.6722 25.4941 20.6306 25.4498 20.5712 25.4245C20.5356 25.4182 20.4881 25.4561 20.5 25.5004ZM20.2506 26.2529C18.9026 26.2529 17.3408 27.056 12.5546 27.056C12.1508 27.056 10.4525 27.0243 10.1259 27.0243C10.0131 27.0243 9.90617 27.037 9.82304 27.0496C9.73396 27.0686 9.69833 27.1761 9.8171 27.2267C9.87054 27.2457 9.93586 27.2583 10.0071 27.271C10.0368 27.2773 10.0665 27.2646 10.0843 27.2393C10.1615 27.1571 10.3456 27.1635 10.6009 27.1635C11.0107 27.1635 12.1924 27.1951 12.5546 27.1951C17.2815 27.1951 18.9264 26.4236 20.0249 26.4236C20.1259 26.4236 20.3693 26.4363 20.3693 26.588C20.3693 26.7145 20.1734 26.803 20.2446 27.2204C20.2506 27.2583 20.2862 27.2899 20.3278 27.2836C20.3693 27.2773 20.3931 27.233 20.3872 27.1887C20.3278 26.822 20.7197 26.607 20.7197 26.4046C20.7078 26.2782 20.4228 26.2529 20.2506 26.2529ZM12.1508 26.2402C11.7767 26.2402 10.6663 26.2149 10.2565 26.2086C10.209 26.2086 10.1734 26.2402 10.1734 26.2971C10.1734 26.3541 10.209 26.392 10.2565 26.392C10.7732 26.392 11.848 26.4236 12.5368 26.4236C16.9133 26.4236 18.9026 25.6964 19.9596 25.6205C20.0071 25.6142 20.1081 25.6016 20.1081 25.5067C20.1081 25.4119 20.013 25.4119 19.9655 25.4182C18.5582 25.6142 16.6461 26.2402 12.1508 26.2402ZM13.0594 16.6223L13.0831 16.6982C13.1009 16.7551 13.1663 16.7741 13.2138 16.7425L19.3895 12.139C19.4549 12.0884 19.4252 11.9746 19.342 11.9746C19.2826 11.9746 19.2589 11.9746 19.2233 11.9746C19.1876 11.9746 19.152 11.9936 19.1164 12.0189C19.0807 12.0441 13.6829 16.0785 13.1009 16.5211C13.0594 16.5464 13.0475 16.5844 13.0594 16.6223ZM13.0891 16.3694L18.6651 12.2022C18.7126 12.1643 18.6769 12.0884 18.6235 12.1074C18.3325 12.2086 18.0416 12.3603 17.7565 12.569L12.9703 16.1481C12.9406 16.1733 12.9287 16.2113 12.9406 16.2492L12.9644 16.3251C12.9822 16.382 13.0475 16.401 13.0891 16.3694ZM13.1841 17.008L13.2078 17.0839C13.2256 17.1408 13.291 17.1598 13.3385 17.1282L19.9359 12.2086C19.9952 12.1643 19.9774 12.0694 19.9121 12.0505C19.8765 12.0378 19.8765 12.0378 19.8408 12.0315C19.7993 12.0189 19.7518 12.0252 19.7043 12.0631L13.2138 16.9069C13.1841 16.9258 13.1722 16.9701 13.1841 17.008ZM20.9335 14.8391C20.9869 14.8012 20.9988 14.7253 21.0047 14.7C21.0225 14.6178 20.9394 14.5609 20.8741 14.6051L18.9442 16.0216C18.9204 16.0406 18.9085 16.0722 18.9085 16.1038C18.9085 16.1228 18.9085 16.1354 18.9085 16.1544C18.9085 16.2239 18.9857 16.2682 19.0392 16.2239C19.0451 16.2239 20.886 14.877 20.9335 14.8391ZM20.69 15.2312C20.1853 15.5979 18.9857 16.4769 18.9382 16.5148C18.8788 16.5591 18.8551 16.635 18.8492 16.6539C18.8254 16.7361 18.9085 16.8057 18.9739 16.7551C18.9739 16.7551 20.5891 15.5726 20.6722 15.5157C20.7553 15.4588 20.7969 15.3766 20.8088 15.345C20.8444 15.2564 20.7553 15.1806 20.69 15.2312ZM21.0225 14.2953C21.0582 14.27 21.076 14.2384 21.0819 14.1941C21.0819 14.1688 21.0819 14.1625 21.0879 14.1372C21.0938 14.0613 21.0107 14.0171 20.9572 14.0613L18.8848 15.5853C18.8551 15.6042 18.8432 15.6422 18.8492 15.6801C18.8551 15.6991 18.8551 15.7181 18.861 15.7307C18.8729 15.7939 18.9442 15.8192 18.9917 15.7876L21.0225 14.2953ZM21.076 13.6946C21.076 13.6693 21.076 13.6693 21.0701 13.6503C21.0641 13.5807 20.9929 13.5491 20.9394 13.5871C20.5237 13.8969 19.057 14.9719 18.7541 15.1932C18.7245 15.2185 18.7126 15.2628 18.7245 15.3007C18.7304 15.3197 18.7363 15.3387 18.7423 15.3576C18.7601 15.4145 18.8254 15.4335 18.867 15.4019L21.0107 13.8274C21.0641 13.7894 21.0819 13.7451 21.076 13.6946ZM18.7898 16.0975C18.7779 15.8761 18.7245 15.6232 18.6116 15.326C18.6057 15.307 18.5938 15.2817 18.5879 15.2564C18.475 14.9656 18.1959 14.3332 17.6912 14.3332C17.5487 14.3332 17.4121 14.3838 17.2815 14.4787L15.5594 15.7497C15.3931 15.8761 15.3218 16.1038 15.3931 16.3061C15.3931 16.3061 15.9454 17.8807 16.0285 18.1273C16.1116 18.3739 16.4145 18.5573 16.6995 18.3549C16.8955 18.2095 18.3385 17.1598 18.3385 17.1598C18.5819 16.9764 18.8254 16.6602 18.7898 16.0975ZM21.0047 13.2772C20.9988 13.2519 20.9929 13.233 20.9869 13.2077C20.9691 13.1507 20.9038 13.1255 20.8563 13.1634L18.6057 14.8265C18.5701 14.8517 18.5582 14.9023 18.5819 14.9403C18.5879 14.9592 18.5997 14.9782 18.6057 14.9909C18.6294 15.0415 18.6888 15.0541 18.7304 15.0225L20.975 13.3657C20.9988 13.3531 21.0166 13.3088 21.0047 13.2772ZM20.8563 12.8788C20.8444 12.8599 20.8325 12.8346 20.8206 12.8156C20.7969 12.7713 20.7375 12.7587 20.7019 12.784L18.4038 14.4913C18.3622 14.5229 18.3563 14.5798 18.386 14.6178C18.3978 14.6368 18.4097 14.6557 18.4216 14.6684C18.4454 14.7063 18.4988 14.7126 18.5344 14.6873L20.8266 12.9927C20.8682 12.9674 20.88 12.9168 20.8563 12.8788ZM20.6366 12.5311C20.6187 12.5121 20.6009 12.4931 20.5831 12.4741C20.5534 12.4425 20.5119 12.4425 20.4762 12.4678L18.1306 14.2068C18.0831 14.2447 18.0831 14.3206 18.1306 14.3522C18.1484 14.3648 18.1663 14.3775 18.1841 14.3965C18.2138 14.4218 18.2553 14.4218 18.285 14.3965L20.6247 12.6638C20.6603 12.6386 20.6663 12.5753 20.6366 12.5311ZM20.3278 12.2528C20.304 12.2339 20.2803 12.2212 20.2506 12.2022C20.2209 12.1833 20.1853 12.1896 20.1615 12.2086L17.6971 14.0424C17.6318 14.0929 17.6615 14.2004 17.7387 14.2068C17.7684 14.2068 17.7803 14.2131 17.8159 14.2194C17.8515 14.2257 17.8812 14.2257 17.9109 14.2004L20.3278 12.4046C20.3812 12.3666 20.3812 12.2908 20.3278 12.2528ZM13.3028 17.3938L13.3266 17.4633C13.3444 17.5202 13.4097 17.5392 13.4572 17.5076L15.209 16.205C15.2328 16.186 15.2446 16.1607 15.2446 16.1291C15.2446 16.0848 15.2506 16.0342 15.2625 15.99C15.2743 15.9331 15.215 15.8888 15.1734 15.9267L13.3385 17.2926C13.3088 17.3116 13.291 17.3558 13.3028 17.3938ZM13.4275 17.7732L13.4454 17.8364C13.4632 17.8933 13.5285 17.9123 13.576 17.8807L15.2981 16.6033C15.3278 16.578 15.3397 16.5401 15.3278 16.4958C15.3218 16.4769 15.3159 16.4516 15.304 16.4326C15.2862 16.3757 15.2209 16.3567 15.1793 16.3883L13.4572 17.6657C13.4275 17.6973 13.4157 17.7352 13.4275 17.7732ZM13.5522 18.1589L13.5701 18.2158C13.5879 18.2727 13.6532 18.2917 13.6948 18.2601L15.4287 16.9764C15.4584 16.9511 15.4703 16.9069 15.4584 16.8689L15.4347 16.812C15.4169 16.7551 15.3515 16.7361 15.31 16.7677L13.5819 18.0577C13.5522 18.0767 13.5404 18.121 13.5522 18.1589ZM13.677 18.5446L13.6948 18.5952C13.7126 18.6521 13.7779 18.6711 13.8195 18.6395L15.5653 17.3558C15.595 17.3305 15.6069 17.2863 15.595 17.2483L15.5772 17.1914C15.5594 17.1345 15.4941 17.1155 15.4525 17.1472L13.7126 18.4308C13.677 18.4624 13.6651 18.5067 13.677 18.5446ZM13.7957 18.924L13.8135 18.9746C13.8313 19.0315 13.8967 19.0505 13.9382 19.0189L15.69 17.7289C15.7197 17.7036 15.7316 17.6593 15.7197 17.6214L15.7019 17.5708C15.6841 17.5139 15.6188 17.4949 15.5772 17.5266L13.8254 18.8165C13.8017 18.8482 13.7838 18.8861 13.7957 18.924ZM13.9204 19.3098L13.9323 19.354C13.9501 19.4109 14.0154 19.4299 14.057 19.3983L15.8207 18.102C15.8503 18.0767 15.8682 18.0324 15.8503 17.9945L15.8325 17.9502C15.8147 17.8933 15.7494 17.8743 15.7078 17.906L13.9442 19.2023C13.9204 19.2339 13.9085 19.2718 13.9204 19.3098ZM14.0451 19.6955L14.057 19.7334C14.0748 19.7903 14.1401 19.8093 14.1817 19.7777L15.981 18.4624C16.0226 18.4308 16.0285 18.3739 15.9988 18.336C15.9929 18.3233 15.9869 18.317 15.975 18.3043C15.9513 18.2664 15.8979 18.2537 15.8622 18.279L14.0689 19.5943C14.0451 19.6133 14.0332 19.6576 14.0451 19.6955ZM14.1698 20.0812L14.1817 20.1128C14.1995 20.1697 14.2648 20.1887 14.3064 20.1571L16.3551 18.6584C16.3967 18.6268 16.3848 18.5573 16.3313 18.5446C16.3017 18.5383 16.272 18.5257 16.2482 18.5193C16.2245 18.5067 16.1948 18.513 16.171 18.5257L14.1995 19.9674C14.1698 19.999 14.1579 20.0433 14.1698 20.0812ZM14.2886 20.4606L14.3005 20.4922C14.3183 20.5492 14.3836 20.5681 14.4252 20.5365C15.1556 20.0053 20.0665 16.4326 20.1853 16.3441C20.3159 16.2492 20.4406 16.0848 20.4822 16.0089C20.5178 15.952 20.4525 15.8825 20.399 15.9204L14.3183 20.3595C14.2945 20.3847 14.2767 20.4227 14.2886 20.4606ZM14.4133 20.8464L14.4192 20.8716C14.437 20.9286 14.5024 20.9475 14.5439 20.9159L19.8943 17.0333C19.918 17.0144 19.9299 16.9891 19.9299 16.9638C19.9299 16.9322 19.9359 16.9005 19.9418 16.8752C19.9537 16.8183 19.8943 16.7804 19.8527 16.812L14.443 20.7515C14.4133 20.7641 14.4014 20.8084 14.4133 20.8464ZM14.538 21.2321L14.5439 21.2511C14.5617 21.308 14.6271 21.3269 14.6686 21.2953L19.9952 17.438C20.0309 17.4127 20.0427 17.3558 20.019 17.3179C20.013 17.3116 20.0071 17.3052 20.0071 17.2926C19.9834 17.2483 19.9299 17.2357 19.8883 17.2673L14.5677 21.1309C14.538 21.1499 14.5261 21.1941 14.538 21.2321ZM22.6615 19.7018C22.6199 19.6639 22.5784 19.6828 22.5487 19.7018L20.4406 21.2005C20.405 21.2258 20.3931 21.289 20.4287 21.3206C20.4584 21.3459 20.494 21.3522 20.5237 21.3333L22.6496 19.822C22.6912 19.7967 22.6971 19.7398 22.6615 19.7018ZM20.6959 21.4977C20.6603 21.523 20.6544 21.5799 20.6841 21.6178C20.7138 21.6558 20.7613 21.6431 20.791 21.6241L22.9465 20.1002C22.9881 20.0686 22.994 20.0117 22.9584 19.9737C22.9168 19.9358 22.8753 19.9611 22.8456 19.98L20.6959 21.4977ZM22.3587 19.4299C22.323 19.3983 22.2755 19.4109 22.2518 19.4299L20.1734 20.9033C20.1378 20.9286 20.1318 20.9918 20.1615 21.0234C20.1912 21.0613 20.2387 21.055 20.2684 21.0361L22.3468 19.5627C22.3883 19.5311 22.3943 19.4678 22.3587 19.4299ZM22.0617 19.1643L22.0499 19.1517C22.0261 19.1264 21.9905 19.1264 21.9608 19.1454L19.924 20.5997C19.8824 20.6314 19.8765 20.6883 19.9121 20.7262C19.9477 20.7641 19.9893 20.7578 20.0249 20.7325L22.0558 19.2845C22.0974 19.2655 22.0974 19.2023 22.0617 19.1643ZM21.7648 18.9051L21.753 18.8924C21.7292 18.8671 21.6936 18.8671 21.6639 18.8861L19.6686 20.3089C19.6271 20.3405 19.6211 20.3974 19.6568 20.4353C19.6924 20.4733 19.7399 20.4669 19.7696 20.448L21.7589 19.0252C21.8005 18.9999 21.8005 18.9367 21.7648 18.9051ZM21.4679 18.6395L21.4501 18.6205C21.4263 18.5952 21.3907 18.5952 21.361 18.6142L19.4073 20.0117C19.3658 20.0433 19.3598 20.1002 19.3955 20.1381C19.4311 20.1761 19.4786 20.1761 19.5142 20.1508L21.462 18.7533C21.5035 18.7343 21.5035 18.6711 21.4679 18.6395ZM21.171 18.3739L21.1473 18.3549C21.1235 18.3296 21.0879 18.3296 21.0582 18.3486L19.1461 19.7208C19.1045 19.7524 19.0986 19.8093 19.1342 19.8473L19.1461 19.8599C19.1758 19.8915 19.2173 19.8978 19.247 19.8725L21.1651 18.5004C21.2066 18.4687 21.2066 18.4055 21.171 18.3739ZM20.8741 18.1083L20.8503 18.083C20.8266 18.0577 20.791 18.0577 20.7613 18.0767L18.8907 19.4236C18.8492 19.4552 18.8432 19.5121 18.8788 19.5501L18.8907 19.5627C18.9204 19.5943 18.962 19.6006 18.9917 19.5753L20.8682 18.2285C20.9097 18.2095 20.9157 18.1463 20.8741 18.1083ZM20.5772 17.8427L20.5475 17.8174C20.5237 17.7921 20.4822 17.7921 20.4584 17.8111L18.6354 19.1264C18.5938 19.158 18.5879 19.2212 18.6235 19.2655C18.6294 19.2718 18.6294 19.2718 18.6354 19.2781C18.6651 19.3098 18.7066 19.3161 18.7423 19.2908L20.5712 17.9692C20.6128 17.9439 20.6187 17.8807 20.5772 17.8427ZM20.2862 17.5835L20.2565 17.5582C20.2328 17.5329 20.1912 17.5329 20.1674 17.5518L18.2494 18.943C18.2078 18.9746 18.2197 19.0442 18.2731 19.0568C18.2969 19.0631 18.3266 19.0695 18.3444 19.0758C18.3682 19.0821 18.3978 19.0821 18.4157 19.0631L20.2803 17.7163C20.3218 17.6783 20.3218 17.6151 20.2862 17.5835ZM14.6627 21.6115L14.6686 21.6241C14.6865 21.681 14.7518 21.7 14.7933 21.6684C15.1496 21.4091 16.4442 20.4733 16.6698 20.3089C16.6936 20.2962 16.7055 20.2709 16.7055 20.2393C16.7055 20.214 16.7114 20.1887 16.7173 20.1634C16.7292 20.1065 16.6698 20.0686 16.6283 20.1002L14.6924 21.5103C14.6627 21.5356 14.6508 21.5735 14.6627 21.6115ZM14.7815 21.9972L14.7874 22.0162C14.8052 22.0668 14.8646 22.0921 14.9062 22.0605L16.747 20.7325C16.7767 20.7072 16.7945 20.663 16.7767 20.625L16.7589 20.5808C16.747 20.5428 16.6995 20.5302 16.6698 20.5492L14.8052 21.896C14.7815 21.9213 14.7696 21.9593 14.7815 21.9972ZM14.9121 22.3956C14.9299 22.4462 14.9893 22.4715 15.0309 22.4399L16.8777 21.1119C16.9074 21.0866 16.9252 21.0424 16.9074 21.0044L16.8955 20.9665C16.8836 20.9286 16.8361 20.9159 16.8064 20.9349L14.9477 22.2754C14.918 22.2944 14.8943 22.3387 14.9121 22.3956ZM15.0309 22.775C15.0427 22.8256 15.1081 22.8509 15.1496 22.8193L17.0024 21.4913C17.0321 21.466 17.0617 21.4344 17.038 21.3775C17.0142 21.3206 16.9608 21.308 16.9192 21.3333L15.0665 22.6612C15.0368 22.6801 15.019 22.7181 15.0309 22.775ZM15.1556 23.1544C15.1734 23.205 15.2328 23.2303 15.2743 23.1987L17.1389 21.8644C17.1686 21.8391 17.1924 21.8012 17.1746 21.7506C17.1508 21.6937 17.0974 21.681 17.0558 21.7063L15.1912 23.0406C15.1615 23.0659 15.1378 23.0975 15.1556 23.1544ZM15.2743 23.5275C15.2922 23.5844 15.3515 23.6034 15.3931 23.5717L17.2636 22.2375C17.2933 22.2122 17.323 22.1806 17.3052 22.13C17.2874 22.0731 17.228 22.0604 17.1864 22.0857L15.3278 23.42C15.2922 23.439 15.2565 23.4769 15.2743 23.5275ZM15.399 23.9195C15.4169 23.9701 15.4644 23.9828 15.5059 23.9575L17.4062 22.6043C17.4359 22.5853 17.4537 22.541 17.4359 22.4968C17.418 22.4462 17.3646 22.4335 17.329 22.4588L15.4347 23.812C15.405 23.831 15.3872 23.8753 15.399 23.9195ZM15.5237 24.2989C15.5416 24.3432 15.5891 24.3622 15.6306 24.3369L17.5368 22.9773C17.5665 22.9584 17.5843 22.9204 17.5665 22.8698C17.5487 22.8256 17.4952 22.8066 17.4596 22.8319L15.5534 24.1914C15.5297 24.2167 15.5059 24.2547 15.5237 24.2989ZM15.6425 24.6783C15.6544 24.7226 15.7078 24.7416 15.7494 24.7163L17.6674 23.3568C17.6971 23.3378 17.715 23.3062 17.7031 23.2556C17.6853 23.2113 17.6378 23.1923 17.5962 23.2176L15.6841 24.5772C15.6544 24.6025 15.6306 24.6341 15.6425 24.6783ZM15.7672 25.0578C15.7791 25.102 15.8325 25.121 15.8741 25.0957L17.804 23.7298C17.8337 23.7109 17.8515 23.6792 17.8397 23.635C17.8278 23.5844 17.7743 23.5654 17.7328 23.597L15.8147 24.9566C15.7791 24.9819 15.7494 25.0135 15.7672 25.0578ZM16.652 24.9376C16.652 24.8807 16.6104 24.868 16.5689 24.8997C16.5451 24.9123 15.9988 25.3044 15.9572 25.336C15.9157 25.3676 15.886 25.4182 15.9038 25.4688C15.9216 25.513 15.9572 25.513 16.0107 25.4751C16.0701 25.4372 16.5332 25.1083 16.5748 25.0767C16.6223 25.0325 16.652 25.0008 16.652 24.9376ZM16.557 25.3802C16.5332 25.3929 16.0998 25.7027 16.0582 25.728C16.0226 25.7533 15.9988 25.7913 16.0285 25.8292C16.0522 25.8671 16.1116 25.8608 16.1413 25.8419C16.1651 25.8229 16.5154 25.5763 16.5629 25.5447C16.6104 25.513 16.652 25.4814 16.652 25.4119C16.652 25.3486 16.5986 25.3486 16.557 25.3802ZM18.3147 23.9891C18.285 24.0081 17.2458 24.7416 17.1983 24.7795C17.1449 24.8175 17.1211 24.8554 17.1389 24.8997C17.1508 24.9376 17.1983 24.9503 17.2458 24.9186C17.4655 24.7795 17.9347 24.476 18.0356 24.4634C18 24.5456 17.5427 24.906 17.3468 25.0514C17.2933 25.0894 17.2518 25.1273 17.2577 25.1779C17.2636 25.2222 17.2993 25.2601 17.3646 25.2158C17.6734 24.9945 18.5701 24.3685 18.6116 24.3369C18.6591 24.3053 18.6769 24.242 18.6116 24.1788C18.5641 24.1345 18.4216 23.9891 18.4216 23.9891C18.3978 23.9638 18.3503 23.9638 18.3147 23.9891ZM18.4335 19.8093L18.2375 19.588C18.2138 19.5564 18.1663 19.5501 18.1366 19.5753L17.2221 20.233C17.1924 20.252 17.1805 20.2899 17.1983 20.3215C17.2161 20.3531 17.2577 20.3721 17.2993 20.3531C17.4537 20.2709 17.715 20.0875 17.8753 20.0433C17.7981 20.1697 17.4834 20.4417 17.4834 20.4417C17.4537 20.4606 17.4418 20.5112 17.4596 20.5428C17.4893 20.5934 17.5487 20.5681 17.5902 20.5365L18.4216 19.9358C18.4632 19.9105 18.4691 19.8473 18.4335 19.8093ZM23.5641 20.2899C23.4988 20.3342 20.8385 22.2122 20.8385 22.2122C20.8088 22.2312 20.791 22.2818 20.8266 22.3134C20.8622 22.345 20.9275 22.326 20.981 22.2944C21.0344 22.2628 21.4501 21.9782 21.6164 21.9466C21.5689 22.0352 21.1651 22.364 21.1294 22.3956C21.0938 22.4272 21.0819 22.4715 21.1116 22.5094C21.1413 22.541 21.1948 22.5284 21.2304 22.5031C21.2304 22.5031 23.8788 20.6377 23.9323 20.5997C23.9798 20.5681 24.0214 20.5175 23.9917 20.4733C23.962 20.4227 23.8729 20.4669 23.8135 20.4986C23.7541 20.5365 22.9406 21.0803 22.7803 21.1246C22.8753 20.9791 23.6769 20.3911 23.7244 20.3531C23.7719 20.3215 23.7838 20.2646 23.7541 20.2393C23.7126 20.2077 23.6235 20.2456 23.5641 20.2899ZM21.8123 15.1047C21.7767 15.0857 21.7292 15.1047 21.7114 15.1553C21.652 15.3387 21.5807 15.5031 21.5035 15.5726C21.557 15.2817 21.6282 14.9466 21.6461 14.6873C21.652 14.6431 21.6282 14.6051 21.5926 14.5925C21.5629 14.5862 21.5214 14.6051 21.5095 14.6494C21.367 15.4525 20.9929 16.2492 20.4347 16.9258C20.4109 16.9574 20.405 17.0144 20.4406 17.046C20.4762 17.0776 20.5297 17.0397 20.5534 17.0144C20.7316 16.7994 20.981 16.4705 21.1591 16.2998C21.1354 16.4705 20.8741 16.9195 20.6841 17.1408C20.6722 17.1598 20.6484 17.223 20.69 17.2546C20.7375 17.2926 20.785 17.242 20.7969 17.2294C21.3254 16.5844 21.6817 15.8698 21.848 15.2122C21.8658 15.1616 21.848 15.1237 21.8123 15.1047ZM27.7565 17.2357C29.8171 15.756 30.88 13.0559 30.0784 11.3422C30.0784 11.3422 27.1983 5.30338 27.1746 5.25279C27.1508 5.20221 27.0855 5.18956 27.0439 5.22118C27.0024 5.25279 24.9477 6.78938 24.9477 6.78938C24.918 6.81468 24.9062 6.85894 24.924 6.89688C24.924 6.89688 27.4299 12.4678 27.7624 13.2077C28.095 13.9475 27.8575 14.9656 27.0617 15.541C26.2838 16.1038 25.4525 15.9141 25.1021 15.1426C24.9774 14.8707 22.418 8.86979 22.4002 8.8192C22.3824 8.76862 22.329 8.75597 22.2815 8.78759C22.2577 8.80656 20.1674 10.3684 20.1674 10.3684C20.1378 10.3937 20.1259 10.4317 20.1378 10.4696L20.7435 11.9619C20.7613 11.9999 20.7494 12.0505 20.7138 12.0758C20.6722 12.1074 20.6366 12.1011 20.5891 12.0631C20.2387 11.7849 19.829 11.6521 19.3717 11.6521C18.7957 11.6521 18.1603 11.8734 17.5724 12.3034L12.5962 16.0279C12.5665 16.0469 12.5546 16.0911 12.5665 16.1228L15.6841 25.8292C15.696 25.8671 15.7316 25.8924 15.7731 25.8924H15.791C15.8444 25.8861 15.88 25.8292 15.8622 25.7723L12.7922 16.1797C12.7862 16.1544 12.7922 16.1228 12.8159 16.1101L17.6912 12.4615C18.2435 12.0568 18.8254 11.8418 19.3777 11.8418C19.9715 11.8418 20.4644 12.0884 20.791 12.5311C20.8919 12.6702 20.981 12.8346 21.0522 13.0116C21.1057 13.1507 21.1413 13.3025 21.171 13.4543C21.3432 14.4597 20.9632 15.7181 20.1674 16.6666C20.0902 16.7614 20.0487 16.8879 20.0546 17.0144C20.0606 17.1408 20.1199 17.261 20.2149 17.3432L23.1781 19.9864C23.19 19.999 23.2019 20.018 23.2019 20.037C23.2019 20.0559 23.19 20.0749 23.1781 20.0875L20.7613 21.7949C20.7375 21.8138 20.7078 21.8075 20.6841 21.7822L18.5107 19.3224C18.4275 19.2276 18.3088 19.1706 18.1841 19.1706C18.095 19.1706 18.0059 19.1959 17.9347 19.2529L17.0202 19.9105C16.848 20.0306 16.7826 20.2646 16.8539 20.4669L17.9881 23.6919C18 23.7172 17.9881 23.7488 17.9644 23.7678L16.9667 24.4697C16.842 24.5582 16.7648 24.7036 16.7648 24.868V25.6711C16.7648 25.7217 16.8064 25.766 16.8598 25.7597H16.8777C16.9192 25.7533 16.9549 25.7154 16.9549 25.6711V24.8744C16.9549 24.7795 16.9964 24.6973 17.0677 24.6467L18.1722 23.8689C18.2019 23.85 18.2138 23.8057 18.2019 23.7678L17.0261 20.3974C16.9845 20.2772 17.0261 20.1445 17.1211 20.0749L18.0356 19.4173C18.1425 19.3414 18.2791 19.3603 18.3682 19.4552L20.6306 22.0415C20.6544 22.0731 20.7019 22.0794 20.7316 22.0541L23.4572 20.1318C23.481 20.1192 23.4929 20.0939 23.4929 20.0686C23.4929 20.0433 23.4869 20.018 23.4632 19.999L20.3278 17.1977C20.2684 17.1408 20.2328 17.0586 20.2387 16.9701C20.2446 16.9069 20.2684 16.8436 20.31 16.793C20.975 15.9963 21.3788 14.9592 21.3967 14.0234C21.3967 13.9475 21.4263 13.9222 21.4679 13.9096C21.5095 13.9032 21.5451 13.9159 21.5689 13.9665C21.6045 14.055 22.4477 16.1291 22.6793 16.6919C22.905 17.2546 23.3622 18.0008 24.2173 18.2601C25.1912 18.5636 26.4263 18.1968 27.7565 17.2357ZM30.8147 13.3088C30.8206 13.2266 30.7078 13.2203 30.6959 13.2962C30.6009 14.2257 30.2684 15.1553 29.9537 15.4019C30.2624 14.7443 30.4703 14.1119 30.5534 13.5112C30.5653 13.429 30.4525 13.41 30.4406 13.4922C30.0843 15.345 28.7957 16.7235 27.8575 17.3938C26.9727 18.0324 26.1116 18.4118 25.3456 18.5193C25.2743 18.532 25.2803 18.6458 25.3575 18.6458C26.2185 18.6079 27.2042 18.0514 28.0772 17.5518C27.9822 17.7036 27.6199 17.9629 27.1627 18.2158C27.0974 18.2537 27.1389 18.3612 27.2102 18.3296C27.5605 18.1842 27.905 17.9945 28.2316 17.7542C29.7696 16.6476 30.7494 14.8581 30.8147 13.3088ZM9.74584 30.2809C9.74584 31.0903 10.3337 31.7985 11.0404 31.7985C11.7233 31.7985 11.9964 31.1599 11.9964 30.6603C11.9964 30.224 11.7114 29.8888 11.4264 29.8446C11.5926 30.0153 11.747 30.1987 11.747 30.5781C11.747 30.9891 11.5214 31.476 10.9691 31.476C10.4347 31.476 9.94774 30.8879 9.94774 30.2809C9.94774 29.7877 10.0843 29.5094 10.209 29.2881C9.98337 29.364 9.74584 29.7687 9.74584 30.2809ZM15.0606 31.6341C15.3159 31.6151 15.6247 31.5709 15.7375 31.5076C15.6425 31.4697 15.31 31.4444 15.0368 31.4634C14.7043 31.4887 14.4608 31.5329 14.3302 31.6088C14.443 31.6468 14.728 31.6594 15.0606 31.6341ZM27.6496 17.0713C26.652 17.7858 25.7019 18.1652 24.9002 18.1652C23.962 18.1652 23.2731 17.6467 22.8456 16.616L22.1092 14.8012L21.9608 14.4344L20.3693 10.5139C20.3575 10.4886 20.3693 10.457 20.3872 10.438C20.3872 10.438 22.1924 9.09111 22.2221 9.06582C22.2518 9.04685 22.2933 9.05317 22.3111 9.09111C22.3171 9.10376 24.4964 14.2068 24.918 15.1869C25.3634 16.2303 26.4263 16.2492 27.1686 15.6991C27.9287 15.13 28.38 14.0866 27.899 13.0369C27.6556 12.5058 25.1556 6.94115 25.1556 6.94115C25.1437 6.91585 25.1496 6.87791 25.1734 6.85894C25.1734 6.85894 26.9727 5.51838 27.0023 5.49308C27.032 5.46779 27.0736 5.48044 27.0914 5.51838C27.1033 5.54367 29.9121 11.4308 29.9121 11.4308C30.6662 13.0622 29.633 15.6422 27.6496 17.0713ZM30.0249 13.0243C30.0308 12.9737 29.9774 12.9358 29.9358 12.9674L28.2316 14.1878C28.2137 14.2004 28.2019 14.2257 28.1959 14.2447C28.19 14.27 28.19 14.289 28.1841 14.3143C28.1722 14.3712 28.2316 14.4091 28.2731 14.3775L29.9833 13.1571C30.0012 13.1444 30.019 13.1191 30.019 13.0938C30.019 13.0685 30.019 13.0432 30.0249 13.0243ZM29.9477 12.4552L28.2494 13.6756C28.2256 13.6946 28.2078 13.7262 28.2137 13.7578C28.2137 13.7768 28.2137 13.7957 28.2197 13.8147C28.2197 13.8653 28.2731 13.8906 28.3088 13.8653L30.0071 12.6512C30.0308 12.6322 30.0487 12.6069 30.0427 12.5753C30.0427 12.55 30.0427 12.5311 30.0427 12.5058C30.0368 12.4552 29.9833 12.4299 29.9477 12.4552ZM29.8883 11.9936C29.5914 12.2086 28.4275 13.0433 28.1662 13.233C28.1366 13.2519 28.1247 13.2962 28.1366 13.3341C28.1425 13.3531 28.1484 13.3657 28.1484 13.3847C28.1603 13.429 28.2078 13.4416 28.2375 13.4227L29.9537 12.1896C29.9833 12.1706 29.9952 12.1327 29.9893 12.1011C29.9833 12.0821 29.9833 12.0568 29.9774 12.0378C29.9715 11.9936 29.924 11.9683 29.8883 11.9936ZM25.4703 7.11188L27.0677 5.91675C27.1033 5.89146 27.1152 5.84087 27.0914 5.80293L27.0558 5.73337C27.032 5.68279 26.9727 5.67014 26.9311 5.70176L25.3396 6.89056C25.304 6.91585 25.2921 6.96012 25.31 7.00438L25.3396 7.07394C25.3693 7.12453 25.4287 7.1435 25.4703 7.11188ZM25.6366 7.47864L27.2399 6.28351C27.2755 6.25822 27.2874 6.20763 27.2696 6.16969L27.228 6.08116C27.2042 6.03057 27.1449 6.01793 27.1033 6.04954L25.5059 7.24467C25.4703 7.26996 25.4584 7.31423 25.4762 7.35849L25.5178 7.44702C25.5356 7.49128 25.595 7.51025 25.6366 7.47864ZM25.8028 7.8454L27.4121 6.64395C27.4477 6.61865 27.4596 6.56806 27.4418 6.53012L27.4002 6.4416C27.3765 6.39101 27.3171 6.37836 27.2755 6.40998L25.6662 7.61143C25.6306 7.63672 25.6187 7.68099 25.6366 7.72525L25.6722 7.80746C25.7019 7.86437 25.7613 7.87701 25.8028 7.8454ZM25.9691 8.21848L27.5902 7.01703C27.6259 6.99173 27.6377 6.94115 27.6199 6.90321L27.5784 6.821C27.5546 6.77041 27.4952 6.75777 27.4537 6.78938L25.8385 7.99084C25.8028 8.01613 25.7909 8.06039 25.8088 8.10466L25.8444 8.18686C25.8681 8.23112 25.9275 8.2501 25.9691 8.21848ZM26.1354 8.58524L27.7624 7.37746C27.7981 7.35217 27.8099 7.30158 27.7921 7.26364L27.7565 7.18776C27.7328 7.13717 27.6734 7.12453 27.6318 7.15614L26.0047 8.36392C25.9691 8.38921 25.9572 8.43347 25.975 8.47774L26.0107 8.55362C26.0344 8.59788 26.0938 8.61685 26.1354 8.58524ZM26.3016 8.952L27.9406 7.74422C27.9762 7.71893 27.9881 7.66834 27.9703 7.6304L27.9347 7.56084C27.9109 7.51025 27.8515 7.49761 27.8099 7.52923L26.171 8.737C26.1354 8.76229 26.1235 8.80656 26.1413 8.85082L26.171 8.92038C26.2007 8.97097 26.2601 8.98361 26.3016 8.952ZM26.4679 9.32508L28.1128 8.11098C28.1484 8.08569 28.1603 8.0351 28.1425 7.99716L28.1128 7.9276C28.089 7.87701 28.0297 7.86437 27.9881 7.89598L26.3432 9.11008C26.3076 9.13537 26.2957 9.17964 26.3135 9.2239L26.3432 9.29346C26.367 9.33772 26.4263 9.35669 26.4679 9.32508ZM26.6342 9.69184L28.285 8.47774C28.3206 8.45244 28.3325 8.40186 28.3147 8.36392L28.285 8.30068C28.2613 8.2501 28.2019 8.23745 28.1603 8.26907L26.5095 9.48316C26.4738 9.50846 26.462 9.55272 26.4798 9.59698L26.5095 9.66022C26.5332 9.71081 26.5867 9.72345 26.6342 9.69184ZM26.8004 10.0649L28.4632 8.8445C28.4988 8.8192 28.5107 8.76862 28.4928 8.73068L28.4632 8.67376C28.4394 8.62318 28.38 8.61053 28.3385 8.64215L26.6757 9.86257C26.6401 9.88786 26.6282 9.93845 26.6461 9.97639L26.6698 10.0333C26.6995 10.0776 26.7529 10.0965 26.8004 10.0649ZM26.9667 10.4317L28.6354 9.21126C28.671 9.18596 28.6829 9.13537 28.6651 9.09743L28.6413 9.04052C28.6175 8.98994 28.5582 8.97729 28.5166 9.00891L26.848 10.2293C26.8123 10.2546 26.8004 10.3052 26.8183 10.3431L26.842 10.3937C26.8658 10.4443 26.9192 10.4633 26.9667 10.4317ZM27.133 10.7984L28.8135 9.57169C28.8491 9.5464 28.861 9.49581 28.8432 9.45787L28.8194 9.40728C28.7957 9.35669 28.7423 9.34405 28.7007 9.37566L27.0261 10.6024C26.9905 10.6277 26.9786 10.6783 26.9964 10.7162L27.0202 10.7668C27.0261 10.8174 27.0855 10.8301 27.133 10.7984ZM27.2933 11.1715L28.9798 9.94477C29.0154 9.91948 29.0273 9.86889 29.0095 9.83095L28.9857 9.78669C28.962 9.7361 28.9026 9.72345 28.861 9.75507L27.1805 10.9755C27.1449 11.0008 27.133 11.0514 27.1508 11.0893L27.1686 11.1336C27.1924 11.1842 27.2518 11.2031 27.2933 11.1715ZM27.4596 11.5383L29.1579 10.3052C29.1936 10.2799 29.2054 10.2293 29.1876 10.1914L29.1698 10.1471C29.1461 10.0965 29.0867 10.0839 29.0451 10.1155L27.3527 11.3486C27.3171 11.3739 27.3052 11.4245 27.323 11.4624L27.3408 11.5003C27.3586 11.5509 27.418 11.5699 27.4596 11.5383ZM27.6259 11.9114L29.3301 10.6783C29.3658 10.653 29.3776 10.6024 29.3598 10.5645L29.342 10.5265C29.3183 10.4759 29.2589 10.4633 29.2173 10.4949L27.513 11.728C27.4774 11.7533 27.4655 11.8039 27.4833 11.8418L27.5012 11.8797C27.5249 11.924 27.5843 11.9367 27.6259 11.9114ZM27.7921 12.2781L29.5023 11.045C29.538 11.0198 29.5499 10.9692 29.532 10.9312L29.5142 10.8996C29.4905 10.849 29.4311 10.8364 29.3895 10.868L27.6793 12.1074C27.6437 12.1327 27.6318 12.1833 27.6496 12.2212L27.6615 12.2528C27.6912 12.2908 27.7506 12.3097 27.7921 12.2781ZM27.9584 12.6449L29.6805 11.4055C29.7161 11.3802 29.728 11.3296 29.7102 11.2917L29.6983 11.26C29.6746 11.2095 29.6211 11.1968 29.5795 11.2284L27.8575 12.4741C27.8218 12.4994 27.8099 12.55 27.8278 12.588L27.8396 12.6133C27.8575 12.6638 27.9168 12.6765 27.9584 12.6449ZM28.1247 13.018L29.8468 11.7786C29.8765 11.7533 29.8943 11.709 29.8765 11.6711C29.8705 11.6521 29.8646 11.6394 29.8586 11.6205C29.8408 11.5762 29.7933 11.5636 29.7577 11.5889L28.0237 12.8472C27.9881 12.8725 27.9762 12.9231 27.994 12.961C28 12.9674 28 12.9737 28.0059 12.98C28.0237 13.0306 28.0831 13.0496 28.1247 13.018ZM28.0594 15.0162C28.0594 15.0162 29.8111 13.7641 29.8468 13.7388C29.8824 13.7135 29.9061 13.6629 29.924 13.5871C29.9358 13.5302 29.8765 13.4922 29.8349 13.5238C29.4192 13.821 28.1128 14.7569 28.0772 14.7822C28.0356 14.8138 28.0059 14.8454 27.9762 14.9276C27.9406 15.0162 28.0059 15.0541 28.0594 15.0162ZM20.6781 10.6909L22.2755 9.49581C22.3111 9.47052 22.323 9.42625 22.3052 9.38831L22.2755 9.31875C22.2518 9.26817 22.1924 9.2492 22.1508 9.28081L20.5534 10.4759C20.5178 10.5012 20.5059 10.5455 20.5237 10.5834L20.5534 10.653C20.5772 10.7036 20.6366 10.7226 20.6781 10.6909ZM20.8325 11.064L22.4358 9.86889C22.4715 9.8436 22.4834 9.79933 22.4655 9.76139L22.4299 9.67287C22.4062 9.62228 22.3468 9.60331 22.3052 9.63492L20.7019 10.8301C20.6663 10.8553 20.6544 10.8996 20.6722 10.9376L20.7078 11.0198C20.7256 11.0767 20.785 11.0956 20.8325 11.064ZM20.981 11.4371L22.5902 10.2356C22.6259 10.2104 22.6377 10.1661 22.6199 10.1282L22.5843 10.0459C22.5606 9.99536 22.5012 9.97639 22.4596 10.008L20.8503 11.2095C20.8147 11.2348 20.8028 11.279 20.8206 11.317L20.8503 11.3992C20.88 11.4497 20.9394 11.4687 20.981 11.4371ZM21.1354 11.8039L22.7506 10.6024C22.7862 10.5771 22.7981 10.5329 22.7803 10.4949L22.7446 10.419C22.7209 10.3684 22.6615 10.3495 22.6199 10.3811L21.0047 11.5825C20.9691 11.6078 20.9572 11.6521 20.975 11.69L21.0047 11.7659C21.0285 11.8228 21.0879 11.8355 21.1354 11.8039ZM21.2838 12.1769L22.9109 10.9755C22.9465 10.9502 22.9584 10.9059 22.9406 10.8617L22.9109 10.7921C22.8872 10.7415 22.8278 10.7226 22.7862 10.7542L21.1651 11.9556C21.1294 11.9809 21.1176 12.0252 21.1354 12.0631L21.1651 12.1327C21.1769 12.1896 21.2423 12.2086 21.2838 12.1769ZM21.4323 12.55L23.0653 11.3422C23.1009 11.317 23.1128 11.2727 23.095 11.2284L23.0653 11.1589C23.0415 11.1083 22.9822 11.0893 22.9406 11.1209L21.3135 12.3287C21.2779 12.354 21.266 12.3983 21.2838 12.4362L21.3135 12.4994C21.3313 12.5627 21.3907 12.5816 21.4323 12.55ZM21.5867 12.9231L23.2256 11.7153C23.2613 11.69 23.2731 11.6458 23.2553 11.6015L23.2256 11.5383C23.2019 11.4877 23.1425 11.4687 23.1009 11.5003L21.462 12.7081C21.4263 12.7334 21.4145 12.7777 21.4323 12.8156L21.456 12.8788C21.4798 12.9358 21.5392 12.9547 21.5867 12.9231ZM21.7351 13.2899L23.38 12.0821C23.4157 12.0568 23.4275 12.0125 23.4097 11.9683L23.386 11.9114C23.3622 11.8608 23.3028 11.8418 23.2613 11.8734L21.6164 13.0875C21.5807 13.1128 21.5689 13.1571 21.5867 13.195L21.6104 13.2519C21.6342 13.3025 21.6936 13.3215 21.7351 13.2899ZM21.8895 13.6629L23.5404 12.4488C23.576 12.4236 23.5879 12.3793 23.5701 12.335L23.5463 12.2781C23.5225 12.2275 23.4632 12.2086 23.4216 12.2402L21.7708 13.4543C21.7351 13.4796 21.7233 13.5238 21.7411 13.5618L21.7648 13.6124C21.7826 13.6756 21.842 13.6946 21.8895 13.6629ZM22.038 14.036L23.6948 12.8219C23.7304 12.7966 23.7423 12.7524 23.7244 12.7081L23.7007 12.6575C23.6769 12.6069 23.6176 12.588 23.576 12.6196L21.9192 13.8337C21.8836 13.859 21.8717 13.9032 21.8895 13.9412L21.9073 13.9918C21.9311 14.0487 21.9964 14.0676 22.038 14.036ZM22.1864 14.4091L23.8551 13.195C23.8907 13.1697 23.9026 13.1255 23.8848 13.0812L23.867 13.0369C23.8432 12.9863 23.7838 12.9674 23.7423 12.999L22.0796 14.2194C22.0439 14.2447 22.032 14.289 22.0499 14.3269L22.0677 14.3712C22.0855 14.4218 22.1449 14.4407 22.1864 14.4091ZM22.3408 14.7759L24.0154 13.5554C24.051 13.5302 24.0629 13.4859 24.0451 13.4416L24.0273 13.4037C24.0035 13.3531 23.9442 13.3341 23.9026 13.3657L22.228 14.5862C22.1924 14.6115 22.1805 14.6557 22.1983 14.6937L22.2161 14.7316C22.2339 14.7885 22.2933 14.8075 22.3408 14.7759ZM22.4893 15.1489L24.1698 13.9285C24.2054 13.9032 24.2173 13.859 24.1995 13.8147L24.1817 13.7768C24.1579 13.7262 24.0986 13.7072 24.057 13.7388L22.3765 14.9592C22.3408 14.9845 22.329 15.0288 22.3468 15.0667L22.3587 15.1047C22.3883 15.1616 22.4477 15.1806 22.4893 15.1489ZM22.6377 15.522L24.3301 14.3016C24.3658 14.2763 24.3776 14.2321 24.3598 14.1878L24.348 14.1562C24.3242 14.1056 24.2648 14.0866 24.2233 14.1182L22.5368 15.345C22.5012 15.3703 22.4893 15.4145 22.5071 15.4525L22.519 15.4841C22.5368 15.5347 22.5962 15.5536 22.6377 15.522ZM22.7921 15.8951L24.4845 14.6684C24.5202 14.6431 24.532 14.5988 24.5142 14.5545L24.5024 14.5293C24.4786 14.4787 24.4192 14.4597 24.3776 14.4913L22.6853 15.7181C22.6496 15.7434 22.6377 15.7876 22.6556 15.8256L22.6674 15.8508C22.6912 15.9078 22.7506 15.9267 22.7921 15.8951ZM22.9406 16.2619L24.6389 15.0351C24.6746 15.0098 24.6864 14.9656 24.6686 14.9213L24.6567 14.9023C24.633 14.8517 24.5736 14.8328 24.532 14.8644L22.8337 16.0911C22.7981 16.1164 22.7862 16.1607 22.804 16.1986L22.81 16.2176C22.8396 16.2745 22.899 16.2935 22.9406 16.2619ZM23.095 16.635L24.7993 15.4082C24.8349 15.3829 24.8468 15.3387 24.829 15.2944C24.829 15.2881 24.823 15.2817 24.823 15.2754C24.7993 15.2248 24.7399 15.2059 24.6983 15.2375L22.994 16.4705C22.9584 16.4958 22.9465 16.5401 22.9644 16.5844L22.9703 16.597C22.994 16.6476 23.0534 16.6666 23.095 16.635ZM23.2672 16.9891L25.019 15.7307C25.0487 15.7117 25.0546 15.6675 25.0309 15.6359C25.0249 15.6232 25.013 15.6169 25.0071 15.6042C24.9774 15.5663 24.9299 15.56 24.8943 15.5853C24.6033 15.7939 23.4513 16.6223 23.1662 16.831C23.1306 16.8563 23.1187 16.9132 23.1425 16.9511C23.1425 16.9574 23.1484 16.9574 23.1484 16.9638C23.1722 17.008 23.2316 17.0207 23.2672 16.9891ZM23.4869 17.3116L25.304 16.0089C25.3396 15.9836 25.3396 15.9331 25.304 15.9078C25.2921 15.9014 25.2803 15.8888 25.2684 15.8825C25.2387 15.8572 25.1971 15.8572 25.1674 15.8761L23.38 17.1598C23.3385 17.1851 23.3325 17.2483 23.3563 17.2863C23.3978 17.3369 23.4513 17.3432 23.4869 17.3116ZM23.7838 17.5835C23.8432 17.5392 25.2862 16.5085 25.69 16.2176C25.7316 16.186 25.7197 16.1228 25.6722 16.1038C25.6544 16.0975 25.6425 16.0911 25.6247 16.0848C25.6009 16.0722 25.5712 16.0785 25.5475 16.0911C25.2862 16.2745 23.6948 17.4191 23.6591 17.4444C23.6176 17.476 23.6057 17.5329 23.6413 17.5771C23.6829 17.6277 23.7304 17.6214 23.7838 17.5835ZM24.1223 17.8174C24.1461 17.7985 26.1888 16.3441 26.2541 16.2998C26.3195 16.2555 26.2779 16.2113 26.2244 16.2113C26.1176 16.2113 26.0582 16.2303 26.0107 16.2619C25.9928 16.2745 24.0095 17.691 24.0095 17.691C23.9679 17.7226 23.9442 17.7732 23.9857 17.8111C24.0332 17.8491 24.0867 17.8427 24.1223 17.8174ZM29.6152 14.3965C29.6746 14.3522 29.6924 14.3016 29.7161 14.2447C29.7399 14.1878 29.6746 14.1372 29.627 14.1688L24.4667 17.8427C24.4252 17.8743 24.3955 17.9249 24.4489 17.9629C24.5024 18.0071 24.5558 17.9818 24.5914 17.9565C24.6092 17.9502 29.5558 14.4407 29.6152 14.3965ZM25.2328 17.9945C25.2506 17.9818 28.9263 15.3766 29.0985 15.2501C29.2767 15.1237 29.3361 15.0288 29.3658 14.9782C29.3955 14.9276 29.3361 14.877 29.2945 14.9087L25.0546 17.9249C25.013 17.9565 25.013 18.0071 25.0665 18.0261C25.1199 18.0451 25.1971 18.0198 25.2328 17.9945ZM28.2909 16.3061C28.4869 16.167 28.5582 16.0848 28.6116 16.0216C28.6651 15.9583 28.6354 15.8572 28.5166 15.9394C28.3978 16.0216 26.2244 17.5582 26.1651 17.6088C26.1057 17.6593 26.0879 17.7163 26.1354 17.7289C26.1829 17.7416 26.3313 17.6846 26.456 17.6024C26.551 17.5392 28.095 16.4453 28.2909 16.3061ZM18.4335 15.3956C18.7185 16.1481 18.6473 16.6855 18.2316 16.9891C18.2316 16.9891 16.6995 18.102 16.5926 18.1842C16.4857 18.2601 16.2779 18.2538 16.2066 18.0514C16.1354 17.8491 15.5712 16.2303 15.5712 16.2303C15.5297 16.1101 15.5712 15.9836 15.6663 15.9078L17.3883 14.6368C17.5309 14.5293 17.6734 14.4976 17.8159 14.5482C17.9762 14.6051 18.2019 14.7759 18.4335 15.3956ZM16.0998 16.401L17.8515 15.1047C17.8872 15.0794 17.9228 15.0604 17.9525 15.0415C18 15.0162 18.0178 14.9466 17.9822 14.9023C17.899 14.7948 17.8218 14.7443 17.7625 14.7253C17.6437 14.6937 17.5546 14.7379 17.4893 14.7885L15.7672 16.0595C15.7375 16.0785 15.7197 16.1228 15.7375 16.1607C15.7553 16.1923 15.8088 16.1986 15.8385 16.1733C15.8741 16.1481 16.7648 15.5347 16.8717 15.5284C16.8242 15.6359 16.0166 16.2745 16.0166 16.2745C15.9869 16.2935 15.9691 16.3441 15.9929 16.3883C16.0166 16.4326 16.0582 16.4326 16.0998 16.401ZM18.2672 15.4651C18.2375 15.3829 18.2078 15.307 18.1781 15.2438C18.1603 15.2059 18.1247 15.1869 18.0891 15.1932C18.0475 15.2059 18 15.2248 17.9525 15.2628L16.2304 16.5338C16.2007 16.5527 16.1888 16.597 16.2007 16.635L16.6104 17.8048C16.6283 17.8617 16.6936 17.8807 16.7351 17.8491L18.1306 16.831C18.475 16.5844 18.5226 16.1354 18.2672 15.4651Z" fill="white"/>
</g>
</g>
<defs>
<clipPath id="clip0_648_261">
<rect width="1440" height="5378" fill="white" transform="translate(-1270 -173)"/>
</clipPath>
<clipPath id="clip1_648_261">
<rect width="23" height="35" fill="white" transform="translate(8 5)"/>
</clipPath>
</defs>
</svg>
