<svg width="19" height="13" viewBox="0 0 19 13" fill="none" xmlns="http://www.w3.org/2000/svg">
<path d="M10.9832 3.91107C10.9832 4.62282 10.9855 5.33417 10.9816 6.04591C10.9804 6.23394 11.014 6.40159 11.1908 6.49991C11.3644 6.59667 11.5261 6.52224 11.6729 6.4294C12.075 6.17596 12.3724 5.8152 12.654 5.44542C13.575 4.23698 14.3157 2.92473 14.9081 1.52984C15.0841 1.1158 15.2332 1.01943 15.6908 1.01943C16.3896 1.01943 17.0879 1.01865 17.7867 1.01943C18.3669 1.02022 18.6477 1.4276 18.4361 1.96738C17.9176 3.29138 17.1465 4.47318 16.3247 5.626C16.1084 5.92958 15.8838 6.22806 15.6928 6.54927C15.4112 7.02285 15.4246 7.15055 15.7904 7.5501C16.5125 8.33744 17.275 9.08797 17.9698 9.90078C18.3657 10.3642 18.6607 10.8863 18.9292 11.4242C19.1305 11.8268 18.8292 12.3212 18.3689 12.3298C17.4727 12.3466 16.5762 12.3392 15.6797 12.3318C15.4578 12.3298 15.2842 12.2193 15.1569 12.0286C14.4375 10.9494 13.5031 10.0723 12.4958 9.26463C12.3107 9.11617 12.0984 9.01041 11.8619 8.95831C11.5641 8.8929 11.3869 9.00414 11.3367 9.29832C11.3237 9.37471 11.3209 9.45383 11.3209 9.53178C11.3193 10.0344 11.3252 10.5373 11.3185 11.0399C11.3086 11.7661 10.7684 12.2785 10.0376 12.3039C8.2944 12.3647 6.81616 11.7011 5.46763 10.6834C4.61145 10.0371 3.89842 9.25249 3.2906 8.37466C2.21533 6.82229 1.24011 5.2147 0.535 3.45864C0.3258 2.93727 0.150213 2.40493 0.026433 1.85653C-0.0910199 1.33555 0.18976 0.985354 0.733128 0.984963C1.41214 0.984179 2.09076 0.984179 2.76977 0.984963C3.16879 0.985354 3.37522 1.12833 3.5085 1.50633C3.8921 2.59648 4.29705 3.67839 4.82816 4.70782C5.20385 5.43602 5.6531 6.11917 6.17986 6.74983C6.35663 6.96135 6.55001 7.15878 6.7956 7.2947C7.12067 7.47489 7.31721 7.38284 7.39987 7.02246C7.45048 6.8031 7.44495 6.58139 7.44495 6.36007C7.44416 5.55705 7.43822 4.75404 7.43427 3.95103C7.43269 3.65646 7.39828 3.36463 7.34648 3.07593C7.29309 2.77784 7.18434 2.5009 6.99886 2.25373C6.82605 2.0234 6.66786 1.78249 6.50216 1.54668C6.4207 1.43073 6.39262 1.30734 6.46657 1.18004C6.53498 1.06252 6.64532 1.01787 6.78255 1.01826C7.96894 1.02022 9.15533 1.01669 10.3417 1.021C10.7249 1.02257 10.98 1.30382 10.982 1.71747C10.9855 2.4488 10.9832 3.18013 10.9832 3.91107Z" fill="#FF4261"/>
</svg>
