<svg width="24" height="18" viewBox="0 0 24 18" fill="none" xmlns="http://www.w3.org/2000/svg">
<path d="M12.3921 17.9301C10.2716 17.8692 8.15044 17.8206 6.02993 17.7419C5.29759 17.7143 4.56279 17.649 3.83778 17.5364C2.51821 17.3315 1.51888 16.3143 1.29905 14.8713C1.11658 13.6755 0.970843 12.4618 0.950636 11.2531C0.918795 9.38959 0.984314 7.52223 1.05779 5.6587C1.0829 5.00509 1.21578 4.34828 1.36274 3.70875C1.66645 2.38553 2.76681 1.45472 4.04292 1.31325C6.85842 1.00085 9.68311 0.97844 12.509 1.00469C14.6203 1.02453 16.7311 1.07575 18.8418 1.1404C19.5637 1.16281 20.2881 1.23323 21.0033 1.34205C22.3033 1.53987 23.324 2.56605 23.5378 3.9757C23.7202 5.18242 23.8476 6.40578 23.8898 7.62657C23.9609 9.67191 23.9694 11.7224 23.7288 13.7607C23.6651 14.2971 23.5739 14.8381 23.4232 15.3547C23.0577 16.6088 22.0088 17.4333 20.7676 17.5703C17.9821 17.8769 15.188 17.8897 12.3921 17.9301ZM9.26428 13.5398C11.9463 12.0866 14.5652 10.6674 17.2436 9.21611C14.5597 7.75141 11.9322 6.31743 9.26428 4.86169C9.26428 7.77189 9.26428 10.6187 9.26428 13.5398Z" fill="#FF4261"/>
</svg>
